<?xml version="1.0" encoding="UTF-8" standalone="no"?>
<svg 
  version="1.1" 
  xmlns="http://www.w3.org/2000/svg" 
  xmlns:xlink="http://www.w3.org/1999/xlink" 
  xmlns:svg="http://www.w3.org/2000/svg"
  xmlns:rdf="http://www.w3.org/1999/02/22-rdf-syntax-ns#"
  xmlns:cc="http://creativecommons.org/ns#"
  xmlns:dc="http://purl.org/dc/elements/1.1/"
  viewBox="0 0 768 768"
  width="768"
  height="768"
>
<style>svg {background-color: white; }</style>"
<metadata id="metadata1">
Created by https://svgstud.io and licensed under CC-BY-SA 4.0 license. Please attribute https://svgstud.io
</metadata>
<metadata id="prompt">
Spaceship game sprite. Designed for a vertically scrolling game.
The ship will be viewed from a top-down view, vector illustration, monochrome
</metadata>
<metadata id="version">
7
</metadata>
<metadata id="metadata2">
<rdf:RDF>
<cc:Work
    rdf:about="">
    <cc:license
    rdf:resource="http://creativecommons.org/licenses/by-sa/4.0/" />
    <dc:creator>
        <cc:Agent>
            <dc:title>https://svgstud.io</dc:title>
        </cc:Agent>
    </dc:creator>
</cc:Work>
<cc:License
    rdf:about="http://creativecommons.org/licenses/by-sa/4.0/">
    <cc:permits
    rdf:resource="http://creativecommons.org/ns#Reproduction" />
    <cc:permits
    rdf:resource="http://creativecommons.org/ns#Distribution" />
    <cc:requires
    rdf:resource="http://creativecommons.org/ns#Notice" />
    <cc:requires
    rdf:resource="http://creativecommons.org/ns#Attribution" />
    <cc:permits
    rdf:resource="http://creativecommons.org/ns#DerivativeWorks" />
    <cc:requires
    rdf:resource="http://creativecommons.org/ns#ShareAlike" />
</cc:License>
</rdf:RDF>
</metadata>
<metadata id="uid">
ed8787383ec27b0e7b64125279b085c58c50e03d9f05003d81125205c950914f
</metadata>
<path stroke="none" fill="black" fill-rule="evenodd" d="M313.50,767.83C304.70,767.74 295.70,767.50 293.50,767.31C291.30,767.11 282.75,766.27 274.50,765.44C266.25,764.61 257.83,763.48 255.78,762.93C252.85,762.15 251.12,760.62 247.64,755.72C245.21,752.30 235.70,737.35 226.51,722.50C217.32,707.65 209.46,695.05 209.04,694.50C208.63,693.95 208.02,692.40 207.69,691.05C207.33,689.61 207.83,686.93 208.90,684.55C209.89,682.32 218.35,668.35 227.69,653.50C237.03,638.65 246.37,623.44 248.45,619.70C250.53,615.96 251.92,612.59 251.55,612.21C251.17,611.84 248.08,614.46 244.68,618.03C241.28,621.61 232.79,630.83 225.81,638.52C218.83,646.21 207.49,658.09 200.62,664.92C188.13,677.34 188.13,677.34 172.31,676.12C160.20,675.18 155.92,674.48 154.00,673.12C152.62,672.14 147.90,665.64 143.50,658.66C139.10,651.69 132.46,641.10 128.75,635.13C125.04,629.16 122.00,623.34 122.00,622.20C122.00,621.05 124.55,616.39 127.67,611.84C130.79,607.29 142.84,590.27 154.46,574.03C166.08,557.79 181.89,535.73 189.60,525.00C197.31,514.27 204.66,503.79 205.93,501.70C207.19,499.61 208.04,497.71 207.81,497.47C207.57,497.24 198.19,494.82 186.94,492.10C175.70,489.37 158.45,484.87 148.62,482.10C138.79,479.33 129.77,476.43 128.59,475.65C127.40,474.87 122.43,468.45 117.55,461.37C112.67,454.29 107.73,447.44 106.58,446.15C105.44,444.86 101.52,442.29 97.87,440.45C94.23,438.61 88.94,434.94 86.13,432.30C83.31,429.66 78.75,424.35 76.00,420.50C73.25,416.65 67.76,408.77 63.81,403.00C59.86,397.23 54.21,389.57 51.27,386.00C48.32,382.43 44.75,377.14 43.33,374.24C41.22,369.94 40.84,367.94 41.18,363.17C41.47,359.18 42.47,355.87 44.38,352.62C45.98,349.88 49.76,345.90 53.33,343.19C56.72,340.61 63.63,334.55 68.68,329.73C73.73,324.90 79.40,320.31 81.27,319.53C83.14,318.75 90.03,317.64 96.59,317.07C103.14,316.49 109.28,316.02 110.24,316.01C111.20,316.00 113.23,314.55 114.74,312.78C116.26,311.01 119.94,306.95 122.93,303.75C125.92,300.55 129.81,297.04 131.59,295.95C133.58,294.72 138.02,293.58 143.16,292.98C147.75,292.45 159.59,291.07 169.47,289.92C179.35,288.78 188.24,287.41 189.21,286.89C190.77,286.05 189.94,284.61 182.24,274.82C177.43,268.71 172.38,262.89 171.00,261.89C169.62,260.90 162.49,258.28 155.14,256.08C147.79,253.88 140.68,251.36 139.33,250.48C137.99,249.60 133.72,244.52 129.85,239.19C125.97,233.86 119.05,224.10 114.45,217.50C109.86,210.90 103.05,200.17 99.31,193.65C95.57,187.13 90.17,179.08 87.30,175.77C83.35,171.21 81.93,168.69 81.43,165.38C81.07,162.98 81.07,159.45 81.43,157.54C81.79,155.62 83.21,152.72 84.59,151.08C85.96,149.44 89.88,146.78 93.30,145.18C96.71,143.57 104.64,140.59 110.92,138.56C117.20,136.54 126.94,133.79 132.55,132.46C138.17,131.14 152.79,128.01 165.06,125.51C184.01,121.65 187.86,120.56 190.76,118.23C192.63,116.73 195.77,114.53 197.73,113.35C199.69,112.16 203.59,110.92 206.39,110.57C209.20,110.23 222.07,109.07 235.00,107.99C247.93,106.91 259.32,106.02 260.33,106.01C261.33,106.01 266.22,101.73 271.20,96.50C276.18,91.28 281.66,86.16 283.38,85.13C285.09,84.10 288.32,82.98 290.55,82.65C292.78,82.31 307.29,82.01 322.80,81.97C344.02,81.91 351.00,81.60 350.98,80.70C350.97,80.04 348.72,76.63 345.98,73.13C343.24,69.63 341.00,66.23 341.00,65.58C341.00,64.93 341.54,63.86 342.20,63.20C342.86,62.54 344.90,62.00 346.74,62.00C348.58,62.00 351.97,61.03 354.29,59.85C358.13,57.88 360.35,57.66 379.73,57.35C400.95,57.01 400.95,57.01 408.23,49.64C412.23,45.58 417.52,41.20 420.00,39.88C424.33,37.59 425.30,37.50 445.50,37.50C461.73,37.50 467.23,37.83 469.71,38.95C472.59,40.26 473.30,40.23 476.59,38.66C479.61,37.22 483.13,36.91 496.62,36.89C505.63,36.88 515.13,37.16 517.75,37.51C520.36,37.85 523.40,38.54 524.50,39.03C525.60,39.53 529.20,40.81 532.50,41.89C535.80,42.97 540.71,45.10 543.42,46.61C546.13,48.12 550.29,51.23 552.67,53.51C556.63,57.30 557.00,58.08 557.00,62.59C557.00,65.44 556.26,68.86 555.25,70.66C554.29,72.38 550.35,76.51 546.50,79.84C542.65,83.17 538.38,87.71 537.02,89.94C535.65,92.17 533.15,94.65 531.45,95.46C529.76,96.26 526.49,97.22 524.19,97.59C521.88,97.95 520.00,98.58 520.00,98.98C520.00,99.38 523.38,99.99 527.50,100.34C531.63,100.69 536.47,101.59 538.27,102.34C540.07,103.09 543.69,105.57 546.33,107.85C548.97,110.13 551.27,112.00 551.45,112.00C551.63,112.00 555.54,112.70 560.14,113.57C564.74,114.43 570.98,115.84 574.00,116.69C577.02,117.55 584.45,120.17 590.51,122.50C596.56,124.83 605.79,128.87 611.01,131.47C616.23,134.07 625.00,138.97 630.50,142.34C636.00,145.72 642.68,150.58 645.35,153.15C649.74,157.38 650.13,158.12 649.50,161.01C648.84,164.02 649.27,164.63 657.41,172.35C663.91,178.50 666.01,181.13 666.01,183.08C666.00,184.97 664.05,187.55 658.75,192.67C654.76,196.53 649.02,201.27 646.00,203.21C642.98,205.15 637.47,208.39 633.77,210.41C630.07,212.43 623.32,217.28 618.77,221.20C614.22,225.12 608.25,229.36 605.50,230.61C602.75,231.86 594.88,234.54 588.00,236.55C576.10,240.04 575.29,240.45 571.00,245.12C567.34,249.10 565.21,250.44 559.59,252.26C555.42,253.61 552.14,255.34 551.30,256.62C550.02,258.60 550.57,259.49 559.57,269.87C569.21,281.00 569.21,281.00 599.17,281.00C629.13,281.00 629.13,281.00 632.43,283.52C634.25,284.90 637.87,288.76 640.49,292.08C643.10,295.41 646.87,301.11 648.87,304.74C652.50,311.34 652.50,311.34 663.50,315.02C669.55,317.05 678.56,320.75 683.52,323.25C688.49,325.75 696.14,330.48 700.52,333.78C704.91,337.07 711.05,342.40 714.16,345.63C717.27,348.86 720.98,353.25 722.41,355.39C723.83,357.53 725.00,360.13 725.00,361.16C725.00,362.20 727.68,365.94 730.97,369.46C734.25,372.99 737.24,377.09 737.61,378.57C737.98,380.05 738.06,398.93 737.78,420.51C737.28,459.75 737.28,459.75 734.39,465.62C732.39,469.69 728.49,474.48 721.73,481.20C716.36,486.53 708.26,493.35 703.73,496.34C699.20,499.33 692.71,503.17 689.31,504.87C685.91,506.58 678.70,509.73 673.30,511.88C667.89,514.03 661.45,516.33 658.99,516.98C656.52,517.63 653.54,518.78 652.37,519.53C651.19,520.28 646.61,526.66 642.18,533.70C637.76,540.74 632.67,548.00 630.87,549.83C629.08,551.66 626.01,553.97 624.05,554.96C622.10,555.95 616.67,557.70 612.00,558.85C607.33,559.99 600.46,561.44 596.75,562.07C590.58,563.11 589.73,563.55 586.79,567.35C585.02,569.63 578.97,576.90 573.33,583.50C567.70,590.10 560.25,598.52 556.79,602.20C553.33,605.89 548.34,610.72 545.69,612.95C540.88,617.00 540.88,617.00 524.69,616.99C508.50,616.98 508.50,616.98 495.50,630.35C488.35,637.70 472.20,654.25 459.61,667.11C447.02,679.97 434.28,692.64 431.30,695.25C425.88,700.00 425.88,700.00 413.88,700.00C401.87,700.00 401.87,700.00 384.17,717.25C374.43,726.74 359.37,741.23 350.68,749.46C342.00,757.69 333.69,765.23 332.20,766.21C329.86,767.75 327.34,767.97 313.50,767.83zM254.00,686.79C268.50,686.90 268.50,686.90 290.00,663.88C301.82,651.21 328.85,623.67 350.07,602.68C371.28,581.68 394.92,558.65 402.60,551.50C410.28,544.35 423.95,531.75 432.97,523.50C442.00,515.25 457.51,500.89 467.44,491.59C477.37,482.29 489.20,471.06 493.73,466.64C499.37,461.12 501.57,458.34 500.73,457.81C500.05,457.38 495.09,457.02 489.70,457.02C482.57,457.00 479.03,457.45 476.70,458.64C474.94,459.54 469.05,464.60 463.62,469.89C454.33,478.92 453.38,480.22 447.96,491.50C444.79,498.10 441.07,504.99 439.70,506.80C438.33,508.62 433.67,512.78 429.35,516.04C425.03,519.30 417.45,525.34 412.50,529.47C407.55,533.60 403.05,536.97 402.50,536.97C401.90,536.97 401.94,536.67 402.58,536.23C403.17,535.83 404.93,533.13 406.49,530.24C408.06,527.34 411.72,522.34 414.64,519.11C419.94,513.25 419.94,513.25 416.22,512.64C414.17,512.30 410.81,512.02 408.75,512.01C406.04,512.00 405.00,511.57 405.00,510.45C405.00,509.61 407.17,505.67 409.81,501.70C412.46,497.74 417.02,490.58 419.93,485.78C423.14,480.50 425.00,476.43 424.63,475.47C424.08,474.04 420.67,473.94 391.76,474.50C374.02,474.84 358.48,475.33 357.22,475.58C355.97,475.84 353.09,477.73 350.82,479.78C348.55,481.82 345.05,485.75 343.05,488.50C341.04,491.25 335.00,500.85 329.62,509.84C324.24,518.83 320.07,526.40 320.34,526.68C320.62,526.95 323.58,527.42 326.92,527.73C330.26,528.03 333.00,528.62 333.00,529.03C333.00,529.45 332.29,530.06 331.42,530.39C330.55,530.73 327.27,531.00 324.14,531.00C320.77,531.00 317.60,531.59 316.36,532.46C315.22,533.26 310.67,539.90 306.26,547.21C301.84,554.52 297.50,561.94 296.62,563.70C295.73,565.46 295.00,567.37 295.00,567.95C295.00,568.58 297.78,569.00 302.00,569.00C305.85,569.00 309.00,569.40 309.00,569.89C309.00,570.38 308.29,571.06 307.42,571.39C306.55,571.73 302.84,572.01 299.17,572.02C295.50,572.02 291.99,572.36 291.37,572.77C290.75,573.17 285.33,581.60 279.32,591.50C273.31,601.40 266.21,612.99 263.54,617.26C260.88,621.53 258.89,625.23 259.14,625.47C259.38,625.71 270.92,626.23 284.79,626.61C298.66,627.00 310.00,627.61 310.00,627.98C310.00,628.35 308.99,629.58 307.75,630.71C305.54,632.74 305.08,632.76 280.78,631.74C260.42,630.89 255.78,630.94 254.45,632.04C253.56,632.78 249.13,639.04 244.61,645.94C240.09,652.85 234.01,662.55 231.09,667.50C228.18,672.45 225.50,677.00 225.15,677.61C224.79,678.22 223.65,679.92 222.61,681.39C221.58,682.86 221.04,684.38 221.43,684.76C221.81,685.14 226.03,685.73 230.81,686.07C235.59,686.41 246.03,686.73 254.00,686.79zM253.32,663.72C250.11,664.01 247.87,663.68 246.60,662.74C244.75,661.35 244.77,661.18 247.21,656.41C248.59,653.71 250.12,650.15 250.62,648.50C251.23,646.46 252.73,644.90 255.34,643.63C258.32,642.17 259.68,641.99 261.47,642.81C262.83,643.43 264.49,645.71 265.51,648.38C267.17,652.72 267.16,653.04 265.37,656.10C264.34,657.86 262.30,660.19 260.82,661.29C259.35,662.38 255.98,663.48 253.32,663.72zM257.06,655.98C258.47,655.99 260.49,655.35 261.56,654.56C263.32,653.26 263.35,652.97 261.95,651.54C260.65,650.23 259.82,650.16 256.95,651.12C255.05,651.75 253.05,652.68 252.51,653.18C251.87,653.76 252.04,654.41 253.01,655.03C253.83,655.55 255.65,655.98 257.06,655.98zM168.00,620.77C176.50,620.94 176.50,620.94 192.50,605.84C201.30,597.53 214.12,585.62 221.00,579.36C227.88,573.10 239.12,562.79 246.00,556.44C252.88,550.10 259.51,544.49 260.75,543.98C261.99,543.47 263.00,542.61 263.00,542.07C263.00,541.54 262.21,540.66 261.25,540.12C259.78,539.29 259.74,539.06 261.00,538.65C261.82,538.38 263.76,537.89 265.29,537.55C266.83,537.22 272.21,533.24 277.26,528.72C282.31,524.20 290.73,516.44 295.97,511.47C301.21,506.50 311.80,497.07 319.50,490.51C327.20,483.95 337.88,474.51 343.24,469.54C348.60,464.57 352.99,460.15 352.99,459.72C353.00,459.29 346.84,459.07 339.32,459.22C325.64,459.50 325.64,459.50 319.19,467.00C315.63,471.12 309.81,477.88 306.25,482.00C302.68,486.12 296.34,493.03 292.16,497.36C284.55,505.21 284.55,505.21 254.02,504.45C237.24,504.03 222.16,503.65 220.52,503.59C217.90,503.51 216.78,504.51 211.52,511.60C208.21,516.06 202.01,524.45 197.75,530.25C193.49,536.04 190.00,540.99 190.00,541.23C190.00,541.48 203.13,541.98 219.18,542.35C235.23,542.72 248.61,543.28 248.93,543.60C249.24,543.91 248.41,545.05 247.09,546.13C245.74,547.22 243.97,547.81 243.09,547.47C242.21,547.13 229.35,546.48 214.50,546.01C187.50,545.17 187.50,545.17 184.87,547.84C183.43,549.30 173.16,563.65 162.06,579.73C150.96,595.81 140.31,610.84 138.40,613.12C136.49,615.41 135.09,617.78 135.29,618.39C135.52,619.08 140.19,619.71 147.58,620.05C154.14,620.35 163.32,620.67 168.00,620.77zM306.61,591.91C305.24,593.05 305.00,592.99 305.00,591.50C305.00,590.55 307.48,585.08 310.51,579.35C313.54,573.63 317.53,566.59 319.37,563.72C321.22,560.85 326.05,552.97 330.11,546.20C334.18,539.44 338.48,532.46 339.67,530.70C340.87,528.94 346.37,520.52 351.90,512.00C357.43,503.48 363.09,495.15 364.48,493.50C367.00,490.50 367.00,490.50 366.04,493.22C365.51,494.71 364.10,497.86 362.90,500.22C361.70,502.57 357.36,510.35 353.24,517.50C349.12,524.65 344.52,532.30 343.02,534.50C341.52,536.70 334.77,547.73 328.01,559.00C321.25,570.27 314.03,581.99 311.97,585.04C309.90,588.09 307.49,591.18 306.61,591.91zM180.79,577.00C178.40,577.00 175.44,576.30 174.22,575.44C173.00,574.59 172.00,573.20 172.00,572.36C172.00,571.52 173.61,569.41 175.58,567.66C177.55,565.92 180.35,562.39 181.80,559.80C183.46,556.85 185.35,554.88 186.88,554.49C188.38,554.12 189.63,554.38 190.14,555.19C190.60,555.91 190.98,557.17 190.99,558.00C191.00,558.83 191.91,560.85 193.00,562.50C194.09,564.15 194.99,566.43 194.99,567.56C195.00,568.70 193.76,570.78 192.25,572.19C190.74,573.60 188.52,575.26 187.32,575.88C186.11,576.50 183.18,577.00 180.79,577.00zM344.67,560.00C340.48,560.00 337.85,559.53 337.12,558.64C336.26,557.61 336.45,556.70 337.92,554.83C338.99,553.47 341.65,551.78 343.84,551.05C346.14,550.29 350.19,549.93 353.41,550.20C356.48,550.46 359.26,550.93 359.58,551.25C359.90,551.56 359.38,553.01 358.43,554.46C357.48,555.92 355.44,557.75 353.90,558.55C352.31,559.38 348.33,560.00 344.67,560.00zM411.76,560.00C412.22,560.00 415.99,556.96 420.14,553.25C424.29,549.54 431.35,542.53 435.84,537.68C440.33,532.83 444.00,528.42 444.00,527.88C444.00,527.33 442.60,527.70 440.88,528.69C439.17,529.69 432.16,536.34 425.30,543.48C418.44,550.62 412.40,557.25 411.88,558.23C411.36,559.20 411.30,560.00 411.76,560.00zM450.79,556.63C451.39,556.26 455.58,551.13 460.10,545.23C464.62,539.33 468.75,533.94 469.28,533.25C469.81,532.56 470.02,532.00 469.75,532.00C469.47,532.00 465.93,535.77 461.87,540.37C457.82,544.98 453.42,550.67 452.10,553.02C450.78,555.38 450.19,557.00 450.79,556.63zM447.92,548.30C450.07,547.45 453.47,545.42 455.46,543.77C457.46,542.13 461.57,537.67 464.60,533.88C467.63,530.08 469.83,526.53 469.49,525.99C469.16,525.44 466.81,525.00 464.29,525.00C460.22,525.00 459.25,525.46 455.87,529.02C453.77,531.22 450.25,536.29 448.04,540.27C445.83,544.24 444.02,548.03 444.01,548.67C444.00,549.50 445.14,549.39 447.92,548.30zM251.45,537.52C248.73,537.67 242.45,537.43 237.50,537.00C232.55,536.57 224.14,536.16 218.81,536.11C213.48,536.05 208.88,535.62 208.59,535.15C208.30,534.68 217.62,533.87 229.28,533.34C249.63,532.41 250.72,532.26 256.00,529.56C259.02,528.02 263.66,525.18 266.30,523.26C268.94,521.33 271.34,520.01 271.64,520.31C271.95,520.61 268.64,524.55 264.30,529.06C256.69,536.96 256.23,537.26 251.45,537.52zM524.50,508.82C530.33,508.90 532.95,508.62 531.94,508.03C531.09,507.53 525.69,507.06 519.94,507.00C514.20,506.93 508.82,506.97 508.00,507.09C507.18,507.21 508.52,507.62 511.00,508.00C513.48,508.38 519.55,508.75 524.50,508.82zM427.71,505.82C429.50,505.96 430.89,504.36 434.96,497.47C437.73,492.78 440.00,488.72 440.00,488.45C440.00,488.19 441.63,485.52 443.62,482.52C445.69,479.41 446.99,476.41 446.65,475.53C446.22,474.41 444.57,474.00 440.40,474.00C436.48,474.00 433.74,474.62 431.49,476.01C429.70,477.11 425.90,481.59 423.03,485.96C420.16,490.33 417.43,495.39 416.97,497.20C416.51,499.02 415.83,501.49 415.47,502.69C414.84,504.74 415.17,504.91 420.15,505.26C423.09,505.46 426.50,505.71 427.71,505.82zM547.96,504.52C548.40,504.25 549.05,499.64 549.40,494.27C549.75,488.89 550.30,481.91 550.62,478.75C551.20,473.00 551.20,473.00 546.57,473.00C542.53,473.00 541.83,473.32 540.98,475.57C540.44,476.98 540.00,480.69 540.01,483.82C540.02,486.94 540.31,491.25 540.66,493.38C541.09,495.94 541.92,497.43 543.11,497.74C544.10,498.00 545.42,499.74 546.04,501.61C546.66,503.49 547.52,504.80 547.96,504.52zM573.00,502.46C573.43,501.34 573.94,494.59 574.14,487.46C574.50,474.50 574.50,474.50 567.03,473.76C561.05,473.16 559.27,473.30 558.09,474.48C557.09,475.48 556.48,478.85 556.19,484.99C555.79,493.23 555.96,494.32 558.13,497.50C559.43,499.42 561.26,500.99 562.19,500.99C563.12,501.00 564.16,500.55 564.50,500.00C564.84,499.45 566.14,499.00 567.40,499.00C568.91,499.00 570.11,499.93 570.95,501.75C572.16,504.35 572.27,504.39 573.00,502.46zM221.56,501.00C221.89,501.00 224.13,499.39 226.54,497.42C230.91,493.83 230.91,493.83 259.41,493.92C287.90,494.01 287.90,494.01 292.12,490.00C294.43,487.80 296.03,485.70 295.67,485.34C295.31,484.98 293.33,485.41 291.26,486.30C288.21,487.62 282.85,487.97 262.75,488.21C249.14,488.37 238.00,488.24 238.00,487.92C238.00,487.60 239.70,484.90 241.79,481.92C245.57,476.50 245.57,476.50 275.19,476.24C304.81,475.97 304.81,475.97 311.91,468.10C315.81,463.78 319.00,459.80 319.00,459.28C319.00,458.70 306.41,458.08 287.25,457.71C258.38,457.15 255.28,457.25 253.00,458.80C250.60,460.43 251.32,460.52 271.50,461.11C283.05,461.45 295.54,461.78 299.25,461.86C304.12,461.96 306.00,462.37 306.00,463.33C306.00,464.05 304.94,465.65 303.64,466.86C301.36,469.01 300.55,469.08 276.89,469.29C263.48,469.40 250.84,469.15 248.82,468.72C245.69,468.05 244.81,468.28 243.00,470.22C241.82,471.47 237.12,477.45 232.56,483.50C228.00,489.55 223.52,495.96 222.61,497.75C221.70,499.54 221.22,501.00 221.56,501.00zM583.09,499.00C583.51,499.00 584.00,497.99 584.18,496.75C584.39,495.30 585.09,494.60 586.17,494.77C587.30,494.96 588.04,494.11 588.48,492.11C588.83,490.49 588.82,487.58 588.46,485.63C588.06,483.53 586.84,481.47 585.43,480.55C584.13,479.70 582.38,479.00 581.54,479.00C580.29,479.00 580.00,480.42 580.00,486.45C580.00,490.55 580.52,495.05 581.16,496.45C581.80,497.85 582.67,499.00 583.09,499.00zM527.68,495.85C531.84,495.97 532.96,495.66 533.35,494.25C533.62,493.29 534.15,488.11 534.52,482.75C535.19,473.00 535.19,473.00 522.14,473.00C514.61,473.00 508.05,473.48 506.63,474.12C505.27,474.74 501.95,478.00 499.26,481.37C496.56,484.74 493.55,488.73 492.57,490.24C491.01,492.63 490.98,493.05 492.30,493.56C493.13,493.88 500.27,494.49 508.16,494.92C516.05,495.35 524.83,495.77 527.68,495.85zM408.58,469.72C447.63,469.24 456.33,468.88 458.67,467.65C460.23,466.83 463.50,464.11 465.94,461.60C468.38,459.09 470.12,456.79 469.82,456.49C469.51,456.18 456.49,455.96 440.88,455.99C425.27,456.02 403.50,456.41 392.50,456.85C377.39,457.46 371.77,458.04 369.50,459.24C367.85,460.12 364.99,462.40 363.14,464.33C361.05,466.50 360.07,468.30 360.54,469.07C361.15,470.05 371.47,470.19 408.58,469.72zM568.00,449.27C569.59,449.08 573.06,446.26 577.50,441.57C581.35,437.50 586.66,432.33 589.31,430.08C591.96,427.84 593.66,426.00 593.10,426.00C592.53,426.00 589.79,426.90 587.00,428.00C582.43,429.80 579.49,430.01 557.21,430.06C540.82,430.09 531.33,430.51 529.01,431.31C526.60,432.13 524.05,434.46 520.76,438.81C518.14,442.28 516.00,445.98 516.00,447.04C516.00,448.88 517.09,448.98 540.75,449.27C554.36,449.43 566.62,449.43 568.00,449.27zM484.95,442.69C506.40,442.50 506.40,442.50 512.20,433.19C515.39,428.06 518.00,423.23 518.00,422.44C518.00,421.65 517.56,421.00 517.01,421.00C516.47,421.00 515.39,419.47 514.61,417.61C513.60,415.19 512.23,413.92 509.85,413.18C507.98,412.60 490.78,411.85 471.00,411.49C451.48,411.14 424.48,410.47 411.00,410.01C393.06,409.40 386.13,409.47 385.13,410.31C384.05,411.21 383.85,414.36 384.20,425.24C384.44,432.83 385.06,439.43 385.57,439.92C386.08,440.40 402.11,441.12 421.18,441.51C455.87,442.23 455.87,442.23 456.54,438.61C456.92,436.63 457.59,435.00 458.03,435.00C458.48,435.00 459.14,436.35 459.50,437.99C459.86,439.64 460.91,441.41 461.83,441.94C462.77,442.47 472.89,442.80 484.95,442.69zM359.62,440.85C378.74,441.00 378.74,441.00 379.36,437.25C379.70,435.19 379.98,428.45 379.99,422.29C380.00,412.21 379.80,410.96 378.07,410.04C377.00,409.47 373.21,409.00 369.63,409.00C366.06,409.00 362.09,409.40 360.82,409.90C359.54,410.39 352.65,415.84 345.50,421.99C338.35,428.14 331.15,433.75 329.50,434.45C327.85,435.15 322.33,436.30 317.23,437.01C312.13,437.72 308.17,438.50 308.42,438.75C308.67,439.00 315.99,439.54 324.69,439.95C333.38,440.36 349.10,440.76 359.62,440.85zM225.25,432.88C225.66,432.95 226.00,432.57 226.00,432.04C226.00,431.50 225.18,430.63 224.17,430.09C223.16,429.55 214.50,427.98 204.92,426.60C195.34,425.22 180.30,423.13 171.50,421.97C162.70,420.80 152.35,419.24 148.50,418.50C144.65,417.77 140.33,416.72 138.89,416.16C137.46,415.61 133.50,412.58 130.10,409.43C126.69,406.28 122.86,401.85 121.57,399.60C120.29,397.34 118.96,393.63 118.62,391.35C118.28,389.07 118.29,385.78 118.64,384.05C119.27,380.89 119.27,380.89 120.99,384.70C121.94,386.79 123.64,389.32 124.77,390.32C126.02,391.44 131.45,393.09 138.64,394.55C145.14,395.87 155.42,397.67 161.48,398.54C167.54,399.42 173.46,400.37 174.63,400.65C176.33,401.05 176.99,400.49 177.93,397.83C178.97,394.89 179.25,394.70 180.30,396.18C180.96,397.10 182.27,399.23 183.20,400.93C184.14,402.62 185.38,404.00 185.95,404.00C186.65,404.00 187.00,397.30 187.00,384.12C187.00,369.23 186.68,363.98 185.72,363.19C184.89,362.49 171.63,362.06 147.16,361.93C124.22,361.80 109.50,362.10 108.91,362.69C108.29,363.31 108.28,366.68 108.90,372.13C109.43,376.78 110.97,383.53 112.32,387.11C113.67,390.70 115.74,395.53 116.93,397.86C118.11,400.18 122.23,405.39 126.07,409.44C129.92,413.49 134.57,417.52 136.41,418.39C138.25,419.26 151.40,421.76 165.63,423.93C179.86,426.11 196.90,428.61 203.50,429.49C210.10,430.37 217.53,431.47 220.00,431.93C222.47,432.39 224.84,432.82 225.25,432.88zM611.86,433.00C625.51,433.00 625.51,433.00 628.26,428.46C629.77,425.96 631.00,423.56 631.00,423.12C631.00,422.69 627.29,422.53 622.75,422.76C618.21,423.00 611.40,423.49 607.61,423.85C600.72,424.50 600.72,424.50 599.46,428.75C598.21,433.00 598.21,433.00 611.86,433.00zM485.66,429.68C475.95,429.58 468.00,429.19 468.00,428.82C468.00,428.44 468.42,427.03 468.93,425.68C469.45,424.33 471.29,421.60 473.04,419.61C476.21,416.00 476.21,416.00 491.98,416.00C504.72,416.00 507.99,416.29 508.99,417.49C509.67,418.31 509.95,420.05 509.62,421.37C509.29,422.69 507.74,425.14 506.17,426.82C503.32,429.87 503.32,429.87 485.66,429.68zM319.70,424.57C328.70,424.36 330.34,424.04 333.70,421.81C335.79,420.42 340.65,416.71 344.50,413.55C348.35,410.40 351.88,407.14 352.35,406.31C352.83,405.48 352.82,404.42 352.35,403.95C351.88,403.48 342.72,402.96 331.99,402.79C312.50,402.50 312.50,402.50 301.50,407.69C295.45,410.54 287.83,413.36 284.57,413.94C281.30,414.52 270.82,415.00 261.28,415.00C246.19,415.00 243.44,414.75 240.21,413.10C238.17,412.05 233.35,408.89 229.50,406.07C225.45,403.11 221.66,401.06 220.50,401.22C219.04,401.43 218.57,402.16 218.77,403.92C218.91,405.24 220.22,408.96 221.66,412.18C223.47,416.21 224.95,418.15 226.39,418.41C227.55,418.62 231.65,419.30 235.50,419.92C239.35,420.54 246.78,421.50 252.00,422.05C257.23,422.60 272.30,423.44 285.50,423.93C298.70,424.41 314.09,424.70 319.70,424.57zM489.41,423.78C497.62,423.61 503.00,423.10 503.00,422.50C503.00,421.88 497.94,421.50 489.83,421.50C480.03,421.50 476.56,421.83 476.24,422.78C475.91,423.78 478.72,424.00 489.41,423.78zM213.76,415.00C215.02,415.00 215.18,413.99 214.69,409.25C214.36,406.09 213.56,397.20 212.92,389.50C212.21,381.06 211.97,366.77 212.30,353.50C212.60,341.40 213.36,327.45 213.99,322.50C214.62,317.55 215.36,311.59 215.63,309.25C215.96,306.40 216.76,304.66 218.08,303.96C219.26,303.33 232.96,302.66 252.39,302.30C281.06,301.75 285.33,301.88 289.88,303.37C292.70,304.29 297.82,306.63 301.26,308.56C304.69,310.50 308.62,312.93 310.00,313.97C311.93,315.42 315.28,316.06 324.69,316.75C335.38,317.54 337.37,317.98 340.91,320.32C343.13,321.79 345.70,324.14 346.61,325.53C348.07,327.76 348.26,331.49 348.12,356.28C347.96,384.50 347.96,384.50 344.49,387.75C341.03,391.00 341.03,391.00 328.51,391.00C321.63,391.00 316.00,391.39 316.00,391.88C316.00,392.36 317.28,393.01 318.84,393.32C320.40,393.63 328.43,394.20 336.69,394.58C345.26,394.98 351.94,394.90 352.25,394.39C352.56,393.90 352.88,371.45 352.98,344.50C353.07,317.55 352.78,292.58 352.33,289.02C351.50,282.54 351.50,282.54 331.00,282.90C319.73,283.09 293.33,283.53 272.36,283.88C234.21,284.50 234.21,284.50 226.92,289.48C222.74,292.34 217.32,297.29 214.22,301.08C210.89,305.16 207.34,308.35 204.96,309.40C202.83,310.34 200.00,312.40 198.66,313.99C196.92,316.06 195.79,319.38 194.68,325.69C193.83,330.54 192.86,338.32 192.52,343.00C192.18,347.68 192.36,359.15 192.91,368.50C193.47,377.85 194.61,387.80 195.46,390.61C196.30,393.42 197.93,396.92 199.08,398.37C200.22,399.83 201.57,400.76 202.08,400.45C202.59,400.14 203.00,398.78 203.00,397.44C203.00,396.10 203.40,395.00 203.89,395.00C204.37,395.00 205.09,397.13 205.48,399.73C205.87,402.33 207.10,406.26 208.22,408.48C209.33,410.69 210.69,413.06 211.24,413.75C211.79,414.44 212.93,415.00 213.76,415.00zM560.58,414.94C582.54,414.91 602.26,414.57 604.41,414.19C606.56,413.81 588.80,413.63 564.95,413.80C541.09,413.96 521.37,414.30 521.12,414.55C520.87,414.80 538.63,414.97 560.58,414.94zM635.23,410.00C635.72,410.00 640.26,408.84 645.31,407.41C650.37,405.99 659.90,402.17 666.50,398.92C673.10,395.68 679.62,392.10 681.00,390.98C683.24,389.15 682.93,389.19 678.00,391.36C674.98,392.69 669.35,395.24 665.50,397.02C661.65,398.80 652.76,402.15 645.75,404.46C638.74,406.78 633.30,408.97 633.67,409.33C634.03,409.70 634.74,410.00 635.23,410.00zM253.00,408.85C255.50,408.86 255.50,408.86 253.00,407.81C251.62,407.23 247.59,405.34 244.03,403.63C240.08,401.71 234.96,397.97 230.86,394.00C225.86,389.15 223.81,386.35 222.82,383.00C221.92,379.94 221.50,372.25 221.50,359.00C221.50,339.81 221.54,339.41 224.25,333.63C226.09,329.71 229.25,325.60 233.75,321.29C237.46,317.73 243.09,313.23 246.25,311.27C249.41,309.32 252.00,307.33 252.00,306.86C252.00,306.39 251.19,306.00 250.20,306.00C249.20,306.00 246.17,307.11 243.44,308.47C240.72,309.82 235.32,313.83 231.44,317.38C227.55,320.92 223.11,325.48 221.56,327.51C220.01,329.54 218.34,332.84 217.86,334.85C217.37,336.86 216.96,346.24 216.96,355.70C216.95,365.16 217.43,375.91 218.01,379.58C218.60,383.25 219.75,387.54 220.56,389.12C221.38,390.70 225.30,394.41 229.27,397.38C233.25,400.35 238.53,403.79 241.00,405.04C243.47,406.28 246.62,407.65 248.00,408.06C249.38,408.48 251.62,408.84 253.00,408.85zM506.75,399.84C514.00,400.00 514.00,400.00 514.20,360.75C514.30,339.16 514.29,317.90 514.16,313.51C514.02,309.11 513.59,305.19 513.19,304.79C512.79,304.39 478.72,303.75 437.48,303.37C366.00,302.72 362.43,302.77 361.01,304.48C359.82,305.92 359.44,310.58 359.15,327.55C358.95,339.25 359.29,356.39 359.92,365.65C360.55,374.90 361.57,384.17 362.19,386.24C362.81,388.31 363.69,390.00 364.16,390.00C364.62,390.00 365.60,388.54 366.33,386.75C367.67,383.50 367.67,383.50 368.38,387.25C368.78,389.35 369.68,391.00 370.42,391.00C371.16,391.00 372.40,390.03 373.19,388.84C374.60,386.71 374.64,386.73 376.82,390.42C378.26,392.86 379.61,394.03 380.76,393.81C381.97,393.58 382.67,392.18 383.06,389.26C383.38,386.94 383.88,384.79 384.18,384.48C384.49,384.18 385.01,385.18 385.35,386.72C385.68,388.25 386.78,390.55 387.79,391.82C389.56,394.07 390.60,394.21 418.56,396.10C434.48,397.18 459.20,398.43 473.50,398.87C487.80,399.32 502.76,399.76 506.75,399.84zM536.63,399.86C545.31,399.99 545.80,399.89 546.37,397.75C546.70,396.51 546.98,377.00 546.99,354.40C547.00,313.29 547.00,313.29 534.25,312.74C527.24,312.44 521.16,312.40 520.75,312.65C520.34,312.91 520.01,327.38 520.03,344.81C520.04,362.24 520.47,380.80 520.98,386.05C521.49,391.31 522.19,396.34 522.54,397.24C522.89,398.15 524.14,399.07 525.33,399.31C526.53,399.54 531.61,399.79 536.63,399.86zM581.75,398.63C582.44,398.15 583.00,396.91 583.00,395.88C583.00,394.84 583.34,394.00 583.75,394.01C584.16,394.01 585.27,395.36 586.20,397.01C587.78,399.78 588.33,400.00 593.57,400.00C598.97,400.00 599.20,399.89 598.59,397.75C598.23,396.51 597.05,391.45 595.95,386.50C594.72,380.95 593.72,371.56 593.34,361.99C592.92,351.69 593.11,344.18 593.91,339.61C594.57,335.82 596.17,330.62 597.47,328.06C598.77,325.49 601.79,321.49 604.17,319.17C607.74,315.69 608.24,314.78 607.00,313.99C606.14,313.44 594.28,313.02 579.29,313.02C555.30,313.00 553.00,313.15 552.21,314.75C551.74,315.72 551.70,332.61 552.13,352.50C552.65,376.23 553.36,390.20 554.21,393.50C555.50,398.50 555.50,398.50 568.00,399.00C574.88,399.27 581.06,399.11 581.75,398.63zM290.75,397.89C290.89,397.95 291.00,397.59 291.00,397.10C291.00,396.60 289.58,395.70 287.85,395.10C286.12,394.49 282.29,394.00 279.35,394.00C276.41,394.00 274.00,394.45 274.00,395.00C274.00,395.55 275.91,396.03 278.25,396.06C280.59,396.09 284.30,396.49 286.50,396.94C288.70,397.40 290.61,397.82 290.75,397.89zM97.75,396.88C98.44,396.95 99.00,396.56 99.00,396.03C99.00,395.49 96.64,394.40 93.75,393.61C90.86,392.81 86.25,391.88 83.50,391.55C78.50,390.95 78.50,390.95 80.86,392.97C82.20,394.12 84.79,395.05 86.86,395.12C88.86,395.18 91.85,395.58 93.50,396.00C95.15,396.42 97.06,396.82 97.75,396.88zM258.65,396.68C258.93,396.40 258.48,392.64 257.65,388.33C256.81,384.03 255.84,376.23 255.50,371.00C255.15,365.77 255.36,355.65 255.96,348.50C256.57,341.35 257.76,333.06 258.61,330.08C259.46,327.10 261.68,322.38 263.55,319.58C265.42,316.79 267.69,313.49 268.60,312.25C270.05,310.27 270.06,310.00 268.70,310.00C267.85,310.00 265.22,311.48 262.86,313.28C260.49,315.08 257.13,318.43 255.38,320.73C253.63,323.02 251.14,327.96 249.85,331.70C247.76,337.75 247.52,340.10 247.68,353.00C247.83,364.76 248.33,369.31 250.33,377.09C251.69,382.36 254.00,389.05 255.47,391.94C256.93,394.83 258.37,396.97 258.65,396.68zM639.06,396.00C640.17,396.00 645.49,394.47 650.87,392.59C656.25,390.72 664.64,387.25 669.51,384.88C674.38,382.51 680.08,378.94 682.18,376.94C686.00,373.31 686.00,373.31 685.98,355.40C685.98,345.56 685.64,337.00 685.23,336.39C684.83,335.77 682.02,333.90 679.00,332.24C675.98,330.57 672.38,328.89 671.00,328.51C669.62,328.14 671.58,329.93 675.34,332.49C679.10,335.06 681.94,337.39 681.65,337.68C681.37,337.97 678.29,336.51 674.82,334.45C671.34,332.39 666.36,329.43 663.74,327.89C661.13,326.34 657.05,324.42 654.69,323.62C652.32,322.81 647.54,321.42 644.07,320.52C637.85,318.91 637.72,318.91 635.43,321.07C634.15,322.27 632.34,325.33 631.40,327.88C630.19,331.19 629.58,336.86 629.24,347.86C628.97,356.85 629.28,367.18 629.98,372.75C630.64,377.99 631.78,384.26 632.51,386.69C633.24,389.11 634.56,392.20 635.44,393.55C636.32,394.90 637.95,396.00 639.06,396.00zM627.62,391.72C627.87,391.47 627.60,389.29 627.02,386.88C626.45,384.47 625.55,376.18 625.02,368.45C624.44,359.77 624.42,350.08 624.99,343.09C625.50,336.87 626.65,329.55 627.56,326.83C628.46,324.10 628.97,321.63 628.68,321.34C628.39,321.05 626.98,322.58 625.56,324.73C624.13,326.89 622.26,331.99 621.39,336.08C620.20,341.69 619.94,347.16 620.30,358.50C620.66,369.81 621.31,375.32 622.93,380.90C624.12,384.97 625.56,389.17 626.13,390.24C626.70,391.30 627.37,391.97 627.62,391.72zM608.64,385.00C611.81,385.00 613.04,384.63 612.76,383.75C612.53,383.06 610.88,382.36 609.08,382.18C607.28,382.00 605.15,382.11 604.34,382.42C603.53,382.73 603.15,383.44 603.50,383.99C603.84,384.55 606.15,385.00 608.64,385.00zM86.19,378.89C88.22,378.95 90.15,378.56 90.48,378.03C90.81,377.50 90.05,376.84 88.79,376.57C87.53,376.30 81.87,375.61 76.21,375.04C70.55,374.47 63.80,374.03 61.21,374.06C57.15,374.12 56.83,374.26 58.91,375.09C60.24,375.62 66.09,376.67 71.91,377.42C77.74,378.16 84.16,378.83 86.19,378.89zM409.00,376.26C406.52,376.55 402.35,376.42 399.72,375.97C397.10,375.52 392.97,374.00 390.56,372.59C388.14,371.17 384.63,368.21 382.74,366.01C380.86,363.81 378.80,360.27 378.16,358.14C377.52,356.01 377.00,352.35 377.00,350.00C377.00,347.65 377.54,343.88 378.21,341.62C379.00,338.93 381.34,335.58 384.96,331.96C388.58,328.34 391.93,326.00 394.62,325.21C396.88,324.54 400.96,324.00 403.69,324.00C406.41,324.00 410.86,324.75 413.57,325.68C416.93,326.82 420.28,329.13 424.07,332.93C427.87,336.72 430.18,340.07 431.32,343.43C432.25,346.14 433.00,349.87 433.00,351.71C433.00,353.55 432.32,356.70 431.48,358.71C430.64,360.71 428.35,364.31 426.39,366.70C424.42,369.10 420.72,372.11 418.16,373.40C415.60,374.68 411.48,375.97 409.00,376.26zM102.08,368.00C102.44,363.88 102.80,356.69 102.87,352.04C102.99,343.97 102.92,343.65 101.25,345.32C99.86,346.72 99.51,348.75 99.56,355.29C99.59,359.80 100.02,366.20 100.52,369.50C101.43,375.50 101.43,375.50 102.08,368.00zM606.46,374.80C609.35,374.58 610.58,374.01 610.81,372.75C611.10,371.27 610.36,371.00 606.07,371.00C602.51,371.00 601.00,371.40 601.00,372.33C601.00,373.07 601.32,373.99 601.71,374.38C602.11,374.77 604.24,374.96 606.46,374.80zM694.13,374.00C694.63,374.00 695.60,372.77 696.27,371.27C696.95,369.77 699.64,366.48 702.25,363.96C704.86,361.43 707.00,358.90 707.00,358.32C707.00,357.75 703.39,353.51 698.97,348.89C690.94,340.50 690.94,340.50 691.31,355.50C691.51,363.75 692.02,371.29 692.44,372.25C692.87,373.21 693.63,374.00 694.13,374.00zM300.82,370.00C301.33,370.00 302.03,368.59 302.38,366.88C302.72,365.16 303.00,362.42 303.00,360.80C303.00,359.18 303.74,354.08 304.65,349.46C305.56,344.85 306.62,341.27 307.02,341.51C307.41,341.76 308.03,344.17 308.39,346.87C308.75,349.58 309.66,352.30 310.42,352.93C311.30,353.67 315.32,353.97 321.65,353.79C331.50,353.50 331.50,353.50 332.83,340.66C333.56,333.60 333.86,327.52 333.49,327.16C333.13,326.80 328.65,326.35 323.52,326.16C318.40,325.97 311.71,326.33 308.66,326.97C304.36,327.86 302.41,328.91 300.07,331.57C298.40,333.47 296.25,336.48 295.29,338.26C293.96,340.74 293.57,343.70 293.66,350.93C293.74,358.10 294.13,360.62 295.28,361.46C296.11,362.07 297.49,364.24 298.35,366.28C299.20,368.33 300.31,370.00 300.82,370.00zM283.97,368.00C284.38,368.00 285.08,363.84 285.54,358.75C285.99,353.66 286.39,347.48 286.43,345.00C286.50,340.50 286.50,340.50 275.74,340.22C264.98,339.93 264.98,339.93 263.93,342.70C263.34,344.24 263.16,347.56 263.53,350.24C263.98,353.49 264.88,355.51 266.35,356.54C268.09,357.76 268.23,358.22 267.10,358.93C266.34,359.41 265.98,360.52 266.32,361.40C266.69,362.37 268.23,363.06 270.22,363.15C272.02,363.23 274.93,363.19 276.68,363.08C279.13,362.91 280.25,363.45 281.55,365.43C282.47,366.84 283.56,368.00 283.97,368.00zM233.56,366.00C237.10,366.00 240.00,365.60 240.00,365.12C240.00,364.63 238.99,363.96 237.75,363.63C236.51,363.30 234.07,363.02 232.33,363.01C230.59,363.01 228.45,363.27 227.59,363.60C226.72,363.94 226.26,364.61 226.56,365.10C226.87,365.60 230.02,366.00 233.56,366.00zM320.06,366.00C325.53,366.00 330.00,365.62 330.00,365.15C330.00,364.68 325.70,363.99 320.44,363.62C315.19,363.25 310.46,363.22 309.93,363.54C309.40,363.87 309.23,364.56 309.54,365.07C309.86,365.58 314.59,366.00 320.06,366.00zM604.92,363.98C606.89,363.98 609.12,363.58 609.88,363.10C610.64,362.62 610.95,361.72 610.57,361.11C610.19,360.50 607.66,360.00 604.94,360.00C601.49,360.00 600.00,360.40 600.00,361.33C600.00,362.07 600.30,362.97 600.67,363.33C601.03,363.70 602.95,363.99 604.92,363.98zM485.11,362.96C482.57,362.94 479.10,362.31 477.39,361.57C475.68,360.82 473.31,359.17 472.12,357.90C470.94,356.63 469.53,353.98 469.00,352.01C468.38,349.68 468.39,347.17 469.04,344.80C469.60,342.79 471.59,339.81 473.51,338.13C475.41,336.46 478.68,334.58 480.77,333.95C483.60,333.10 485.65,333.10 488.75,333.93C491.04,334.55 494.47,336.52 496.37,338.31C498.56,340.38 500.09,342.94 500.53,345.30C500.96,347.60 500.75,350.20 499.98,352.05C499.29,353.71 496.70,356.85 494.22,359.03C490.34,362.45 489.08,362.99 485.11,362.96zM79.49,360.70C90.48,360.50 90.48,360.50 91.35,355.00C91.83,351.98 92.29,348.60 92.36,347.50C92.49,345.60 91.97,345.51 82.00,345.79C76.22,345.95 69.09,346.56 66.15,347.13C62.36,347.88 59.67,349.21 56.90,351.71C54.76,353.65 53.00,356.06 53.00,357.08C53.00,358.64 53.80,358.92 58.25,358.88C61.14,358.86 64.62,359.30 66.00,359.87C67.38,360.44 73.44,360.81 79.49,360.70zM145.72,355.90C165.40,355.85 182.62,355.49 184.00,355.11C186.42,354.44 186.53,354.04 187.29,342.96C187.72,336.66 188.75,327.51 189.58,322.63C190.41,317.74 190.85,313.51 190.55,313.22C190.26,312.93 180.41,313.88 168.65,315.33C156.89,316.79 142.60,318.88 136.89,320.00C128.11,321.71 126.15,322.44 124.21,324.76C121.91,327.50 121.91,327.50 122.56,324.75C123.07,322.62 122.85,322.00 121.61,322.00C120.72,322.00 119.06,322.94 117.90,324.10C116.75,325.25 114.43,329.12 112.76,332.70C110.65,337.22 109.57,341.28 109.23,346.04C108.96,349.80 109.01,353.58 109.34,354.44C109.87,355.82 114.16,355.99 145.72,355.90zM423.00,353.00C423.55,353.00 424.00,350.93 424.00,348.40C424.00,345.87 423.25,342.22 422.33,340.28C421.41,338.35 418.91,335.49 416.76,333.94C414.61,332.38 410.44,330.61 407.49,330.00C403.50,329.17 401.04,329.18 397.82,330.05C395.06,330.79 392.15,332.63 389.75,335.15C387.69,337.31 386.00,339.76 386.00,340.58C386.00,341.47 388.77,343.34 392.75,345.14C396.49,346.83 402.03,348.43 405.16,348.73C408.27,349.02 411.91,348.99 413.25,348.65C414.58,348.32 416.13,347.02 416.69,345.77C417.70,343.53 417.74,343.55 419.85,347.00C421.03,348.93 421.99,351.06 422.00,351.75C422.00,352.44 422.45,353.00 423.00,353.00zM606.17,352.86C607.09,352.94 608.55,352.73 609.42,352.39C610.29,352.06 611.00,351.21 611.00,350.50C611.00,349.79 610.29,348.94 609.42,348.61C608.55,348.27 606.07,348.00 603.92,348.00C600.71,348.00 600.00,348.35 600.00,349.93C600.00,351.14 600.84,352.02 602.25,352.29C603.49,352.53 605.25,352.79 606.17,352.86zM340.15,348.25C340.64,347.76 341.32,343.72 341.66,339.27C342.00,334.82 341.96,330.35 341.57,329.34C340.89,327.57 340.80,327.58 339.43,329.44C338.50,330.70 338.00,333.92 338.00,338.61C338.00,342.58 338.28,346.58 338.63,347.49C339.00,348.44 339.64,348.76 340.15,348.25zM492.14,346.41C492.61,346.12 493.00,344.82 493.00,343.51C493.00,342.21 492.26,340.40 491.34,339.49C490.43,338.58 488.68,337.45 487.44,336.98C486.20,336.51 483.94,336.46 482.42,336.86C480.90,337.27 479.17,338.37 478.58,339.30C477.82,340.51 477.82,341.50 478.61,342.75C479.33,343.90 481.45,344.68 484.79,345.02C487.59,345.31 490.19,345.86 490.58,346.24C490.96,346.63 491.67,346.71 492.14,346.41zM606.89,341.00C609.52,341.00 611.96,340.70 612.32,340.34C612.69,339.98 612.48,339.08 611.87,338.34C611.25,337.60 608.83,337.00 606.44,337.00C604.06,337.00 601.84,337.45 601.50,338.00C601.16,338.55 601.16,339.45 601.50,340.00C601.84,340.55 604.27,341.00 606.89,341.00zM78.75,336.63C80.26,336.34 84.28,335.82 87.67,335.46C92.40,334.97 94.86,334.08 98.16,331.66C102.47,328.50 102.47,328.50 96.48,328.19C93.19,328.02 89.09,328.14 87.37,328.46C85.65,328.78 82.38,330.39 80.12,332.03C77.85,333.67 76.00,335.50 76.00,336.09C76.00,336.72 77.13,336.94 78.75,336.63zM609.75,329.80C613.17,329.59 614.50,329.08 614.50,328.00C614.50,327.18 613.44,326.35 612.15,326.17C610.85,325.98 608.72,326.11 607.40,326.44C606.08,326.77 605.00,327.73 605.00,328.57C605.00,329.78 606.01,330.04 609.75,329.80zM285.80,328.82C287.44,328.95 288.58,328.11 289.80,325.85C290.73,324.12 292.73,321.26 294.23,319.50C295.73,317.73 296.66,316.00 296.31,315.64C295.96,315.29 292.84,315.00 289.38,315.00C285.93,315.00 280.80,315.49 277.98,316.10C274.88,316.76 272.62,317.85 272.25,318.85C271.91,319.76 270.79,321.11 269.76,321.85C268.68,322.62 268.02,324.11 268.19,325.35C268.47,327.27 269.30,327.56 276.00,328.07C280.12,328.38 284.53,328.72 285.80,328.82zM219.60,322.00C219.94,322.00 223.99,318.57 228.60,314.38C233.22,310.18 237.00,306.36 237.00,305.88C237.00,305.39 233.66,305.00 229.57,305.00C224.15,305.00 221.72,305.42 220.57,306.57C219.45,307.70 219.00,310.11 219.00,315.07C219.00,318.88 219.27,322.00 219.60,322.00zM127.75,317.44C129.26,317.10 131.07,316.66 131.77,316.44C132.47,316.22 139.67,314.69 147.77,313.04C155.87,311.38 171.16,308.68 181.74,307.05C192.32,305.41 202.28,303.39 203.87,302.57C205.46,301.75 207.99,299.61 209.49,297.82C211.00,296.04 211.75,294.42 211.16,294.22C210.57,294.02 201.85,295.05 191.79,296.51C181.73,297.96 165.37,300.17 155.43,301.41C140.33,303.31 136.84,304.06 134.25,305.97C132.54,307.23 129.76,310.19 128.07,312.55C126.38,314.90 125.00,317.10 125.00,317.43C125.00,317.77 126.24,317.77 127.75,317.44zM630.49,305.71C631.10,305.22 630.16,302.39 627.99,298.21C624.50,291.50 624.50,291.50 593.00,291.63C564.62,291.74 560.63,291.97 552.73,293.87C547.91,295.04 541.16,297.16 537.73,298.60C534.30,300.03 530.71,301.90 529.74,302.76C528.78,303.62 528.25,304.58 528.56,304.90C528.88,305.22 551.72,305.71 579.32,305.99C606.92,306.27 629.94,306.15 630.49,305.71zM512.25,295.92C513.83,295.97 515.00,295.47 515.00,294.75C515.00,294.06 513.59,290.83 511.87,287.57C510.15,284.30 507.21,279.24 505.34,276.32C501.94,271.00 501.94,271.00 479.22,271.00C466.72,271.01 441.20,271.47 422.50,272.03C403.80,272.59 387.71,273.29 386.75,273.59C385.25,274.06 385.00,275.46 385.00,283.53C385.00,291.47 385.27,293.07 386.75,293.83C387.71,294.33 405.71,294.83 426.75,294.94C465.00,295.14 465.00,295.14 465.00,291.57C465.00,289.61 465.37,288.00 465.81,288.00C466.26,288.00 467.38,289.57 468.30,291.50C469.97,295.00 469.97,295.00 487.11,295.00C502.09,295.00 504.09,294.81 503.02,293.53C502.07,292.38 498.64,291.99 487.65,291.78C474.02,291.51 473.49,291.42 473.19,289.34C472.95,287.63 473.54,287.04 476.05,286.49C477.78,286.11 484.67,285.93 491.35,286.10C500.14,286.32 503.98,286.81 505.25,287.86C506.21,288.66 507.00,290.55 507.00,292.07C507.00,293.59 507.56,295.06 508.25,295.34C508.94,295.62 510.74,295.88 512.25,295.92zM371.28,293.88C376.83,293.97 379.21,293.63 379.56,292.70C379.84,291.98 380.16,286.70 380.28,280.95C380.50,270.50 380.50,270.50 377.00,270.17C375.07,269.98 371.91,270.31 369.96,270.89C367.33,271.68 365.20,273.62 361.65,278.45C357.63,283.93 356.93,285.54 357.19,288.72C357.46,292.00 357.89,292.57 360.50,293.13C362.15,293.48 367.00,293.82 371.28,293.88zM526.83,284.99C530.50,284.99 534.62,284.40 536.00,283.69C537.47,282.93 539.53,282.69 541.00,283.10C542.38,283.48 545.19,283.85 547.25,283.90C549.31,283.96 551.00,283.60 551.00,283.11C551.00,282.62 549.51,280.03 547.68,277.36C545.86,274.69 542.82,271.71 540.93,270.75C538.13,269.32 534.81,269.00 522.75,269.00C511.03,269.00 508.00,269.28 508.00,270.35C508.00,271.09 509.28,273.47 510.85,275.64C512.42,277.80 515.15,280.79 516.93,282.29C519.73,284.65 521.02,285.00 526.83,284.99zM337.64,273.00C353.35,273.00 354.79,272.85 356.81,270.96C358.02,269.84 359.00,268.50 359.00,267.98C359.00,267.46 356.86,265.96 354.25,264.64C351.64,263.32 347.48,261.93 345.00,261.55C342.52,261.17 338.93,260.38 337.00,259.79C335.07,259.19 331.70,257.47 329.50,255.94C327.30,254.42 321.64,249.84 316.92,245.76C312.20,241.68 304.77,235.63 300.42,232.32C296.06,229.01 290.95,225.50 289.06,224.53C287.17,223.55 282.44,221.66 278.56,220.34C274.48,218.94 267.06,217.51 261.00,216.94C254.43,216.33 239.83,216.29 221.97,216.83C202.50,217.42 192.70,218.09 191.10,218.95C188.75,220.20 188.75,220.20 191.34,222.80C193.84,225.30 194.52,225.42 209.72,226.12C218.40,226.52 225.61,226.88 225.75,226.92C225.89,226.96 226.00,227.45 226.00,228.00C226.00,228.62 220.67,229.00 212.00,229.00C204.30,229.00 198.00,229.35 198.00,229.78C198.00,230.20 201.41,233.91 205.57,238.03C209.74,242.14 215.43,248.35 218.22,251.83C222.08,256.63 223.77,258.03 225.24,257.65C226.56,257.30 228.55,258.37 231.35,260.92C233.63,263.00 237.49,266.13 239.92,267.87C244.34,271.03 244.34,271.03 278.83,270.97C313.33,270.91 313.33,270.91 294.52,252.43C284.18,242.26 275.51,234.16 275.26,234.41C275.00,234.67 275.48,236.25 276.31,237.93C277.15,239.61 277.50,241.19 277.10,241.44C276.69,241.69 266.08,241.74 253.53,241.54C230.70,241.19 230.70,241.19 228.28,238.10C226.92,236.36 226.00,234.02 226.18,232.75C226.49,230.54 226.76,230.50 242.44,230.22C251.20,230.07 261.32,230.37 264.94,230.88C268.55,231.40 272.34,232.15 273.37,232.56C275.04,233.22 275.11,233.07 274.04,231.07C273.38,229.84 273.09,228.58 273.39,228.27C273.70,227.97 276.32,229.58 279.22,231.85C282.13,234.12 288.34,239.70 293.04,244.24C297.74,248.78 305.88,257.11 311.13,262.75C320.67,273.00 320.67,273.00 337.64,273.00zM271.58,268.00C258.25,268.00 247.03,267.70 246.67,267.33C246.30,266.97 246.00,266.29 246.00,265.83C246.00,265.38 257.67,265.00 271.94,265.00C286.21,265.00 298.13,265.40 298.44,265.90C298.74,266.39 298.28,267.06 297.41,267.40C296.55,267.73 284.92,268.00 271.58,268.00zM413.99,266.61C430.48,266.51 432.51,266.32 432.80,264.81C432.99,263.84 431.96,262.36 430.36,261.31C427.97,259.75 424.85,259.45 407.58,259.16C394.18,258.93 386.27,259.20 383.64,259.99C379.72,261.16 379.72,261.16 381.88,263.32C383.36,264.81 385.82,265.67 389.77,266.10C392.92,266.45 403.82,266.68 413.99,266.61zM278.38,259.31C276.79,259.48 267.95,259.47 258.71,259.28C241.92,258.95 241.92,258.95 237.96,252.81C235.78,249.44 234.15,246.51 234.35,246.31C234.55,246.11 246.05,246.26 259.91,246.64C285.10,247.32 285.10,247.32 289.55,252.27C292.00,254.99 294.00,257.62 294.00,258.11C294.00,258.60 291.13,259.00 287.62,259.00C284.12,259.00 279.96,259.14 278.38,259.31zM381.65,253.00C383.08,253.00 384.00,252.41 384.00,251.49C384.00,250.65 381.96,247.39 379.47,244.24C376.97,241.08 372.14,235.02 368.73,230.77C365.32,226.51 361.95,222.81 361.24,222.54C360.22,222.15 360.19,222.51 361.11,224.27C361.74,225.50 365.42,231.68 369.29,238.00C373.15,244.32 376.99,250.29 377.81,251.25C378.64,252.21 380.37,253.00 381.65,253.00zM230.42,204.86C232.02,204.94 233.14,204.80 232.90,204.57C232.66,204.33 222.80,202.54 210.98,200.59C199.17,198.64 177.80,194.77 163.50,191.99C149.20,189.20 135.77,186.46 133.65,185.90C131.53,185.33 129.55,185.12 129.24,185.43C128.93,185.74 129.48,186.87 130.46,187.96C131.44,189.04 133.65,190.38 135.37,190.93C137.09,191.48 145.70,193.27 154.50,194.90C163.30,196.54 178.82,199.03 189.00,200.44C199.18,201.86 212.00,203.40 217.50,203.87C223.00,204.34 228.81,204.79 230.42,204.86zM350.92,204.88C358.85,204.95 365.07,204.74 364.75,204.41C364.43,204.09 358.51,203.46 351.60,203.01C344.70,202.55 337.12,202.46 334.77,202.79C330.62,203.39 330.58,203.42 333.50,204.08C335.15,204.46 342.99,204.82 350.92,204.88zM543.06,198.00C544.19,198.00 552.85,195.95 562.31,193.43C571.76,190.92 581.75,187.81 584.50,186.52C587.62,185.05 588.75,184.14 587.50,184.09C586.40,184.04 580.55,185.29 574.50,186.86C568.45,188.43 558.44,191.24 552.26,193.11C546.08,194.97 541.02,196.84 541.01,197.25C541.01,197.66 541.93,198.00 543.06,198.00zM297.22,195.00C297.74,195.00 296.37,192.96 294.18,190.47C291.98,187.97 289.30,184.04 288.22,181.72C287.14,179.40 285.74,175.12 285.13,172.20C284.51,169.29 284.01,160.06 284.01,151.70C284.02,142.18 284.53,134.61 285.37,131.45C286.11,128.68 287.29,125.33 287.99,124.02C288.70,122.70 291.34,119.41 293.86,116.71C298.46,111.80 298.46,111.80 287.64,112.15C277.80,112.47 276.65,112.71 274.97,114.78C273.96,116.04 272.54,119.64 271.81,122.78C270.90,126.76 270.55,135.52 270.67,151.50C270.76,164.15 271.23,176.30 271.71,178.49C272.30,181.19 273.37,182.88 275.00,183.69C276.68,184.52 277.80,184.58 278.66,183.87C279.55,183.13 281.11,183.67 284.20,185.81C286.57,187.45 290.25,190.18 292.39,191.89C294.53,193.60 296.70,195.00 297.22,195.00zM263.45,189.00C264.54,189.00 264.88,183.47 265.25,160.25C265.64,135.33 265.97,130.50 267.74,124.00C268.87,119.88 269.58,116.16 269.34,115.75C269.09,115.34 267.58,115.00 266.00,115.00C264.41,115.00 261.97,116.01 260.57,117.25C258.89,118.73 257.48,121.67 256.43,125.85C255.15,130.93 254.90,136.51 255.17,153.85C255.50,175.50 255.50,175.50 258.80,182.25C260.62,185.96 262.71,189.00 263.45,189.00zM123.46,185.96C125.27,186.00 125.30,185.87 123.82,184.40C122.94,183.51 119.14,181.94 115.38,180.90C111.62,179.85 107.41,179.01 106.02,179.03C103.63,179.06 103.60,179.12 105.49,180.21C106.58,180.85 110.63,182.39 114.49,183.64C118.34,184.89 122.38,185.93 123.46,185.96zM248.67,185.86C249.53,185.96 249.93,178.53 250.20,157.75C250.54,131.90 250.75,128.99 252.72,123.50C253.90,120.20 254.53,117.15 254.11,116.72C253.69,116.29 244.28,116.63 233.20,117.46C222.13,118.29 210.91,119.45 208.28,120.04C205.65,120.62 201.85,122.24 199.83,123.63C197.81,125.02 195.03,127.81 193.65,129.83C192.28,131.85 190.61,136.28 189.96,139.68C189.23,143.48 188.95,151.15 189.23,159.68C189.48,167.28 190.00,174.22 190.39,175.09C190.89,176.22 192.62,176.74 196.30,176.86C199.16,176.96 202.26,177.28 203.20,177.57C204.15,177.87 204.66,178.72 204.36,179.51C204.02,180.40 204.67,181.12 206.16,181.48C207.45,181.79 217.28,182.87 228.00,183.88C238.72,184.90 248.03,185.79 248.67,185.86zM457.67,184.79C462.71,184.90 467.55,184.73 468.42,184.39C469.29,184.06 470.00,182.93 470.00,181.89C470.00,180.06 468.48,180.00 424.56,180.00C393.45,180.00 378.91,180.34 378.46,181.07C378.10,181.65 378.11,182.44 378.48,182.82C378.86,183.19 394.76,183.74 413.83,184.04C432.90,184.33 452.63,184.67 457.67,184.79zM245.95,182.88C245.15,182.81 239.10,182.16 232.50,181.45C225.90,180.73 219.41,180.12 218.08,180.07C216.75,180.03 215.92,179.75 216.23,179.44C216.54,179.13 223.25,179.38 231.14,180.00C239.04,180.62 245.93,181.55 246.45,182.07C247.05,182.65 246.86,182.95 245.95,182.88zM371.40,180.91C372.56,179.56 374.42,177.20 375.54,175.66C377.58,172.86 377.58,172.86 393.04,173.02C401.54,173.11 421.55,173.49 437.50,173.88C453.45,174.26 467.07,174.39 467.76,174.18C468.45,173.96 469.21,172.82 469.45,171.64C469.69,170.46 470.09,158.97 470.34,146.10C470.79,122.69 470.79,122.69 444.15,123.36C429.49,123.73 406.75,124.44 393.62,124.93C374.21,125.67 369.44,126.13 368.18,127.40C366.96,128.61 366.53,132.08 366.19,143.34C365.95,151.25 366.29,162.40 366.94,168.11C367.60,173.82 368.39,179.59 368.72,180.92C369.30,183.35 369.30,183.35 371.40,180.91zM479.87,182.79C480.76,182.61 481.72,181.14 482.02,179.49C482.46,177.03 482.99,176.54 485.03,176.74C486.39,176.87 499.88,176.97 515.00,176.96C530.12,176.95 543.92,176.69 545.65,176.38C548.46,175.88 548.86,175.37 549.38,171.66C549.71,169.37 550.04,158.15 550.12,146.72C550.20,135.30 550.68,125.70 551.18,125.39C551.68,125.08 552.79,125.41 553.64,126.12C554.87,127.14 555.11,128.90 554.74,134.46C554.49,138.33 554.67,148.43 555.15,156.90C555.62,165.37 556.50,172.90 557.11,173.63C557.96,174.66 558.69,174.70 560.33,173.83C561.49,173.20 563.87,172.75 565.62,172.81C568.29,172.91 568.91,172.50 569.48,170.22C569.86,168.73 570.50,159.63 570.92,150.00C571.45,137.80 572.11,131.80 573.09,130.21C574.31,128.25 574.30,127.82 573.05,127.04C572.25,126.54 567.75,125.45 563.05,124.61C558.35,123.77 550.00,122.61 544.50,122.03C538.04,121.35 524.31,121.25 505.71,121.74C481.86,122.37 476.75,122.76 475.89,124.00C475.21,124.98 475.03,133.77 475.37,149.58C475.66,162.98 476.41,175.75 477.07,178.38C477.94,181.82 478.70,183.01 479.87,182.79zM181.40,178.70C182.12,178.46 182.72,171.90 183.13,159.72C183.48,149.48 184.07,139.05 184.44,136.55C185.06,132.40 184.94,132.00 183.06,132.00C181.93,132.00 176.84,132.69 171.75,133.54C166.66,134.39 156.65,136.24 149.50,137.64C142.35,139.05 135.02,140.82 133.21,141.57C131.05,142.46 129.43,144.12 128.46,146.43C127.65,148.39 127.00,153.06 127.00,157.00C127.00,160.89 127.63,165.57 128.40,167.41C129.74,170.63 130.12,170.81 138.65,172.34C143.52,173.22 152.90,174.64 159.50,175.50C166.10,176.36 172.74,177.31 174.25,177.61C176.44,178.05 177.01,177.78 177.05,176.33C177.10,174.73 177.31,174.79 178.70,176.78C179.57,178.04 180.79,178.91 181.40,178.70zM322.75,175.84C326.19,175.93 329.00,175.60 329.00,175.11C329.00,174.62 328.21,173.88 327.25,173.47C326.29,173.06 318.98,172.52 311.00,172.26C298.94,171.87 296.71,172.01 297.78,173.12C298.54,173.92 302.56,174.70 307.78,175.07C312.57,175.41 319.31,175.75 322.75,175.84zM358.17,169.42C358.55,167.81 359.36,157.95 359.98,147.50C360.60,137.05 361.20,127.15 361.30,125.50C361.50,122.50 361.50,122.50 351.80,122.21C342.60,121.94 342.04,122.04 340.82,124.21C339.94,125.80 339.53,131.27 339.52,142.00C339.50,154.56 339.83,158.22 341.22,161.31C342.87,164.94 343.14,165.10 347.14,164.81C350.92,164.53 351.46,164.15 352.59,161.00C353.35,158.89 353.88,158.26 353.92,159.41C353.97,160.46 354.78,163.80 355.74,166.83C357.40,172.10 357.50,172.21 358.17,169.42zM461.81,156.84C461.64,163.62 461.16,168.83 460.75,168.42C460.34,168.01 459.99,165.15 459.98,162.08C459.98,159.01 459.58,155.89 459.11,155.15C458.43,154.07 457.98,154.19 456.88,155.74C456.12,156.81 454.52,158.20 453.32,158.84C452.11,159.48 449.47,160.00 447.45,160.00C444.50,160.00 442.99,159.22 439.88,156.12C437.01,153.24 436.00,151.41 436.00,149.07C436.00,147.05 436.88,145.03 438.45,143.45C439.95,141.96 442.01,141.02 443.70,141.06C446.38,141.12 446.41,141.16 444.24,142.03C443.00,142.53 441.47,144.06 440.85,145.43C439.94,147.43 440.04,148.41 441.37,150.44C442.28,151.83 444.23,153.27 445.69,153.64C447.33,154.05 449.36,153.75 450.93,152.87C452.34,152.08 453.65,150.39 453.83,149.12C454.03,147.72 453.24,145.80 451.83,144.29C449.50,141.77 449.50,141.77 452.50,142.38C454.15,142.72 456.13,142.59 456.90,142.10C457.67,141.60 458.01,140.48 457.67,139.59C457.33,138.70 455.80,137.49 454.28,136.91C452.67,136.30 449.19,136.13 446.00,136.52C442.98,136.88 427.34,137.38 411.25,137.62C392.89,137.90 382.00,137.70 382.00,137.10C382.00,136.57 382.89,135.85 383.97,135.51C385.06,135.16 397.99,134.57 412.72,134.19C427.45,133.81 444.31,133.64 450.19,133.81C460.87,134.13 460.87,134.13 461.49,139.31C461.84,142.17 461.98,150.05 461.81,156.84zM120.73,167.93C121.41,167.97 122.17,166.99 122.42,165.75C122.67,164.51 123.14,159.80 123.46,155.28C123.78,150.75 124.31,146.37 124.63,145.53C125.07,144.38 124.51,144.00 122.36,144.00C120.79,144.01 118.04,144.90 116.25,145.99C113.28,147.80 112.99,148.42 112.88,153.24C112.82,156.13 112.83,159.18 112.92,160.00C113.01,160.82 113.56,162.47 114.15,163.65C114.75,164.83 116.19,166.26 117.36,166.83C118.54,167.40 120.05,167.90 120.73,167.93zM110.14,164.04C110.48,163.74 110.98,160.01 111.23,155.75C111.64,148.96 111.49,148.00 110.01,148.00C109.08,148.00 105.63,149.34 102.35,150.98C99.07,152.62 95.34,155.08 94.06,156.43C92.75,157.83 92.00,159.56 92.33,160.42C92.65,161.26 93.95,162.14 95.21,162.39C96.47,162.64 100.20,163.23 103.50,163.71C106.80,164.19 109.79,164.34 110.14,164.04zM331.69,162.65C332.03,162.30 332.66,155.82 333.08,148.26C333.50,140.69 334.16,131.46 334.56,127.75C335.23,121.41 335.15,121.00 333.26,121.00C332.15,121.00 330.63,121.74 329.87,122.65C328.83,123.91 328.51,128.28 328.52,140.90C328.54,151.97 328.96,158.46 329.80,160.39C330.49,161.98 331.34,162.99 331.69,162.65zM590.34,162.80C593.77,162.63 596.41,162.06 596.29,161.50C596.18,160.95 593.56,160.11 590.47,159.63C586.77,159.05 584.50,159.10 583.81,159.79C583.24,160.36 583.09,161.34 583.47,161.96C583.91,162.66 586.52,162.98 590.34,162.80zM314.50,157.47C316.78,157.45 317.50,156.98 317.50,155.51C317.50,154.31 316.56,153.33 315.00,152.89C313.62,152.51 308.62,152.15 303.87,152.10C297.70,152.03 294.92,152.39 294.11,153.37C293.25,154.40 293.30,155.00 294.29,155.82C295.01,156.42 299.17,157.04 303.55,157.20C307.92,157.37 312.85,157.49 314.50,157.47zM576.00,156.50C576.56,156.15 577.00,151.34 577.00,145.50C577.00,139.66 576.56,134.85 576.00,134.50C575.36,134.10 575.00,138.01 575.00,145.50C575.00,152.99 575.36,156.90 576.00,156.50zM622.97,157.00C627.94,157.00 632.00,156.79 632.00,156.53C632.00,156.26 630.66,155.36 629.03,154.51C627.39,153.67 623.40,152.70 620.16,152.36C616.13,151.94 614.05,152.12 613.55,152.92C613.15,153.57 613.07,154.75 613.38,155.55C613.81,156.67 616.00,157.00 622.97,157.00zM591.13,153.00C594.29,153.00 597.12,152.62 597.41,152.15C597.70,151.68 597.37,150.52 596.68,149.57C595.82,148.40 593.45,147.67 589.23,147.29C583.91,146.80 582.95,146.97 582.36,148.51C581.91,149.67 582.32,150.76 583.53,151.64C584.58,152.41 587.87,153.00 591.13,153.00zM592.75,140.99C597.30,141.00 598.00,140.74 598.00,139.04C598.00,137.54 596.78,136.71 592.82,135.54C589.97,134.69 586.34,134.00 584.75,134.00C582.33,134.00 581.91,134.36 582.18,136.22C582.36,137.45 583.62,139.02 585.00,139.71C586.38,140.40 589.86,140.98 592.75,140.99zM305.44,140.00C313.01,140.00 318.13,139.59 318.53,138.96C318.88,138.38 318.45,136.81 317.56,135.46C316.03,133.11 315.49,133.00 305.68,133.00C299.02,133.00 294.98,133.42 294.20,134.20C293.54,134.86 293.00,136.44 293.00,137.70C293.00,139.98 293.13,140.00 305.44,140.00zM302.50,127.53C303.60,127.25 308.20,127.02 312.71,127.01C319.80,127.00 321.07,126.73 321.96,125.07C322.74,123.61 322.61,122.75 321.43,121.57C320.26,120.40 317.79,120.00 311.85,120.00C304.24,120.00 303.69,120.15 300.76,123.09C298.26,125.59 297.94,126.35 299.08,127.10C299.86,127.61 301.40,127.80 302.50,127.53zM379.18,119.87C380.10,119.94 381.49,119.36 382.27,118.58C383.16,117.70 383.93,113.86 384.34,108.33C384.69,103.48 385.46,97.81 386.04,95.74C386.62,93.67 386.88,91.62 386.61,91.18C386.34,90.74 367.08,90.51 343.81,90.67C320.54,90.84 298.57,91.25 295.00,91.59C288.81,92.18 288.25,92.46 283.25,97.45C280.36,100.34 278.00,103.36 278.00,104.18C278.00,105.42 279.95,105.61 290.25,105.33C297.45,105.14 306.01,104.22 311.00,103.10C315.68,102.06 322.04,100.93 325.14,100.60C330.05,100.09 330.76,100.23 330.64,101.72C330.53,103.07 331.95,103.69 337.39,104.70C341.35,105.43 346.93,107.43 350.50,109.39C353.92,111.27 359.59,114.02 363.11,115.51C366.62,117.00 371.30,118.56 373.50,118.98C375.70,119.40 378.26,119.81 379.18,119.87zM401.22,118.90C407.42,118.84 418.57,118.46 426.00,118.06C433.43,117.65 451.62,117.02 466.43,116.65C481.25,116.27 493.53,115.80 493.74,115.59C493.95,115.38 493.53,112.82 492.81,109.89C491.61,105.00 491.22,104.51 488.00,103.78C486.07,103.35 469.05,103.19 450.17,103.44C420.54,103.81 415.50,104.10 413.34,105.51C411.96,106.41 410.22,106.91 409.46,106.62C408.36,106.20 408.29,105.45 409.16,102.97C409.80,101.14 411.30,99.46 412.81,98.88C414.38,98.29 421.54,98.18 431.22,98.60C439.94,98.98 447.30,99.68 447.59,100.15C447.88,100.62 449.24,101.00 450.61,101.00C452.99,101.00 453.09,100.76 452.80,95.75C452.50,90.50 452.50,90.50 422.78,90.24C393.07,89.97 393.07,89.97 391.30,92.66C389.99,94.67 389.44,97.99 389.16,105.66C388.95,111.33 389.04,116.65 389.36,117.48C389.83,118.72 392.00,118.98 401.22,118.90zM503.82,115.93C506.40,115.89 510.46,115.55 512.86,115.18C517.13,114.51 517.18,114.46 515.24,112.71C514.15,111.73 509.56,109.36 505.04,107.46C500.52,105.55 496.41,104.25 495.91,104.55C495.41,104.86 495.00,106.38 495.00,107.92C495.00,109.47 495.93,111.92 497.07,113.37C498.81,115.57 499.91,115.99 503.82,115.93zM324.00,112.74C336.12,112.54 338.50,112.25 338.50,111.00C338.50,109.85 336.50,109.30 330.00,108.63C324.31,108.05 320.17,108.13 317.47,108.86C315.25,109.47 312.55,110.64 311.47,111.47C309.69,112.83 310.91,112.95 324.00,112.74zM448.19,77.89C448.57,77.95 449.22,77.45 449.64,76.77C450.06,76.09 450.72,71.03 451.10,65.52C451.48,60.01 452.13,53.54 452.54,51.15C453.29,46.80 453.29,46.80 439.22,47.15C426.82,47.46 424.81,47.75 422.32,49.60C420.77,50.75 416.97,54.80 413.87,58.60C408.24,65.50 408.24,65.50 383.77,66.00C365.55,66.37 358.90,66.84 357.71,67.82C356.84,68.55 356.35,69.75 356.63,70.49C356.95,71.32 359.50,72.04 363.32,72.37C366.72,72.67 377.82,73.19 388.00,73.52C398.18,73.85 413.93,74.51 423.00,74.98C432.07,75.45 441.30,76.27 443.50,76.80C445.70,77.34 447.81,77.82 448.19,77.89zM460.89,76.00C461.40,76.00 462.07,74.31 462.38,72.25C462.68,70.19 463.22,63.66 463.58,57.75C464.22,47.29 464.18,47.00 462.14,47.00C460.99,47.00 459.41,48.01 458.64,49.25C457.86,50.49 456.94,53.82 456.59,56.67C456.24,59.51 456.40,63.83 456.95,66.28C457.50,68.73 458.40,71.92 458.95,73.37C459.50,74.82 460.37,76.00 460.89,76.00zM498.64,69.00C499.44,69.00 499.69,68.36 499.30,67.34C498.73,65.87 499.38,65.76 505.37,66.38C512.08,67.06 512.08,67.06 513.58,63.46C514.55,61.14 514.98,57.48 514.79,53.18C514.50,46.50 514.50,46.50 505.20,45.64C496.82,44.87 495.69,44.97 493.83,46.64C491.97,48.31 491.82,49.30 492.29,56.34C492.72,62.66 493.26,64.65 495.09,66.59C496.33,67.92 497.93,69.00 498.64,69.00zM472.96,64.50C473.38,63.40 473.94,60.17 474.21,57.31C474.48,54.46 474.30,51.53 473.83,50.81C473.15,49.78 472.64,49.92 471.48,51.44C470.67,52.51 470.00,55.07 470.00,57.13C470.00,59.19 470.50,62.14 471.10,63.68C472.12,66.28 472.26,66.34 472.96,64.50zM484.37,64.80C485.56,64.62 486.71,63.45 487.11,62.00C487.49,60.62 487.85,56.46 487.90,52.75C487.99,46.74 487.79,46.00 486.09,46.00C485.04,46.00 482.96,47.44 481.48,49.20C479.17,51.95 478.85,53.09 479.24,57.17C479.49,59.79 480.29,62.65 481.01,63.52C481.73,64.38 483.25,64.96 484.37,64.80zM524.50,64.00C525.81,64.00 527.45,62.96 528.38,61.54C529.33,60.10 530.00,56.99 530.00,54.07C530.00,50.15 529.58,48.85 528.07,48.04C527.00,47.47 525.23,47.00 524.13,47.00C523.00,47.00 521.85,47.88 521.49,49.03C521.14,50.14 521.16,53.97 521.54,57.53C522.17,63.38 522.45,64.00 524.50,64.00zM539.26,60.82C540.96,60.58 541.57,59.74 541.81,57.34C542.05,54.82 541.67,54.03 539.95,53.48C538.54,53.04 537.22,53.35 536.21,54.36C534.92,55.65 534.86,56.39 535.83,58.53C536.69,60.41 537.65,61.05 539.26,60.82z"/>
</svg>