<?xml version="1.0" encoding="UTF-8" standalone="no"?>
<svg 
  version="1.1" 
  xmlns="http://www.w3.org/2000/svg" 
  xmlns:xlink="http://www.w3.org/1999/xlink" 
  xmlns:svg="http://www.w3.org/2000/svg"
  xmlns:rdf="http://www.w3.org/1999/02/22-rdf-syntax-ns#"
  xmlns:cc="http://creativecommons.org/ns#"
  xmlns:dc="http://purl.org/dc/elements/1.1/"
  viewBox="0 0 768 768"
  width="768"
  height="768"
>
<style>svg {background-color: white; }</style>"
<metadata id="metadata1">
Created by https://svgstud.io and licensed under CC-BY-SA 4.0 license. Please attribute https://svgstud.io
</metadata>
<metadata id="prompt">
Spaceship game sprite. Designed for a vertically scrolling game.
The ship will be viewed from a top-down view, vector illustration, monochrome
</metadata>
<metadata id="version">
7
</metadata>
<metadata id="metadata2">
<rdf:RDF>
<cc:Work
    rdf:about="">
    <cc:license
    rdf:resource="http://creativecommons.org/licenses/by-sa/4.0/" />
    <dc:creator>
        <cc:Agent>
            <dc:title>https://svgstud.io</dc:title>
        </cc:Agent>
    </dc:creator>
</cc:Work>
<cc:License
    rdf:about="http://creativecommons.org/licenses/by-sa/4.0/">
    <cc:permits
    rdf:resource="http://creativecommons.org/ns#Reproduction" />
    <cc:permits
    rdf:resource="http://creativecommons.org/ns#Distribution" />
    <cc:requires
    rdf:resource="http://creativecommons.org/ns#Notice" />
    <cc:requires
    rdf:resource="http://creativecommons.org/ns#Attribution" />
    <cc:permits
    rdf:resource="http://creativecommons.org/ns#DerivativeWorks" />
    <cc:requires
    rdf:resource="http://creativecommons.org/ns#ShareAlike" />
</cc:License>
</rdf:RDF>
</metadata>
<metadata id="uid">
b762e4dfce96333f0c3f2139608ea184f45cece4753ba3dc64ccacc1ce960cee
</metadata>
<path stroke="none" fill="black" fill-rule="evenodd" d="M383.00,756.90C200.33,756.82 146.73,756.52 140.50,755.55C136.10,754.86 129.19,753.54 125.14,752.61C121.10,751.69 114.12,749.66 109.64,748.10C105.16,746.55 98.12,743.59 94.00,741.53C89.88,739.47 82.68,735.25 78.00,732.16C73.33,729.07 65.44,722.48 60.48,717.52C55.51,712.56 49.37,705.35 46.83,701.50C44.28,697.65 40.86,691.80 39.22,688.50C37.58,685.20 34.88,678.23 33.22,673.00C31.55,667.77 29.70,659.45 29.10,654.50C28.50,649.55 28.05,641.00 28.10,635.50C28.16,630.00 28.56,624.38 29.00,623.00C29.44,621.62 29.85,621.09 29.90,621.82C29.96,622.55 30.56,623.70 31.25,624.37C31.94,625.05 36.33,627.11 41.00,628.97C45.67,630.82 50.62,633.06 52.00,633.95C53.38,634.84 56.52,636.53 59.00,637.71C61.48,638.88 65.97,640.95 69.00,642.31C72.03,643.67 77.42,645.92 81.00,647.32C84.58,648.71 89.30,650.32 91.50,650.88C93.70,651.45 97.25,652.19 99.39,652.53C102.73,653.06 103.08,653.34 101.88,654.54C101.08,655.35 94.72,656.81 86.99,657.97C79.57,659.08 71.25,660.59 68.50,661.32C63.50,662.65 63.50,662.65 75.00,663.32C81.33,663.69 89.65,664.00 93.50,664.01C97.35,664.02 101.12,664.42 101.88,664.91C102.99,665.61 102.89,665.89 101.38,666.30C100.35,666.59 97.70,667.11 95.50,667.45C93.30,667.79 90.19,668.33 88.58,668.65C86.31,669.10 86.00,669.42 87.20,670.09C88.04,670.56 96.10,671.65 105.12,672.50C114.13,673.36 122.62,674.30 123.99,674.61C125.92,675.03 126.14,675.34 124.99,675.96C124.17,676.41 120.35,677.26 116.50,677.87C112.65,678.47 101.62,679.42 92.00,679.99C82.38,680.56 70.22,681.48 65.00,682.05C59.77,682.61 54.23,683.33 52.68,683.63C51.13,683.94 50.14,684.48 50.49,684.83C50.84,685.18 56.84,686.23 63.81,687.17C70.79,688.10 78.75,689.34 81.50,689.92C84.25,690.49 99.10,691.71 114.50,692.63C129.90,693.55 148.57,694.50 155.99,694.74C163.42,694.97 171.97,694.71 174.99,694.15C178.89,693.44 186.51,693.52 201.00,694.45C219.26,695.63 222.27,696.07 228.50,698.54C234.87,701.06 236.94,701.35 251.50,701.74C260.30,701.98 268.57,701.77 269.87,701.27C271.97,700.47 271.47,700.15 265.63,698.57C261.74,697.52 259.28,696.36 259.65,695.76C260.06,695.10 265.16,694.98 274.39,695.42C288.00,696.08 288.77,696.01 296.00,693.44C300.81,691.74 305.47,690.80 309.00,690.83C312.02,690.86 319.85,690.97 326.40,691.08C337.76,691.26 338.19,691.35 336.07,692.95C334.15,694.40 334.04,694.79 335.32,695.85C336.13,696.52 339.42,697.52 342.65,698.06C346.03,698.64 356.73,698.82 368.00,698.48C378.73,698.17 393.12,697.48 400.00,696.95C406.88,696.42 416.91,695.25 422.29,694.34C428.02,693.37 431.71,692.31 431.19,691.79C430.70,691.30 427.87,690.25 424.90,689.47C421.93,688.68 407.61,685.97 393.08,683.44C366.66,678.84 366.66,678.84 360.08,680.50C356.46,681.42 351.08,682.56 348.13,683.05C344.04,683.72 340.24,683.47 332.13,681.97C326.28,680.88 318.97,679.50 315.88,678.89C311.83,678.09 308.85,678.08 305.26,678.85C302.51,679.44 294.02,680.42 286.38,681.02C278.75,681.62 269.50,682.80 265.83,683.65C260.57,684.85 254.74,685.08 238.33,684.72C220.30,684.32 216.76,683.98 212.00,682.16C207.69,680.52 204.19,680.06 195.86,680.03C190.01,680.01 181.63,679.32 177.25,678.49C172.87,677.66 166.06,675.88 162.12,674.54C158.18,673.20 149.19,670.96 142.15,669.57C135.10,668.17 126.97,666.05 124.09,664.85C119.54,662.96 119.09,662.53 120.67,661.62C121.70,661.03 129.04,660.53 137.50,660.48C151.56,660.39 152.87,660.21 158.37,657.69C161.60,656.21 165.52,655.00 167.09,655.00C168.65,655.00 172.01,655.71 174.55,656.57C178.98,658.07 179.55,658.03 188.11,655.58C193.02,654.17 199.19,651.92 201.82,650.59C204.46,649.26 208.22,647.86 210.19,647.49C212.16,647.12 214.02,647.23 214.33,647.73C214.64,648.22 212.67,650.76 209.95,653.36C207.23,655.96 205.00,658.54 205.00,659.11C205.00,659.67 205.79,659.89 206.75,659.59C207.71,659.29 212.10,658.13 216.50,657.01C221.16,655.83 229.88,654.71 237.39,654.33C248.78,653.75 250.06,653.51 248.39,652.27C247.35,651.50 245.83,650.48 245.01,650.01C244.19,649.54 243.81,648.85 244.18,648.49C244.54,648.13 249.26,647.44 254.67,646.96C260.08,646.48 266.88,646.36 269.79,646.69C275.08,647.28 275.08,647.28 271.28,648.98C269.20,649.92 265.91,651.17 263.99,651.76C262.07,652.35 258.77,653.12 256.65,653.48C253.11,654.08 252.95,654.24 254.65,655.49C256.39,656.77 256.33,656.92 253.50,658.09C251.85,658.77 245.45,659.53 239.28,659.77C231.06,660.10 227.74,660.61 226.85,661.68C225.88,662.85 225.91,663.32 226.96,663.97C227.69,664.43 230.84,665.30 233.95,665.91C238.43,666.79 240.53,666.74 244.05,665.64C246.50,664.88 251.56,663.09 255.29,661.66C259.03,660.23 261.81,659.50 261.48,660.03C261.14,660.58 262.30,660.99 264.19,660.99C266.01,660.98 269.98,660.31 273.00,659.50C276.02,658.69 279.24,658.02 280.13,658.01C281.03,658.01 282.01,658.94 282.31,660.09C282.76,661.79 283.41,662.08 285.68,661.63C287.23,661.32 290.30,660.76 292.50,660.38C296.50,659.69 296.50,659.69 292.72,663.89C290.63,666.19 289.23,668.57 289.60,669.17C290.04,669.87 292.38,670.04 296.26,669.63C300.31,669.21 304.05,667.97 307.81,665.82C312.88,662.92 314.29,662.61 323.93,662.22C329.74,661.99 337.05,661.74 340.17,661.65C343.28,661.57 346.21,661.90 346.67,662.39C347.13,662.87 347.05,663.44 346.50,663.64C345.95,663.84 343.98,664.94 342.12,666.07C339.91,667.42 339.07,668.47 339.71,669.11C340.25,669.65 344.70,670.17 349.60,670.25C356.40,670.38 360.96,669.78 368.92,667.73C374.66,666.25 382.46,663.85 386.26,662.40C390.35,660.84 392.80,659.40 392.26,658.86C391.77,658.37 387.35,657.26 382.44,656.41C377.53,655.55 373.31,654.65 373.07,654.40C372.82,654.16 373.63,651.88 374.86,649.35C376.30,646.39 376.63,644.92 375.80,645.23C375.08,645.50 372.82,646.32 370.78,647.05C368.73,647.78 366.82,648.15 366.54,647.87C366.26,647.59 366.92,645.61 368.02,643.47C369.24,641.06 370.00,637.59 370.00,634.35C370.00,631.48 369.56,627.98 369.02,626.57C368.28,624.60 367.35,624.00 365.06,624.00C363.13,624.00 361.70,624.68 361.04,625.93C360.47,627.00 360.00,632.41 360.00,637.96C360.00,648.04 360.00,648.05 357.25,649.11C355.74,649.70 353.02,650.42 351.22,650.72C349.15,651.07 346.46,650.61 343.97,649.48C341.78,648.50 340.00,647.51 340.00,647.28C340.00,647.05 340.68,646.18 341.50,645.36C342.57,644.28 343.00,641.66 343.00,636.12C343.00,631.44 342.51,627.76 341.75,626.80C340.74,625.54 336.49,625.00 320.00,624.05C308.73,623.40 293.34,622.24 285.80,621.47C278.27,620.70 270.42,619.37 268.35,618.50C266.29,617.64 261.24,616.24 257.13,615.39C253.03,614.54 247.94,613.16 245.83,612.32C242.97,611.17 242.00,610.21 242.00,608.51C242.00,607.27 242.76,605.63 243.69,604.87C244.62,604.12 245.08,604.00 244.71,604.62C244.28,605.35 245.65,605.95 248.66,606.37C251.20,606.72 254.54,607.00 256.08,607.00C257.62,607.00 259.18,606.52 259.54,605.94C259.90,605.35 259.43,604.02 258.48,602.98C257.07,601.42 256.96,600.54 257.86,597.98C258.50,596.14 258.59,594.19 258.07,593.19C257.60,592.26 255.55,585.38 253.52,577.89C251.49,570.40 249.98,563.20 250.16,561.89C250.44,559.90 251.16,559.44 254.50,559.16C256.70,558.97 266.75,559.13 276.84,559.52C295.19,560.22 295.19,560.22 298.47,563.11C300.28,564.70 302.18,566.00 302.69,566.00C303.21,566.00 304.76,564.76 306.15,563.25C307.55,561.74 310.07,558.48 311.76,556.00C313.45,553.52 315.13,549.61 315.50,547.31C316.16,543.12 316.16,543.12 312.33,542.15C310.22,541.62 301.98,540.44 294.00,539.52C286.02,538.61 272.30,536.75 263.50,535.38C254.70,534.02 243.56,532.04 238.74,530.99C233.92,529.94 228.41,528.34 226.49,527.43C224.58,526.52 220.29,522.71 216.96,518.95C212.71,514.16 209.66,511.69 206.71,510.63C204.39,509.81 196.43,507.23 189.01,504.90C176.57,500.99 175.10,500.27 170.16,495.59C167.21,492.80 162.29,486.96 159.23,482.62C156.17,478.27 151.30,469.94 148.42,464.11C145.54,458.27 142.21,450.59 141.01,447.04C139.54,442.66 138.97,438.96 139.24,435.54C139.45,432.77 139.98,429.74 140.40,428.81C140.99,427.51 140.29,426.68 137.33,425.19C135.22,424.12 129.68,422.31 125.00,421.17C120.33,420.02 110.76,417.73 103.75,416.06C96.74,414.39 88.26,411.64 84.89,409.95C81.53,408.25 72.92,404.65 65.75,401.94C58.58,399.24 50.74,395.86 48.32,394.45C45.90,393.03 42.61,390.06 41.01,387.86C39.42,385.66 37.36,381.59 36.44,378.82C35.20,375.10 34.88,371.42 35.18,364.65C35.53,356.89 36.01,354.79 38.36,350.81C39.88,348.23 42.52,344.75 44.22,343.08C45.93,341.42 50.52,338.85 54.41,337.39C58.31,335.92 66.67,332.10 73.00,328.89C83.14,323.74 86.27,322.69 99.50,319.98C113.81,317.06 114.68,316.74 118.50,313.06C120.70,310.94 124.53,308.19 127.00,306.94C129.47,305.69 135.55,303.85 140.50,302.85C148.28,301.28 149.84,300.61 152.00,297.93C153.38,296.23 156.91,291.85 159.84,288.22C165.19,281.60 165.19,281.60 161.84,278.87C158.94,276.50 158.51,275.58 158.61,271.82C158.68,269.44 160.40,263.00 162.44,257.50C164.48,252.00 169.82,240.07 174.31,231.00C178.79,221.93 186.61,208.30 191.69,200.73C196.77,193.15 205.02,181.58 210.03,175.02C215.03,168.45 225.51,156.46 233.31,148.36C241.12,140.27 252.38,129.47 258.34,124.36C264.30,119.25 275.78,110.65 283.84,105.24C291.90,99.84 300.52,94.23 303.00,92.80C305.48,91.36 308.80,88.81 310.38,87.15C311.97,85.48 313.39,82.97 313.54,81.56C313.70,80.15 313.70,79.00 313.56,79.00C313.41,79.00 312.11,80.10 310.66,81.44C308.22,83.70 307.47,83.84 300.27,83.37C296.00,83.09 289.57,83.37 286.00,84.00C282.43,84.63 276.80,85.35 273.50,85.59C270.20,85.84 262.10,86.91 255.50,87.98C248.90,89.05 239.45,90.45 234.50,91.09C229.55,91.74 222.46,92.88 218.75,93.62C215.04,94.36 210.37,95.65 208.38,96.49C206.39,97.32 203.94,98.00 202.93,98.00C201.93,98.00 197.78,99.52 193.72,101.37C189.65,103.22 184.57,105.30 182.41,106.00C180.26,106.69 175.80,108.58 172.50,110.19C169.20,111.80 165.49,114.19 164.25,115.51C163.01,116.83 162.00,118.11 162.00,118.35C162.00,118.59 163.24,119.07 164.75,119.42C166.26,119.77 169.43,121.03 171.80,122.21C174.16,123.39 177.63,125.97 179.51,127.93C181.39,129.89 183.97,133.07 185.25,135.00C186.66,137.13 190.11,139.87 194.04,142.00C199.38,144.89 200.91,146.32 202.86,150.25C204.23,153.03 204.94,155.73 204.54,156.74C203.95,158.30 203.68,158.22 202.04,156.06C201.03,154.72 200.42,153.07 200.68,152.39C200.94,151.71 200.66,150.23 200.05,149.09C199.44,147.95 197.72,146.40 196.22,145.63C194.72,144.87 191.93,143.91 190.00,143.51C186.50,142.78 186.50,142.78 189.44,145.90C191.57,148.15 192.08,149.32 191.29,150.11C190.69,150.71 189.26,150.90 188.10,150.53C186.94,150.16 185.52,148.97 184.93,147.87C184.14,146.40 184.19,145.47 185.12,144.36C186.13,143.14 186.10,142.67 184.94,141.91C184.15,141.40 181.25,140.34 178.50,139.55C175.75,138.77 172.60,137.90 171.50,137.62C170.40,137.33 172.31,137.35 175.75,137.65C179.19,137.95 182.00,137.98 182.00,137.72C182.00,137.46 180.83,135.16 179.40,132.60C177.97,130.04 175.24,126.76 173.33,125.30C170.87,123.42 168.28,122.52 164.43,122.20C161.29,121.94 157.73,122.28 155.96,123.02C154.28,123.71 150.79,126.66 148.20,129.57C143.49,134.85 143.48,134.86 132.05,137.49C125.76,138.94 119.57,139.86 118.29,139.54C116.32,139.04 116.12,138.64 117.01,136.98C117.86,135.39 117.75,135.00 116.48,135.00C115.60,135.00 115.16,135.45 115.50,136.00C115.84,136.55 115.70,137.00 115.18,137.00C114.67,137.00 113.69,136.33 113.02,135.52C112.07,134.38 111.32,134.29 109.77,135.12C108.67,135.71 106.24,136.20 104.38,136.20C102.52,136.20 100.74,136.60 100.44,137.10C100.13,137.59 98.63,138.00 97.09,138.00C95.55,138.00 92.99,138.43 91.40,138.95C89.80,139.48 86.92,140.17 85.00,140.49C83.08,140.80 79.03,141.48 76.00,142.00C72.97,142.51 67.58,143.62 64.00,144.47C60.42,145.31 52.33,146.94 46.00,148.09C39.67,149.25 33.72,150.60 32.76,151.09C31.81,151.59 30.80,152.00 30.51,152.00C30.23,152.00 30.00,148.00 30.00,143.11C30.00,138.22 30.70,130.55 31.55,126.06C32.40,121.57 34.02,114.88 35.15,111.20C36.28,107.51 39.46,100.00 42.21,94.50C44.97,89.00 49.76,80.71 52.86,76.08C55.96,71.45 63.26,62.90 69.08,57.08C74.89,51.26 83.89,43.47 89.08,39.77C94.26,36.07 103.90,30.37 110.50,27.11C117.10,23.85 126.14,20.05 130.59,18.66C135.04,17.27 143.59,15.13 149.59,13.89C160.50,11.65 160.50,11.65 381.50,11.90C564.40,12.10 604.17,12.38 612.20,13.54C617.54,14.30 625.64,15.88 630.20,17.04C634.77,18.20 643.02,20.92 648.54,23.07C654.07,25.23 662.77,29.46 667.89,32.49C673.01,35.51 680.91,40.89 685.45,44.43C689.99,47.98 697.42,54.84 701.95,59.69C706.49,64.54 712.89,72.52 716.18,77.43C719.46,82.34 723.48,88.99 725.10,92.21C726.73,95.42 729.40,102.05 731.03,106.94C732.67,111.83 734.31,119.31 734.67,123.57C735.19,129.83 735.07,131.16 734.01,130.50C733.29,130.06 727.70,129.33 721.60,128.88C715.49,128.43 704.90,127.20 698.05,126.13C690.00,124.88 684.79,124.51 683.30,125.08C681.73,125.67 681.00,125.59 681.00,124.81C681.00,124.18 680.74,123.92 680.43,124.23C680.12,124.55 680.57,127.18 681.43,130.08C682.29,132.99 683.00,136.78 683.00,138.51C683.00,140.51 682.18,142.38 680.75,143.66C679.51,144.77 674.81,148.24 670.30,151.37C665.80,154.50 659.50,158.25 656.30,159.71C653.11,161.16 645.79,165.94 640.04,170.32C634.29,174.69 627.99,178.98 626.04,179.84C623.52,180.96 619.20,181.42 611.00,181.45C599.85,181.48 599.16,181.35 588.21,177.21C581.06,174.50 573.27,172.39 566.97,171.45C561.50,170.63 555.89,169.53 554.49,169.00C553.10,168.47 548.59,165.76 544.48,162.99C538.76,159.13 537.00,157.39 537.00,155.61C537.00,153.62 538.49,152.63 547.36,148.72C553.06,146.21 564.20,142.11 572.11,139.61C580.03,137.11 591.00,134.29 596.50,133.33C603.84,132.06 612.08,131.59 627.50,131.59C639.39,131.59 651.75,132.12 656.00,132.81C660.12,133.49 666.77,135.00 670.77,136.17C674.76,137.34 678.28,138.05 678.59,137.75C678.89,137.44 678.71,136.36 678.18,135.35C677.66,134.33 676.18,131.10 674.91,128.17C673.63,125.24 671.12,121.55 669.32,119.98C667.52,118.40 664.35,116.64 662.28,116.06C660.20,115.48 653.33,113.83 647.00,112.40C635.97,109.90 634.59,109.81 613.00,110.29C592.89,110.73 589.49,111.06 580.93,113.37C575.67,114.79 569.66,116.66 567.57,117.53C565.49,118.40 563.58,118.92 563.34,118.67C563.09,118.43 564.38,117.30 566.20,116.17C568.01,115.05 571.33,112.18 573.56,109.81C575.79,107.44 580.15,102.35 583.25,98.50C586.34,94.65 591.54,88.87 594.81,85.66C600.38,80.17 601.19,79.73 608.12,78.41C614.52,77.19 616.17,77.20 620.51,78.46C623.57,79.35 627.66,81.73 631.01,84.57C634.03,87.13 638.87,91.76 641.77,94.86C644.67,97.96 647.56,101.40 648.19,102.49C648.81,103.58 646.95,102.35 644.06,99.74C641.16,97.13 638.37,95.00 637.87,95.00C637.36,95.00 637.62,96.31 638.45,97.90C639.28,99.50 641.42,102.37 643.23,104.28C645.73,106.94 647.90,108.05 652.50,109.06C655.80,109.78 660.02,111.51 661.88,112.90C665.26,115.44 665.26,115.44 663.21,111.47C662.07,109.29 657.66,103.69 653.39,99.03C649.13,94.37 643.13,88.47 640.07,85.92C637.01,83.37 631.35,79.36 627.50,77.00C623.65,74.65 619.32,72.02 617.87,71.16C615.37,69.68 614.98,69.77 609.62,73.01C606.53,74.89 604.00,76.78 604.00,77.21C604.00,77.65 603.07,78.00 601.94,78.00C600.81,78.00 600.12,77.61 600.41,77.14C600.71,76.67 599.73,76.41 598.24,76.58C596.76,76.74 595.21,76.34 594.81,75.69C594.40,75.03 593.72,74.48 593.29,74.46C592.85,74.45 591.60,73.93 590.50,73.33C589.40,72.73 584.45,70.88 579.50,69.24C574.55,67.59 568.25,65.55 565.50,64.72C562.75,63.88 558.02,62.68 555.00,62.05C551.98,61.41 544.55,59.98 538.50,58.87C532.45,57.75 523.69,56.19 519.04,55.39C514.38,54.59 504.71,53.26 497.54,52.43C490.37,51.61 472.80,50.66 458.50,50.32C444.20,49.99 428.08,50.05 422.68,50.46C414.07,51.11 412.95,51.40 413.59,52.85C413.99,53.76 414.30,55.51 414.27,56.73C414.24,57.96 411.95,62.02 409.19,65.75C406.42,69.48 402.32,74.18 400.08,76.19C396.00,79.85 396.00,79.85 396.00,93.36C396.00,104.30 396.30,107.16 397.57,108.43C398.44,109.29 399.93,110.00 400.89,110.00C401.85,110.00 404.99,110.70 407.87,111.55C410.75,112.41 413.36,113.77 413.67,114.58C414.00,115.43 413.09,117.11 411.53,118.56C408.83,121.06 408.83,121.06 409.42,132.78C409.74,139.23 410.50,158.45 411.10,175.50C411.70,192.55 412.49,208.97 412.86,212.00C413.51,217.31 413.64,217.50 416.52,217.45C418.16,217.42 426.25,216.64 434.50,215.72C442.75,214.80 454.64,213.57 460.92,212.98C467.20,212.39 472.67,211.70 473.09,211.45C473.50,211.19 478.53,210.95 484.28,210.92C491.56,210.88 495.84,211.32 498.42,212.40C500.45,213.25 504.90,216.60 508.31,219.84C514.50,225.72 514.50,225.72 527.15,226.34C534.11,226.67 543.08,227.49 547.08,228.15C552.23,229.00 553.79,229.57 552.43,230.11C551.37,230.52 548.48,230.63 546.00,230.34C543.52,230.06 532.27,230.32 521.00,230.92C509.73,231.53 495.55,232.89 489.50,233.96C483.45,235.02 473.55,236.82 467.51,237.95C461.47,239.09 455.70,240.28 454.70,240.60C453.70,240.91 443.34,242.91 431.69,245.03C420.04,247.15 404.43,250.02 397.00,251.41C389.57,252.80 377.65,254.61 370.50,255.43C363.35,256.25 346.70,257.83 333.50,258.95C320.30,260.07 305.00,261.45 299.50,262.03C294.00,262.62 283.88,263.76 277.00,264.57C270.12,265.39 260.45,266.69 255.50,267.45C250.55,268.22 241.55,269.55 235.50,270.39C229.45,271.24 220.45,272.20 215.50,272.53C210.55,272.85 200.49,273.99 193.14,275.07C185.80,276.14 178.60,277.30 177.14,277.66C175.69,278.01 173.74,278.81 172.82,279.45C171.89,280.08 168.40,283.85 165.07,287.84C161.73,291.82 159.00,295.67 159.00,296.39C159.00,297.36 162.45,297.86 172.74,298.35C183.85,298.88 188.01,299.52 194.40,301.70C202.32,304.39 202.32,304.39 203.91,302.17C204.78,300.95 207.18,297.77 209.23,295.10C211.85,291.70 213.94,290.05 216.23,289.56C218.03,289.18 227.60,288.47 237.50,288.00C247.40,287.52 259.55,286.43 264.50,285.58C269.45,284.73 275.49,284.03 277.92,284.02C280.35,284.01 282.15,284.18 281.92,284.41C281.69,284.64 272.05,286.24 260.50,287.98C248.95,289.72 235.45,292.06 230.50,293.17C225.55,294.29 220.82,295.63 220.00,296.16C219.02,296.78 221.42,296.89 226.87,296.48C231.47,296.13 242.04,294.74 250.37,293.40C258.69,292.05 274.07,289.63 284.54,288.02C295.01,286.41 311.89,283.72 322.04,282.03C332.19,280.35 342.98,278.54 346.00,278.02C349.02,277.49 355.10,276.79 359.50,276.46C363.90,276.13 371.77,275.25 377.00,274.52C382.23,273.78 389.88,272.90 394.00,272.57C398.12,272.23 412.52,271.29 425.99,270.48C439.45,269.67 453.76,269.00 457.77,269.00C462.68,269.00 465.22,268.59 465.54,267.75C465.87,266.89 469.57,266.35 477.26,266.02C483.44,265.75 493.23,265.52 499.00,265.52C509.50,265.50 509.50,265.50 510.16,272.18C510.52,275.85 511.25,279.62 511.76,280.54C512.51,281.87 512.85,281.30 513.38,277.86C513.75,275.46 514.97,270.71 516.09,267.31C517.21,263.90 519.90,258.37 522.07,255.02C524.24,251.66 527.98,247.00 530.39,244.66C532.80,242.32 537.61,238.89 541.08,237.04C546.08,234.37 548.89,233.58 554.63,233.21C561.09,232.80 562.53,233.06 568.18,235.71C571.66,237.34 577.13,241.08 580.33,244.01C583.54,246.95 588.97,252.99 592.39,257.43C595.82,261.87 601.79,270.46 605.67,276.52C609.54,282.57 613.03,288.51 613.40,289.70C614.00,291.59 613.67,291.91 610.80,292.18C608.98,292.36 607.53,292.95 607.56,293.50C607.59,294.05 608.94,294.78 610.56,295.13C612.18,295.48 616.03,295.82 619.11,295.88C622.20,295.95 630.07,297.11 636.61,298.48C643.15,299.84 651.88,301.83 656.00,302.90C660.12,303.98 669.35,307.50 676.50,310.73C683.65,313.97 691.52,317.92 694.00,319.52C696.48,321.11 701.72,324.05 705.65,326.04C709.58,328.03 715.70,331.98 719.26,334.81C722.82,337.64 727.34,341.74 729.32,343.93C731.30,346.12 733.93,349.84 735.16,352.20C736.76,355.25 737.41,358.24 737.43,362.50C737.44,366.90 736.75,369.97 734.86,374.00C733.43,377.02 730.82,381.30 729.06,383.50C727.29,385.70 723.52,389.45 720.67,391.82C717.83,394.20 709.65,399.00 702.50,402.49C695.35,405.98 685.87,409.97 681.42,411.35C676.98,412.73 663.38,416.35 651.19,419.39C639.00,422.43 628.01,425.45 626.76,426.10C625.52,426.75 622.81,428.80 620.75,430.64C617.41,433.63 616.37,434.00 611.25,433.99C608.09,433.98 597.85,433.31 588.50,432.51C579.15,431.70 570.49,431.03 569.25,431.02C568.01,431.01 567.00,431.40 567.00,431.88C567.00,432.37 568.01,433.04 569.25,433.38C570.49,433.72 580.73,434.45 592.00,435.01C603.27,435.56 621.02,436.73 631.43,437.60C641.85,438.48 651.41,439.59 652.68,440.07C653.96,440.55 655.00,441.41 655.00,441.97C655.00,442.53 653.41,444.76 651.46,446.91C649.51,449.07 648.32,451.08 648.81,451.38C649.30,451.69 656.74,452.06 665.35,452.22C679.78,452.48 680.99,452.64 681.00,454.34C681.00,455.36 678.55,459.63 675.56,463.84C672.57,468.05 667.51,474.79 664.31,478.80C661.12,482.82 653.54,490.58 647.47,496.06C641.40,501.54 634.65,507.22 632.47,508.70C630.29,510.17 626.28,513.13 623.56,515.27C620.84,517.41 616.46,520.25 613.82,521.59C611.17,522.93 605.30,524.94 600.76,526.06C595.76,527.29 586.21,528.45 576.59,529.00C560.68,529.90 560.68,529.90 557.09,533.40C555.12,535.33 551.70,537.65 549.51,538.57C546.70,539.74 539.42,540.61 525.01,541.51C513.73,542.21 503.31,543.26 501.85,543.83C500.39,544.41 498.91,545.33 498.57,545.89C498.21,546.46 499.36,547.11 501.22,547.40C503.02,547.67 511.48,548.15 520.00,548.46C528.52,548.77 536.51,549.30 537.75,549.63C538.99,549.96 540.00,550.86 540.00,551.62C540.00,552.38 536.71,557.39 532.68,562.75C528.65,568.11 523.84,574.75 521.99,577.50C520.13,580.25 516.44,585.36 513.77,588.85C510.42,593.26 509.12,595.79 509.53,597.10C510.11,598.93 509.25,599.00 486.57,599.00C473.61,599.00 463.00,598.72 463.00,598.37C463.00,598.03 467.21,593.36 472.35,588.01C477.49,582.65 482.95,576.62 484.49,574.61C486.02,572.59 487.05,570.72 486.77,570.44C486.49,570.16 484.05,571.69 481.33,573.83C478.62,575.97 473.86,580.60 470.75,584.11C467.64,587.63 462.80,593.12 459.99,596.32C455.79,601.12 454.94,602.71 455.19,605.32C455.50,608.50 455.50,608.50 467.00,608.37C473.32,608.29 484.35,608.01 491.50,607.74C498.65,607.47 505.85,606.72 507.50,606.06C509.15,605.40 511.28,604.15 512.25,603.28C513.86,601.81 514.00,601.85 514.00,603.73C514.00,604.86 511.41,608.47 508.20,611.79C504.08,616.07 501.25,618.11 498.45,618.82C496.28,619.38 486.96,620.27 477.74,620.80C466.82,621.44 460.43,622.23 459.42,623.07C458.14,624.13 457.91,626.63 458.10,637.40C458.33,650.45 458.33,650.45 455.44,652.20C453.85,653.16 450.51,654.24 448.02,654.61C445.54,654.97 440.95,656.08 437.82,657.07C434.70,658.06 425.25,660.05 416.82,661.49C406.52,663.25 399.70,664.98 396.00,666.76C390.50,669.42 390.50,669.42 396.50,669.96C401.77,670.43 402.54,670.78 402.82,672.75C403.00,673.99 403.57,675.00 404.09,675.00C404.62,675.00 408.18,673.42 412.00,671.50C415.82,669.58 419.52,668.01 420.23,668.03C420.93,668.04 419.93,669.38 418.00,671.00C415.13,673.42 414.86,673.94 416.50,673.90C417.60,673.87 420.72,673.06 423.44,672.11C426.15,671.15 428.55,669.86 428.76,669.23C428.97,668.60 427.64,667.68 425.82,667.18C422.63,666.30 422.60,666.25 425.00,665.74C426.38,665.45 431.77,664.26 437.00,663.10C444.21,661.50 448.91,661.09 456.50,661.37C465.42,661.70 466.93,661.50 470.50,659.49C472.70,658.25 476.07,656.93 478.00,656.55C479.93,656.17 482.99,655.39 484.82,654.83C487.19,654.09 487.97,653.36 487.55,652.26C487.04,650.94 487.76,650.81 492.55,651.38C495.86,651.77 502.11,653.83 507.83,656.43C513.15,658.85 521.74,662.24 526.92,663.95C532.10,665.67 538.49,668.28 541.12,669.76C544.22,671.51 545.48,672.71 544.70,673.21C544.04,673.63 541.02,673.98 538.00,673.99C534.98,674.00 530.92,674.44 529.00,674.97C527.08,675.50 518.52,676.45 510.00,677.08C501.48,677.71 488.65,678.55 481.50,678.96C470.34,679.59 467.65,680.09 462.50,682.46C456.78,685.10 456.62,685.28 459.00,686.19C460.38,686.71 466.45,687.81 472.50,688.63C480.72,689.74 485.77,689.89 492.50,689.21C497.45,688.71 503.52,688.29 506.00,688.29C508.48,688.29 513.85,687.71 517.94,687.00C524.32,685.89 527.88,685.95 542.94,687.44C554.13,688.55 565.03,689.00 573.00,688.70C579.88,688.44 590.45,687.75 596.50,687.16C602.55,686.57 610.97,685.42 615.21,684.60C619.45,683.78 623.95,682.52 625.21,681.81C627.29,680.62 626.82,680.44 620.00,679.88C615.88,679.54 607.77,679.19 602.00,679.10C595.76,679.01 584.81,677.80 575.00,676.12C565.92,674.56 556.81,672.57 554.75,671.70C552.69,670.82 551.00,669.63 551.00,669.05C551.00,668.47 551.69,668.00 552.53,668.00C553.38,668.00 557.69,666.80 562.11,665.34C570.15,662.68 570.15,662.68 576.33,664.84C582.22,666.89 582.79,666.92 588.94,665.46C592.77,664.55 597.23,664.17 599.94,664.53C604.17,665.07 604.36,665.01 602.58,663.57C601.52,662.72 599.15,661.74 597.32,661.40C595.48,661.06 593.69,660.31 593.35,659.75C593.00,659.19 593.79,657.90 595.11,656.89C596.45,655.86 599.17,655.03 601.30,655.02C603.39,655.01 606.46,655.70 608.12,656.56C609.99,657.53 612.23,657.89 613.99,657.50C615.86,657.09 618.53,657.60 621.74,658.98C624.43,660.14 628.40,661.24 630.57,661.43C632.73,661.61 637.22,662.92 640.55,664.34C643.88,665.76 650.41,667.60 655.05,668.43C659.70,669.26 666.84,670.65 670.92,671.52C675.00,672.39 680.18,672.96 682.42,672.78C686.16,672.49 685.51,672.15 674.50,668.66C667.90,666.57 661.60,664.47 660.50,664.00C659.01,663.36 659.80,663.12 663.55,663.07C666.33,663.03 674.65,663.46 682.05,664.01C689.45,664.57 702.07,666.44 710.11,668.16C720.04,670.28 725.65,671.04 727.61,670.52C729.20,670.10 729.95,669.55 729.28,669.30C728.42,668.99 728.62,668.25 729.95,666.82C730.99,665.70 732.29,665.06 732.83,665.40C733.47,665.79 733.32,668.24 732.41,672.25C731.63,675.69 728.97,682.62 726.50,687.67C724.02,692.71 719.38,700.36 716.18,704.67C712.98,708.97 707.25,715.36 703.43,718.86C699.62,722.36 693.80,727.16 690.50,729.51C687.20,731.87 680.30,736.08 675.16,738.87C670.02,741.65 662.96,745.08 659.47,746.48C655.98,747.87 648.85,750.15 643.62,751.54C638.40,752.93 630.38,754.73 625.81,755.53C618.66,756.79 584.63,756.98 383.00,756.90zM314.95,735.83C320.20,735.93 323.04,735.65 322.45,735.07C321.93,734.55 314.83,733.21 306.67,732.08C298.52,730.96 289.97,729.56 287.67,728.97C285.38,728.39 282.26,727.42 280.75,726.83C279.24,726.24 278.00,725.43 278.00,725.04C278.00,724.65 282.39,723.81 287.75,723.18C293.11,722.55 303.08,721.81 309.89,721.52C319.79,721.11 322.52,720.67 323.48,719.36C324.57,717.87 326.40,717.83 344.06,718.93C354.73,719.59 363.65,720.32 363.88,720.55C364.12,720.78 362.68,721.65 360.69,722.49C358.69,723.32 356.65,724.00 356.15,724.00C355.65,724.00 354.74,724.61 354.12,725.36C353.20,726.47 354.12,726.83 359.14,727.36C362.53,727.71 370.96,728.00 377.90,728.01C384.83,728.01 398.06,728.48 407.31,729.04C421.04,729.87 426.90,729.77 439.31,728.48C447.66,727.61 458.34,726.24 463.04,725.43C470.63,724.13 472.81,724.14 482.54,725.52C488.57,726.38 497.32,727.54 502.00,728.10C506.68,728.65 514.33,729.76 519.00,730.57C523.67,731.37 532.67,732.08 539.00,732.14C548.42,732.23 552.34,731.78 560.68,729.63C569.18,727.44 573.15,726.99 584.68,726.94C592.28,726.90 602.10,726.49 606.50,726.02C610.90,725.55 619.67,724.66 626.00,724.04C632.33,723.41 642.67,722.23 649.00,721.40C655.33,720.58 663.65,719.07 667.50,718.05C671.35,717.03 677.01,715.68 680.08,715.06C683.56,714.35 685.67,713.42 685.67,712.57C685.67,711.82 684.05,710.44 682.08,709.50C680.11,708.55 674.90,706.41 670.50,704.74C663.10,701.93 661.48,701.70 649.00,701.60C639.15,701.53 633.40,701.99 627.74,703.32C623.46,704.32 620.23,705.56 620.54,706.07C620.86,706.58 622.55,707.00 624.31,707.00C626.06,707.00 632.80,707.75 639.28,708.66C646.66,709.71 650.93,710.73 650.70,711.41C650.51,712.01 648.36,713.03 645.93,713.67C643.49,714.31 636.10,714.87 629.50,714.90C622.90,714.94 613.35,714.33 608.28,713.56C603.21,712.79 598.60,711.87 598.03,711.52C597.46,711.17 580.97,710.92 561.39,710.96C529.15,711.04 524.92,711.24 516.64,713.12C509.35,714.77 505.38,715.09 497.00,714.68C491.23,714.40 485.00,713.63 483.16,712.96C480.57,712.01 477.76,712.00 470.66,712.90C465.62,713.54 460.04,714.29 458.25,714.57C456.46,714.86 455.00,715.49 455.00,715.98C455.00,716.47 455.97,717.17 457.16,717.55C458.84,718.08 459.01,718.41 457.91,719.00C457.14,719.42 450.18,720.26 442.47,720.88C434.75,721.50 423.50,722.00 417.47,722.00C411.43,722.00 402.45,721.52 397.50,720.95C392.55,720.38 384.90,719.20 380.50,718.34C376.10,717.48 370.48,715.98 368.00,715.02C365.52,714.06 359.68,712.73 355.00,712.08C350.32,711.42 342.00,709.69 336.50,708.23C329.29,706.32 323.98,705.57 317.50,705.55C312.55,705.53 303.21,706.36 296.75,707.39C290.29,708.42 285.00,709.60 285.00,710.02C285.00,710.44 287.14,711.25 289.75,711.83C293.32,712.61 289.80,712.71 275.50,712.24C265.05,711.90 242.00,711.60 224.29,711.58C201.09,711.54 191.75,711.85 190.91,712.69C190.02,713.58 190.69,714.11 193.69,714.92C195.86,715.50 203.46,716.64 210.57,717.45C217.68,718.25 225.65,719.22 228.28,719.59C230.90,719.97 233.26,720.62 233.52,721.03C233.77,721.44 229.37,722.31 223.74,722.97C218.11,723.62 210.80,724.48 207.50,724.88C201.50,725.61 201.50,725.61 211.50,726.37C217.00,726.78 227.35,727.75 234.50,728.51C241.65,729.28 250.65,730.18 254.50,730.51C258.35,730.84 269.60,731.98 279.50,733.05C289.40,734.12 299.52,735.14 302.00,735.32C304.48,735.50 310.30,735.73 314.95,735.83zM524.50,726.83C521.20,726.76 517.26,726.51 515.75,726.28C514.24,726.05 513.00,725.38 513.00,724.79C513.00,724.05 515.44,723.91 520.65,724.35C524.86,724.71 529.47,725.01 530.90,725.02C532.95,725.03 533.18,725.24 532.00,726.00C531.17,726.53 527.80,726.91 524.50,726.83zM452.50,701.38C454.70,701.13 458.28,700.44 460.46,699.87C463.37,699.09 464.02,698.59 462.92,697.98C462.10,697.52 457.40,696.44 452.47,695.57C447.54,694.71 441.48,694.01 439.00,694.01C436.52,694.01 432.83,694.48 430.79,695.04C428.74,695.61 426.79,696.54 426.44,697.10C426.09,697.67 426.07,698.40 426.39,698.72C426.71,699.05 431.82,699.88 437.74,700.58C443.66,701.27 450.30,701.64 452.50,701.38zM515.81,695.89C517.63,695.95 518.87,695.59 518.56,695.09C518.25,694.60 515.89,693.47 513.32,692.59C510.75,691.72 507.26,691.01 505.57,691.02C503.88,691.02 501.84,691.45 501.03,691.96C499.73,692.78 499.73,692.96 501.03,693.42C501.84,693.71 504.75,694.35 507.50,694.86C510.25,695.36 513.99,695.83 515.81,695.89zM674.00,686.89C674.83,686.93 680.00,686.32 685.50,685.52C691.00,684.73 697.75,683.35 700.50,682.46C703.25,681.56 706.17,680.61 707.00,680.35C708.33,679.92 708.33,679.77 707.00,679.04C706.17,678.58 701.76,677.45 697.19,676.53C691.89,675.45 686.29,675.02 681.69,675.32C677.74,675.58 668.20,676.50 660.50,677.36C652.80,678.23 646.39,678.95 646.25,678.97C646.11,678.99 646.00,679.38 646.00,679.85C646.00,680.32 648.81,681.46 652.25,682.38C655.69,683.30 661.65,684.68 665.50,685.44C669.35,686.19 673.17,686.85 674.00,686.89zM423.83,654.11C424.56,653.90 425.57,652.63 426.08,651.30C426.58,649.96 427.00,643.55 427.00,637.04C427.00,627.18 426.74,625.11 425.42,624.61C424.55,624.27 420.16,623.97 415.67,623.94C411.18,623.90 404.12,623.53 400.00,623.10C395.88,622.67 391.94,622.52 391.25,622.77C390.35,623.09 390.00,626.37 390.00,634.48C390.00,645.75 390.00,645.75 394.37,645.26C397.73,644.88 400.16,645.41 404.92,647.54C408.32,649.07 411.53,651.12 412.06,652.10C412.72,653.35 414.44,653.98 417.76,654.20C420.37,654.36 423.10,654.33 423.83,654.11zM441.85,654.00C443.45,654.00 445.24,653.42 445.82,652.71C446.41,652.00 447.00,649.56 447.14,647.29C447.27,645.00 446.80,642.46 446.07,641.58C445.02,640.32 445.01,639.70 445.99,638.51C446.67,637.70 446.96,635.98 446.64,634.70C446.32,633.42 444.92,631.76 443.53,631.02C442.14,630.27 440.71,629.96 440.36,630.31C440.00,630.67 439.26,635.44 438.72,640.92C438.18,646.39 438.01,651.57 438.34,652.44C438.69,653.36 440.13,654.00 441.85,654.00zM183.82,650.92C183.09,650.88 179.63,650.22 176.12,649.46C172.61,648.70 169.49,647.82 169.18,647.51C168.87,647.20 169.28,646.29 170.09,645.48C170.90,644.68 174.16,643.53 177.33,642.95C181.51,642.17 184.61,642.19 188.55,643.01C191.55,643.63 194.00,644.52 194.00,644.98C194.00,645.43 192.01,646.98 189.57,648.40C187.14,649.83 184.55,650.96 183.82,650.92zM326.25,645.85C324.19,645.77 321.26,645.51 319.75,645.28C318.24,645.05 317.00,644.46 317.00,643.97C317.00,643.47 317.84,642.62 318.87,642.07C320.01,641.46 321.87,641.40 323.62,641.93C325.21,642.40 327.29,643.11 328.25,643.50C329.21,643.89 330.00,644.62 330.00,645.11C330.00,645.60 328.31,645.93 326.25,645.85zM402.55,614.00C403.40,614.00 405.37,613.34 406.92,612.54C408.48,611.74 413.07,610.87 417.13,610.62C421.18,610.37 426.05,610.12 427.95,610.08C430.31,610.03 431.08,609.68 430.37,608.97C429.81,608.41 427.02,607.67 424.17,607.33C421.33,607.00 419.00,606.22 419.00,605.60C419.00,604.98 420.95,601.56 423.33,597.99C425.71,594.42 430.46,586.16 433.87,579.62C437.28,573.09 439.86,567.52 439.58,567.25C439.31,566.98 438.46,566.99 437.68,567.29C436.91,567.59 430.63,573.92 423.72,581.36C416.81,588.80 409.54,597.66 407.56,601.04C405.57,604.42 403.29,607.86 402.47,608.67C401.66,609.48 401.00,611.01 401.00,612.07C401.00,613.15 401.69,614.00 402.55,614.00zM277.70,611.91C281.50,611.82 281.50,611.82 278.43,610.93C276.74,610.44 274.75,608.90 274.01,607.52C273.27,606.14 272.86,604.80 273.11,604.56C273.35,604.31 277.82,604.53 283.03,605.03C288.24,605.53 302.85,605.90 315.50,605.85C332.23,605.77 336.73,605.53 332.00,604.94C328.43,604.50 321.06,603.68 315.63,603.12C310.20,602.56 305.55,601.89 305.30,601.63C305.05,601.38 305.27,600.35 305.79,599.34C306.31,598.33 306.97,591.59 307.25,584.36C307.53,577.14 307.42,570.68 307.01,570.01C306.46,569.12 305.72,569.08 304.28,569.85C302.72,570.68 302.16,572.36 301.66,577.71C301.30,581.44 301.01,586.75 301.01,589.51C301.00,592.26 301.41,595.94 301.91,597.68C302.58,600.03 302.48,600.98 301.53,601.35C300.82,601.62 294.90,601.21 288.37,600.44C281.84,599.67 276.27,599.03 276.00,599.01C275.73,598.99 276.18,598.53 277.00,598.00C277.82,597.47 279.98,597.02 281.80,597.02C283.61,597.01 286.47,596.29 288.14,595.43C290.99,593.96 291.16,593.54 290.80,589.18C290.52,585.78 290.83,584.18 291.95,583.33C292.80,582.69 293.19,581.85 292.81,581.47C292.43,581.09 287.24,580.18 281.29,579.45C275.34,578.72 269.69,577.82 268.74,577.46C267.52,576.99 267.27,576.34 267.89,575.23C268.37,574.37 268.42,572.46 267.99,570.97C267.57,569.49 266.71,567.33 266.09,566.16C265.46,565.00 264.02,563.55 262.88,562.94C261.75,562.33 259.73,562.10 258.41,562.43C256.60,562.89 256.00,563.72 256.00,565.77C256.00,567.27 256.79,570.08 257.75,572.00C259.11,574.71 260.29,575.64 263.00,576.12C266.50,576.74 266.50,576.74 263.25,576.87C260.74,576.97 260.00,577.44 260.00,578.95C260.00,580.03 261.16,583.97 262.57,587.70C263.99,591.44 266.05,597.37 267.16,600.88C268.27,604.39 270.24,608.33 271.54,609.63C273.25,611.34 274.97,611.97 277.70,611.91zM357.37,600.00C361.68,600.00 361.76,599.94 363.87,594.86C366.00,589.73 366.00,589.73 370.67,590.37C373.24,590.72 375.54,591.21 375.79,591.45C376.03,591.70 375.73,593.32 375.13,595.06C374.52,596.81 374.27,598.63 374.57,599.11C374.87,599.60 376.81,600.00 378.87,600.00C380.93,600.00 383.35,599.44 384.25,598.75C385.14,598.06 386.02,596.15 386.19,594.50C386.50,591.50 386.50,591.50 397.91,591.29C404.18,591.18 409.78,590.62 410.34,590.06C410.90,589.50 411.08,588.75 410.73,588.40C410.38,588.05 408.00,587.37 405.45,586.89C402.89,586.41 388.36,585.36 373.15,584.56C357.94,583.76 338.30,583.04 329.50,582.96C320.70,582.89 312.94,582.86 312.25,582.91C311.56,582.96 311.00,583.44 311.00,583.97C311.00,584.51 312.35,585.65 314.00,586.50C315.80,587.43 317.00,588.84 317.00,590.03C317.00,591.11 317.40,592.00 317.88,592.00C318.37,592.00 319.02,591.04 319.33,589.86C319.83,587.92 320.33,587.79 324.95,588.40C327.74,588.77 330.70,589.33 331.53,589.65C332.63,590.07 332.15,590.68 329.78,591.87C327.98,592.76 326.35,594.35 326.15,595.38C325.96,596.41 326.29,597.56 326.89,597.93C327.49,598.30 330.79,598.50 334.24,598.37C337.68,598.24 340.84,598.11 341.25,598.07C341.66,598.03 342.00,596.20 342.00,594.00C342.00,590.00 342.00,590.00 347.75,590.12C350.91,590.18 354.85,590.53 356.50,590.89C358.61,591.35 359.11,591.79 358.18,592.37C357.46,592.83 356.60,592.93 356.28,592.61C355.95,592.28 355.08,592.52 354.34,593.13C353.60,593.74 353.00,595.54 353.00,597.12C353.00,599.85 353.22,600.00 357.37,600.00zM400.99,599.69C402.43,599.58 403.62,598.79 403.80,597.81C403.98,596.86 403.01,595.40 401.57,594.45C400.16,593.53 398.34,593.04 397.51,593.36C396.68,593.68 396.00,595.04 396.00,596.39C396.00,597.73 396.56,599.07 397.25,599.36C397.94,599.65 399.62,599.80 400.99,599.69zM506.48,586.02C507.32,585.32 511.52,579.52 515.81,573.12C520.10,566.73 523.96,560.83 524.38,560.00C524.80,559.17 523.27,560.52 520.98,562.98C518.69,565.44 514.45,571.07 511.56,575.48C508.66,579.89 505.99,584.35 505.62,585.39C505.06,587.00 505.18,587.09 506.48,586.02zM402.59,582.00C405.80,582.00 407.24,581.54 407.69,580.37C408.09,579.32 407.45,578.09 405.91,576.92C403.92,575.41 403.70,574.77 404.63,573.25C405.45,571.92 405.47,568.79 404.72,561.71C404.03,555.18 403.28,552.00 402.44,552.00C401.76,552.00 400.71,553.39 400.12,555.10C399.52,556.80 398.55,563.09 397.95,569.08C397.35,575.07 397.14,580.42 397.49,580.98C397.83,581.54 400.13,582.00 402.59,582.00zM370.09,580.34C373.43,580.25 376.42,579.91 376.74,579.59C377.07,579.26 375.96,579.00 374.29,579.00C372.62,579.00 369.84,578.72 368.12,578.38C365.97,577.94 365.00,577.17 365.00,575.89C365.00,574.78 365.90,573.84 367.25,573.55C368.49,573.28 370.62,572.93 372.00,572.78C373.72,572.59 374.50,571.89 374.50,570.54C374.50,569.13 373.58,568.39 371.20,567.91C369.38,567.54 367.62,566.95 367.28,566.62C366.94,566.28 368.27,566.00 370.23,566.00C372.56,566.00 374.00,565.45 374.40,564.41C374.73,563.54 374.71,562.34 374.35,561.76C373.99,561.18 373.65,559.32 373.60,557.63C373.51,554.98 373.00,554.42 369.83,553.53C367.81,552.96 365.83,552.16 365.42,551.75C365.00,551.34 363.90,551.00 362.96,551.00C361.50,551.00 361.13,552.77 360.31,563.75C359.79,570.76 359.54,577.01 359.74,577.62C359.95,578.24 361.00,579.14 362.08,579.62C363.15,580.11 366.76,580.43 370.09,580.34zM327.36,576.99C329.09,576.98 331.51,576.70 332.75,576.37C334.05,576.02 335.00,574.99 335.00,573.92C335.00,572.60 333.79,571.75 330.75,570.91C327.18,569.93 326.82,569.62 328.50,568.96C329.60,568.52 331.29,567.92 332.25,567.61C333.50,567.22 334.00,566.01 334.00,563.36C334.00,561.25 333.25,558.81 332.25,557.68C330.97,556.24 330.83,555.59 331.75,555.27C332.44,555.03 333.00,553.96 333.00,552.89C333.00,551.73 331.97,550.56 330.43,549.98C329.02,549.44 327.04,549.00 326.02,549.00C324.33,549.00 324.13,550.13 323.81,561.75C323.61,568.76 323.62,575.06 323.83,575.75C324.04,576.44 325.63,576.99 327.36,576.99zM461.17,534.50C485.73,534.50 506.10,534.23 506.43,533.90C506.77,533.57 499.94,533.02 491.27,532.67C482.60,532.33 452.77,532.11 425.00,532.19C397.23,532.27 376.52,532.50 379.00,532.70C381.48,532.91 390.93,533.40 400.00,533.79C409.07,534.18 436.60,534.50 461.17,534.50zM305.00,529.70C310.34,529.78 310.38,529.76 306.50,528.98C304.30,528.54 295.98,527.42 288.00,526.51C280.02,525.60 266.07,523.75 257.00,522.41C247.93,521.07 237.41,519.29 233.62,518.45C229.84,517.61 226.51,517.16 226.22,517.44C225.93,517.73 228.13,519.07 231.10,520.42C234.07,521.76 239.88,523.55 244.00,524.38C248.12,525.21 259.15,526.59 268.50,527.44C277.85,528.29 288.65,529.13 292.50,529.30C296.35,529.47 301.98,529.65 305.00,529.70zM603.65,505.44C605.22,503.75 608.04,500.15 609.92,497.44C611.80,494.72 616.65,485.82 620.70,477.64C624.75,469.47 629.51,460.57 631.28,457.86C633.32,454.73 636.76,451.45 640.67,448.90C644.06,446.68 647.10,444.17 647.43,443.32C647.95,441.96 647.09,441.85 640.76,442.44C636.77,442.81 622.00,442.61 607.95,442.01C590.40,441.25 581.55,441.22 579.70,441.92C578.21,442.49 577.00,443.59 577.00,444.37C577.00,445.15 577.62,446.02 578.38,446.31C579.14,446.61 589.60,447.34 601.63,447.96C613.66,448.57 624.94,449.29 626.69,449.57C629.88,450.07 629.88,450.07 627.56,454.78C626.28,457.38 622.41,465.80 618.96,473.50C615.51,481.20 611.92,488.62 610.98,490.00C610.04,491.38 607.37,496.10 605.04,500.50C601.21,507.73 601.08,508.20 603.65,505.44zM535.16,494.91C536.35,494.28 541.90,489.20 547.50,483.62C553.09,478.04 558.21,472.47 558.87,471.24C559.82,469.46 559.81,469.00 558.80,469.00C558.09,469.00 552.02,474.74 545.29,481.75C538.57,488.76 533.05,494.85 533.03,495.29C533.02,495.72 533.97,495.55 535.16,494.91zM432.06,494.96C433.47,494.98 435.49,494.36 436.56,493.57C438.16,492.39 438.24,492.06 437.00,491.64C436.18,491.36 433.12,490.65 430.20,490.07C427.29,489.48 424.70,489.00 424.45,489.00C424.20,489.00 424.00,489.66 424.00,490.47C424.00,491.28 425.24,492.61 426.75,493.43C428.26,494.25 430.65,494.94 432.06,494.96zM511.10,488.47C514.45,485.19 524.04,473.95 532.41,463.50C540.78,453.05 550.75,441.70 554.56,438.27C561.50,432.04 561.50,432.04 557.34,432.02C553.47,432.00 552.74,432.48 546.69,439.01C543.12,442.87 537.37,450.18 533.92,455.26C530.47,460.34 523.51,469.90 518.45,476.50C513.39,483.10 508.30,489.36 507.13,490.40C505.96,491.45 505.00,492.79 505.00,493.37C505.00,493.96 507.74,491.75 511.10,488.47zM627.56,494.00C635.68,494.00 639.90,493.65 639.50,493.00C639.14,492.42 633.82,492.00 626.94,492.00C619.65,492.00 615.00,492.39 615.00,493.00C615.00,493.61 619.85,494.00 627.56,494.00zM574.95,491.84C583.38,491.94 588.05,491.65 587.45,491.06C586.93,490.54 580.59,489.58 573.37,488.92C566.15,488.26 559.06,488.02 557.62,488.38C556.18,488.74 555.00,489.45 555.00,489.96C555.00,490.46 556.46,491.05 558.25,491.28C560.04,491.50 567.55,491.75 574.95,491.84zM358.24,486.83C359.85,485.69 361.42,484.06 361.75,483.22C362.10,482.31 361.41,480.94 360.06,479.84C358.80,478.83 356.32,478.00 354.54,478.00C352.62,478.00 350.60,478.78 349.57,479.93C348.61,480.98 347.98,482.67 348.17,483.68C348.35,484.68 350.04,486.27 351.91,487.20C355.20,488.84 355.43,488.83 358.24,486.83zM241.25,487.83C245.97,487.93 249.00,487.60 249.00,486.98C249.00,486.42 247.99,485.53 246.75,485.01C245.51,484.48 237.18,483.64 228.23,483.13C218.10,482.56 211.40,481.74 210.47,480.98C209.66,480.30 207.20,476.11 205.02,471.68C202.84,467.24 201.21,463.46 201.39,463.27C201.58,463.09 206.63,463.40 212.62,463.97C218.60,464.53 227.88,465.00 233.23,465.00C242.96,465.00 242.96,465.00 245.02,469.04C246.17,471.29 248.20,473.51 249.61,474.04C250.99,474.57 255.03,475.00 258.57,475.00C262.10,475.00 264.98,474.66 264.95,474.25C264.93,473.84 263.91,468.79 262.69,463.03C260.76,453.89 260.14,452.38 257.84,451.08C255.54,449.80 251.42,449.76 225.85,450.79C209.71,451.44 186.15,452.49 173.50,453.13C160.85,453.77 150.37,454.39 150.20,454.52C150.04,454.65 152.61,459.22 155.90,464.67C159.19,470.13 163.02,475.81 164.40,477.29C165.78,478.78 167.37,480.00 167.94,480.00C168.51,480.00 167.59,476.29 165.90,471.75C164.20,467.21 162.59,462.60 162.32,461.50C161.91,459.85 162.02,459.76 162.91,461.00C163.83,462.27 164.09,462.16 164.62,460.25C164.96,459.01 165.54,458.00 165.93,458.00C166.31,458.00 167.33,458.56 168.19,459.25C169.06,459.94 171.93,463.84 174.59,467.92C177.24,472.00 181.00,477.02 182.95,479.07C186.05,482.32 187.26,482.88 192.50,483.43C195.80,483.77 204.35,484.73 211.50,485.55C218.65,486.37 226.53,487.17 229.00,487.34C231.47,487.51 236.99,487.73 241.25,487.83zM309.87,487.80C312.14,487.61 313.59,486.93 313.77,485.98C313.93,485.15 313.45,483.63 312.70,482.61C311.82,481.41 309.98,480.71 307.43,480.63C304.13,480.52 303.45,480.84 303.20,482.63C303.03,483.79 303.65,485.51 304.57,486.43C305.67,487.53 307.49,488.00 309.87,487.80zM637.57,485.00C639.27,485.00 640.64,484.00 642.02,481.75C643.11,479.96 644.98,475.42 646.17,471.66C648.00,465.87 648.12,464.69 646.92,463.93C646.14,463.43 645.25,463.02 644.94,463.02C644.63,463.01 643.61,463.56 642.67,464.25C641.74,464.94 639.44,469.55 637.58,474.50C635.72,479.45 634.40,483.84 634.66,484.25C634.91,484.66 636.22,485.00 637.57,485.00zM236.25,482.16C237.21,481.94 238.00,481.26 238.00,480.63C237.99,480.01 237.11,478.05 236.03,476.28C234.95,474.50 232.99,472.78 231.67,472.45C230.35,472.12 227.75,472.00 225.89,472.18C222.93,472.46 222.47,472.88 222.24,475.50C222.10,477.15 222.41,479.16 222.93,479.97C223.48,480.80 226.16,481.67 229.19,481.99C232.11,482.30 235.29,482.38 236.25,482.16zM585.22,481.14C586.71,480.94 588.48,480.12 589.15,479.32C590.12,478.15 590.08,477.66 588.94,476.92C588.15,476.41 583.90,476.10 579.50,476.24C572.25,476.48 571.50,476.69 571.50,478.50C571.50,480.20 572.33,480.58 577.00,481.00C580.02,481.27 583.72,481.34 585.22,481.14zM413.02,481.00C413.94,481.00 416.60,479.63 418.92,477.95C421.23,476.27 422.95,474.35 422.74,473.70C422.52,473.04 420.66,472.36 418.60,472.19C416.37,472.00 413.86,472.51 412.42,473.46C411.02,474.38 410.00,476.02 410.00,477.36C410.00,478.63 410.30,479.97 410.67,480.33C411.03,480.70 412.09,481.00 413.02,481.00zM377.65,478.30C378.54,477.96 378.96,476.95 378.67,475.86C378.41,474.84 378.59,474.25 379.09,474.56C379.59,474.86 380.91,475.29 382.04,475.51C383.44,475.78 384.36,475.21 384.95,473.70C385.42,472.49 386.78,467.45 387.98,462.50C389.17,457.55 390.23,452.82 390.33,452.00C390.48,450.68 383.21,450.54 329.00,450.83C295.18,451.01 266.71,451.38 265.75,451.65C264.79,451.91 264.00,452.71 264.00,453.41C264.00,454.11 265.32,458.64 266.94,463.48C268.55,468.32 270.38,472.77 270.99,473.39C271.75,474.14 279.88,474.50 296.34,474.50C317.80,474.50 320.89,474.70 323.27,476.26C325.42,477.67 327.11,477.89 331.68,477.35C335.77,476.87 338.00,476.03 339.51,474.39C341.02,472.77 342.77,472.10 345.57,472.08C347.73,472.07 354.00,472.42 359.50,472.86C365.00,473.30 370.44,474.16 371.58,474.77C372.73,475.39 374.22,476.56 374.91,477.39C375.59,478.21 376.82,478.62 377.65,478.30zM660.25,475.83C661.21,475.33 663.16,472.65 664.57,469.86C665.98,467.08 666.88,464.14 666.57,463.33C666.25,462.48 665.05,462.00 663.75,462.18C662.24,462.40 660.61,464.14 658.77,467.50C657.27,470.25 656.04,473.25 656.02,474.17C656.01,475.08 656.56,476.04 657.25,476.28C657.94,476.53 659.29,476.32 660.25,475.83zM459.73,475.40C462.90,475.06 468.58,473.73 472.35,472.45C476.11,471.18 480.11,469.31 481.22,468.32C482.33,467.32 484.79,464.09 486.68,461.14C488.57,458.19 489.83,455.49 489.47,455.14C489.12,454.79 469.63,454.37 446.17,454.22C422.14,454.06 402.91,454.33 402.16,454.83C401.42,455.33 400.18,459.42 399.39,463.94C398.61,468.45 398.23,472.56 398.54,473.07C398.86,473.58 400.01,474.00 401.10,474.00C402.20,474.00 406.37,471.79 410.37,469.09C415.52,465.61 418.07,464.43 419.08,465.07C419.86,465.56 423.43,465.99 427.00,466.01C431.19,466.03 434.99,466.72 437.69,467.95C440.00,469.00 443.56,470.99 445.61,472.38C447.66,473.77 449.71,474.68 450.17,474.40C450.63,474.11 451.00,473.01 451.00,471.94C451.00,470.87 451.39,470.00 451.88,470.00C452.36,470.00 453.02,471.36 453.35,473.01C453.95,476.02 453.95,476.02 459.73,475.40zM582.88,469.98C586.63,470.00 587.76,469.48 590.68,466.38C592.56,464.38 593.96,462.02 593.79,461.13C593.57,459.97 592.19,459.42 588.99,459.21C584.82,458.93 584.18,459.24 580.00,463.49C576.31,467.26 575.77,468.25 577.00,469.02C577.83,469.54 580.47,469.98 582.88,469.98zM213.00,448.30C237.48,448.07 257.76,447.58 258.08,447.20C258.40,446.81 259.22,444.55 259.90,442.16C261.01,438.27 261.31,437.96 262.82,439.17C263.74,439.91 266.07,441.30 268.00,442.25C269.93,443.20 272.85,444.07 274.50,444.17C276.15,444.28 280.76,444.28 284.75,444.18C290.64,444.03 292.40,443.60 294.11,441.89C295.80,440.20 296.64,439.98 298.36,440.81C299.54,441.38 303.12,442.08 306.32,442.36C310.77,442.75 313.23,442.40 316.82,440.86C319.90,439.54 322.52,439.06 324.50,439.48C326.15,439.82 330.20,440.45 333.50,440.87C336.80,441.29 342.43,441.34 346.00,440.98C349.57,440.61 353.35,439.94 354.40,439.49C356.06,438.78 356.22,439.00 355.66,441.23C355.24,442.88 355.46,443.96 356.28,444.28C356.98,444.55 363.39,444.39 370.52,443.92C377.66,443.46 385.98,442.78 389.00,442.40C392.46,441.98 395.49,440.89 397.18,439.48C399.74,437.35 400.59,437.25 415.18,437.49C423.61,437.62 431.85,437.83 433.50,437.95C436.50,438.17 436.50,438.17 433.50,439.09C431.85,439.60 425.95,439.91 420.38,439.77C412.92,439.59 409.83,439.90 408.59,440.92C407.49,441.84 407.25,442.65 407.90,443.30C408.44,443.84 415.45,444.51 423.46,444.78C436.50,445.22 438.25,445.09 440.02,443.48C441.11,442.50 442.00,441.14 442.00,440.47C442.00,439.80 442.75,438.63 443.66,437.87C444.57,437.12 446.93,436.42 448.91,436.32C450.88,436.21 473.88,435.73 500.00,435.24C529.56,434.68 548.44,433.94 550.00,433.27C552.39,432.25 552.41,432.16 550.50,431.35C549.40,430.88 528.25,430.50 503.50,430.50C478.75,430.50 406.30,430.65 342.50,430.83C278.70,431.01 208.70,431.51 186.95,431.94C159.94,432.47 146.70,433.09 145.20,433.89C143.99,434.54 143.00,435.87 143.00,436.84C143.00,437.81 144.34,440.72 145.98,443.30C148.24,446.87 149.56,448.00 151.48,448.00C153.61,448.00 154.00,447.54 154.00,445.00C154.00,443.02 154.50,442.00 155.47,442.00C156.29,442.00 157.63,443.32 158.47,444.94C159.72,447.36 160.75,447.96 164.25,448.29C166.59,448.52 188.52,448.52 213.00,448.30zM449.72,445.00C453.97,445.00 464.88,444.50 473.97,443.89C483.06,443.28 491.15,442.43 491.95,441.99C492.88,441.48 491.44,440.99 487.95,440.62C484.95,440.31 474.73,439.51 465.23,438.85C447.97,437.65 447.97,437.65 444.98,440.51C443.34,442.09 442.00,443.74 442.00,444.19C442.00,444.63 445.48,445.00 449.72,445.00zM196.50,422.70C218.15,422.69 218.68,422.65 205.50,421.98C197.80,421.58 187.45,421.59 182.50,421.98C175.84,422.52 179.48,422.70 196.50,422.70zM157.69,411.58C166.91,411.36 168.51,411.02 174.51,408.07C178.15,406.28 181.39,404.16 181.69,403.36C182.00,402.56 182.08,401.74 181.87,401.54C181.66,401.33 178.34,402.55 174.50,404.26C168.06,407.10 166.35,407.40 153.24,407.93C145.05,408.26 138.88,408.93 138.74,409.50C138.61,410.05 140.53,410.80 143.00,411.16C145.47,411.52 152.09,411.71 157.69,411.58zM308.50,400.69C321.70,400.71 331.60,400.57 330.50,400.39C329.40,400.20 314.66,399.35 297.74,398.49C280.82,397.64 265.52,396.65 263.74,396.28C260.50,395.62 260.50,395.62 264.00,394.83C265.93,394.40 275.82,393.75 286.00,393.38C296.18,393.02 324.75,393.27 349.50,393.94C374.25,394.61 422.18,395.50 456.00,395.93C489.82,396.36 517.86,396.39 518.29,396.01C518.73,395.63 518.35,394.71 517.45,393.96C516.13,392.87 502.80,392.49 447.41,392.01C384.91,391.47 378.84,391.27 377.30,389.72C375.95,388.37 375.55,385.84 375.37,377.26C375.15,366.92 375.19,366.65 376.56,370.39C377.35,372.53 379.23,376.24 380.75,378.64C382.26,381.03 384.11,383.00 384.86,383.00C385.85,383.00 386.06,382.12 385.62,379.75C385.29,377.96 384.08,369.30 382.92,360.50C381.43,349.19 380.97,341.71 381.36,335.00C381.66,329.77 382.59,320.98 383.42,315.45C384.26,309.92 385.86,302.50 386.97,298.95C388.09,295.40 389.79,291.50 390.75,290.29C392.30,288.32 393.95,287.96 405.40,287.04C412.49,286.47 422.14,286.00 426.84,286.00C431.55,286.00 441.62,285.48 449.24,284.84C458.73,284.04 462.76,283.36 462.05,282.65C461.48,282.08 454.52,281.43 446.55,281.19C438.59,280.95 423.18,281.28 412.29,281.92C401.41,282.56 388.90,283.51 384.50,284.02C380.10,284.54 367.73,285.90 357.00,287.04C346.27,288.19 331.65,290.01 324.50,291.08C317.35,292.15 305.88,293.94 299.00,295.05C292.12,296.16 279.07,298.38 270.00,299.99C260.93,301.61 243.96,304.30 232.29,305.97C220.63,307.65 209.98,309.44 208.64,309.95C207.30,310.46 205.06,312.37 203.67,314.19C202.28,316.01 200.25,319.58 199.16,322.13C198.07,324.67 196.43,331.42 195.51,337.13C194.42,343.97 194.08,349.71 194.51,354.00C194.88,357.57 195.82,363.65 196.61,367.50C197.40,371.35 198.76,376.75 199.63,379.50C200.51,382.25 202.35,387.06 203.72,390.18C205.09,393.31 206.88,396.12 207.70,396.44C208.52,396.75 214.43,397.50 220.84,398.11C227.25,398.72 244.20,399.54 258.50,399.93C272.80,400.33 295.30,400.67 308.50,400.69zM360.00,386.70C357.52,386.80 353.70,386.28 351.50,385.53C347.56,384.18 347.62,384.17 356.00,384.33C360.89,384.43 364.50,384.92 364.50,385.50C364.50,386.05 362.48,386.59 360.00,386.70zM63.22,384.89C65.22,384.97 65.79,384.61 65.38,383.54C65.07,382.73 64.07,381.86 63.16,381.59C62.25,381.33 58.83,380.64 55.57,380.06C52.30,379.48 49.04,379.00 48.32,379.00C47.59,379.00 47.00,379.67 47.00,380.48C47.00,381.30 48.01,382.21 49.25,382.51C50.49,382.81 53.52,383.44 56.00,383.92C58.48,384.39 61.72,384.83 63.22,384.89zM94.22,384.85C102.25,384.97 103.84,384.75 103.39,383.58C103.09,382.79 102.27,381.93 101.56,381.66C100.86,381.39 94.54,380.84 87.54,380.44C75.38,379.75 74.82,379.80 75.16,381.61C75.43,383.01 76.68,383.65 80.01,384.10C82.48,384.43 88.87,384.77 94.22,384.85zM416.64,379.98C433.87,380.00 437.89,379.74 438.32,378.60C438.62,377.83 438.59,376.93 438.26,376.60C437.94,376.27 429.03,376.00 418.48,376.00C406.79,376.00 398.03,376.44 396.05,377.13C393.68,377.96 393.17,378.49 394.15,379.12C394.89,379.59 405.01,379.98 416.64,379.98zM446.80,377.81C446.98,376.87 446.62,374.40 446.00,372.31C445.38,370.21 444.32,362.88 443.65,356.00C442.88,348.11 442.70,339.05 443.16,331.45C443.56,324.82 444.56,316.19 445.38,312.28C446.19,308.36 448.24,302.01 449.93,298.16C451.62,294.31 453.00,290.68 453.00,290.08C453.00,289.49 452.50,289.00 451.89,289.00C451.29,289.00 449.55,290.04 448.03,291.32C445.51,293.44 443.67,293.75 426.39,294.93C416.00,295.65 406.90,296.56 406.16,296.96C405.42,297.35 412.17,297.64 421.16,297.59C437.50,297.50 437.50,297.50 437.19,302.00C437.03,304.48 436.80,320.00 436.69,336.50C436.59,353.00 436.85,367.74 437.27,369.25C437.69,370.76 438.70,372.00 439.52,372.00C440.33,372.00 441.00,371.55 441.00,371.00C441.00,370.45 441.45,370.00 442.00,370.00C442.55,370.00 443.00,370.49 443.00,371.10C443.00,371.70 443.78,373.84 444.73,375.85C445.92,378.35 446.57,378.97 446.80,377.81zM579.06,377.97C579.92,377.99 581.45,377.39 582.47,376.64C583.62,375.81 584.08,374.65 583.69,373.63C583.34,372.72 581.89,371.53 580.46,370.98C578.73,370.33 577.23,370.34 575.93,371.04C574.87,371.60 574.00,372.93 574.00,373.99C574.00,375.04 574.79,376.36 575.75,376.92C576.71,377.48 578.20,377.95 579.06,377.97zM351.43,376.87C349.27,376.80 344.76,376.39 341.40,375.95C338.05,375.51 333.77,374.50 331.90,373.71C330.03,372.91 326.81,370.55 324.75,368.46C322.69,366.38 320.55,363.06 320.01,361.08C319.46,359.11 319.01,355.89 319.01,353.92C319.00,351.60 320.07,348.73 322.06,345.72C323.74,343.18 326.69,339.73 328.60,338.05C330.51,336.37 333.07,335.00 334.28,335.00C336.29,335.01 336.21,335.18 333.50,336.84C331.85,337.85 329.88,339.42 329.13,340.34C327.88,341.85 328.20,342.00 332.63,342.01C335.31,342.02 338.62,342.60 339.99,343.29C341.36,343.98 342.64,345.44 342.84,346.53C343.03,347.61 344.54,349.91 346.19,351.64C348.58,354.15 348.98,355.16 348.19,356.65C347.64,357.68 346.25,359.36 345.12,360.39C343.98,361.42 343.29,362.66 343.58,363.14C343.88,363.61 344.99,363.54 346.05,362.97C347.11,362.41 348.69,360.57 349.55,358.90C350.72,356.64 350.95,354.47 350.46,350.49C349.79,345.13 349.79,345.13 353.64,344.82C357.14,344.53 357.55,344.20 358.00,341.25C358.50,338.00 358.50,338.00 361.94,340.10C363.83,341.26 367.55,344.03 370.19,346.26C374.05,349.51 375.00,350.93 374.98,353.41C374.97,355.11 374.11,358.36 373.08,360.64C372.04,362.91 369.55,366.60 367.54,368.83C365.52,371.06 361.96,373.81 359.62,374.94C357.27,376.08 353.61,376.94 351.43,376.87zM603.35,377.00C604.67,377.00 606.32,376.32 607.00,375.50C607.99,374.30 607.99,373.70 607.00,372.50C606.32,371.68 604.67,371.00 603.35,371.00C602.02,371.00 600.68,371.68 600.36,372.50C600.05,373.32 600.05,374.68 600.36,375.50C600.68,376.32 602.02,377.00 603.35,377.00zM208.53,373.00C202.81,373.00 202.17,372.79 201.67,370.75C201.37,369.51 200.82,365.73 200.44,362.35C199.83,356.79 199.96,356.09 201.82,355.10C202.94,354.49 206.12,354.00 208.86,354.00C211.95,354.00 214.42,354.57 215.35,355.49C216.17,356.31 217.16,358.45 217.55,360.24C217.94,362.03 218.87,364.39 219.63,365.47C220.38,366.56 221.00,367.91 220.99,368.47C220.99,369.04 219.60,370.29 217.91,371.25C215.88,372.41 212.70,373.00 208.53,373.00zM250.98,373.00C249.85,373.00 248.41,371.76 247.51,370.03C246.67,368.39 245.73,364.23 245.44,360.78C244.91,354.50 244.91,354.50 247.61,359.50C249.10,362.25 250.90,366.41 251.61,368.75C252.82,372.73 252.78,373.00 250.98,373.00zM308.36,373.00C307.73,373.00 307.28,372.24 307.36,371.31C307.49,369.78 305.52,369.62 285.67,369.56C266.05,369.51 263.71,369.32 262.56,367.74C261.85,366.78 260.65,363.18 259.89,359.74C259.13,356.31 258.51,348.31 258.50,341.97C258.50,332.76 258.88,329.59 260.41,326.20C261.58,323.61 263.13,321.79 264.41,321.52C265.56,321.27 274.76,320.61 284.85,320.04C294.94,319.47 303.61,319.26 304.11,319.57C304.62,319.88 305.77,321.79 306.68,323.82C307.99,326.74 308.45,332.21 308.91,350.25C309.34,366.95 309.20,373.00 308.36,373.00zM53.40,371.91C58.67,371.97 63.15,371.57 63.48,371.02C63.82,370.48 64.37,366.09 64.71,361.27C65.15,354.98 66.13,350.54 68.17,345.59C69.74,341.79 70.90,338.56 70.75,338.42C70.61,338.27 66.01,339.45 60.53,341.04C55.06,342.63 49.44,344.76 48.04,345.78C46.64,346.80 44.62,349.40 43.55,351.56C42.47,353.73 41.41,358.08 41.18,361.24C40.88,365.36 41.21,367.67 42.34,369.40C43.82,371.66 44.54,371.82 53.40,371.91zM96.10,371.00C96.51,371.00 97.56,370.29 98.43,369.43C99.29,368.56 100.00,366.27 100.00,364.34C100.00,362.40 100.91,356.34 102.03,350.87C103.23,344.96 105.67,337.41 108.04,332.30C110.23,327.56 111.90,323.57 111.76,323.43C111.62,323.29 106.49,323.99 100.37,324.98C94.25,325.98 88.17,327.11 86.87,327.51C85.57,327.91 82.71,330.07 80.52,332.31C78.34,334.56 76.50,337.40 76.45,338.63C76.40,339.86 75.82,341.51 75.17,342.30C74.52,343.08 73.49,346.37 72.89,349.61C72.29,352.85 71.98,358.05 72.21,361.17C72.43,364.28 73.23,367.57 73.98,368.48C75.10,369.83 77.03,370.08 84.66,369.88C89.77,369.74 94.27,369.94 94.65,370.31C95.02,370.69 95.68,371.00 96.10,371.00zM130.96,370.20C139.29,370.02 145.97,369.44 146.71,368.82C147.42,368.24 148.00,366.69 148.00,365.38C148.00,364.07 148.35,363.00 148.78,363.00C149.21,363.00 150.08,364.37 150.71,366.05C151.82,369.00 152.06,369.10 157.18,368.80C162.50,368.50 162.50,368.50 163.11,356.50C163.45,349.90 164.49,341.60 165.44,338.06C166.38,334.52 168.02,329.92 169.08,327.85C170.13,325.78 171.00,323.88 171.00,323.65C171.00,323.41 170.33,322.96 169.51,322.64C168.69,322.33 162.28,322.50 155.26,323.03C148.24,323.55 139.57,324.22 136.00,324.50C132.43,324.78 127.18,325.26 124.35,325.57C121.18,325.91 118.56,326.83 117.54,327.96C116.62,328.97 114.71,333.11 113.28,337.15C111.40,342.52 110.58,347.19 110.25,354.50C110.00,360.22 110.25,365.64 110.85,367.17C111.48,368.79 112.80,369.98 114.20,370.17C115.46,370.35 123.01,370.36 130.96,370.20zM505.54,370.80C505.79,370.55 505.58,367.09 505.08,363.12C504.52,358.67 504.55,351.78 505.14,345.20C505.67,339.31 507.04,330.45 508.18,325.50C509.32,320.55 511.77,313.49 513.61,309.82C516.96,303.13 516.96,303.13 496.73,303.66C485.60,303.95 474.93,304.59 473.00,305.09C471.07,305.58 467.61,305.99 465.30,305.99C461.27,306.00 461.00,306.20 458.81,310.75C456.83,314.88 456.53,317.06 456.54,327.50C456.54,335.04 456.99,340.24 457.74,341.50C458.81,343.28 458.94,343.08 458.97,339.58C458.99,337.43 459.26,335.93 459.58,336.25C459.90,336.57 460.58,340.13 461.09,344.16C461.59,348.19 462.49,352.96 463.08,354.75C463.67,356.54 464.50,358.00 464.93,358.00C465.36,358.00 466.22,352.94 466.85,346.75C467.48,340.56 468.89,332.24 470.00,328.25C471.10,324.27 473.40,317.88 475.11,314.07C476.81,310.26 478.76,306.92 479.43,306.67C480.10,306.41 486.36,306.44 493.33,306.74C500.30,307.04 506.00,307.68 506.00,308.15C506.00,308.62 501.84,309.01 496.75,309.01C491.66,309.02 486.52,309.29 485.33,309.61C483.95,309.98 482.41,311.94 481.07,315.05C479.92,317.73 478.26,322.73 477.38,326.18C476.18,330.84 475.89,335.49 476.22,344.47C476.51,352.47 477.20,357.76 478.28,360.25C479.90,364.00 479.90,364.00 487.70,363.98C491.99,363.98 496.01,363.64 496.62,363.23C497.24,362.83 498.07,361.04 498.45,359.25C498.84,357.46 499.48,356.00 499.88,356.00C500.28,356.00 501.61,359.43 502.84,363.62C504.08,367.82 505.29,371.04 505.54,370.80zM680.81,368.00C681.28,368.00 682.15,363.61 682.74,358.25C683.33,352.89 684.83,345.80 686.07,342.50C687.69,338.19 689.85,335.02 693.75,331.21C697.12,327.93 698.97,325.36 698.62,324.46C698.31,323.66 696.88,323.00 695.43,323.00C693.99,323.00 691.23,323.75 689.31,324.66C687.27,325.62 685.16,327.69 684.24,329.61C683.38,331.43 682.14,333.12 681.49,333.37C680.84,333.62 677.31,333.19 673.64,332.42C669.97,331.65 661.78,330.34 655.43,329.51C649.09,328.68 643.06,328.00 642.04,328.00C640.73,328.00 639.71,329.38 638.55,332.75C637.65,335.36 636.65,340.26 636.32,343.64C635.99,347.06 636.28,352.68 636.97,356.34C637.65,359.95 638.72,363.55 639.35,364.34C640.23,365.43 644.25,365.90 656.25,366.30C672.00,366.83 672.00,366.83 672.62,364.39C672.95,363.05 674.08,361.49 675.13,360.93C676.52,360.19 677.15,360.26 677.49,361.21C677.74,361.92 678.39,363.74 678.95,365.25C679.50,366.76 680.34,368.00 680.81,368.00zM705.34,366.54C710.93,366.15 718.20,365.21 721.50,364.45C725.86,363.45 728.11,362.31 729.75,360.29C730.98,358.75 731.99,356.35 732.00,354.95C732.00,353.54 730.73,350.38 729.17,347.93C727.61,345.47 724.85,342.21 723.03,340.67C721.20,339.14 717.42,336.73 714.62,335.31C711.81,333.88 708.29,332.37 706.79,331.94C704.73,331.35 703.27,331.69 700.81,333.35C699.02,334.55 696.20,337.74 694.53,340.44C691.85,344.78 691.50,346.21 691.52,352.92C691.53,358.32 692.06,361.47 693.36,363.87C695.18,367.25 695.18,367.25 705.34,366.54zM627.11,355.86C627.45,350.16 628.29,342.80 628.98,339.50C629.66,336.20 631.46,330.80 632.97,327.50C634.67,323.76 638.11,319.02 642.10,314.93C645.62,311.31 649.62,307.62 651.00,306.72C653.13,305.33 653.28,304.93 652.00,304.02C651.17,303.43 647.12,303.03 643.00,303.11C638.88,303.20 631.23,302.77 626.00,302.15C620.77,301.54 608.74,301.03 599.25,301.02C582.01,301.00 582.01,301.00 577.93,304.68C575.69,306.71 572.99,310.06 571.93,312.14C570.87,314.22 570.00,316.34 570.00,316.85C570.00,317.35 578.21,318.08 588.25,318.45C598.29,318.82 611.18,319.55 616.91,320.05C622.63,320.56 627.55,321.22 627.85,321.51C628.14,321.81 627.71,322.72 626.90,323.53C625.59,324.84 623.10,324.84 605.46,323.51C594.48,322.68 581.39,322.00 576.37,322.00C567.34,322.00 567.23,322.03 566.17,324.75C565.59,326.26 564.63,329.30 564.06,331.50C563.48,333.70 563.01,338.73 563.01,342.67C563.00,346.61 563.28,350.56 563.62,351.45C564.17,352.88 567.37,353.05 592.27,352.97C614.37,352.90 620.48,353.16 621.14,354.19C621.60,354.91 621.98,356.73 621.98,358.23C622.00,360.97 622.00,360.97 592.75,361.23C567.53,361.46 563.50,361.71 563.50,363.00C563.50,364.30 567.37,364.50 592.29,364.50C614.52,364.50 621.25,364.21 621.86,363.23C622.46,362.26 623.12,362.47 624.57,364.09C626.49,366.21 626.50,366.18 627.11,355.86zM551.28,364.78C551.71,364.90 552.26,364.44 552.50,363.75C552.75,363.06 553.86,355.14 554.98,346.14C556.18,336.58 558.03,326.78 559.45,322.55C560.79,318.56 563.48,312.58 565.44,309.24C567.39,305.90 571.77,300.66 575.17,297.59C579.58,293.59 580.79,292.01 579.42,292.02C578.36,292.03 575.59,292.91 573.25,293.97C570.92,295.03 567.32,297.22 565.25,298.83C561.53,301.75 561.38,301.77 544.75,302.35C535.52,302.67 527.07,303.43 525.92,304.04C524.77,304.66 523.20,306.67 522.43,308.51C521.66,310.36 520.59,312.14 520.05,312.47C519.50,312.81 517.88,316.77 516.43,321.29C514.57,327.12 513.65,332.58 513.27,340.11C512.84,348.49 513.02,350.90 514.12,351.61C514.88,352.10 522.87,352.50 531.87,352.50C546.77,352.50 548.31,352.34 548.92,350.69C549.41,349.37 549.95,350.28 550.90,354.00C551.62,356.81 551.91,359.42 551.54,359.79C551.17,360.16 543.02,360.64 533.43,360.85C519.57,361.15 516.00,361.51 516.00,362.59C516.00,363.68 519.50,364.01 533.25,364.25C542.74,364.42 550.85,364.65 551.28,364.78zM287.18,361.72C298.17,361.23 300.62,360.83 302.18,359.26C303.27,358.17 304.30,355.27 304.65,352.29C304.98,349.49 304.95,345.12 304.57,342.60C304.01,338.90 303.49,338.00 301.88,338.00C300.38,338.00 299.12,339.67 296.86,344.64C293.85,351.28 293.85,351.28 287.18,350.61C283.50,350.24 279.40,349.84 278.05,349.72C275.92,349.53 275.42,350.13 274.22,354.32C273.46,356.98 273.11,359.86 273.45,360.72C273.97,362.09 275.80,362.22 287.18,361.72zM333.92,361.00C334.37,361.00 334.99,359.14 335.29,356.86C335.60,354.59 335.44,351.66 334.95,350.36C334.45,349.06 333.23,348.00 332.22,348.00C331.22,348.00 329.86,348.54 329.20,349.20C328.54,349.86 328.00,351.28 328.00,352.36C328.00,353.43 329.15,355.82 330.55,357.66C331.95,359.50 333.47,361.00 333.92,361.00zM186.88,354.57C187.37,354.27 188.08,350.66 188.46,346.55C188.85,342.44 189.77,336.47 190.52,333.29C191.26,330.10 191.49,327.11 191.02,326.64C190.55,326.16 189.14,326.56 187.84,327.54C185.71,329.15 185.51,330.01 185.62,337.40C185.68,341.86 185.79,347.66 185.87,350.31C185.94,352.95 186.40,354.87 186.88,354.57zM174.98,353.00C175.40,353.00 176.29,350.86 176.95,348.25C177.62,345.64 179.28,339.73 180.65,335.12C182.14,330.12 182.78,326.38 182.24,325.84C181.74,325.34 180.61,325.21 179.72,325.56C178.83,325.90 177.41,328.05 176.56,330.34C175.72,332.63 174.55,336.71 173.97,339.40C173.40,342.10 173.22,346.26 173.58,348.65C173.93,351.04 174.57,353.00 174.98,353.00zM395.31,341.81C396.50,341.64 398.02,340.37 398.68,338.98C399.35,337.60 400.54,332.42 401.34,327.48C402.57,319.90 402.59,318.28 401.44,317.07C400.36,315.94 399.55,315.88 397.59,316.78C396.22,317.40 394.33,319.39 393.40,321.20C392.46,323.01 391.49,327.45 391.23,331.08C390.93,335.16 391.21,338.52 391.94,339.90C392.73,341.36 393.88,342.01 395.31,341.81zM208.39,341.00C200.73,341.00 200.73,341.00 201.37,336.31C201.72,333.74 202.70,330.59 203.53,329.31C204.88,327.25 205.83,327.00 212.16,327.00C219.27,327.00 219.27,327.00 218.68,331.32C218.35,333.70 217.63,336.85 217.07,338.32C216.09,340.90 215.78,341.00 208.39,341.00zM410.99,341.00C412.51,341.00 414.28,340.37 414.91,339.60C415.55,338.84 416.70,334.02 417.46,328.89C418.23,323.77 418.64,319.22 418.37,318.79C418.10,318.35 416.85,318.00 415.60,318.00C414.34,318.00 412.63,318.79 411.81,319.75C410.98,320.71 409.97,322.40 409.57,323.50C409.17,324.60 408.47,327.75 408.01,330.51C407.56,333.26 407.42,336.75 407.71,338.26C408.13,340.46 408.78,341.00 410.99,341.00zM425.87,340.98C426.77,340.98 428.00,340.64 428.60,340.23C429.21,339.83 430.26,338.43 430.95,337.13C431.64,335.82 432.45,330.31 432.75,324.88C433.09,318.60 432.93,315.00 432.29,315.00C431.74,315.00 430.14,316.06 428.74,317.36C427.34,318.66 425.51,321.05 424.67,322.68C423.83,324.30 422.83,328.41 422.44,331.81C421.95,336.18 422.11,338.43 422.99,339.49C423.68,340.32 424.98,340.99 425.87,340.98zM461.96,325.90C460.92,330.82 460.11,333.14 460.07,331.31C460.03,329.56 460.71,325.06 461.59,321.31C462.46,317.57 463.25,313.15 463.34,311.50C463.48,308.84 463.90,308.46 467.00,308.17C470.50,307.84 470.50,307.84 468.37,310.17C467.21,311.45 465.69,313.58 465.01,314.90C464.33,316.22 462.95,321.17 461.96,325.90zM678.09,327.00C679.06,327.00 681.18,325.88 682.82,324.50C684.45,323.12 686.74,322.00 687.89,322.00C689.05,322.00 690.00,321.61 690.00,321.12C690.00,320.64 689.42,319.76 688.71,319.17C688.00,318.59 683.61,316.46 678.96,314.45C673.57,312.12 668.28,310.60 664.39,310.27C660.47,309.94 658.03,310.14 657.59,310.85C657.19,311.50 658.26,312.56 660.20,313.42C663.50,314.89 663.50,314.89 659.26,314.32C656.88,314.00 653.76,314.27 652.14,314.94C650.56,315.60 648.68,317.23 647.97,318.56C647.25,319.90 646.87,321.20 647.12,321.45C647.37,321.71 653.86,322.87 661.54,324.04C669.22,325.21 675.69,326.36 675.92,326.59C676.15,326.81 677.12,327.00 678.09,327.00zM327.35,323.56C324.97,323.94 322.99,323.80 322.64,323.22C322.30,322.67 322.66,321.70 323.44,321.05C324.22,320.41 326.67,320.02 328.90,320.19C331.75,320.41 332.72,320.86 332.19,321.70C331.78,322.36 329.60,323.20 327.35,323.56zM126.25,318.81C128.04,318.23 139.79,317.63 152.38,317.48C175.25,317.21 175.25,317.21 178.27,314.19C180.08,312.38 181.05,310.57 180.70,309.66C180.36,308.78 178.09,307.79 175.31,307.32C172.66,306.87 165.72,306.60 159.87,306.72C154.03,306.83 145.70,307.66 141.37,308.54C137.04,309.43 131.63,310.98 129.34,311.98C127.05,312.99 124.68,314.72 124.09,315.84C123.49,316.96 123.00,318.32 123.00,318.86C123.00,319.51 124.13,319.49 126.25,318.81zM623.19,313.98C620.61,313.98 617.92,313.60 617.22,313.16C616.23,312.53 616.42,311.74 618.04,309.67C619.67,307.60 621.01,307.00 624.01,307.00C626.13,307.00 629.14,307.48 630.68,308.08C633.50,309.15 633.50,309.15 630.69,311.58C628.58,313.41 626.74,314.00 623.19,313.98zM487.63,289.00C491.06,289.00 495.10,288.53 496.61,287.96C499.12,287.01 499.21,286.78 497.75,285.32C496.57,284.14 494.03,283.69 488.13,283.61C482.70,283.54 479.69,283.92 478.81,284.82C477.73,285.90 477.84,286.39 479.44,287.57C480.64,288.45 483.78,289.00 487.63,289.00zM600.50,287.82C604.49,287.92 604.49,287.92 601.90,286.51C600.47,285.73 597.77,285.01 595.90,284.91C594.03,284.81 589.61,284.78 586.08,284.86C582.55,284.94 579.94,285.28 580.28,285.62C580.62,285.96 584.41,286.57 588.70,286.98C592.99,287.39 598.30,287.77 600.50,287.82zM596.30,282.07C596.74,281.64 596.22,279.77 595.13,277.90C594.04,276.03 591.92,271.35 590.42,267.50C588.93,263.65 586.55,258.94 585.14,257.04C582.57,253.57 582.57,253.57 581.93,256.04C581.36,258.24 581.21,258.07 580.52,254.50C580.10,252.30 579.02,249.65 578.12,248.60C577.23,247.56 574.74,245.42 572.60,243.85C570.45,242.28 567.64,241.00 566.35,241.00C565.03,241.00 564.00,241.60 564.00,242.36C564.00,243.11 565.36,246.73 567.03,250.40C568.70,254.08 570.71,257.33 571.50,257.64C572.30,257.94 574.24,260.29 575.82,262.85C577.39,265.41 579.87,268.62 581.32,270.00C582.78,271.38 583.97,272.84 583.98,273.25C583.99,273.66 582.73,274.00 581.17,274.00C579.61,274.00 578.03,274.30 577.66,274.67C577.30,275.04 577.74,276.16 578.65,277.17C579.73,278.36 581.75,279.01 584.40,279.04C586.66,279.06 590.08,279.93 592.00,280.96C593.92,282.00 595.86,282.50 596.30,282.07zM557.50,277.60C559.85,277.52 560.47,277.07 560.36,275.50C560.29,274.40 559.25,269.68 558.05,265.00C556.86,260.32 554.97,253.41 553.86,249.63C551.84,242.76 551.84,242.76 547.31,243.27C544.70,243.56 541.94,244.61 540.82,245.74C538.87,247.69 538.87,247.72 541.35,251.38C542.73,253.40 544.77,256.96 545.89,259.28C547.63,262.89 547.77,264.11 546.85,267.72C546.25,270.05 546.05,273.06 546.39,274.41C546.88,276.38 547.77,276.96 550.75,277.29C552.81,277.52 555.85,277.66 557.50,277.60zM351.79,274.63C345.40,274.87 344.30,274.73 347.00,274.04C348.93,273.55 353.20,272.84 356.50,272.47C361.32,271.93 362.26,272.05 361.29,273.06C360.56,273.82 356.78,274.45 351.79,274.63zM164.50,270.00C164.77,270.00 168.94,269.34 173.75,268.53C178.56,267.72 190.60,266.17 200.50,265.09C210.40,264.00 221.66,262.83 225.51,262.48C229.37,262.13 234.09,261.48 236.01,261.02C238.47,260.45 235.74,260.17 226.75,260.10C219.65,260.05 214.00,259.59 214.00,259.07C214.00,258.56 216.59,257.85 219.75,257.49C222.91,257.14 230.16,255.99 235.86,254.95C241.56,253.91 246.85,252.54 247.61,251.91C248.38,251.27 249.00,249.66 249.00,248.32C249.00,246.98 249.50,243.90 250.11,241.47C250.72,239.05 251.81,236.57 252.53,235.97C253.56,235.12 253.74,235.38 253.35,237.19C252.90,239.31 253.06,239.25 255.42,236.50C256.83,234.85 257.99,232.87 258.00,232.10C258.00,230.99 257.60,231.05 256.13,232.38C254.36,233.99 254.22,233.97 253.72,232.04C253.21,230.09 252.41,230.00 235.34,229.89C217.50,229.77 217.50,229.77 225.50,228.53C229.90,227.85 239.46,226.97 246.74,226.58C254.02,226.19 260.46,226.16 261.04,226.52C261.76,226.97 261.68,227.71 260.80,228.84C259.63,230.33 259.68,230.36 261.27,229.11C262.24,228.35 263.82,227.65 264.77,227.55C265.72,227.45 268.30,227.04 270.50,226.63C272.70,226.22 275.47,225.69 276.65,225.45C277.96,225.18 279.23,223.78 279.90,221.86C280.51,220.12 281.00,217.63 281.00,216.31C281.00,215.00 280.14,212.23 279.09,210.17C278.03,208.11 275.37,204.56 273.17,202.29C269.83,198.85 269.05,197.26 268.48,192.69C268.10,189.67 268.12,185.70 268.52,183.85C268.92,182.01 269.91,179.15 270.73,177.50C271.55,175.85 274.06,172.59 276.32,170.25C278.88,167.59 281.31,166.00 282.79,166.00C285.06,166.00 284.98,166.22 281.15,170.57C278.94,173.08 276.84,176.44 276.49,178.04C276.14,179.64 276.13,181.41 276.48,181.97C276.87,182.60 278.68,182.17 281.30,180.80C284.67,179.05 287.32,178.59 294.69,178.51C301.83,178.44 304.30,178.04 305.76,176.72C307.09,175.52 307.94,175.34 308.70,176.10C309.41,176.81 312.79,176.93 318.71,176.47C327.66,175.77 327.66,175.77 330.42,169.43C331.93,165.95 332.89,162.62 332.53,162.05C332.17,161.47 331.05,161.00 330.02,161.00C329.00,161.00 327.45,160.72 326.57,160.39C325.14,159.84 325.17,159.45 326.84,156.64C327.87,154.91 331.06,147.56 333.94,140.30C336.82,133.04 341.54,123.10 344.43,118.22C347.31,113.33 352.15,105.98 355.18,101.88C358.22,97.78 364.10,90.40 368.26,85.46C372.42,80.53 378.05,74.33 380.77,71.68C384.04,68.49 387.04,66.55 389.61,65.97C391.75,65.49 394.51,65.35 395.75,65.65C396.99,65.96 399.03,65.96 400.30,65.64C401.61,65.31 403.59,63.29 404.91,60.94C406.65,57.84 406.94,56.54 406.08,55.68C405.41,55.01 400.45,54.38 394.19,54.16C385.26,53.86 381.67,54.22 372.97,56.32C367.21,57.71 358.20,60.40 352.95,62.31C347.70,64.21 340.50,67.22 336.95,68.99C333.40,70.76 329.26,73.37 327.75,74.79C326.24,76.21 325.00,77.96 325.00,78.69C325.00,79.41 325.39,80.00 325.87,80.00C326.35,80.00 330.73,77.96 335.62,75.46C340.50,72.96 352.11,68.46 361.41,65.46C370.71,62.46 379.38,60.00 380.66,60.00C381.95,60.00 383.00,60.42 383.00,60.93C383.00,61.44 381.91,62.71 380.58,63.76C379.25,64.80 374.64,66.66 370.33,67.89C366.02,69.11 358.68,71.26 354.00,72.66C349.32,74.06 340.83,77.41 335.12,80.10C329.41,82.78 319.96,88.23 314.12,92.19C308.28,96.15 299.66,102.17 294.96,105.55C290.27,108.94 284.84,112.23 282.89,112.87C280.95,113.51 274.45,117.93 268.43,122.70C262.42,127.46 251.58,137.36 244.35,144.69C237.12,152.02 228.08,161.73 224.27,166.26C220.47,170.79 213.10,180.12 207.90,187.00C202.70,193.88 196.61,202.43 194.37,206.00C192.13,209.57 187.70,217.37 184.52,223.32C180.57,230.72 179.07,234.47 179.77,235.17C180.34,235.74 181.75,235.90 182.92,235.52C184.09,235.15 186.84,232.48 189.02,229.58C191.21,226.69 193.00,223.30 193.00,222.05C193.00,220.81 194.30,218.15 195.89,216.14C197.47,214.14 200.43,209.67 202.46,206.20C204.49,202.74 210.32,194.37 215.41,187.60C220.49,180.83 229.10,169.94 234.52,163.40C239.95,156.85 248.24,147.51 252.94,142.63C257.65,137.75 265.52,130.22 270.44,125.90C275.35,121.58 279.57,118.24 279.82,118.48C280.06,118.73 273.84,125.58 266.00,133.71C258.16,141.85 249.44,151.47 246.62,155.11C243.80,158.75 237.80,166.40 233.28,172.11C228.76,177.82 222.33,186.10 218.99,190.50C215.65,194.90 210.94,201.51 208.51,205.18C206.08,208.86 201.33,217.18 197.95,223.68C194.56,230.18 191.26,236.07 190.60,236.76C189.94,237.46 186.61,238.52 183.19,239.12C178.06,240.03 176.61,240.74 174.83,243.24C173.65,244.90 170.73,250.76 168.34,256.26C165.95,261.76 164.00,267.10 164.00,268.13C164.00,269.16 164.22,270.00 164.50,270.00zM529.05,269.00C530.22,269.00 531.41,268.06 531.90,266.75C532.36,265.51 532.41,263.60 532.01,262.50C531.60,261.40 530.57,260.36 529.70,260.19C528.84,260.02 527.62,260.85 526.98,262.03C526.35,263.22 526.10,265.27 526.43,266.59C526.82,268.14 527.76,269.00 529.05,269.00zM264.25,259.45C267.14,258.70 272.43,257.34 276.00,256.42C279.57,255.50 286.04,253.69 290.37,252.39C294.70,251.09 298.64,250.28 299.13,250.58C299.62,250.88 300.91,250.85 302.01,250.50C303.10,250.15 305.18,247.76 306.62,245.18C308.06,242.61 311.33,238.60 313.87,236.27C318.50,232.04 318.50,232.04 313.78,232.02C311.18,232.01 304.21,232.70 298.28,233.56C290.56,234.68 285.51,236.05 280.48,238.40C276.30,240.35 270.91,244.04 267.17,247.50C263.71,250.70 260.22,254.61 259.40,256.19C258.59,257.77 258.16,259.45 258.46,259.94C258.76,260.42 261.35,260.21 264.25,259.45zM435.82,254.00C433.10,254.00 431.13,253.60 431.44,253.10C431.74,252.61 434.27,251.66 437.05,250.99C439.83,250.32 442.37,250.04 442.70,250.36C443.02,250.69 442.72,251.64 442.02,252.48C441.20,253.46 439.02,254.00 435.82,254.00zM480.57,254.00C474.75,254.00 470.00,253.73 470.00,253.40C470.00,253.08 470.73,251.58 471.62,250.07C472.51,248.57 474.05,246.83 475.04,246.21C476.43,245.34 477.57,245.44 479.99,246.64C482.19,247.74 484.42,248.01 487.49,247.55C489.89,247.19 493.04,245.97 494.48,244.84C495.92,243.70 497.31,242.98 497.57,243.24C497.83,243.49 497.36,245.01 496.52,246.60C495.69,248.20 495.01,250.05 495.01,250.71C495.00,251.38 494.13,252.40 493.07,252.96C492.00,253.53 486.38,254.00 480.57,254.00zM333.30,250.83C335.39,250.92 338.32,250.37 339.82,249.59C342.06,248.43 342.85,248.42 344.31,249.49C345.29,250.20 347.08,250.55 348.30,250.27C349.51,249.98 353.37,246.99 356.87,243.62C362.96,237.76 363.10,237.69 360.14,241.87C358.43,244.28 357.31,246.70 357.65,247.25C358.02,247.84 361.00,248.05 364.89,247.76C369.43,247.42 373.07,246.42 376.50,244.58C379.25,243.11 383.32,240.13 385.54,237.95C387.76,235.78 389.91,234.00 390.31,234.00C390.72,234.00 390.36,235.33 389.53,236.95C388.69,238.57 388.00,240.66 388.00,241.59C388.00,243.08 388.82,243.21 394.75,242.65C398.46,242.30 402.69,242.01 404.14,242.01C405.86,242.00 408.54,240.42 411.80,237.49C415.06,234.56 417.36,233.20 418.41,233.60C419.28,233.94 421.76,233.51 423.91,232.65C427.63,231.17 427.88,231.19 429.16,233.09C430.47,235.05 430.73,235.06 439.91,233.57C448.31,232.21 449.65,231.69 452.41,228.76C454.11,226.95 457.02,224.22 458.88,222.69C460.73,221.17 462.02,219.69 461.75,219.42C461.47,219.14 452.98,219.61 442.87,220.46C432.77,221.32 419.55,222.66 413.50,223.45C407.45,224.23 395.52,225.81 387.00,226.94C378.48,228.08 365.20,229.70 357.50,230.54C349.80,231.38 341.02,232.52 338.00,233.08C334.98,233.63 330.62,234.77 328.32,235.60C325.21,236.72 323.36,238.32 321.14,241.81C319.49,244.39 318.00,247.18 317.82,248.00C317.57,249.16 318.88,249.63 323.50,250.08C326.80,250.40 331.21,250.74 333.30,250.83zM462.25,228.42C463.49,228.03 472.37,227.44 482.00,227.10C496.62,226.60 499.50,226.25 499.50,225.00C499.50,224.18 499.90,223.21 500.40,222.85C500.89,222.49 501.02,221.48 500.68,220.61C500.34,219.73 498.59,218.08 496.78,216.94C493.84,215.07 492.35,214.90 482.34,215.29C473.06,215.66 470.57,216.10 467.60,217.94C465.64,219.15 463.13,221.30 462.02,222.71C460.91,224.12 460.00,226.14 460.00,227.20C460.00,228.75 460.45,228.99 462.25,228.42zM366.29,224.36C372.46,224.03 379.07,223.46 381.00,223.09C384.50,222.42 384.50,222.42 385.11,206.46C385.45,197.68 385.79,190.33 385.86,190.13C385.94,189.92 386.68,190.32 387.50,191.00C388.79,192.07 389.00,191.67 389.00,188.12C389.00,185.86 388.77,184.00 388.50,184.00C388.22,184.00 386.06,185.24 383.69,186.75C381.32,188.26 376.00,193.10 371.86,197.50C367.72,201.90 362.98,207.53 361.31,210.00C359.64,212.47 357.30,216.43 356.10,218.78C354.90,221.14 354.19,223.49 354.51,224.01C354.85,224.56 359.69,224.71 366.29,224.36zM298.67,223.99C301.32,223.99 306.15,223.55 309.39,223.02C312.62,222.49 315.52,221.81 315.83,221.51C316.13,221.20 315.61,220.18 314.67,219.25C313.42,218.00 311.25,217.53 306.56,217.52C301.63,217.50 299.52,217.98 297.39,219.56C295.87,220.69 294.45,222.16 294.23,222.81C293.96,223.62 295.37,224.00 298.67,223.99zM401.34,217.81C403.35,217.52 403.52,216.85 403.79,208.32C403.94,203.27 403.40,181.26 402.58,159.41C401.74,137.14 400.65,119.25 400.11,118.71C399.57,118.17 398.38,118.02 397.45,118.38C396.03,118.93 395.86,119.99 396.36,125.26C396.69,128.69 397.25,150.62 397.60,174.00C397.96,197.38 398.46,216.86 398.72,217.31C398.98,217.75 400.16,217.98 401.34,217.81zM299.25,211.46C301.59,211.07 304.51,210.37 305.75,209.90C306.99,209.43 308.00,208.60 308.00,208.05C308.00,207.50 306.84,206.29 305.43,205.36C303.42,204.05 302.08,203.88 299.28,204.59C297.31,205.09 295.24,206.23 294.69,207.11C294.13,208.00 293.98,209.50 294.34,210.45C294.89,211.88 295.74,212.05 299.25,211.46zM300.00,195.97C303.57,195.97 307.09,195.59 307.82,195.13C308.78,194.53 308.32,193.96 306.12,193.05C304.26,192.28 301.48,192.06 298.81,192.48C296.44,192.84 293.65,193.39 292.62,193.68C291.11,194.11 291.01,194.39 292.12,195.09C292.88,195.58 296.43,195.97 300.00,195.97zM160.07,187.92C158.66,187.88 157.05,187.69 156.50,187.51C155.95,187.33 154.17,186.88 152.55,186.52C150.72,186.11 146.25,182.59 140.81,177.26C135.98,172.53 129.66,167.02 126.77,165.02C123.89,163.02 119.61,159.04 117.28,156.17C114.94,153.30 112.73,149.77 112.37,148.32C112.00,146.88 112.17,144.97 112.73,144.10C113.50,142.91 115.25,142.53 119.49,142.62C123.16,142.70 125.54,143.24 126.10,144.12C126.58,144.88 126.98,146.97 126.98,148.77C127.00,151.35 126.47,152.25 124.50,153.00C123.12,153.52 122.00,154.24 122.00,154.58C122.00,154.93 123.24,154.90 124.75,154.52C126.26,154.14 129.48,153.63 131.89,153.39C134.31,153.15 139.26,152.52 142.89,152.00C146.53,151.47 153.80,151.03 159.06,151.02C164.41,151.01 173.21,151.86 179.06,152.96C184.80,154.03 192.65,155.83 196.50,156.96C200.35,158.08 203.64,159.00 203.82,159.00C203.99,159.00 204.00,160.00 203.82,161.23C203.59,162.81 201.57,164.52 196.94,167.04C193.34,169.01 187.49,172.69 183.94,175.22C180.40,177.76 176.40,181.00 175.06,182.43C173.72,183.86 170.37,185.70 167.63,186.52C164.88,187.33 161.48,187.96 160.07,187.92zM387.64,179.89C388.27,179.95 389.06,179.28 389.40,178.41C389.79,177.38 388.85,175.73 386.75,173.77C383.50,170.73 383.50,170.73 383.00,129.85C382.50,88.97 382.50,88.97 378.81,91.48C376.79,92.86 373.16,96.58 370.75,99.74C368.35,102.91 365.02,107.75 363.36,110.50C361.69,113.25 358.92,119.17 357.19,123.66C355.18,128.87 353.44,136.15 352.36,143.83C350.81,154.89 350.80,156.05 352.28,158.30C353.26,159.80 355.27,161.02 357.44,161.42C359.40,161.79 361.00,162.47 361.00,162.92C361.00,163.38 362.36,164.32 364.03,165.01C365.70,165.70 366.94,166.39 366.78,166.54C366.63,166.68 362.23,165.97 357.00,164.95C351.77,163.94 345.41,163.08 342.86,163.05C339.41,163.01 338.05,163.43 337.57,164.67C337.22,165.58 337.30,166.70 337.75,167.15C338.19,167.59 343.72,168.84 350.03,169.93C356.34,171.01 367.12,173.67 374.00,175.84C380.88,178.01 387.01,179.83 387.64,179.89zM353.50,178.72C360.50,178.82 360.50,178.82 353.50,176.95C349.65,175.93 344.14,174.79 341.25,174.43C336.40,173.82 336.00,173.93 336.00,175.83C336.00,177.61 336.73,177.95 341.25,178.26C344.14,178.46 349.65,178.67 353.50,178.72zM168.99,174.79C172.22,174.58 173.57,174.04 173.80,172.85C174.03,171.62 173.11,171.03 170.26,170.54C168.11,170.18 165.10,170.39 163.46,171.02C160.58,172.12 160.55,172.19 162.50,173.62C163.74,174.53 166.20,174.98 168.99,174.79zM597.07,174.00C598.13,174.00 599.00,173.63 599.00,173.19C599.00,172.74 597.74,171.16 596.20,169.69C594.65,168.21 592.85,167.00 592.20,167.00C591.54,167.00 591.00,167.39 591.00,167.87C591.00,168.34 591.93,169.92 593.07,171.37C594.21,172.81 596.01,174.00 597.07,174.00zM604.75,169.00C605.19,169.00 606.56,168.30 607.78,167.44C609.00,166.59 610.00,165.46 610.00,164.94C610.00,164.42 608.68,164.00 607.06,164.00C605.44,164.00 603.83,164.47 603.47,165.05C603.11,165.62 603.07,166.75 603.38,167.55C603.69,168.35 604.30,169.00 604.75,169.00zM153.00,165.74C153.82,165.59 154.50,164.63 154.50,163.59C154.50,162.56 153.25,160.78 151.71,159.64C149.55,158.02 148.54,157.80 147.21,158.64C146.27,159.23 145.50,160.24 145.50,160.88C145.50,161.51 146.85,162.93 148.50,164.02C150.15,165.12 152.18,165.89 153.00,165.74zM297.63,162.41C294.89,163.07 294.79,162.97 295.42,160.30C295.79,158.76 299.05,152.55 302.68,146.50C306.30,140.45 312.36,131.16 316.15,125.86C319.94,120.56 323.62,115.73 324.33,115.14C325.05,114.55 328.24,113.75 331.42,113.38C337.21,112.70 337.21,112.70 331.94,120.10C329.04,124.17 325.35,129.15 323.74,131.16C322.13,133.18 318.42,140.38 315.51,147.16C312.49,154.20 309.57,159.63 308.71,159.80C307.79,159.99 307.26,159.43 307.35,158.34C307.43,157.37 306.71,156.41 305.75,156.22C304.62,155.98 303.67,156.73 303.06,158.33C302.55,159.69 301.76,161.01 301.31,161.26C300.87,161.52 299.21,162.03 297.63,162.41zM614.00,153.31C615.38,152.99 617.06,152.28 617.75,151.74C618.44,151.20 619.00,150.41 619.00,150.00C619.00,149.58 617.63,148.68 615.95,147.98C613.66,147.03 612.31,146.99 610.45,147.84C609.10,148.45 608.00,149.62 608.00,150.43C608.00,151.24 608.79,152.35 609.75,152.89C610.71,153.44 612.62,153.63 614.00,153.31zM137.60,150.00C136.80,150.00 135.47,149.32 134.64,148.49C133.81,147.67 132.84,146.07 132.48,144.95C132.13,143.82 132.35,142.29 132.97,141.53C133.77,140.58 136.54,140.16 142.06,140.16C148.78,140.16 150.17,140.44 151.01,142.01C151.55,143.03 152.00,144.32 152.00,144.86C152.00,145.41 151.29,146.56 150.43,147.43C149.27,148.59 148.37,148.74 147.00,148.00C145.97,147.45 144.03,147.00 142.67,147.00C141.32,147.00 139.95,147.68 139.64,148.50C139.32,149.32 138.41,150.00 137.60,150.00zM584.25,146.17C585.21,145.95 586.00,145.42 586.00,145.01C586.00,144.59 585.35,143.71 584.56,143.05C583.76,142.39 582.08,141.99 580.82,142.17C579.55,142.35 578.38,143.25 578.20,144.17C577.99,145.28 578.67,145.97 580.19,146.20C581.46,146.40 583.29,146.38 584.25,146.17zM548.35,137.50C546.55,139.60 545.99,139.90 546.49,138.50C546.88,137.40 547.64,135.30 548.17,133.84C548.70,132.37 550.80,130.08 552.83,128.73C554.86,127.39 557.53,125.97 558.76,125.58C560.58,125.00 561.00,125.25 561.00,126.91C561.00,128.03 560.03,130.95 558.84,133.40C557.65,135.85 555.96,138.04 555.09,138.26C554.21,138.49 552.94,138.49 552.25,138.25C551.56,138.02 550.98,137.08 550.96,136.17C550.94,134.94 550.25,135.29 548.35,137.50zM156.20,133.61C154.21,134.01 153.00,133.85 153.00,133.19C153.00,132.61 154.31,131.21 155.90,130.07C157.50,128.93 159.98,128.00 161.40,128.00C162.83,128.00 164.00,128.44 164.00,128.98C164.00,129.51 162.96,130.63 161.70,131.46C160.43,132.29 157.96,133.26 156.20,133.61zM571.08,133.72C567.05,134.26 567.00,134.22 567.00,131.10C567.00,128.25 567.20,128.04 568.98,128.99C570.55,129.83 571.37,129.63 572.98,128.02C574.09,126.91 575.00,125.29 575.00,124.43C575.00,123.47 575.68,122.98 576.75,123.18C577.87,123.40 578.61,124.61 578.80,126.56C579.00,128.60 578.45,130.19 577.13,131.39C576.04,132.37 573.32,133.42 571.08,133.72zM653.51,128.00C651.68,128.00 650.67,127.27 649.98,125.43C649.44,124.02 649.00,122.15 649.00,121.26C649.00,119.99 649.55,120.16 651.59,122.08C653.02,123.41 654.61,125.29 655.13,126.25C655.91,127.71 655.64,128.00 653.51,128.00zM617.50,126.33C615.85,126.64 613.49,126.48 612.25,125.98C610.79,125.39 610.00,124.22 610.00,122.65C610.00,121.33 610.56,119.80 611.25,119.26C611.94,118.72 613.97,118.00 615.77,117.66C618.23,117.20 619.51,117.51 620.95,118.95C622.13,120.13 622.65,121.64 622.31,122.94C622.00,124.09 621.48,125.20 621.13,125.40C620.78,125.60 619.15,126.02 617.50,126.33zM589.02,107.64C593.13,107.25 598.13,106.68 600.13,106.36C603.54,105.82 603.79,105.52 604.36,101.41C604.69,99.01 606.09,94.35 607.48,91.05C608.86,87.76 610.00,84.37 610.00,83.53C610.00,82.64 609.12,82.00 607.88,82.00C606.56,82.00 602.87,84.93 598.10,89.75C593.89,94.01 588.44,99.94 585.99,102.92C581.54,108.33 581.54,108.33 589.02,107.64zM625.13,106.88C625.47,106.95 626.33,106.31 627.03,105.47C628.07,104.21 627.82,102.11 625.64,93.78C624.17,88.20 622.24,82.81 621.33,81.82C620.43,80.82 619.08,80.00 618.35,80.00C617.35,80.00 617.03,81.62 617.12,86.25C617.18,89.69 617.52,95.42 617.87,98.99C618.47,105.21 618.63,105.52 621.50,106.13C623.15,106.48 624.78,106.82 625.13,106.88zM156.89,103.75C157.66,103.61 158.76,102.75 159.33,101.83C160.09,100.63 160.03,99.74 159.09,98.60C158.10,97.41 157.33,97.29 155.84,98.09C154.77,98.66 153.62,99.82 153.30,100.67C152.97,101.51 153.34,102.61 154.10,103.10C154.87,103.59 156.13,103.89 156.89,103.75zM350.54,100.50C348.63,102.70 347.06,103.99 347.04,103.36C347.02,102.73 349.36,98.95 352.25,94.95C355.14,90.95 358.61,86.97 359.97,86.09C362.02,84.77 361.72,85.53 358.22,90.50C355.90,93.80 352.44,98.30 350.54,100.50zM174.22,71.00C175.23,71.00 176.35,70.26 176.69,69.36C177.04,68.46 176.86,67.00 176.30,66.11C175.74,65.23 173.99,64.50 172.40,64.50C170.36,64.50 169.42,65.06 169.15,66.43C168.95,67.50 169.59,68.96 170.58,69.68C171.57,70.41 173.21,71.00 174.22,71.00z"/>
</svg>