<?xml version="1.0" encoding="UTF-8" standalone="no"?>
<svg 
  version="1.1" 
  xmlns="http://www.w3.org/2000/svg" 
  xmlns:xlink="http://www.w3.org/1999/xlink" 
  xmlns:svg="http://www.w3.org/2000/svg"
  xmlns:rdf="http://www.w3.org/1999/02/22-rdf-syntax-ns#"
  xmlns:cc="http://creativecommons.org/ns#"
  xmlns:dc="http://purl.org/dc/elements/1.1/"
  viewBox="0 0 768 768"
  width="768"
  height="768"
>
<style>svg {background-color: white; }</style>"
<metadata id="metadata1">
Created by https://svgstud.io and licensed under CC-BY-SA 4.0 license. Please attribute https://svgstud.io
</metadata>
<metadata id="prompt">
Spaceship game sprite. Designed for a vertically scrolling game.
The ship will be viewed from a top-down view, vector illustration, monochrome
</metadata>
<metadata id="version">
7
</metadata>
<metadata id="metadata2">
<rdf:RDF>
<cc:Work
    rdf:about="">
    <cc:license
    rdf:resource="http://creativecommons.org/licenses/by-sa/4.0/" />
    <dc:creator>
        <cc:Agent>
            <dc:title>https://svgstud.io</dc:title>
        </cc:Agent>
    </dc:creator>
</cc:Work>
<cc:License
    rdf:about="http://creativecommons.org/licenses/by-sa/4.0/">
    <cc:permits
    rdf:resource="http://creativecommons.org/ns#Reproduction" />
    <cc:permits
    rdf:resource="http://creativecommons.org/ns#Distribution" />
    <cc:requires
    rdf:resource="http://creativecommons.org/ns#Notice" />
    <cc:requires
    rdf:resource="http://creativecommons.org/ns#Attribution" />
    <cc:permits
    rdf:resource="http://creativecommons.org/ns#DerivativeWorks" />
    <cc:requires
    rdf:resource="http://creativecommons.org/ns#ShareAlike" />
</cc:License>
</rdf:RDF>
</metadata>
<metadata id="uid">
24b6aa803f3f0949439be444ef6387b096fde6f4c5729d473866190c9fe4b465
</metadata>
<path stroke="none" fill="black" fill-rule="evenodd" d="M383.75,742.00C383.58,742.00 380.21,740.45 376.27,738.56C372.32,736.67 365.80,732.90 361.77,730.18C357.75,727.47 352.73,723.33 350.62,721.00C348.51,718.66 345.73,714.37 344.44,711.45C342.10,706.17 342.08,706.15 336.80,705.61C333.88,705.31 327.68,704.81 323.00,704.50C318.32,704.19 311.12,703.46 307.00,702.88C302.88,702.30 297.67,701.03 295.43,700.05C293.19,699.07 289.64,696.52 287.54,694.39C285.44,692.25 282.89,689.15 281.87,687.50C280.84,685.85 280.01,683.35 280.00,681.95C280.00,680.54 281.27,677.38 282.83,674.93C284.38,672.48 287.80,668.59 290.42,666.28C293.03,663.98 297.05,661.19 299.34,660.08C301.63,658.98 308.45,656.89 314.50,655.45C320.55,654.01 326.08,652.27 326.79,651.59C327.49,650.91 327.81,649.67 327.49,648.83C327.17,647.99 323.21,645.26 318.70,642.76C313.59,639.92 308.62,637.96 305.50,637.55C302.75,637.19 293.52,635.75 285.00,634.37C276.48,632.98 263.78,630.55 256.78,628.98C249.78,627.41 242.03,625.22 239.56,624.13C237.09,623.04 232.74,619.97 229.90,617.32C227.07,614.67 221.61,608.58 217.79,603.80C211.42,595.83 210.49,595.05 206.67,594.56C204.38,594.26 196.20,593.33 188.50,592.49C180.80,591.65 171.86,590.46 168.64,589.83C164.86,589.10 160.71,587.32 156.99,584.83C153.81,582.71 150.90,580.19 150.53,579.23C150.04,577.99 150.94,576.55 153.68,574.16C155.78,572.32 159.30,569.76 161.50,568.47C163.70,567.17 168.43,565.66 172.00,565.10C175.57,564.55 187.81,563.78 199.18,563.40C219.87,562.71 219.87,562.71 225.18,558.35C228.11,555.95 230.65,553.54 230.84,552.98C231.02,552.43 229.67,551.34 227.83,550.57C225.98,549.80 216.80,547.56 207.42,545.59C198.04,543.62 185.44,540.63 179.43,538.96C173.42,537.28 161.30,533.41 152.50,530.35C143.70,527.29 132.57,522.83 127.78,520.44C122.98,518.05 116.68,514.57 113.78,512.71C110.87,510.85 105.12,506.61 101.00,503.28C96.88,499.95 91.67,495.04 89.44,492.37C87.20,489.69 83.48,484.92 81.17,481.77C78.85,478.61 75.40,472.91 73.48,469.10C71.57,465.28 70.00,461.46 70.00,460.61C70.00,459.75 71.38,455.55 73.07,451.28C74.76,447.00 78.16,439.68 80.63,435.02C83.11,430.35 87.67,422.75 90.78,418.12C93.89,413.50 100.82,405.12 106.18,399.51C111.54,393.89 120.24,385.75 125.52,381.40C130.80,377.06 142.18,368.77 150.81,362.98C159.44,357.20 166.50,351.84 166.50,351.08C166.50,350.18 163.35,348.86 157.50,347.31C152.55,345.99 144.45,343.53 139.50,341.83C134.55,340.14 126.22,336.92 121.00,334.69C115.78,332.46 109.25,329.28 106.50,327.63C103.75,325.97 98.87,322.62 95.67,320.19C92.46,317.75 87.13,313.00 83.83,309.63C80.54,306.26 75.16,299.81 71.89,295.30C68.61,290.79 64.77,284.55 63.34,281.43C61.22,276.81 60.84,274.79 61.29,270.52C61.58,267.64 63.23,261.92 64.94,257.81C66.65,253.70 70.32,246.87 73.10,242.64C75.88,238.41 81.96,230.94 86.62,226.05C91.28,221.15 99.45,213.82 104.79,209.74C110.13,205.67 117.93,200.04 122.11,197.23C126.30,194.42 135.30,189.20 142.11,185.62C148.93,182.04 161.47,176.10 170.00,172.41C178.53,168.72 191.80,163.76 199.50,161.40C208.01,158.78 213.89,156.43 214.50,155.41C215.05,154.48 217.27,151.01 219.44,147.70C221.60,144.39 226.55,138.49 230.44,134.59C234.32,130.69 239.76,126.29 242.52,124.81C245.28,123.33 251.51,120.97 256.36,119.57C261.21,118.16 276.05,114.74 289.34,111.97C305.82,108.52 315.22,106.06 318.90,104.21C321.87,102.72 324.79,100.72 325.38,99.78C326.15,98.54 326.14,97.74 325.35,96.95C324.75,96.35 318.70,94.52 311.92,92.90C305.14,91.28 297.70,88.84 295.38,87.48C293.06,86.12 289.06,82.65 286.48,79.76C283.91,76.87 281.16,73.04 280.39,71.25C279.19,68.49 279.18,67.51 280.34,64.74C281.09,62.94 284.20,59.19 287.26,56.40C291.41,52.60 294.29,50.90 298.66,49.68C301.87,48.78 310.12,47.56 317.00,46.95C323.88,46.35 332.16,45.55 335.40,45.18C341.19,44.51 341.33,44.42 342.68,40.52C343.44,38.33 345.51,35.03 347.28,33.18C349.05,31.34 352.35,28.74 354.61,27.40C356.87,26.07 360.78,24.27 363.30,23.41C365.81,22.56 368.91,20.82 370.19,19.56C371.46,18.29 374.07,16.30 376.00,15.13C377.93,13.96 380.60,13.01 381.95,13.00C383.29,13.00 386.19,14.24 388.38,15.75C392.36,18.50 392.36,18.50 389.43,18.77C387.82,18.93 385.49,19.27 384.25,19.54C383.01,19.82 382.00,20.70 382.00,21.52C382.00,22.33 382.56,23.03 383.25,23.06C383.94,23.10 388.22,23.48 392.76,23.92C399.23,24.53 402.62,25.50 408.44,28.37C413.17,30.71 416.96,33.42 418.87,35.84C420.52,37.92 422.41,40.81 423.07,42.25C423.72,43.69 425.44,45.31 426.88,45.85C428.32,46.39 438.05,47.76 448.50,48.89C458.95,50.02 469.10,51.40 471.07,51.97C473.03,52.53 476.45,54.55 478.68,56.46C480.90,58.36 483.26,61.21 483.91,62.78C484.70,64.68 484.78,66.44 484.16,68.07C483.64,69.40 480.92,73.37 478.11,76.88C475.30,80.39 473.00,83.64 473.00,84.10C473.00,84.57 474.24,84.73 475.75,84.47C477.26,84.20 488.48,82.87 500.67,81.49C512.86,80.12 525.62,79.00 529.02,79.00C532.41,79.00 537.55,79.68 540.42,80.52C543.37,81.38 547.16,83.45 549.11,85.27C551.01,87.05 553.47,89.77 554.58,91.33C556.56,94.12 556.80,94.17 573.04,95.57C582.09,96.34 592.58,97.44 596.34,98.01C600.10,98.58 604.60,99.64 606.34,100.37C608.08,101.11 610.94,103.05 612.69,104.70C614.45,106.35 616.18,108.88 616.54,110.32C617.00,112.14 616.54,114.00 615.05,116.42C613.86,118.34 610.64,121.56 607.89,123.58C603.33,126.93 601.36,127.55 585.69,130.64C576.24,132.50 566.02,134.73 563.00,135.59C559.98,136.45 556.49,137.81 555.25,138.60C554.01,139.40 553.00,140.45 553.00,140.95C553.00,141.44 554.46,142.30 556.25,142.85C558.04,143.41 564.90,144.86 571.50,146.09C579.59,147.60 584.91,149.16 587.83,150.91C590.22,152.33 593.73,154.81 595.64,156.41C597.55,158.00 600.10,161.15 601.31,163.41C603.31,167.15 603.50,168.91 603.48,184.00C603.46,194.03 602.97,202.11 602.23,204.60C601.56,206.85 599.66,210.54 598.02,212.81C596.38,215.07 593.97,217.63 592.66,218.49C591.35,219.34 587.18,220.68 583.39,221.46C576.92,222.80 576.16,223.25 571.00,228.87C567.00,233.23 564.41,235.15 561.50,235.91C559.30,236.48 550.75,237.64 542.50,238.48C534.25,239.33 525.86,240.47 523.85,241.03C521.84,241.58 519.92,242.76 519.58,243.65C519.24,244.53 519.25,247.41 519.60,250.05C520.24,254.84 520.24,254.84 524.87,255.44C527.42,255.76 537.94,257.15 548.26,258.53C558.58,259.90 573.88,262.39 582.26,264.06C597.50,267.10 597.50,267.10 600.28,263.80C603.07,260.50 603.07,260.50 619.78,260.50C635.61,260.50 636.76,260.63 641.50,263.00C644.93,264.71 647.05,266.60 648.25,269.00C649.78,272.06 650.00,275.76 650.00,298.63C650.00,318.73 650.30,325.00 651.29,325.82C652.00,326.41 656.37,328.29 661.00,330.00C665.63,331.71 675.06,335.80 681.96,339.10C688.86,342.39 698.01,347.39 702.31,350.21C706.87,353.20 710.80,356.62 711.76,358.42C712.86,360.49 713.53,364.86 713.81,371.80C714.08,378.47 713.77,383.75 712.92,386.77C712.08,389.78 710.17,392.88 707.54,395.51C704.81,398.24 698.65,401.97 688.98,406.76C681.02,410.69 669.10,416.15 662.50,418.88C650.50,423.84 650.50,423.84 650.00,444.32C649.56,462.50 649.29,465.03 647.63,466.86C646.60,468.00 643.90,469.59 641.63,470.40C639.36,471.21 633.09,472.15 627.70,472.50C622.31,472.85 614.21,472.81 609.70,472.42C602.12,471.77 601.26,471.46 598.34,468.38C595.18,465.05 595.18,465.05 580.34,468.44C572.18,470.31 556.50,473.72 545.50,476.02C534.50,478.32 524.04,480.81 522.25,481.55C519.00,482.90 519.00,482.90 519.00,492.93C519.00,502.53 519.10,502.98 521.25,503.43C522.49,503.68 532.39,504.57 543.25,505.41C554.12,506.25 563.86,507.39 564.91,507.95C565.97,508.52 568.93,511.44 571.49,514.44C575.58,519.23 576.74,519.98 580.83,520.54C583.40,520.89 587.09,521.58 589.03,522.07C590.98,522.56 594.16,524.64 596.17,526.73C598.15,528.80 600.49,531.92 601.37,533.65C602.24,535.39 603.47,540.11 604.10,544.15C604.76,548.38 605.01,555.74 604.67,561.50C604.35,567.00 603.38,573.87 602.50,576.76C601.63,579.66 599.51,583.62 597.80,585.57C596.09,587.52 592.98,589.99 590.89,591.05C588.81,592.12 582.02,594.41 575.80,596.14C569.59,597.87 562.59,600.11 560.25,601.11C557.91,602.11 556.00,603.57 556.00,604.36C556.00,605.14 556.79,606.09 557.75,606.46C558.71,606.83 566.92,608.01 576.00,609.08C585.08,610.15 595.18,611.50 598.46,612.09C601.73,612.68 605.78,613.85 607.46,614.70C609.13,615.54 611.78,617.41 613.34,618.86C614.90,620.31 616.81,622.72 617.59,624.20C618.37,625.69 619.00,627.74 619.00,628.77C619.00,629.80 617.54,632.54 615.75,634.87C613.84,637.35 610.39,640.13 607.40,641.59C603.26,643.62 598.03,644.62 579.71,646.89C557.13,649.68 557.13,649.68 551.52,654.81C548.42,657.64 544.26,660.39 542.21,660.96C540.17,661.53 536.25,661.97 533.50,661.95C530.75,661.93 525.12,661.50 521.00,660.99C516.88,660.48 504.13,659.12 492.67,657.95C481.21,656.78 471.59,656.08 471.28,656.38C470.98,656.69 474.17,660.59 478.37,665.05C482.57,669.52 486.28,674.26 486.61,675.59C486.94,676.91 486.92,679.16 486.57,680.59C486.21,682.01 483.88,685.35 481.40,688.00C478.91,690.66 474.95,693.74 472.60,694.85C470.24,695.96 464.76,697.33 460.41,697.90C456.06,698.47 448.00,699.21 442.50,699.55C437.00,699.89 431.03,700.62 429.22,701.17C426.44,702.02 425.40,703.33 422.34,709.77C419.96,714.79 417.00,719.04 413.62,722.30C410.80,725.02 404.52,729.93 399.65,733.21C394.78,736.50 389.29,739.82 387.43,740.59C385.58,741.37 383.92,742.00 383.75,742.00zM386.00,718.89C395.62,718.93 404.16,718.55 404.97,718.04C405.78,717.53 406.08,716.75 405.64,716.30C405.20,715.86 396.43,715.50 386.17,715.50C375.90,715.50 366.60,715.90 365.50,716.39C363.60,717.23 363.62,717.31 366.00,718.04C367.38,718.46 376.38,718.84 386.00,718.89zM386.00,709.81C391.97,709.91 396.43,709.50 397.99,708.71C399.36,708.02 400.64,706.65 400.82,705.68C401.01,704.70 400.57,703.19 399.85,702.32C398.72,700.95 396.36,700.80 382.92,701.23C374.33,701.50 366.55,702.15 365.61,702.68C364.05,703.55 364.08,703.83 365.99,706.26C367.50,708.18 369.19,708.99 372.28,709.27C374.60,709.48 380.77,709.72 386.00,709.81zM411.50,707.00C413.47,707.00 414.00,706.49 414.00,704.61C414.00,703.29 413.44,702.01 412.75,701.75C412.06,701.50 410.94,701.49 410.25,701.73C409.56,701.97 409.00,703.25 409.00,704.58C409.00,706.49 409.52,707.00 411.50,707.00zM392.31,688.27C404.30,687.97 416.68,687.45 419.81,687.11C423.91,686.67 425.50,686.08 425.50,685.01C425.50,683.96 423.55,683.15 419.00,682.30C415.43,681.64 409.80,681.04 406.50,680.98C402.19,680.89 401.06,680.62 402.50,680.00C403.60,679.53 405.62,679.10 407.00,679.05C408.38,679.01 410.09,678.60 410.80,678.14C411.52,677.69 412.80,674.66 413.64,671.41C414.48,668.16 416.08,664.03 417.18,662.22C418.29,660.42 418.96,658.34 418.67,657.59C418.38,656.83 415.38,655.75 411.83,655.14C408.35,654.54 401.23,653.76 396.00,653.41C390.61,653.04 382.50,653.26 377.25,653.90C372.17,654.53 366.88,655.55 365.50,656.18C363.00,657.32 363.00,657.34 363.00,671.54C363.00,681.70 363.36,686.05 364.25,686.78C364.94,687.35 366.62,688.03 368.00,688.31C369.38,688.59 380.31,688.57 392.31,688.27zM309.64,677.98C322.14,678.00 324.89,677.74 325.36,676.51C325.67,675.69 326.23,672.77 326.59,670.01C327.14,665.90 326.98,665.00 325.73,665.00C324.90,665.00 319.56,665.48 313.88,666.06C308.20,666.64 302.07,667.82 300.26,668.68C298.46,669.54 295.83,671.60 294.43,673.27C292.44,675.63 292.17,676.49 293.19,677.14C293.91,677.59 301.31,677.98 309.64,677.98zM335.14,678.00C336.65,678.00 338.08,677.66 338.33,677.25C338.58,676.84 338.94,673.80 339.14,670.50C339.50,664.50 339.50,664.50 336.22,664.65C334.42,664.73 332.28,665.35 331.47,666.02C330.61,666.74 330.00,668.96 330.00,671.42C330.00,673.72 330.54,676.14 331.20,676.80C331.86,677.46 333.63,678.00 335.14,678.00zM463.50,677.57C477.52,677.50 478.50,677.38 478.50,675.61C478.50,674.57 477.38,672.89 476.00,671.88C474.06,670.45 469.74,669.70 456.73,668.52C447.51,667.68 439.08,667.00 438.00,667.00C436.79,667.00 435.82,667.88 435.46,669.29C435.15,670.55 435.34,672.77 435.90,674.24C436.81,676.62 437.51,676.94 442.71,677.27C445.89,677.48 455.25,677.61 463.50,677.57zM426.13,673.98C427.57,673.99 429.30,673.35 429.96,672.55C430.62,671.75 431.01,670.29 430.82,669.30C430.55,667.89 429.51,667.50 425.99,667.50C422.02,667.50 421.46,667.78 421.16,669.89C420.98,671.20 421.43,672.66 422.16,673.12C422.90,673.59 424.68,673.98 426.13,673.98zM420.00,649.80C420.27,649.90 421.15,649.56 421.95,649.05C423.12,648.31 422.92,647.94 420.95,647.10C419.60,646.52 415.01,645.36 410.74,644.52C406.48,643.67 395.45,642.09 386.24,641.00C377.03,639.90 364.66,638.72 358.75,638.36C351.14,637.89 348.00,638.02 348.00,638.81C348.00,639.42 349.69,640.36 351.75,640.89C353.81,641.42 360.00,642.54 365.50,643.37C371.00,644.20 383.15,645.80 392.50,646.93C401.85,648.05 411.75,649.13 414.50,649.31C417.25,649.49 419.73,649.71 420.00,649.80zM538.70,644.90C540.46,644.95 543.05,644.48 544.45,643.84C545.85,643.20 547.00,641.86 547.00,640.86C547.00,639.75 546.02,638.79 544.48,638.40C543.09,638.06 539.01,638.09 535.41,638.47C531.11,638.93 528.68,639.67 528.31,640.63C528.00,641.43 528.01,642.34 528.33,642.66C528.64,642.97 530.38,643.58 532.20,644.01C534.01,644.44 536.94,644.84 538.70,644.90zM516.12,642.92C516.46,642.96 517.02,641.31 517.36,639.25C517.70,637.19 517.98,628.19 517.99,619.25C518.00,603.00 518.00,603.00 505.56,603.00C493.85,603.00 492.95,603.14 490.31,605.41C487.56,607.77 487.49,608.10 487.17,619.76C486.86,631.08 486.96,631.84 489.17,634.37C491.09,636.57 493.07,637.32 500.41,638.58C505.31,639.43 510.71,640.73 512.41,641.48C514.11,642.23 515.78,642.87 516.12,642.92zM579.22,628.89C589.27,628.83 600.20,628.49 603.50,628.14C608.61,627.60 609.54,627.19 609.80,625.37C609.97,624.21 609.37,622.51 608.46,621.61C607.02,620.16 604.08,620.00 584.23,620.23C561.64,620.50 561.64,620.50 560.83,623.50C560.38,625.15 560.22,627.06 560.47,627.75C560.82,628.69 565.43,628.97 579.22,628.89zM537.50,627.00C543.74,627.00 546.07,626.62 547.04,625.45C548.10,624.18 548.07,623.65 546.91,622.51C546.14,621.75 543.92,621.01 542.00,620.88C540.08,620.75 536.12,620.72 533.22,620.82C529.55,620.95 527.76,621.46 527.36,622.51C527.04,623.34 527.33,624.69 528.01,625.51C528.92,626.61 531.41,627.00 537.50,627.00zM380.25,625.86C385.09,625.95 388.00,625.61 388.00,624.95C388.00,624.37 386.49,623.27 384.65,622.50C382.81,621.73 376.85,620.20 371.40,619.09C365.96,617.99 354.67,616.18 346.32,615.07C337.98,613.96 326.84,612.75 321.57,612.38C312.00,611.70 312.00,611.70 312.00,614.20C312.00,615.57 312.82,617.44 313.83,618.35C315.19,619.57 320.46,620.53 334.08,622.01C344.21,623.11 357.00,624.40 362.50,624.87C368.00,625.34 375.99,625.79 380.25,625.86zM473.14,624.88C474.71,624.95 476.03,624.36 476.39,623.42C476.73,622.55 477.00,609.31 477.00,594.00C477.00,578.69 476.73,565.46 476.40,564.61C475.88,563.23 470.91,563.06 433.94,563.08C410.92,563.10 389.25,562.76 385.79,562.33C379.50,561.56 379.50,561.56 385.00,560.88C388.02,560.50 397.25,560.10 405.50,559.98C413.75,559.86 421.71,559.48 423.18,559.13C425.87,558.50 425.87,558.50 426.35,535.50C426.61,522.85 426.50,507.89 426.09,502.26C425.69,496.63 425.03,491.70 424.64,491.31C424.25,490.92 419.56,492.03 414.22,493.78C408.87,495.54 401.63,498.66 398.11,500.73C394.60,502.81 389.58,506.52 386.96,509.00C383.85,511.93 381.82,514.87 381.13,517.43C380.36,520.25 380.37,521.74 381.15,522.68C381.75,523.41 383.48,524.00 385.00,524.00C386.52,524.00 388.29,524.64 388.94,525.43C389.90,526.59 389.66,527.17 387.73,528.44C386.41,529.30 378.40,531.60 369.94,533.55C361.47,535.49 350.03,538.21 344.52,539.58C339.01,540.96 333.10,542.53 331.40,543.07C328.98,543.84 328.04,544.93 327.11,548.02C326.46,550.19 325.49,557.04 324.96,563.24C324.42,569.43 323.87,577.88 323.74,582.00C323.54,588.21 323.30,589.16 322.35,587.50C321.72,586.40 320.44,580.77 319.51,575.00C318.58,569.23 316.76,561.35 315.47,557.50C313.71,552.27 312.61,550.42 311.12,550.19C309.71,549.97 308.58,550.86 307.31,553.19C305.78,555.99 305.51,558.84 305.57,571.80C305.65,586.79 305.61,587.05 303.76,585.21C302.72,584.17 300.19,577.96 298.14,571.41C294.40,559.50 294.40,559.50 287.95,559.18C284.40,559.00 275.68,559.36 268.56,559.98C261.44,560.60 252.50,561.76 248.70,562.56C244.89,563.36 241.32,564.30 240.76,564.65C240.15,565.02 240.40,565.64 241.37,566.19C242.26,566.69 246.87,567.37 251.60,567.70C256.46,568.05 259.60,568.65 258.82,569.08C258.06,569.51 251.94,570.18 245.22,570.57C237.98,570.99 232.28,571.80 231.25,572.56C229.64,573.73 229.70,573.88 232.00,574.40C233.38,574.70 246.82,576.33 261.88,578.01C276.94,579.70 290.13,581.54 291.19,582.10C292.25,582.67 292.94,583.67 292.73,584.32C292.45,585.15 288.12,585.50 277.92,585.50C269.99,585.50 256.66,585.29 248.31,585.02C239.96,584.76 232.77,584.89 232.35,585.32C231.92,585.75 232.05,586.86 232.64,587.80C233.23,588.73 235.01,590.25 236.61,591.17C238.40,592.20 248.84,594.20 264.00,596.41C277.48,598.38 300.20,601.36 314.50,603.02C328.80,604.69 348.38,607.16 358.00,608.51C367.62,609.85 387.81,612.76 402.86,614.97C417.91,617.18 430.55,618.78 430.96,618.53C431.36,618.27 432.01,612.32 432.40,605.28C432.78,598.25 433.45,590.92 433.89,589.00C434.45,586.50 434.90,590.28 435.46,602.23C435.94,612.54 436.67,619.30 437.37,619.87C437.99,620.37 445.02,621.53 453.00,622.46C460.98,623.38 468.18,624.28 469.00,624.45C469.82,624.63 471.69,624.82 473.14,624.88zM300.25,619.89C301.95,619.96 303.00,619.48 303.00,618.65C303.00,617.91 302.52,615.91 301.92,614.21C300.95,611.43 300.34,611.07 295.67,610.54C292.83,610.21 284.43,609.50 277.00,608.96C269.57,608.41 258.66,607.68 252.75,607.33C245.35,606.89 242.00,607.03 242.00,607.77C242.00,608.36 243.46,609.31 245.25,609.88C247.04,610.45 255.93,612.29 265.00,613.97C274.07,615.64 285.10,617.64 289.50,618.40C293.90,619.16 298.74,619.83 300.25,619.89zM543.50,610.19C544.60,609.97 546.14,609.18 546.91,608.44C548.11,607.31 548.12,606.85 546.96,605.45C545.86,604.12 544.12,603.87 537.95,604.15C533.39,604.36 529.63,605.06 528.64,605.88C527.40,606.91 527.25,607.60 528.07,608.59C528.70,609.34 531.83,610.05 535.33,610.25C538.73,610.43 542.40,610.40 543.50,610.19zM211.25,573.56C213.31,571.33 215.00,568.92 215.00,568.22C215.00,567.27 213.75,567.08 210.25,567.51C207.64,567.82 197.48,568.71 187.68,569.47C174.41,570.50 169.21,571.29 167.28,572.55C165.20,573.91 164.98,574.41 166.15,575.06C166.95,575.51 176.58,576.27 187.55,576.75C207.50,577.63 207.50,577.63 211.25,573.56zM575.92,569.98C576.24,569.98 577.06,569.62 577.74,569.18C578.58,568.65 579.17,563.75 579.59,553.95C580.09,542.15 579.94,539.15 578.76,537.60C577.37,535.78 577.25,535.84 576.20,538.85C575.10,542.00 575.10,542.00 557.66,542.00C542.67,542.00 540.13,542.22 539.61,543.58C539.27,544.45 539.01,549.51 539.02,554.83C539.02,560.15 539.44,565.15 539.94,565.94C540.65,567.06 544.62,567.54 557.46,568.06C566.59,568.42 574.34,569.01 574.70,569.36C575.05,569.71 575.60,569.99 575.92,569.98zM526.50,567.62C531.50,567.50 531.50,567.50 531.78,555.09C532.06,542.69 532.06,542.69 516.45,543.30C502.12,543.86 500.48,544.12 496.49,546.45C494.10,547.85 490.75,550.69 489.04,552.75C486.84,555.40 486.01,557.35 486.22,559.40C486.38,561.11 487.54,563.08 489.04,564.19C491.11,565.73 494.32,566.23 506.54,566.91C514.77,567.37 523.75,567.69 526.50,567.62zM594.95,560.80C596.41,560.63 597.62,559.76 597.81,558.75C598.08,557.35 597.44,557.00 594.57,557.00C592.26,557.00 591.00,557.47 591.00,558.33C591.00,559.07 591.32,559.99 591.71,560.38C592.10,560.77 593.56,560.96 594.95,560.80zM454.29,559.74C471.49,559.54 475.24,559.24 476.02,558.00C476.54,557.17 476.98,551.24 476.98,544.81C477.00,536.70 476.63,532.89 475.78,532.37C475.12,531.95 468.03,531.28 460.03,530.88C452.04,530.47 444.38,530.08 443.00,530.01C440.73,529.89 440.68,529.80 442.50,529.08C443.60,528.65 451.22,528.00 459.43,527.64C467.64,527.27 474.61,526.72 474.93,526.41C475.24,526.09 475.64,515.46 475.80,502.77C476.11,479.70 476.11,479.70 469.80,480.33C466.34,480.67 458.55,482.09 452.50,483.48C446.45,484.87 439.12,486.70 436.21,487.54C432.40,488.65 430.67,489.73 430.04,491.40C429.56,492.67 429.08,501.09 428.99,510.11C428.90,519.12 428.87,533.60 428.91,542.28C429.00,557.66 429.06,558.09 431.25,559.02C432.50,559.55 442.70,559.87 454.29,559.74zM593.50,551.00C594.74,551.00 596.32,550.33 597.00,549.50C597.99,548.30 597.99,547.70 597.00,546.50C596.32,545.67 594.74,545.00 593.50,545.00C592.26,545.00 590.68,545.67 590.00,546.50C589.01,547.70 589.01,548.30 590.00,549.50C590.68,550.33 592.26,551.00 593.50,551.00zM243.70,538.98C248.54,538.98 257.90,538.54 264.50,538.02C271.10,537.49 282.91,536.31 290.75,535.38C302.45,533.99 304.99,533.40 304.96,532.09C304.93,531.22 304.33,528.27 303.61,525.55C302.89,522.83 301.81,520.44 301.20,520.23C300.59,520.03 292.08,521.23 282.29,522.90C272.51,524.58 257.30,526.42 248.50,527.01C239.70,527.59 231.94,528.26 231.25,528.50C230.56,528.74 230.00,530.10 230.00,531.51C230.00,532.93 231.10,535.20 232.45,536.55C234.69,538.78 235.69,539.00 243.70,538.98zM589.75,534.98C592.72,535.00 594.00,534.58 594.00,533.61C594.00,532.84 593.29,531.94 592.42,531.61C591.55,531.27 589.32,531.00 587.48,531.00C585.63,531.00 583.81,531.50 583.43,532.11C583.05,532.72 583.36,533.62 584.12,534.10C584.88,534.58 587.41,534.98 589.75,534.98zM217.25,531.91C219.72,531.97 221.00,531.55 221.00,530.69C221.00,529.97 220.44,528.66 219.75,527.77C218.83,526.59 213.47,525.48 199.50,523.55C189.05,522.12 179.60,520.84 178.50,520.72C177.30,520.59 176.50,521.09 176.50,521.99C176.50,522.87 178.53,524.19 181.50,525.24C184.25,526.21 192.57,528.09 200.00,529.41C207.43,530.73 215.19,531.85 217.25,531.91zM319.00,530.54C320.38,530.27 327.12,529.35 334.00,528.50C340.88,527.65 351.45,526.27 357.50,525.42C363.55,524.58 369.24,523.67 370.14,523.41C371.10,523.13 372.26,521.01 372.94,518.32C373.58,515.78 374.81,512.30 375.67,510.60C376.53,508.89 379.03,505.09 381.23,502.15C384.84,497.31 384.99,496.87 382.86,497.52C381.56,497.93 379.38,498.81 378.00,499.49C376.62,500.17 364.70,503.53 351.50,506.96C338.30,510.39 324.44,514.10 320.70,515.21C316.28,516.52 313.39,518.00 312.44,519.45C311.50,520.89 311.21,522.79 311.62,524.87C311.98,526.63 313.22,528.74 314.38,529.56C315.55,530.38 317.62,530.82 319.00,530.54zM524.00,525.83C524.27,525.91 524.97,525.64 525.54,525.23C526.11,524.83 528.02,522.28 529.80,519.56C532.07,516.08 532.71,514.31 531.96,513.56C531.31,512.90 523.13,512.38 510.52,512.18C491.02,511.87 490.06,511.94 488.07,513.93C486.93,515.07 486.00,517.26 486.00,518.80C486.00,520.34 486.54,522.14 487.20,522.80C487.97,523.57 492.33,524.04 499.45,524.12C505.53,524.18 513.42,524.56 517.00,524.96C520.58,525.37 523.73,525.76 524.00,525.83zM157.81,491.53C158.06,491.27 157.68,471.94 156.96,448.57C155.91,414.64 155.89,402.52 156.87,388.41C157.54,378.70 157.91,370.58 157.69,370.36C157.47,370.14 152.24,373.62 146.05,378.09C139.87,382.57 130.29,390.56 124.76,395.86C119.24,401.16 112.53,408.61 109.86,412.41C107.19,416.21 105.00,419.73 105.00,420.23C105.00,420.74 106.88,419.55 109.17,417.58C111.47,415.62 113.52,414.18 113.72,414.39C113.93,414.60 111.72,418.37 108.80,422.77C105.89,427.17 102.08,433.18 100.34,436.14C98.61,439.09 97.13,441.93 97.07,442.46C97.00,442.99 98.43,443.59 100.23,443.79C102.03,444.00 103.64,444.30 103.80,444.47C103.97,444.64 102.51,445.76 100.55,446.97C98.60,448.18 97.00,449.55 97.00,450.03C97.00,450.51 99.81,451.04 103.25,451.20C109.50,451.50 109.50,451.50 104.75,454.35C102.14,455.91 100.25,457.60 100.56,458.10C100.87,458.59 102.91,459.00 105.10,459.00C107.67,459.00 109.83,459.69 111.18,460.95C112.48,462.17 116.02,463.34 120.61,464.08C124.65,464.73 127.71,465.66 127.42,466.13C127.12,466.61 125.67,467.01 124.19,467.02C122.71,467.02 120.91,467.41 120.18,467.87C119.34,468.40 121.87,469.29 127.18,470.32C131.76,471.22 138.53,472.25 142.23,472.61C147.52,473.13 149.05,472.98 149.40,471.89C149.64,471.12 150.15,469.15 150.54,467.50C150.93,465.85 151.37,464.95 151.51,465.50C151.66,466.05 153.03,472.23 154.56,479.24C156.09,486.25 157.55,491.78 157.81,491.53zM403.34,486.00C403.53,486.00 406.27,485.11 409.42,484.03C412.57,482.94 426.93,479.10 441.33,475.50C455.72,471.89 468.96,468.47 470.75,467.89C474.00,466.84 474.00,466.84 474.00,457.92C474.00,449.53 473.88,449.00 471.90,449.00C470.75,449.00 468.61,449.64 467.15,450.42C465.69,451.20 462.70,452.53 460.50,453.37C456.50,454.90 456.50,454.90 461.25,454.95C465.83,455.00 466.00,455.11 466.00,457.95C466.00,460.61 465.21,461.33 457.75,465.37C452.71,468.10 443.59,471.62 434.29,474.43C425.93,476.96 415.46,480.42 411.04,482.10C406.62,483.79 403.00,485.36 403.00,485.59C403.00,485.81 403.15,486.00 403.34,486.00zM172.83,477.98C174.30,477.97 180.22,477.26 186.00,476.40C191.78,475.54 200.55,474.31 205.50,473.66C214.50,472.49 214.50,472.49 214.72,461.99C214.84,456.22 215.43,444.13 216.03,435.11C216.69,425.23 216.76,418.36 216.21,417.81C215.66,417.26 209.35,418.88 200.32,421.89C192.08,424.64 183.02,427.19 180.17,427.57C176.90,428.01 175.00,427.89 175.00,427.25C175.00,426.69 177.59,425.00 180.75,423.50C183.91,422.00 192.57,418.75 200.00,416.27C207.43,413.80 214.06,411.32 214.75,410.76C215.44,410.21 216.00,407.81 216.00,405.44C216.00,403.06 216.45,400.84 217.00,400.50C217.59,400.14 218.01,401.24 218.02,403.19C218.02,405.01 218.44,407.15 218.94,407.93C219.71,409.15 221.58,408.88 231.17,406.22C237.40,404.48 248.35,401.69 255.50,400.00C262.65,398.31 273.68,395.39 280.00,393.50C286.32,391.61 297.29,388.68 304.37,386.99C311.45,385.30 317.75,384.08 318.37,384.29C318.99,384.50 315.90,385.84 311.50,387.26C307.10,388.69 296.98,391.50 289.00,393.50C281.02,395.50 264.60,400.52 252.50,404.65C240.40,408.78 228.30,412.78 225.60,413.53C222.91,414.28 220.23,415.37 219.66,415.94C218.92,416.68 219.12,424.77 220.29,442.65C221.21,456.76 222.18,468.52 222.45,468.78C222.71,469.05 229.13,468.03 236.71,466.52C244.30,465.02 258.15,461.99 267.50,459.79C276.85,457.60 293.95,453.64 305.50,450.99C317.05,448.35 331.90,444.82 338.50,443.15C345.10,441.48 358.60,438.34 368.50,436.18C378.40,434.02 390.66,431.46 395.75,430.50C400.84,429.54 405.00,428.26 405.00,427.66C405.00,427.07 403.11,424.65 400.79,422.29C397.49,418.92 395.86,418.00 393.22,418.00C390.24,418.00 389.94,418.24 390.55,420.15C391.23,422.31 391.23,422.31 387.37,419.97C385.24,418.69 381.70,416.42 379.50,414.92C377.30,413.43 372.41,409.08 368.64,405.24C364.87,401.40 359.86,395.50 357.51,392.12C355.16,388.75 352.68,384.64 352.00,383.01C351.31,381.34 351.05,378.57 351.40,376.70C351.77,374.70 353.71,371.65 356.26,369.05C358.59,366.66 363.20,363.46 366.50,361.93C369.80,360.39 377.23,358.17 383.00,356.99C388.77,355.80 394.62,354.53 396.00,354.15C398.48,353.46 398.50,353.35 399.12,338.98C399.55,328.77 400.38,322.14 401.93,316.50C403.14,312.10 406.11,304.43 408.55,299.46C410.98,294.49 415.47,287.40 418.53,283.69C421.58,279.98 425.93,275.61 428.20,273.97C430.46,272.33 435.28,270.12 438.91,269.06C442.53,268.00 451.12,266.02 458.00,264.66C464.88,263.30 472.46,261.88 474.86,261.49C477.25,261.10 480.08,259.92 481.14,258.86C482.20,257.80 482.80,256.49 482.48,255.96C482.15,255.43 479.07,255.00 475.63,255.00C472.19,255.00 464.28,255.67 458.05,256.49C451.82,257.32 442.85,258.71 438.11,259.59C433.38,260.48 429.05,261.54 428.50,261.96C427.95,262.38 425.00,263.01 421.94,263.35C418.88,263.69 407.24,265.99 396.07,268.46C384.91,270.93 367.61,275.42 357.63,278.45C347.66,281.48 335.45,285.32 330.51,286.99C325.57,288.67 319.12,291.63 316.19,293.58C312.14,296.26 310.27,298.37 308.44,302.31C307.11,305.16 306.02,308.03 306.01,308.68C306.00,309.33 305.29,310.56 304.43,311.43C303.56,312.29 301.99,313.00 300.93,313.00C299.69,313.00 299.00,312.31 299.00,311.06C299.00,309.99 300.16,305.90 301.58,301.97C303.00,298.04 303.91,294.58 303.62,294.28C303.32,293.98 299.12,294.97 294.29,296.47C289.45,297.97 278.52,301.67 270.00,304.69C261.48,307.72 249.49,312.57 243.36,315.47C236.76,318.60 230.37,322.46 227.68,324.94C224.30,328.06 222.61,330.69 221.07,335.26C219.93,338.63 219.00,342.20 219.00,343.19C219.00,344.19 219.46,345.00 220.03,345.00C220.60,345.00 224.09,343.29 227.78,341.19C231.48,339.10 238.10,335.67 242.50,333.57C246.90,331.47 254.10,328.19 258.50,326.27C262.90,324.36 268.98,321.91 272.00,320.83C275.02,319.75 281.22,317.77 285.77,316.43C290.31,315.09 294.59,314.01 295.27,314.02C295.94,314.02 293.53,315.71 289.89,317.77C286.26,319.82 273.21,327.52 260.89,334.88C248.58,342.25 234.00,350.98 228.50,354.28C223.00,357.59 211.16,364.33 202.20,369.26C193.23,374.19 185.64,377.97 185.32,377.66C185.01,377.34 187.40,374.07 190.63,370.38C193.86,366.69 199.75,361.26 203.73,358.31C207.70,355.37 211.37,352.17 211.89,351.21C212.40,350.25 213.15,345.66 213.56,341.02C214.30,332.58 214.30,332.58 211.68,334.29C210.25,335.23 205.12,338.40 200.29,341.33C195.45,344.26 187.68,349.18 183.00,352.27C178.32,355.35 172.82,359.61 170.76,361.72C167.73,364.83 166.63,367.10 165.04,373.54C163.96,377.92 162.61,386.68 162.04,393.00C161.47,399.32 161.02,411.25 161.03,419.50C161.05,427.75 161.46,439.90 161.95,446.50C162.44,453.10 163.19,459.40 163.63,460.50C164.24,462.03 164.67,461.10 165.50,456.50C166.57,450.50 166.57,450.50 167.29,459.22C167.68,464.01 168.49,470.20 169.09,472.97C170.06,477.49 170.44,478.00 172.83,477.98zM491.25,474.96C491.94,474.94 505.77,472.32 522.00,469.14C551.50,463.36 551.50,463.36 552.05,446.93C552.36,437.89 552.71,393.70 552.84,348.73C553.02,282.98 552.81,266.87 551.78,266.49C551.08,266.24 543.98,265.11 536.00,264.00C528.02,262.88 515.69,261.01 508.58,259.83C495.66,257.70 495.66,257.70 493.33,260.40C492.05,261.89 491.00,263.98 491.00,265.04C491.00,266.23 491.86,267.14 493.25,267.43C494.49,267.68 497.75,268.25 500.50,268.70C505.50,269.50 505.50,269.50 498.24,269.79C491.75,270.06 490.82,270.35 489.33,272.62C487.97,274.70 487.59,278.76 487.21,295.32C486.79,313.97 486.90,315.67 488.63,317.72C490.21,319.59 492.12,320.10 500.86,320.97C506.55,321.54 513.66,322.00 516.66,322.00C519.65,322.00 523.34,322.64 524.87,323.43C526.67,324.36 528.03,326.19 528.77,328.68C529.39,330.78 530.16,340.60 530.47,350.50C531.04,368.50 531.04,368.50 535.42,372.50C537.83,374.70 540.31,377.51 540.93,378.75C541.56,379.98 542.53,383.52 543.10,386.61C543.85,390.66 543.81,394.18 542.96,399.23C542.01,404.88 541.12,406.97 538.36,410.02C536.48,412.10 532.96,414.74 530.55,415.87C528.13,417.01 523.16,418.69 519.51,419.61C515.86,420.52 513.24,421.61 513.69,422.02C514.13,422.43 519.79,422.32 526.25,421.76C535.38,420.98 538.33,421.03 539.50,422.00C540.73,423.02 541.00,426.38 541.00,440.60C541.00,457.50 540.94,457.99 538.75,459.41C537.51,460.21 527.27,463.33 516.00,466.35C504.73,469.37 494.26,472.32 492.75,472.90C491.24,473.48 490.00,474.19 490.00,474.48C490.00,474.76 490.56,474.98 491.25,474.96zM629.29,460.78C636.67,460.57 639.31,460.13 640.02,459.00C640.54,458.18 640.98,455.81 640.98,453.75C640.99,451.49 640.52,450.00 639.80,450.00C639.14,450.00 634.30,451.64 629.05,453.65C623.80,455.66 618.92,457.76 618.20,458.32C617.14,459.14 617.14,459.48 618.20,460.20C618.92,460.68 623.90,460.94 629.29,460.78zM500.86,447.00C501.82,447.00 503.14,446.46 503.80,445.80C504.49,445.11 505.00,441.78 505.00,437.91C505.00,433.47 504.58,431.05 503.75,430.74C503.06,430.48 501.53,430.62 500.34,431.07C499.15,431.51 497.87,432.84 497.49,434.03C497.11,435.22 497.12,438.29 497.50,440.85C497.88,443.41 498.40,445.84 498.66,446.25C498.91,446.66 499.90,447.00 500.86,447.00zM513.38,446.00C518.60,446.00 518.77,445.91 519.38,442.88C519.72,441.16 520.00,437.36 520.00,434.43C520.00,431.51 519.53,428.83 518.95,428.47C518.38,428.12 515.68,428.13 512.95,428.51C508.00,429.19 508.00,429.19 508.00,437.59C508.00,446.00 508.00,446.00 513.38,446.00zM526.88,445.00C531.10,445.00 531.85,444.69 532.37,442.75C532.70,441.51 532.98,437.97 532.99,434.87C532.99,431.35 532.49,428.83 531.65,428.12C530.79,427.41 528.52,427.24 525.52,427.65C520.75,428.31 520.75,428.31 521.37,434.30C521.72,437.60 522.00,441.35 522.00,442.65C522.00,444.80 522.42,445.00 526.88,445.00zM569.28,437.00C570.72,437.00 574.17,436.51 576.95,435.92C579.73,435.32 582.00,434.42 582.00,433.92C582.00,433.41 581.66,433.02 581.25,433.04C580.84,433.05 577.66,433.68 574.20,434.42C570.73,435.17 567.62,436.05 567.28,436.39C566.94,436.72 567.84,437.00 569.28,437.00zM276.46,429.98C274.79,429.99 271.42,428.99 268.96,427.75C265.50,426.00 264.50,424.95 264.50,423.04C264.50,421.39 265.55,419.87 267.70,418.42C269.58,417.16 273.37,415.99 276.91,415.59C281.39,415.08 283.67,415.29 285.83,416.41C287.44,417.24 288.96,418.74 289.22,419.75C289.49,420.75 289.33,422.59 288.87,423.83C288.40,425.09 286.15,426.94 283.77,428.02C281.42,429.08 278.13,429.97 276.46,429.98zM566.01,422.00C566.43,422.00 566.99,421.16 567.26,420.13C567.64,418.64 569.09,418.12 574.31,417.56C578.19,417.14 581.39,416.24 582.13,415.35C583.00,414.29 583.63,406.01 584.24,387.67C584.71,373.28 584.97,349.93 584.80,335.80C584.59,317.78 584.15,309.75 583.32,308.92C582.68,308.28 578.43,307.15 573.89,306.42C569.35,305.70 565.27,305.33 564.82,305.61C564.37,305.89 564.00,330.50 564.01,360.31C564.02,390.11 564.30,416.19 564.64,418.25C564.98,420.31 565.60,422.00 566.01,422.00zM598.37,413.41C601.74,413.05 604.94,412.35 605.48,411.85C606.01,411.36 606.77,407.47 607.15,403.22C607.54,398.98 607.88,377.27 607.91,355.00C607.94,332.73 607.62,313.95 607.20,313.28C606.77,312.61 603.19,311.51 599.24,310.83C595.29,310.16 591.79,309.87 591.46,310.20C591.13,310.53 590.90,333.32 590.94,360.85C590.99,388.37 591.30,411.61 591.63,412.48C592.14,413.80 593.29,413.96 598.37,413.41zM623.56,412.59C624.20,411.72 625.20,411.00 625.79,411.00C626.38,411.00 627.11,410.21 627.41,409.25C627.71,408.29 628.39,399.01 628.92,388.64C629.45,378.27 630.14,369.53 630.44,369.22C630.75,368.92 631.02,370.88 631.04,373.58C631.06,376.29 631.48,385.81 631.98,394.76C632.48,403.70 633.18,411.48 633.53,412.05C633.98,412.77 634.60,412.75 635.52,411.98C636.27,411.36 637.17,409.43 637.53,407.68C637.90,405.93 638.85,403.46 639.66,402.19C640.81,400.38 641.16,395.42 641.28,379.19C641.37,367.81 641.34,350.32 641.22,340.32C641.04,325.34 640.72,321.87 639.43,320.57C638.48,319.62 636.13,319.00 633.49,319.00C631.08,319.00 628.86,318.58 628.54,318.07C628.22,317.55 625.44,316.61 622.35,315.97C617.78,315.02 616.57,315.05 615.81,316.15C615.26,316.96 615.12,333.35 615.47,357.00C615.79,378.73 616.32,399.76 616.64,403.75C617.04,408.60 617.65,411.00 618.50,411.00C619.19,411.00 620.35,411.72 621.07,412.59C622.28,414.04 622.49,414.04 623.56,412.59zM497.69,399.86C500.00,399.94 502.18,399.52 502.54,398.93C502.90,398.35 503.04,397.73 502.85,397.56C502.66,397.39 499.46,396.93 495.75,396.54C490.09,395.95 489.00,396.08 489.00,397.35C489.00,398.18 490.01,399.06 491.25,399.29C492.49,399.53 495.39,399.79 497.69,399.86zM518.67,400.00C524.13,400.00 525.08,399.71 526.15,397.75C526.82,396.51 527.56,391.79 527.81,387.25C528.25,379.00 528.25,379.00 524.76,379.00C522.85,379.00 519.30,378.76 516.89,378.46C514.48,378.16 511.88,378.33 511.13,378.84C509.97,379.62 509.96,381.35 511.08,389.88C512.41,400.00 512.41,400.00 518.67,400.00zM495.95,394.00C501.26,394.00 502.14,393.71 503.60,391.49C504.51,390.10 505.47,387.04 505.73,384.69C506.13,381.11 505.78,379.89 503.57,377.27C501.03,374.24 500.94,373.74 501.22,363.31C501.38,357.04 501.79,353.55 502.20,355.00C502.58,356.38 503.19,359.75 503.56,362.50C504.16,366.97 504.33,367.24 505.16,365.04C505.67,363.69 506.47,354.69 506.94,345.04C507.40,335.39 508.11,326.49 508.51,325.25C509.23,323.02 509.13,323.00 499.70,323.00C494.45,323.00 489.45,323.27 488.58,323.61C487.19,324.14 487.00,327.58 487.00,351.92C487.00,367.16 487.47,382.30 488.05,385.57C488.62,388.83 489.28,392.06 489.51,392.75C489.79,393.56 492.03,394.00 495.95,394.00zM424.05,371.00C424.36,360.82 424.49,352.33 424.35,352.13C424.20,351.92 423.37,352.03 422.50,352.36C421.62,352.70 420.26,354.54 419.45,356.45C418.60,358.50 418.00,363.18 418.00,367.81C418.00,373.02 418.66,377.61 419.95,381.36C421.03,384.48 422.26,387.59 422.70,388.27C423.14,388.95 423.75,381.18 424.05,371.00zM452.92,380.77C475.50,380.50 475.50,380.50 475.78,369.03C476.04,358.75 475.87,357.40 474.16,356.03C472.33,354.56 472.31,353.93 473.60,339.50C474.35,331.25 475.41,314.82 475.96,303.00C476.52,291.18 477.26,278.17 477.62,274.10C478.26,266.71 478.26,266.71 472.96,267.41C470.04,267.80 463.12,269.21 457.58,270.55C452.03,271.88 444.66,273.97 441.19,275.19C437.72,276.41 433.10,278.94 430.93,280.80C428.75,282.66 424.96,287.00 422.50,290.45C420.04,293.89 416.70,299.59 415.07,303.11C413.45,306.62 411.44,312.88 410.61,317.00C409.78,321.12 408.79,330.24 408.41,337.25C408.00,344.61 408.09,350.01 408.60,350.02C409.10,350.03 414.90,350.22 421.50,350.44C428.10,350.66 434.62,351.19 436.00,351.61C438.30,352.32 438.13,352.47 434.00,353.47C430.39,354.35 429.14,355.25 427.68,358.03C426.20,360.86 425.96,362.95 426.41,369.40C426.79,374.80 427.49,377.89 428.65,379.17C430.22,380.90 431.95,381.02 452.92,380.77zM408.69,379.17C409.34,378.98 410.11,377.63 410.39,376.17C410.68,374.70 410.99,371.48 411.09,369.00C411.19,366.52 411.21,363.94 411.13,363.25C411.04,362.34 408.21,362.00 400.72,362.00C395.07,362.00 386.68,362.47 382.08,363.05C377.48,363.63 372.49,364.73 371.00,365.50C369.51,366.27 366.88,368.51 365.15,370.48C363.42,372.46 362.00,374.45 362.00,374.91C362.00,375.38 362.73,376.36 363.62,377.10C364.81,378.09 370.79,378.58 386.37,378.98C397.99,379.27 408.04,379.36 408.69,379.17zM702.95,375.00C703.40,374.18 704.09,371.18 704.47,368.34C704.90,365.11 704.74,362.39 704.05,361.09C703.35,359.79 701.94,359.00 700.34,359.00C697.79,359.00 697.76,359.10 698.43,364.17C698.80,367.01 699.79,370.95 700.62,372.92C701.78,375.67 702.31,376.15 702.95,375.00zM655.13,372.08C655.64,370.74 655.94,364.89 655.78,359.08C655.55,350.47 655.22,348.50 654.00,348.50C652.76,348.50 652.50,350.39 652.50,359.50C652.50,365.55 652.88,371.40 653.35,372.50C654.17,374.42 654.24,374.40 655.13,372.08zM680.50,370.78C687.17,370.78 693.06,370.34 693.75,369.77C694.44,369.21 695.00,366.57 695.00,363.88C695.00,360.50 694.44,358.44 693.19,357.19C692.11,356.11 686.02,354.07 678.15,352.15C670.88,350.38 664.54,349.17 664.06,349.46C663.58,349.76 662.92,352.14 662.59,354.75C662.26,357.36 662.33,361.73 662.75,364.46C663.38,368.58 663.93,369.53 666.01,370.09C667.38,370.46 673.90,370.77 680.50,370.78zM518.89,361.80C524.50,361.50 524.50,361.50 524.78,347.58C524.99,337.11 524.74,333.45 523.78,332.84C523.08,332.40 520.85,332.02 518.83,332.02C516.81,332.01 514.45,332.27 513.58,332.61C512.28,333.11 512.00,335.07 512.01,343.86C512.02,349.71 512.30,356.21 512.65,358.30C513.28,362.09 513.28,362.09 518.89,361.80zM515.20,315.91C509.32,315.86 503.11,315.42 501.42,314.92C499.72,314.43 497.48,313.08 496.42,311.91C494.83,310.15 494.45,307.91 494.15,298.56C493.84,288.66 494.05,286.83 495.91,283.18C497.07,280.90 499.21,278.25 500.67,277.30C502.77,275.92 505.22,275.61 512.81,275.79C518.03,275.91 525.05,276.44 528.40,276.97C532.90,277.69 535.07,278.60 536.67,280.44C538.05,282.02 539.11,285.00 539.55,288.54C539.93,291.62 540.04,297.71 539.79,302.06C539.46,307.74 538.83,310.53 537.57,311.93C536.60,313.00 533.57,314.35 530.85,314.94C528.13,315.52 521.09,315.96 515.20,315.91zM636.58,313.00C638.04,313.00 638.98,312.23 639.36,310.71C639.67,309.45 640.00,303.56 640.07,297.62C640.15,291.68 639.83,286.47 639.36,286.04C638.89,285.61 635.12,284.24 631.00,283.00C626.88,281.75 622.05,280.39 620.28,279.98C618.02,279.45 616.72,279.63 615.93,280.59C615.17,281.50 614.91,286.09 615.15,294.32C615.38,302.37 615.94,307.23 616.77,308.22C617.47,309.06 619.88,310.04 622.13,310.40C624.69,310.81 626.74,310.63 627.61,309.91C628.45,309.21 629.06,306.54 629.15,303.13C629.30,297.50 629.30,297.50 629.91,303.83C630.35,308.47 631.03,310.55 632.44,311.58C633.51,312.36 635.37,313.00 636.58,313.00zM361.22,310.00C359.51,310.00 357.47,309.06 356.17,307.69C354.98,306.41 354.00,305.02 354.00,304.59C354.00,304.16 354.94,302.49 356.08,300.89C357.22,299.28 359.54,297.26 361.22,296.38C362.91,295.51 365.83,294.80 367.70,294.80C369.58,294.80 371.99,295.59 373.06,296.55C374.13,297.52 375.00,299.29 375.00,300.48C375.00,301.67 373.99,303.58 372.75,304.71C371.51,305.84 369.06,307.49 367.30,308.38C365.54,309.27 362.81,310.00 361.22,310.00zM365.92,307.00C366.33,307.00 366.95,306.72 367.29,306.38C367.63,306.04 366.48,304.05 364.72,301.96C362.97,299.88 361.19,298.38 360.77,298.64C360.35,298.90 360.00,299.51 360.00,299.98C360.00,300.46 361.17,302.23 362.59,303.92C364.01,305.62 365.51,307.00 365.92,307.00zM605.25,306.92C606.76,306.99 607.01,305.99 607.08,299.75C607.12,295.76 607.08,289.36 607.00,285.51C606.92,281.67 606.43,278.01 605.91,277.39C605.39,276.76 603.28,275.98 601.23,275.65C599.18,275.32 596.03,274.76 594.22,274.40C590.95,273.74 590.95,273.74 591.22,288.62C591.50,303.49 591.50,303.49 597.50,305.17C600.80,306.09 604.29,306.88 605.25,306.92zM527.00,306.00C527.89,306.00 529.47,305.37 530.52,304.61C532.14,303.43 532.22,302.97 531.09,301.61C530.34,300.71 528.26,300.00 526.35,300.00C524.11,300.00 522.72,300.56 522.31,301.64C521.92,302.65 522.39,303.81 523.53,304.64C524.55,305.39 526.11,306.00 527.00,306.00zM511.04,305.00C514.78,305.00 517.17,304.50 517.94,303.57C518.89,302.43 518.76,301.94 517.31,301.17C516.32,300.64 512.91,300.18 509.75,300.14C504.86,300.09 504.00,300.34 504.00,301.87C504.00,302.86 504.30,303.97 504.67,304.33C505.03,304.70 507.90,305.00 511.04,305.00zM581.20,301.92C583.54,301.99 584.00,301.51 584.58,298.40C584.96,296.42 584.95,290.01 584.57,284.15C584.12,277.11 583.43,273.15 582.54,272.46C581.80,271.89 577.72,270.84 573.46,270.12C567.03,269.04 565.58,269.05 564.88,270.16C564.41,270.90 564.03,277.12 564.03,284.00C564.03,290.88 564.40,297.07 564.84,297.78C565.29,298.48 568.54,299.68 572.08,300.45C575.61,301.21 579.72,301.88 581.20,301.92zM510.79,291.41C513.38,291.35 516.06,291.24 516.75,291.15C517.44,291.07 518.00,290.16 518.00,289.12C518.00,288.09 517.38,286.73 516.62,286.10C515.86,285.47 513.93,285.05 512.34,285.17C510.75,285.29 508.93,285.08 508.31,284.69C507.69,284.31 506.46,284.27 505.59,284.60C504.66,284.96 504.00,286.38 504.00,288.02C504.00,289.57 504.47,290.99 505.04,291.18C505.61,291.37 508.19,291.48 510.79,291.41zM526.50,292.00C527.74,292.00 529.35,291.29 530.07,290.42C531.02,289.27 531.10,288.38 530.33,287.17C529.69,286.15 527.97,285.50 525.90,285.50C523.45,285.50 522.43,285.99 522.18,287.30C521.99,288.29 522.38,289.75 523.04,290.55C523.70,291.35 525.26,292.00 526.50,292.00zM258.50,290.38C260.70,290.10 266.77,288.99 272.00,287.91C277.23,286.83 286.43,284.66 292.45,283.08C300.49,280.98 303.59,279.72 304.13,278.36C304.53,277.34 304.89,273.27 304.93,269.31C304.97,265.36 306.22,255.46 307.71,247.31C310.11,234.18 310.42,230.01 310.45,210.50C310.49,188.50 310.49,188.50 305.12,167.50C299.94,147.25 299.77,146.14 300.28,136.50C300.57,131.00 301.32,125.18 301.94,123.58C302.57,121.97 302.87,120.11 302.61,119.43C302.25,118.48 300.64,118.53 295.37,119.63C291.65,120.41 281.20,122.87 272.14,125.09C263.09,127.31 254.06,129.95 252.09,130.96C250.11,131.96 247.60,133.80 246.50,135.05C244.50,137.31 244.50,137.31 248.00,136.60C249.93,136.21 256.37,134.99 262.32,133.88C268.27,132.78 273.66,132.05 274.29,132.26C274.93,132.48 272.76,133.89 269.47,135.42C266.19,136.94 259.37,139.53 254.31,141.18C249.26,142.84 244.31,144.82 243.31,145.60C241.74,146.83 244.08,146.93 261.08,146.37C273.49,145.95 281.32,146.08 282.45,146.71C283.91,147.53 283.45,147.83 279.86,148.38C277.46,148.74 268.98,150.61 261.00,152.53C253.03,154.45 240.65,157.43 233.50,159.15C226.35,160.87 213.07,164.97 204.00,168.25C194.93,171.54 185.40,175.29 182.84,176.59C178.87,178.59 177.95,179.65 176.59,183.72C175.72,186.35 174.59,191.88 174.07,196.00C173.56,200.12 173.03,210.82 172.89,219.77C172.73,230.24 173.02,236.42 173.70,237.10C174.45,237.85 174.45,239.00 173.70,240.99C172.92,243.05 173.04,248.46 174.12,260.93C175.17,272.95 176.04,278.45 177.06,279.42C178.15,280.47 183.94,280.98 200.84,281.52C223.18,282.24 223.18,282.24 222.47,258.37C222.07,245.16 221.31,233.94 220.75,233.25C220.10,232.43 220.09,231.57 220.74,230.75C221.28,230.06 222.02,224.81 222.38,219.09C222.74,213.36 223.67,205.91 224.45,202.54C225.24,199.16 226.83,193.85 228.00,190.73C229.17,187.60 232.13,182.32 234.59,178.99C237.53,175.00 241.34,171.44 245.78,168.58C249.47,166.18 254.95,163.50 257.93,162.61C260.92,161.73 265.64,161.01 268.43,161.01C271.22,161.02 275.75,161.62 278.50,162.36C281.25,163.09 285.39,164.66 287.69,165.84C290.00,167.02 293.55,169.67 295.58,171.74C297.62,173.81 300.57,178.22 302.13,181.54C303.70,184.86 305.53,190.26 306.20,193.54C306.86,196.82 307.38,206.03 307.36,214.00C307.33,222.94 306.67,232.07 305.65,237.81C304.73,242.93 302.61,250.67 300.94,255.01C298.95,260.16 296.37,264.60 293.51,267.78C291.10,270.46 286.39,274.11 283.06,275.89C279.72,277.67 273.79,280.21 269.87,281.54C265.96,282.87 260.67,284.24 258.13,284.58C255.46,284.93 249.57,284.51 244.25,283.60C239.16,282.72 234.55,282.00 234.00,282.00C233.45,282.00 233.00,282.48 233.00,283.06C233.00,283.64 235.06,285.02 237.57,286.13C240.08,287.24 244.92,288.77 248.32,289.52C251.72,290.27 256.30,290.66 258.50,290.38zM166.77,280.88C170.04,281.00 170.04,281.00 169.77,261.75C169.50,242.50 169.50,242.50 165.50,241.89C163.30,241.56 162.45,241.22 163.62,241.14C164.78,241.06 166.93,240.05 168.40,238.90C171.08,236.79 171.08,236.79 170.79,209.90C170.63,195.10 170.17,183.00 169.77,183.00C169.36,183.00 163.08,185.94 155.79,189.53C148.51,193.12 141.36,197.19 139.91,198.59C138.46,199.98 136.08,203.46 134.63,206.33C133.18,209.20 131.34,214.64 130.55,218.42C129.76,222.20 128.81,229.87 128.43,235.45C127.87,243.84 128.02,245.87 129.27,247.12C130.39,248.25 130.52,249.11 129.76,250.47C129.14,251.58 128.93,256.81 129.24,263.73C129.63,272.57 130.12,275.55 131.40,276.83C132.95,278.37 133.10,278.33 133.65,276.24C133.97,275.01 134.45,274.00 134.71,274.00C134.97,274.00 135.97,274.98 136.94,276.18C138.46,278.05 140.40,278.52 151.10,279.55C157.92,280.22 164.97,280.81 166.77,280.88zM317.31,278.60C318.52,278.27 326.48,276.38 335.00,274.40C343.52,272.42 355.87,269.46 362.43,267.83C369.00,266.20 384.29,262.66 396.42,259.97C408.87,257.21 418.91,254.48 419.48,253.70C420.04,252.95 421.04,252.51 421.69,252.73C422.40,252.96 423.09,251.78 423.40,249.81C423.68,247.99 424.11,228.95 424.36,207.50C424.61,186.05 425.13,167.72 425.51,166.76C425.89,165.80 426.54,165.22 426.95,165.47C427.36,165.72 428.01,184.73 428.41,207.71C428.80,230.70 429.50,249.88 429.96,250.35C430.42,250.81 440.51,250.15 452.40,248.87C474.00,246.55 474.00,246.55 474.00,226.40C474.00,210.38 473.71,206.01 472.60,205.09C471.84,204.45 468.58,203.50 465.35,202.97C462.13,202.44 459.39,202.01 459.25,202.01C459.11,202.00 459.00,201.61 459.00,201.13C459.00,200.66 462.18,200.04 466.07,199.76C469.96,199.48 473.49,198.86 473.91,198.38C474.33,197.90 474.39,191.55 474.03,184.28C473.68,177.01 473.04,170.71 472.61,170.28C472.19,169.85 462.87,169.36 451.92,169.19C440.96,169.02 432.00,168.52 432.00,168.07C432.00,167.63 433.69,166.98 435.75,166.64C437.81,166.30 446.97,166.02 456.10,166.01C471.30,166.00 472.84,165.84 474.46,164.04C476.00,162.35 476.25,159.93 476.33,146.36C476.40,134.87 476.10,130.53 475.21,130.24C474.55,130.02 474.00,129.24 474.00,128.52C474.00,127.80 474.69,126.95 475.52,126.63C476.82,126.13 477.01,123.55 476.77,109.27C476.50,92.50 476.50,92.50 464.50,92.80C457.90,92.97 445.30,93.54 436.50,94.08C427.70,94.61 414.71,95.73 407.64,96.55C400.57,97.37 388.87,99.18 381.64,100.57C374.41,101.97 361.30,104.66 352.50,106.57C343.70,108.47 331.10,111.42 324.50,113.11C317.90,114.81 311.71,116.90 310.74,117.76C309.77,118.62 308.08,122.23 306.99,125.77C305.68,130.00 305.00,135.05 305.00,140.50C305.00,145.91 305.68,151.00 306.96,155.14C308.04,158.64 309.84,165.38 310.97,170.12C312.09,174.86 313.68,183.41 314.49,189.12C315.30,194.83 315.98,206.47 316.00,215.00C316.02,223.53 315.50,239.72 314.85,251.00C314.20,262.27 314.00,273.23 314.40,275.35C315.03,278.70 315.41,279.12 317.31,278.60zM124.27,274.31C124.70,274.06 124.98,269.95 124.90,265.18C124.82,260.40 124.56,255.71 124.31,254.75C124.07,253.79 123.17,253.00 122.32,253.00C120.94,253.00 120.95,252.73 122.38,250.54C123.62,248.64 124.01,245.45 124.03,236.79C124.05,230.58 124.47,222.57 124.96,219.00C125.45,215.43 126.17,210.99 126.57,209.15C127.29,205.80 127.29,205.80 124.23,207.38C122.54,208.25 118.09,211.29 114.33,214.12C110.57,216.95 104.87,221.80 101.65,224.88C98.43,227.97 93.60,233.61 90.90,237.41C88.21,241.21 86.00,244.72 86.00,245.22C86.00,245.71 86.56,245.78 87.25,245.36C87.94,244.95 87.04,246.29 85.25,248.34C83.46,250.39 82.00,252.30 82.00,252.58C82.00,252.86 83.58,252.80 85.50,252.43C87.86,251.99 89.00,252.15 89.00,252.93C89.00,253.56 86.70,255.51 83.89,257.26C81.09,259.00 79.31,260.60 79.95,260.82C80.59,261.03 83.90,260.72 87.31,260.13C90.71,259.55 95.53,258.79 98.00,258.46C102.50,257.85 102.50,257.85 95.37,261.33C91.45,263.24 87.91,265.33 87.52,265.97C87.12,266.61 87.00,267.33 87.24,267.58C87.49,267.82 95.07,269.19 104.09,270.62C113.12,272.05 121.17,273.56 122.00,273.99C122.83,274.42 123.85,274.56 124.27,274.31zM638.19,274.92C639.12,274.96 640.17,274.54 640.52,273.98C640.86,273.41 640.87,271.67 640.52,270.11C640.16,268.44 638.88,266.81 637.40,266.14C636.03,265.51 630.74,265.00 625.64,265.00C619.61,265.00 615.76,265.45 614.60,266.30C613.06,267.43 613.02,267.77 614.27,268.81C615.07,269.47 620.39,271.10 626.11,272.42C631.82,273.75 637.26,274.87 638.19,274.92zM357.12,259.74C350.76,260.06 348.79,259.76 345.20,257.93C342.84,256.73 339.85,254.34 338.57,252.62C337.28,250.91 335.35,247.70 334.27,245.50C333.20,243.30 331.46,238.57 330.41,235.00C328.81,229.57 328.51,225.36 328.55,209.50C328.59,195.16 329.02,188.84 330.29,183.74C331.22,180.02 333.07,174.85 334.40,172.24C335.73,169.63 338.32,166.06 340.16,164.30C342.00,162.54 345.17,160.40 347.22,159.55C349.26,158.70 353.54,158.00 356.72,158.01C360.69,158.02 364.10,158.76 367.62,160.40C370.43,161.71 373.91,164.32 375.34,166.20C376.77,168.07 378.82,171.61 379.89,174.06C380.96,176.50 382.38,182.19 383.03,186.70C383.77,191.82 384.05,202.13 383.76,214.20C383.39,230.37 382.97,234.55 381.18,240.00C380.01,243.57 377.91,248.17 376.51,250.22C375.12,252.26 371.90,255.15 369.35,256.64C365.70,258.78 363.14,259.43 357.12,259.74zM385.45,247.35C384.64,249.08 384.23,249.61 384.54,248.52C384.86,247.43 385.52,243.38 386.03,239.52C386.53,235.66 387.00,224.62 387.08,215.00C387.19,202.88 387.48,198.73 388.06,201.50C388.51,203.70 388.91,211.35 388.93,218.50C388.96,225.65 388.52,234.36 387.95,237.85C387.39,241.34 386.26,245.62 385.45,247.35zM356.18,238.97C360.41,238.99 365.02,238.56 366.43,238.02C367.85,237.49 369.00,236.59 369.00,236.02C369.00,235.38 364.53,235.00 357.00,235.00C350.08,235.00 345.00,235.40 345.00,235.95C345.00,236.47 345.79,237.36 346.75,237.92C347.71,238.48 351.96,238.95 356.18,238.97zM261.79,234.16C262.12,229.82 262.12,229.82 275.90,230.53C283.47,230.92 290.64,230.93 291.84,230.55C293.15,230.13 294.00,229.04 294.00,227.76C294.00,226.60 294.66,224.93 295.46,224.05C296.26,223.16 297.43,219.14 298.05,215.10C299.05,208.69 298.99,207.56 297.58,206.15C296.18,204.75 291.82,204.48 264.86,204.15C239.97,203.84 233.60,204.03 232.95,205.08C232.51,205.80 232.36,208.67 232.62,211.45C232.89,214.23 233.33,217.99 233.61,219.80C233.89,221.64 234.86,223.39 235.81,223.75C236.74,224.11 238.37,225.21 239.44,226.20C240.50,227.19 242.98,228.07 244.94,228.16C246.90,228.25 250.43,228.27 252.79,228.19C256.36,228.08 257.21,228.43 257.92,230.28C258.39,231.50 259.38,233.85 260.12,235.50C261.47,238.50 261.47,238.50 261.79,234.16zM356.00,231.61C363.43,231.61 366.46,231.45 362.75,231.26C359.04,231.07 352.96,231.07 349.25,231.26C345.54,231.45 348.57,231.61 356.00,231.61zM357.71,223.86C370.82,223.99 372.01,223.85 372.96,222.07C373.54,221.00 374.00,213.85 374.00,206.07C374.00,192.00 374.00,192.00 361.25,191.84C354.24,191.75 346.25,191.79 343.50,191.94C340.75,192.09 338.35,192.35 338.16,192.53C337.97,192.71 337.81,198.67 337.79,205.78C337.78,212.89 338.07,219.64 338.43,220.79C338.80,221.94 340.09,223.07 341.30,223.30C342.51,223.54 349.90,223.79 357.71,223.86zM509.45,221.49C523.90,221.14 528.73,220.70 529.80,219.63C530.66,218.77 530.94,217.40 530.53,216.08C530.15,214.91 528.67,213.18 527.24,212.24C525.10,210.84 521.53,210.46 507.38,210.15C490.13,209.78 490.13,209.78 487.50,212.41C485.69,214.22 484.97,215.87 485.19,217.73C485.40,219.58 486.28,220.66 488.00,221.19C489.38,221.61 499.03,221.75 509.45,221.49zM588.34,208.80C591.18,208.63 593.40,208.05 593.28,207.50C593.16,206.95 590.76,206.26 587.95,205.97C585.15,205.67 582.63,205.78 582.37,206.22C582.10,206.65 582.17,207.47 582.53,208.05C582.89,208.63 585.48,208.96 588.34,208.80zM560.00,206.83C566.33,206.91 572.11,206.58 572.85,206.11C573.82,205.50 573.40,205.14 571.35,204.84C569.78,204.62 561.98,204.65 554.00,204.93C544.03,205.27 540.91,205.62 544.00,206.06C546.48,206.41 553.67,206.76 560.00,206.83zM264.72,197.98C267.90,197.98 270.97,197.64 271.55,197.23C272.13,196.83 274.07,193.87 275.87,190.65C277.66,187.43 278.89,184.16 278.60,183.40C278.20,182.36 275.99,182.00 270.06,182.00C262.31,182.00 262.00,182.09 260.61,184.78C259.82,186.32 258.86,189.24 258.48,191.28C258.09,193.32 258.04,195.66 258.36,196.49C258.78,197.60 260.48,198.00 264.72,197.98zM286.81,197.98C289.94,197.98 293.07,197.61 293.76,197.17C294.63,196.61 294.82,194.96 294.37,191.69C294.02,189.12 293.16,186.23 292.46,185.28C291.44,183.89 290.66,183.74 288.46,184.52C286.71,185.15 284.66,187.39 282.78,190.72C281.17,193.59 280.13,196.40 280.48,196.97C280.83,197.54 283.68,197.99 286.81,197.98zM251.00,195.97C253.16,195.44 253.62,194.59 254.36,189.69C254.84,186.58 254.99,183.42 254.70,182.67C254.36,181.78 253.11,181.48 251.04,181.78C249.28,182.04 247.30,183.18 246.55,184.37C245.82,185.54 244.92,188.60 244.56,191.17C243.95,195.51 244.07,195.87 246.20,196.21C247.47,196.41 249.62,196.30 251.00,195.97zM593.24,188.81C595.73,188.57 596.50,188.03 596.50,186.50C596.50,185.04 595.72,184.41 593.63,184.17C592.05,183.99 590.30,184.30 589.75,184.85C589.19,185.41 589.02,186.60 589.36,187.50C589.80,188.64 590.95,189.03 593.24,188.81zM578.05,186.50C578.50,185.40 578.89,178.57 578.93,171.32C579.00,158.14 579.00,158.14 573.75,157.61C570.86,157.31 562.32,156.89 554.77,156.66C544.57,156.36 540.58,156.59 539.27,157.55C537.78,158.63 537.50,160.43 537.50,168.67C537.50,174.83 537.98,179.34 538.79,180.75C540.04,182.95 540.48,183.00 557.37,183.00C574.68,183.00 574.68,183.00 575.96,185.75C577.16,188.33 577.29,188.38 578.05,186.50zM528.00,186.83C528.27,186.91 529.01,186.64 529.63,186.23C530.31,185.79 531.05,180.23 531.49,172.26C532.14,160.50 532.04,158.95 530.59,158.39C529.69,158.05 522.32,158.29 514.22,158.94C503.31,159.80 498.40,160.63 495.25,162.14C492.92,163.26 489.43,166.02 487.50,168.27C485.34,170.79 484.00,173.41 484.00,175.11C484.00,176.62 484.72,178.57 485.59,179.45C486.47,180.33 488.40,181.67 489.88,182.44C491.36,183.20 494.23,184.14 496.25,184.52C498.28,184.90 506.14,185.55 513.72,185.95C521.30,186.36 527.73,186.76 528.00,186.83zM356.44,183.00C364.65,183.00 371.14,182.58 371.48,182.03C371.81,181.50 371.16,179.27 370.03,177.07C368.91,174.87 367.12,172.60 366.06,172.03C365.00,171.47 361.30,171.00 357.85,171.00C351.71,171.00 351.46,171.10 346.78,175.71C344.15,178.30 342.00,181.00 342.00,181.71C342.00,182.70 345.33,183.00 356.44,183.00zM349.50,144.19C347.30,144.44 343.48,144.29 341.00,143.85C338.37,143.38 335.77,142.16 334.75,140.91C333.79,139.74 333.00,138.12 333.00,137.32C333.00,136.52 333.48,134.97 334.07,133.87C334.66,132.77 337.25,130.95 339.82,129.83C343.88,128.06 345.75,127.88 353.94,128.43C359.13,128.78 363.97,129.56 364.69,130.16C365.41,130.75 366.00,131.83 366.00,132.55C366.00,133.26 364.82,135.25 363.37,136.97C361.93,138.68 359.12,140.91 357.12,141.90C355.13,142.90 351.70,143.93 349.50,144.19zM350.82,134.98C353.19,134.99 356.01,134.53 357.09,133.95C358.17,133.37 358.79,132.47 358.47,131.95C358.15,131.43 354.20,131.01 349.69,131.02C341.50,131.04 341.50,131.04 344.00,133.00C345.59,134.24 348.08,134.96 350.82,134.98zM514.60,133.96C515.28,133.98 515.94,130.32 516.34,124.25C516.70,118.89 516.99,108.56 516.99,101.31C517.00,93.20 516.60,87.87 515.95,87.47C515.38,87.12 509.42,87.58 502.70,88.51C495.99,89.43 489.49,90.59 488.25,91.07C486.08,91.92 486.00,92.40 486.06,104.23C486.09,110.98 486.47,118.66 486.91,121.30C487.34,123.94 488.10,126.50 488.60,126.98C489.09,127.47 493.74,128.60 498.93,129.50C504.11,130.39 509.51,131.75 510.93,132.52C512.34,133.29 513.99,133.94 514.60,133.96zM540.56,124.82C542.24,124.92 544.40,124.43 545.36,123.72C546.44,122.93 546.86,121.80 546.46,120.75C546.10,119.82 544.24,118.76 542.32,118.40C540.40,118.04 536.30,118.04 533.20,118.41C530.11,118.77 527.25,119.60 526.85,120.25C526.44,120.90 526.57,121.99 527.14,122.66C527.70,123.34 530.26,124.06 532.83,124.27C535.40,124.47 538.88,124.72 540.56,124.82zM586.12,111.81C600.01,111.88 605.20,111.57 606.54,110.60C607.63,109.80 608.08,108.64 607.69,107.63C607.34,106.72 606.03,105.59 604.78,105.12C603.52,104.66 593.63,103.97 582.79,103.58C568.87,103.09 562.47,103.21 560.98,104.01C559.49,104.81 558.97,105.91 559.19,107.82C559.45,110.10 560.09,110.59 563.50,111.11C565.70,111.44 575.88,111.76 586.12,111.81zM540.90,109.64C542.82,109.56 544.74,108.80 545.31,107.89C545.86,107.00 546.04,105.54 545.69,104.64C545.18,103.30 543.52,103.00 536.65,103.00C530.30,103.00 527.93,103.38 526.96,104.54C525.99,105.71 525.96,106.36 526.85,107.25C527.49,107.89 530.14,108.72 532.75,109.09C535.36,109.47 539.03,109.72 540.90,109.64zM351.25,95.49C353.59,95.24 359.55,94.55 364.50,93.97C369.45,93.39 382.24,91.36 392.91,89.46C403.59,87.56 413.49,85.99 414.91,85.98C416.34,85.98 418.18,85.52 419.00,84.97C420.26,84.12 420.02,83.54 417.50,81.32C414.53,78.70 414.50,78.56 414.00,66.09C413.50,53.50 413.50,53.50 410.75,53.18C409.24,53.01 408.00,52.55 408.00,52.16C408.00,51.77 409.77,51.45 411.94,51.45C414.11,51.45 416.18,51.16 416.54,50.79C416.90,50.43 416.90,49.65 416.54,49.07C416.12,48.39 410.58,48.00 401.40,48.00C393.44,48.00 382.55,48.48 377.21,49.07C371.53,49.70 366.25,50.87 364.50,51.90C361.50,53.65 361.50,53.65 361.84,64.57C362.03,70.58 362.39,75.83 362.65,76.24C362.91,76.66 366.64,77.00 370.94,77.00C376.76,77.00 379.08,77.39 380.04,78.54C380.84,79.51 380.96,80.44 380.37,81.03C379.85,81.55 374.71,83.38 368.96,85.09C363.21,86.80 355.91,89.57 352.75,91.24C349.59,92.91 347.00,94.66 347.00,95.12C347.00,95.58 348.91,95.75 351.25,95.49zM543.50,95.28C544.60,95.00 545.85,94.45 546.28,94.05C546.71,93.66 546.80,92.65 546.48,91.80C546.15,90.96 544.77,89.76 543.40,89.14C542.03,88.51 537.76,88.00 533.92,88.00C528.50,88.00 526.80,88.35 526.34,89.57C526.01,90.43 526.17,91.57 526.70,92.10C527.23,92.63 530.78,93.68 534.58,94.43C538.39,95.18 542.40,95.56 543.50,95.28zM442.27,65.64C445.70,65.32 454.41,64.76 461.64,64.40C468.86,64.05 475.34,63.41 476.02,62.99C476.70,62.57 476.95,61.72 476.56,61.10C476.18,60.49 474.58,59.32 472.99,58.50C471.13,57.53 464.06,56.58 452.99,55.80C438.18,54.75 435.75,54.79 434.95,56.04C434.44,56.84 434.02,58.26 434.02,59.18C434.01,60.11 434.46,62.08 435.02,63.55C436.01,66.16 436.20,66.21 442.27,65.64zM335.08,65.00C338.66,65.00 338.85,64.83 339.49,61.04C339.86,58.87 339.88,56.19 339.53,55.09C339.18,54.00 338.00,52.82 336.90,52.47C335.75,52.10 333.86,52.52 332.45,53.44C330.48,54.73 330.00,55.89 330.00,59.36C330.00,61.73 330.30,63.97 330.67,64.33C331.03,64.70 333.02,65.00 335.08,65.00zM425.18,65.00C428.35,65.00 429.06,64.61 429.57,62.58C429.90,61.25 430.02,59.34 429.83,58.33C429.60,57.10 428.44,56.40 426.29,56.19C424.53,56.02 422.17,56.37 421.05,56.98C419.91,57.58 419.00,59.08 419.00,60.34C419.00,61.58 419.54,63.14 420.20,63.80C420.86,64.46 423.10,65.00 425.18,65.00zM313.00,63.62C324.50,63.50 324.50,63.50 324.81,58.74C325.04,55.10 324.73,53.83 323.51,53.36C322.63,53.03 316.93,53.47 310.84,54.35C304.61,55.25 298.41,56.74 296.64,57.78C294.91,58.79 293.50,60.26 293.50,61.06C293.50,61.97 294.97,62.73 297.50,63.12C299.70,63.47 306.68,63.69 313.00,63.62zM400.75,39.79C409.07,39.96 411.00,39.73 411.00,38.57C411.00,37.75 408.61,36.25 405.40,35.05C402.32,33.89 396.35,32.46 392.15,31.87C387.94,31.27 380.90,31.06 376.50,31.39C372.10,31.72 366.93,32.44 365.00,32.99C363.07,33.54 359.93,35.00 358.00,36.24C354.50,38.50 354.50,38.50 372.50,39.04C382.40,39.33 395.11,39.67 400.75,39.79z"/>
</svg>