<?xml version="1.0" encoding="UTF-8" standalone="no"?>
<svg 
  version="1.1" 
  xmlns="http://www.w3.org/2000/svg" 
  xmlns:xlink="http://www.w3.org/1999/xlink" 
  xmlns:svg="http://www.w3.org/2000/svg"
  xmlns:rdf="http://www.w3.org/1999/02/22-rdf-syntax-ns#"
  xmlns:cc="http://creativecommons.org/ns#"
  xmlns:dc="http://purl.org/dc/elements/1.1/"
  viewBox="0 0 768 768"
  width="768"
  height="768"
>
<style>svg {background-color: white; }</style>"
<metadata id="metadata1">
Created by https://svgstud.io and licensed under CC-BY-SA 4.0 license. Please attribute https://svgstud.io
</metadata>
<metadata id="prompt">
Spaceship game sprite. Designed for a vertically scrolling game.
The ship will be viewed from a top-down view, vector illustration, monochrome
</metadata>
<metadata id="version">
7
</metadata>
<metadata id="metadata2">
<rdf:RDF>
<cc:Work
    rdf:about="">
    <cc:license
    rdf:resource="http://creativecommons.org/licenses/by-sa/4.0/" />
    <dc:creator>
        <cc:Agent>
            <dc:title>https://svgstud.io</dc:title>
        </cc:Agent>
    </dc:creator>
</cc:Work>
<cc:License
    rdf:about="http://creativecommons.org/licenses/by-sa/4.0/">
    <cc:permits
    rdf:resource="http://creativecommons.org/ns#Reproduction" />
    <cc:permits
    rdf:resource="http://creativecommons.org/ns#Distribution" />
    <cc:requires
    rdf:resource="http://creativecommons.org/ns#Notice" />
    <cc:requires
    rdf:resource="http://creativecommons.org/ns#Attribution" />
    <cc:permits
    rdf:resource="http://creativecommons.org/ns#DerivativeWorks" />
    <cc:requires
    rdf:resource="http://creativecommons.org/ns#ShareAlike" />
</cc:License>
</rdf:RDF>
</metadata>
<metadata id="uid">
c2658530a29c9c810eef583acb3e0c67c3d09cd05cdea81390e47fd63e2af3fd
</metadata>
<path stroke="none" fill="black" fill-rule="evenodd" d="M380.41,730.96C378.26,730.93 374.81,730.31 372.74,729.57C370.67,728.83 368.31,727.67 367.49,726.99C366.67,726.31 366.00,724.85 366.00,723.73C366.00,722.62 367.69,718.34 369.75,714.22C372.28,709.15 373.11,706.58 372.30,706.29C371.64,706.06 369.61,704.87 367.80,703.66C365.98,702.45 363.22,699.44 361.66,696.98C360.10,694.51 355.55,686.88 351.54,680.00C347.54,673.12 339.42,658.73 333.49,648.00C327.57,637.27 319.68,623.10 315.96,616.50C312.24,609.90 307.61,601.31 305.67,597.40C303.72,593.50 301.05,589.00 299.73,587.40C298.42,585.81 295.26,581.26 292.72,577.29C290.18,573.33 287.40,568.74 286.55,567.09C285.70,565.45 285.00,563.12 285.00,561.92C285.00,559.83 285.30,559.76 292.75,560.25C297.01,560.52 301.28,561.08 302.24,561.48C303.41,561.97 304.19,561.67 304.61,560.58C304.96,559.66 303.17,554.08 300.48,547.73C297.86,541.55 294.27,533.12 292.49,529.00C290.71,524.88 287.73,518.23 285.88,514.24C282.50,506.97 282.50,506.97 271.43,503.51C264.35,501.29 258.80,498.86 256.04,496.77C253.66,494.97 250.57,492.87 249.17,492.10C247.76,491.34 240.51,489.60 233.06,488.25C225.51,486.88 216.62,484.56 213.00,483.01C209.43,481.48 202.68,479.70 198.00,479.04C193.32,478.39 185.00,476.78 179.50,475.47C174.00,474.17 160.28,470.00 149.00,466.22C137.72,462.43 122.09,456.50 114.25,453.04C105.29,449.09 98.39,445.33 95.66,442.93C93.27,440.83 88.85,435.37 85.84,430.80C82.83,426.24 77.99,418.81 75.08,414.29C72.18,409.77 69.17,405.56 68.40,404.92C67.63,404.28 67.00,402.98 67.00,402.03C67.00,400.55 68.43,400.19 76.64,399.62C81.95,399.24 86.66,398.71 87.11,398.43C87.56,398.15 86.84,394.90 85.51,391.21C84.18,387.52 81.92,380.58 80.49,375.79C77.92,367.13 77.88,367.07 74.20,366.45C72.17,366.11 66.18,364.82 60.91,363.59C53.20,361.80 49.88,360.41 44.07,356.55C40.09,353.90 36.36,350.69 35.77,349.40C35.00,347.70 35.03,346.67 35.88,345.64C36.53,344.87 40.16,342.14 43.96,339.59C47.76,337.04 53.71,333.89 57.19,332.59C60.66,331.29 66.20,329.68 69.50,329.00C72.80,328.33 76.20,327.41 77.06,326.95C77.96,326.48 79.83,321.80 81.47,315.94C83.04,310.33 86.42,301.54 89.00,296.41C93.68,287.07 93.68,287.07 89.59,286.57C87.34,286.29 82.51,285.80 78.85,285.46C75.19,285.13 71.44,284.31 70.51,283.63C68.98,282.51 69.17,281.98 72.57,277.95C74.63,275.50 79.09,269.23 82.48,264.00C85.87,258.77 90.93,252.47 93.71,250.00C96.68,247.37 106.39,241.48 117.14,235.81C127.24,230.48 139.10,224.69 143.50,222.94C147.90,221.19 157.12,217.76 164.00,215.32C170.88,212.88 183.17,209.14 191.31,207.00C203.99,203.68 206.68,202.62 209.94,199.67C212.99,196.91 215.56,195.80 222.75,194.11C227.70,192.95 232.59,192.00 233.62,191.99C234.66,191.99 237.17,191.53 239.21,190.96C241.25,190.39 245.37,187.69 248.36,184.95C251.36,182.21 256.29,178.88 259.33,177.53C262.36,176.19 268.71,173.97 273.42,172.61C278.14,171.24 282.44,169.85 282.98,169.51C283.52,169.18 286.24,164.47 289.03,159.04C291.82,153.61 295.82,147.22 297.92,144.83C300.01,142.45 304.08,135.81 306.96,130.08C309.83,124.35 313.25,117.97 314.56,115.90C315.87,113.83 321.28,104.57 326.60,95.32C331.91,86.07 339.90,72.42 344.35,65.00C348.80,57.58 354.18,49.60 356.31,47.29C358.44,44.97 361.04,42.80 362.09,42.47C363.14,42.14 364.00,41.42 364.00,40.88C364.00,40.34 362.88,38.24 361.50,36.21C360.12,34.19 359.00,31.77 359.00,30.84C359.00,29.91 360.16,28.24 361.57,27.12C362.98,26.01 366.17,24.80 368.65,24.42C371.70,23.97 375.23,24.31 379.55,25.48C383.06,26.43 387.86,28.43 390.21,29.93C392.57,31.43 396.90,35.09 399.83,38.08C402.76,41.06 410.86,50.22 417.83,58.44C424.80,66.66 435.90,79.49 442.50,86.95C449.10,94.42 456.80,103.22 459.60,106.51C462.41,109.80 466.46,114.79 468.60,117.59C470.75,120.39 476.29,127.36 480.93,133.09C485.57,138.82 492.57,147.10 496.49,151.50C500.42,155.90 504.38,160.61 505.31,161.97C506.24,163.33 507.00,164.79 507.00,165.22C507.00,165.64 504.92,164.40 502.37,162.45C499.82,160.51 496.37,158.21 494.70,157.35C493.04,156.49 489.27,154.95 486.34,153.94C483.40,152.93 481.00,152.49 481.00,152.95C481.00,153.41 482.55,155.15 484.43,156.81C486.32,158.47 488.86,160.14 490.07,160.52C491.70,161.04 491.93,161.43 490.95,162.03C490.03,162.60 491.41,163.69 495.41,165.59C499.03,167.30 504.94,171.79 511.18,177.57C521.15,186.80 521.15,186.80 537.83,193.03C547.00,196.45 561.60,202.77 570.27,207.08C578.94,211.38 589.97,217.43 594.77,220.53C600.84,224.45 607.31,230.07 616.00,238.98C626.14,249.38 629.82,252.46 635.50,255.31C639.35,257.25 644.73,260.43 647.47,262.39C650.20,264.35 655.76,269.23 659.83,273.23C663.90,277.23 669.87,284.41 673.10,289.19C676.33,293.96 680.53,299.06 682.44,300.52C684.34,301.97 686.60,303.02 687.44,302.83C688.73,302.55 688.58,301.66 686.49,297.15C685.12,294.21 684.00,291.37 684.00,290.84C684.00,290.32 685.39,290.70 687.10,291.69C688.80,292.69 693.07,296.55 696.60,300.27C700.12,303.99 703.00,307.49 703.00,308.03C703.00,308.58 707.39,311.88 712.75,315.36C718.11,318.84 724.52,323.78 727.00,326.34C729.48,328.91 732.29,332.46 733.25,334.24C734.45,336.46 734.99,339.67 734.98,344.48C734.96,349.19 734.34,352.82 733.10,355.50C732.07,357.70 729.27,361.36 726.87,363.63C724.47,365.91 719.12,370.34 715.00,373.48C710.88,376.63 704.54,382.42 700.91,386.35C697.29,390.28 690.50,398.68 685.82,405.00C681.14,411.32 673.94,419.68 669.83,423.58C665.72,427.47 657.67,433.75 651.93,437.53C646.19,441.31 638.91,446.37 635.74,448.77C632.58,451.17 626.23,455.13 621.63,457.57C617.03,460.02 606.12,464.97 597.39,468.58C586.11,473.23 573.52,477.31 554.00,482.63C538.88,486.75 524.70,491.18 522.50,492.48C520.30,493.78 517.60,495.53 516.50,496.36C515.00,497.48 514.79,498.16 515.63,499.02C516.28,499.67 527.44,501.22 541.63,502.61C555.31,503.95 567.06,505.25 567.75,505.49C568.44,505.74 569.00,506.82 569.00,507.90C569.00,508.97 567.98,510.68 566.72,511.68C565.47,512.68 560.67,518.23 556.04,524.00C551.42,529.77 543.96,538.77 539.47,544.00C534.98,549.23 528.68,557.10 525.46,561.50C522.25,565.90 512.20,579.40 503.13,591.50C494.06,603.60 481.64,619.80 475.52,627.50C469.40,635.20 459.05,648.25 452.51,656.50C445.97,664.75 437.03,675.77 432.63,681.00C428.24,686.23 421.70,693.88 418.10,698.00C414.50,702.12 407.29,710.14 402.09,715.82C396.89,721.49 390.76,727.23 388.48,728.57C385.92,730.06 382.82,730.98 380.41,730.96zM377.33,720.44C378.53,720.08 382.21,718.30 385.53,716.47C389.16,714.47 393.33,711.02 395.99,707.82C398.43,704.90 403.40,699.12 407.04,695.00C410.69,690.88 416.33,684.19 419.58,680.14C422.84,676.09 427.22,670.46 429.33,667.64C431.43,664.81 435.25,658.96 437.83,654.63C440.40,650.30 444.41,644.70 446.75,642.19C449.09,639.67 451.00,637.41 451.00,637.16C451.00,636.91 446.73,636.96 441.50,637.27C436.27,637.58 432.00,637.70 432.00,637.52C432.00,637.35 435.02,636.68 438.70,636.04C443.64,635.18 446.68,633.93 450.24,631.32C452.90,629.37 458.65,623.19 463.03,617.58C467.41,611.97 472.38,606.35 474.08,605.10C477.17,602.81 477.17,602.81 475.13,600.91C473.87,599.73 471.44,598.94 468.79,598.83C464.50,598.66 464.50,598.66 468.49,598.26C470.68,598.03 473.08,597.35 473.81,596.74C474.54,596.13 477.70,594.39 480.82,592.87C483.95,591.35 485.68,590.08 484.67,590.05C483.19,590.01 483.63,589.07 486.93,585.25C489.18,582.64 493.68,576.82 496.95,572.33C500.21,567.83 504.91,562.66 507.40,560.83C509.89,559.00 511.94,557.13 511.96,556.67C511.98,556.21 510.76,556.08 509.25,556.37C507.74,556.66 499.98,558.12 492.00,559.62C478.59,562.14 477.27,562.59 474.41,565.57C472.71,567.35 466.91,575.86 461.53,584.48C456.14,593.11 450.74,601.37 449.52,602.83C448.31,604.30 443.92,610.90 439.78,617.50C435.63,624.10 431.28,631.41 430.10,633.75C428.92,636.09 428.25,638.00 428.61,638.00C428.97,638.00 428.09,638.93 426.65,640.06C425.20,641.20 415.45,655.04 404.98,670.81C394.51,686.59 383.76,702.88 381.10,707.00C378.43,711.12 375.73,715.52 375.08,716.77C374.44,718.02 374.19,719.50 374.54,720.06C374.88,720.62 376.14,720.79 377.33,720.44zM378.42,673.98C380.67,673.98 383.01,673.64 383.64,673.23C384.36,672.77 384.92,667.96 385.14,660.25C385.50,648.00 385.50,648.00 372.25,648.00C364.64,648.00 359.00,648.40 359.00,648.94C359.00,649.46 359.46,650.17 360.03,650.52C360.59,650.87 363.12,655.28 365.63,660.33C368.15,665.37 371.14,670.51 372.28,671.75C373.78,673.38 375.46,674.00 378.42,673.98zM371.50,643.95C376.03,643.96 380.59,643.42 382.00,642.70C384.44,641.47 384.50,641.18 384.50,630.23C384.50,621.74 384.17,618.90 383.15,618.51C382.40,618.22 374.19,618.28 364.90,618.65C352.64,619.13 348.00,619.65 348.00,620.53C348.00,621.20 350.02,626.10 352.49,631.42C356.23,639.49 357.51,641.32 360.24,642.50C362.13,643.33 366.85,643.93 371.50,643.95zM364.67,613.88C372.46,613.95 379.55,613.73 380.42,613.39C381.60,612.94 381.97,611.47 381.90,607.64C381.85,604.81 381.51,600.13 381.15,597.23C380.50,591.95 380.50,591.95 358.75,591.69C338.15,591.45 337.00,591.53 337.00,593.29C337.00,594.30 338.37,598.43 340.05,602.46C341.72,606.48 343.86,610.45 344.80,611.28C345.73,612.11 347.40,613.01 348.50,613.28C349.60,613.55 356.88,613.82 364.67,613.88zM322.61,607.00C323.55,607.00 323.63,606.18 322.93,603.76C322.42,601.97 322.00,599.74 322.00,598.79C322.00,597.61 322.51,597.26 323.62,597.68C324.94,598.19 325.05,597.96 324.21,596.39C323.65,595.34 322.28,593.66 321.17,592.65C320.06,591.65 317.25,590.57 314.91,590.26C311.04,589.74 310.73,589.86 311.40,591.60C311.80,592.64 314.20,596.54 316.74,600.25C319.28,603.96 321.92,607.00 322.61,607.00zM367.50,577.73C373.00,577.75 378.85,577.48 380.50,577.13C382.83,576.63 383.57,575.88 383.82,573.75C384.13,571.00 384.13,571.00 358.91,571.00C342.94,571.00 328.14,570.42 318.59,569.42C310.29,568.55 301.70,567.76 299.50,567.67C296.55,567.54 295.50,567.89 295.50,568.99C295.50,569.80 296.62,571.01 298.00,571.66C299.38,572.31 306.35,573.58 313.50,574.48C320.65,575.38 333.48,576.47 342.00,576.91C350.52,577.34 362.00,577.71 367.50,577.73zM399.50,576.44C405.00,576.07 412.20,575.48 415.50,575.13C421.19,574.53 421.52,574.35 421.83,571.63C422.01,570.05 421.74,568.34 421.23,567.83C420.65,567.25 414.39,567.36 404.90,568.10C396.43,568.76 388.94,569.74 388.25,570.27C387.56,570.81 387.00,572.00 387.00,572.92C387.00,573.85 387.56,575.17 388.25,575.86C389.18,576.80 392.04,576.94 399.50,576.44zM435.92,572.60C437.89,572.31 443.77,571.58 449.00,570.97C454.23,570.37 459.96,569.42 461.75,568.86C463.54,568.30 465.00,567.24 465.00,566.51C465.00,565.77 464.52,565.01 463.93,564.81C463.35,564.62 458.06,564.79 452.18,565.20C446.31,565.60 439.11,566.21 436.19,566.55C432.95,566.92 430.66,567.72 430.33,568.59C430.02,569.38 430.35,570.72 431.06,571.57C431.96,572.66 433.41,572.96 435.92,572.60zM357.71,565.67C368.27,565.36 377.77,564.66 378.83,564.09C379.91,563.51 381.24,561.12 381.87,558.59C382.49,556.13 383.00,552.51 383.00,550.56C383.00,547.00 383.00,547.00 359.12,547.00C338.94,547.00 335.05,547.24 333.98,548.53C332.99,549.72 332.95,551.50 333.83,556.77C334.53,561.01 335.59,563.98 336.72,564.85C338.14,565.94 342.36,566.10 357.71,565.67zM322.96,563.61C326.17,563.51 326.48,563.20 327.25,559.50C327.71,557.30 327.95,553.71 327.79,551.52C327.50,547.54 327.50,547.54 316.56,546.26C310.55,545.55 305.29,545.32 304.87,545.74C304.45,546.16 305.35,549.30 306.87,552.71C308.38,556.13 310.43,559.82 311.42,560.91C312.40,562.00 314.62,563.08 316.35,563.31C318.08,563.54 321.06,563.67 322.96,563.61zM391.46,561.00C392.70,561.00 399.51,560.53 406.60,559.95C413.69,559.38 419.88,558.52 420.36,558.04C420.83,557.57 421.80,554.70 422.50,551.68C423.34,548.07 423.44,545.84 422.79,545.19C422.25,544.65 419.05,544.42 415.65,544.68C412.27,544.94 405.30,545.54 400.17,546.02C395.04,546.50 390.20,547.42 389.42,548.07C388.60,548.75 388.00,551.05 388.00,553.54C388.00,555.90 388.27,558.55 388.61,559.42C388.94,560.29 390.23,561.00 391.46,561.00zM429.75,556.97C430.16,556.96 439.05,556.07 449.50,555.01C459.95,553.94 473.23,552.38 479.00,551.53C484.77,550.69 493.52,549.26 498.43,548.36C506.09,546.96 507.77,546.28 510.21,543.61C511.77,541.90 515.11,536.53 517.61,531.67C520.12,526.82 522.02,522.69 521.84,522.51C521.65,522.32 517.69,525.28 513.03,529.09C508.38,532.89 504.20,536.00 503.76,536.00C503.32,536.00 502.43,534.85 501.79,533.44C500.83,531.32 500.18,531.00 498.06,531.57C496.65,531.95 493.93,532.60 492.00,533.01C490.07,533.41 484.65,534.89 479.95,536.28C475.25,537.68 466.02,539.72 459.45,540.83C452.88,541.94 445.02,543.13 442.00,543.47C438.98,543.82 435.31,544.33 433.85,544.61C432.16,544.93 430.81,546.09 430.14,547.81C429.57,549.29 429.02,551.40 428.93,552.50C428.84,553.60 428.82,555.06 428.88,555.75C428.95,556.44 429.34,556.99 429.75,556.97zM485.48,543.59C479.74,544.22 479.57,544.17 481.22,542.44C482.30,541.30 485.23,540.37 489.21,539.90C492.67,539.49 495.65,539.31 495.83,539.50C496.02,539.69 495.11,540.54 493.82,541.38C492.52,542.23 488.77,543.22 485.48,543.59zM359.29,541.64C370.18,541.30 379.97,540.55 381.04,539.98C382.12,539.40 383.00,538.08 383.00,537.04C383.00,535.73 381.32,534.35 377.56,532.57C374.57,531.16 370.37,530.00 368.23,530.00C366.09,530.00 359.43,529.11 353.42,528.02C347.41,526.92 342.01,526.02 341.41,526.02C340.81,526.01 339.80,527.74 339.16,529.87C338.52,531.99 338.00,535.29 338.00,537.20C338.00,539.11 338.34,541.02 338.75,541.46C339.16,541.90 348.41,541.98 359.29,541.64zM322.68,539.88C329.99,539.99 330.93,539.79 331.49,538.04C331.83,536.96 331.62,535.16 331.02,534.04C330.42,532.92 329.45,532.00 328.87,532.00C328.29,532.00 327.57,532.92 327.28,534.04C326.99,535.16 326.25,535.92 325.64,535.71C325.04,535.51 324.14,533.66 323.65,531.60C323.09,529.21 321.99,527.55 320.63,527.03C319.46,526.58 314.24,525.73 309.04,525.15C303.84,524.56 299.39,524.27 299.16,524.51C298.92,524.74 299.75,527.66 301.00,530.99C302.24,534.32 303.67,537.30 304.18,537.61C304.69,537.92 307.22,538.54 309.80,538.97C312.39,539.41 318.18,539.82 322.68,539.88zM521.25,537.40C521.94,537.01 525.31,534.71 528.75,532.29C532.19,529.88 535.00,527.47 535.00,526.95C535.00,526.43 534.51,526.00 533.90,526.00C533.30,526.00 531.39,526.97 529.65,528.16C527.92,529.35 525.04,531.68 523.25,533.35C521.46,535.03 520.00,536.78 520.00,537.26C520.00,537.73 520.56,537.80 521.25,537.40zM325.00,491.78C329.68,491.82 334.40,491.47 335.50,491.00C336.82,490.43 334.30,490.12 328.15,490.07C323.01,490.03 307.09,489.08 292.79,487.95C278.48,486.82 266.57,486.10 266.32,486.35C266.07,486.60 268.18,487.30 271.01,487.91C273.85,488.52 284.12,489.47 293.83,490.03C303.55,490.60 312.62,491.20 314.00,491.38C315.38,491.56 320.32,491.74 325.00,491.78zM355.05,481.21C375.15,481.00 393.15,480.51 395.05,480.12C398.50,479.40 398.50,479.40 398.40,459.14C398.32,443.13 398.00,438.61 396.90,437.63C395.99,436.82 393.33,436.53 389.34,436.78C383.66,437.14 383.11,437.38 382.41,439.83C381.99,441.30 381.57,450.15 381.49,459.50C381.33,476.50 381.33,476.50 370.41,477.00C364.41,477.27 358.29,477.36 356.80,477.19C354.11,476.88 354.11,476.88 353.80,454.40C353.57,437.09 353.20,431.74 352.18,431.11C351.45,430.66 346.38,429.75 340.91,429.09C335.44,428.42 328.58,427.26 325.66,426.50C322.75,425.74 314.84,421.83 308.10,417.81C300.55,413.31 293.10,407.90 288.71,403.72C284.78,399.99 280.66,396.71 279.54,396.43C278.42,396.16 270.52,395.08 262.00,394.04C248.38,392.37 246.32,392.32 245.00,393.60C243.74,394.84 243.50,399.58 243.50,423.78C243.50,439.58 243.87,454.66 244.32,457.30C244.93,460.90 245.69,462.31 247.34,462.94C248.54,463.40 254.48,464.29 260.52,464.92C266.56,465.56 273.75,466.70 276.50,467.46C279.25,468.22 285.10,469.38 289.50,470.05C293.90,470.71 298.18,471.93 299.00,472.74C300.33,474.06 298.66,474.15 284.53,473.54C275.75,473.16 263.82,472.47 258.03,472.00C251.22,471.44 247.15,471.49 246.50,472.14C245.83,472.80 246.09,473.57 247.28,474.45C248.26,475.17 252.35,476.26 256.38,476.85C260.40,477.45 272.42,478.63 283.10,479.46C293.77,480.30 306.10,481.12 310.50,481.28C314.90,481.45 334.95,481.41 355.05,481.21zM435.13,481.96C435.47,481.98 436.24,480.76 436.83,479.25C437.42,477.74 438.41,474.53 439.03,472.12C439.64,469.72 440.49,468.14 440.90,468.62C441.32,469.11 442.22,471.47 442.91,473.87C444.15,478.25 444.15,478.25 453.91,477.55C459.28,477.17 465.44,476.43 467.59,475.90C469.74,475.37 472.85,474.80 474.50,474.63C476.15,474.47 482.90,473.34 489.50,472.11C500.37,470.10 501.74,469.60 504.06,466.84C505.77,464.81 508.27,463.36 511.56,462.51C514.28,461.81 516.84,461.44 517.25,461.68C517.66,461.92 518.00,462.67 518.00,463.34C518.00,464.27 520.55,464.37 528.75,463.80C534.66,463.38 543.55,462.32 548.50,461.45C553.45,460.58 559.98,459.27 563.00,458.54C566.02,457.81 569.62,456.96 571.00,456.65C573.24,456.15 573.50,455.59 573.50,451.30C573.50,446.50 573.50,446.50 582.30,443.50C589.69,440.98 591.42,439.97 593.05,437.23C594.12,435.43 595.00,433.01 595.00,431.86C595.00,429.91 594.63,429.82 589.52,430.45C586.50,430.83 580.94,431.13 577.16,431.12C573.38,431.11 565.64,430.15 559.95,428.99C554.27,427.83 546.44,425.54 542.56,423.89C538.68,422.25 531.34,418.17 526.26,414.82C517.01,408.74 517.01,408.74 502.26,415.46C494.14,419.16 484.12,423.25 480.00,424.55C475.88,425.84 466.73,428.05 459.67,429.45C452.61,430.85 446.04,432.00 445.06,432.00C443.62,432.00 443.16,433.17 442.64,438.21C442.28,441.62 441.52,444.88 440.95,445.45C440.24,446.16 439.62,446.02 438.97,444.99C438.45,444.17 438.02,441.93 438.00,440.00C437.98,438.07 437.57,435.86 437.07,435.09C436.32,433.90 434.85,433.86 427.84,434.84C423.25,435.48 416.90,436.00 413.73,436.00C408.65,436.00 407.85,436.27 407.11,438.25C406.64,439.49 405.94,447.71 405.54,456.53C405.15,465.34 405.15,474.30 405.55,476.42C406.28,480.29 406.28,480.29 417.89,479.69C426.93,479.23 430.05,479.41 432.00,480.51C433.38,481.29 434.78,481.95 435.13,481.96zM456.78,461.00C455.92,461.00 454.20,460.17 452.95,459.16C451.67,458.12 450.99,456.82 451.40,456.16C451.79,455.52 454.34,455.00 457.06,455.00C460.53,455.00 462.00,455.40 462.00,456.35C462.00,457.08 461.18,458.43 460.17,459.35C459.17,460.26 457.64,461.00 456.78,461.00zM199.85,458.63C202.19,458.50 202.19,458.50 202.41,429.50C202.60,403.85 202.88,399.24 204.87,389.61C206.11,383.62 206.76,378.36 206.31,377.92C205.87,377.48 199.11,376.42 191.29,375.56C183.48,374.70 175.75,374.00 174.13,374.00C172.23,374.00 168.42,375.84 163.53,379.11C158.23,382.66 153.07,387.46 146.69,394.81C141.64,400.63 134.69,408.44 131.25,412.16C125.03,418.89 125.00,418.95 125.00,424.92C125.00,428.56 125.82,433.12 127.08,436.49C128.29,439.72 130.21,442.74 131.64,443.68C133.00,444.57 138.92,446.73 144.80,448.47C150.69,450.22 156.43,451.95 157.56,452.33C159.55,452.99 159.60,452.74 159.19,444.05C158.95,439.13 159.03,434.00 159.37,432.67C159.76,431.11 160.88,430.06 162.49,429.76C164.72,429.33 165.11,429.73 166.04,433.39C166.62,435.65 167.95,440.46 169.02,444.07C170.08,447.69 171.79,451.40 172.81,452.33C173.83,453.26 179.78,455.07 186.08,456.38C192.36,457.69 198.56,458.70 199.85,458.63zM222.10,458.44C222.59,458.13 223.00,452.85 222.99,446.69C222.99,440.54 223.51,429.76 224.14,422.73C224.78,415.71 225.42,410.09 225.56,410.23C225.71,410.38 226.32,415.90 226.92,422.50C227.52,429.10 228.51,438.91 229.12,444.30C229.74,449.69 230.44,453.90 230.68,453.66C230.92,453.41 231.52,441.80 232.01,427.86C232.50,413.91 233.21,399.29 233.58,395.37C234.27,388.23 234.27,388.23 224.01,387.50C215.99,386.93 213.58,387.05 212.95,388.08C212.50,388.81 211.43,393.25 210.56,397.95C209.70,402.65 209.00,410.46 209.00,415.29C209.00,420.12 209.46,428.45 210.03,433.79C210.60,439.13 211.53,445.86 212.10,448.75C212.67,451.64 213.56,454.00 214.07,454.00C214.60,454.00 215.08,446.96 215.17,437.75C215.27,428.81 215.51,423.52 215.70,426.00C215.89,428.48 216.72,435.53 217.55,441.67C218.37,447.81 219.53,454.22 220.12,455.92C220.71,457.61 221.60,458.75 222.10,458.44zM600.28,442.00C600.86,442.00 602.05,441.39 602.92,440.65C603.79,439.91 607.42,438.52 611.00,437.55C614.58,436.58 621.77,434.45 627.00,432.80C632.23,431.15 640.85,427.77 646.17,425.29C652.69,422.24 655.68,420.34 655.34,419.44C655.00,418.56 657.32,416.91 662.16,414.59C666.20,412.65 671.75,408.91 674.50,406.28C679.50,401.50 679.50,401.50 674.19,401.20C669.44,400.92 668.21,401.32 662.33,405.03C658.73,407.31 652.28,410.67 648.01,412.50C643.73,414.33 635.34,417.39 629.37,419.31C623.39,421.23 614.90,423.79 610.50,424.99C606.10,426.20 601.49,427.83 600.25,428.61C598.48,429.74 598.00,430.97 598.00,434.44C598.00,436.86 598.27,439.55 598.61,440.42C598.94,441.29 599.69,442.00 600.28,442.00zM116.25,433.93C117.74,433.99 118.00,433.06 118.00,427.64C118.00,424.14 118.27,419.28 118.61,416.84C119.22,412.41 119.22,412.41 100.01,410.63C89.45,409.66 80.56,409.11 80.26,409.41C79.96,409.71 80.92,411.79 82.40,414.03C83.88,416.27 86.72,419.90 88.72,422.11C90.72,424.32 93.73,426.86 95.42,427.76C97.12,428.66 102.10,430.39 106.50,431.62C110.90,432.85 115.29,433.88 116.25,433.93zM165.30,415.07C164.61,421.29 164.18,422.84 163.64,421.00C162.95,418.65 162.44,418.48 155.25,418.21C151.04,418.06 147.36,417.69 147.08,417.41C146.80,417.13 146.60,414.43 146.65,411.42C146.69,408.41 146.90,405.79 147.11,405.60C147.33,405.41 150.99,405.04 155.26,404.78C160.34,404.46 163.58,404.70 164.63,405.47C166.02,406.49 166.11,407.78 165.30,415.07zM570.45,420.91C573.20,420.96 574.98,420.63 574.45,420.16C573.93,419.70 568.10,418.29 561.51,417.03C554.92,415.77 547.77,414.13 545.63,413.37C543.50,412.62 541.02,412.01 540.12,412.02C538.71,412.03 538.69,412.16 540.00,413.01C540.83,413.55 543.98,414.94 547.00,416.09C550.02,417.25 555.42,418.78 559.00,419.50C562.58,420.22 567.73,420.85 570.45,420.91zM391.50,413.47C405.34,413.29 419.08,412.53 426.00,411.56C432.32,410.68 442.23,409.02 448.00,407.87C453.77,406.72 461.36,404.90 464.85,403.82C468.34,402.74 471.04,401.71 470.85,401.53C470.66,401.35 464.43,402.23 457.00,403.49C449.57,404.75 437.09,406.51 429.26,407.40C421.42,408.30 408.15,409.31 399.76,409.64C391.37,409.97 377.07,409.73 368.00,409.10C358.93,408.48 346.15,407.27 339.61,406.43C333.08,405.59 321.88,403.80 314.73,402.45C307.58,401.10 301.57,400.00 301.37,400.00C301.16,400.00 301.00,400.40 301.00,400.89C301.00,401.38 302.84,402.52 305.09,403.42C307.34,404.32 315.79,406.37 323.86,407.97C331.93,409.58 343.48,411.37 349.52,411.95C355.56,412.54 362.30,413.19 364.50,413.40C366.70,413.61 378.85,413.65 391.50,413.47zM108.09,399.00C112.99,399.00 116.98,398.66 116.96,398.25C116.94,397.84 115.68,396.05 114.16,394.28C111.51,391.19 111.07,391.05 103.06,390.78C97.54,390.60 94.57,390.88 94.31,391.62C94.10,392.24 95.10,394.15 96.55,395.87C99.13,398.94 99.34,399.00 108.09,399.00zM573.92,397.92C578.55,397.96 582.09,397.76 581.80,397.47C581.51,397.17 576.59,396.26 570.88,395.43C565.17,394.60 556.96,393.02 552.62,391.92C548.29,390.82 544.53,390.13 544.28,390.39C544.02,390.65 545.58,391.76 547.74,392.87C549.90,393.97 554.78,395.54 558.58,396.35C562.39,397.17 569.29,397.87 573.92,397.92zM626.11,397.93C628.65,397.97 633.15,397.54 636.11,396.98C639.08,396.43 644.65,394.47 648.50,392.63C652.35,390.79 656.62,388.32 658.00,387.14C659.77,385.62 658.00,386.16 652.00,388.97C647.33,391.16 640.82,393.63 637.54,394.47C634.26,395.31 628.41,396.03 624.54,396.07C619.68,396.12 618.12,396.41 619.50,397.00C620.60,397.47 623.58,397.89 626.11,397.93zM105.05,383.85C106.45,383.93 108.12,383.48 108.75,382.85C109.40,382.20 109.64,380.38 109.31,378.60C109.00,376.90 108.39,375.12 107.96,374.65C107.54,374.18 104.34,373.18 100.85,372.43C97.36,371.68 93.26,371.05 91.75,371.04C89.78,371.01 89.00,371.50 89.02,372.75C89.03,373.71 90.05,376.30 91.29,378.50C93.27,382.01 94.10,382.57 98.03,383.10C100.49,383.43 103.65,383.77 105.05,383.85zM374.00,379.77C385.82,379.83 397.30,379.51 399.50,379.06C402.91,378.35 402.24,378.21 395.00,378.10C390.32,378.03 381.39,377.54 375.14,377.03C367.69,376.41 362.93,375.53 361.30,374.46C359.93,373.56 357.76,370.51 356.47,367.67C355.18,364.82 353.36,358.68 352.42,354.01C351.06,347.20 350.83,342.33 351.29,329.51C351.65,319.41 352.44,311.62 353.42,308.41C354.28,305.61 356.02,301.79 357.28,299.91C359.58,296.50 359.58,296.50 386.04,296.00C400.59,295.73 413.01,295.17 413.64,294.76C414.27,294.35 417.14,295.06 420.03,296.33C425.29,298.65 425.29,298.65 425.49,321.58C425.64,337.93 426.16,346.90 427.33,352.90C428.22,357.51 429.19,361.53 429.48,361.81C429.77,362.10 430.00,361.70 430.00,360.92C430.00,360.05 431.07,359.47 432.75,359.43C434.26,359.40 437.75,359.20 440.50,358.99C443.25,358.79 445.83,358.14 446.23,357.56C446.64,356.98 446.98,355.49 446.98,354.25C446.99,353.01 447.45,352.00 448.00,352.00C448.55,352.00 449.09,352.79 449.19,353.75C449.29,354.71 449.69,339.98 450.07,321.00C450.46,301.76 451.25,284.73 451.85,282.50C452.73,279.27 452.66,278.29 451.52,277.42C450.74,276.83 445.01,275.59 438.80,274.66C432.58,273.73 422.55,272.50 416.50,271.92C410.45,271.34 396.73,270.84 386.00,270.82C370.10,270.78 363.22,271.25 348.75,273.35C338.98,274.77 330.10,276.41 329.00,277.00C327.90,277.59 327.00,278.51 327.00,279.04C327.00,279.62 326.25,279.55 325.18,278.88C323.76,277.99 320.20,278.42 308.90,280.81C300.95,282.50 293.31,284.31 291.93,284.84C290.55,285.36 288.92,286.40 288.31,287.15C287.71,287.89 286.29,291.65 285.16,295.50C284.03,299.35 282.57,306.55 281.92,311.50C281.19,317.05 280.95,326.63 281.29,336.50C281.59,345.30 282.35,355.12 282.98,358.31C283.61,361.51 284.95,366.06 285.97,368.43C287.81,372.73 287.81,372.73 295.33,373.85C299.47,374.46 312.00,375.86 323.18,376.95C334.35,378.04 345.52,379.10 348.00,379.29C350.48,379.49 362.18,379.70 374.00,379.77zM552.69,374.90C556.18,374.96 559.17,374.53 559.55,373.91C559.92,373.31 559.82,372.42 559.32,371.92C558.82,371.42 553.48,370.72 547.45,370.38C537.10,369.79 536.59,369.85 538.14,371.48C539.04,372.43 541.29,373.56 543.14,374.00C544.99,374.44 549.29,374.84 552.69,374.90zM145.45,373.90C149.70,373.97 151.09,373.69 150.32,372.92C149.73,372.33 147.50,371.44 145.37,370.95C143.24,370.45 139.05,370.04 136.05,370.02C132.06,370.01 130.90,370.30 131.71,371.11C132.32,371.72 134.32,372.57 136.16,373.00C138.00,373.44 142.18,373.84 145.45,373.90zM260.04,369.00C261.54,369.00 263.33,368.30 264.04,367.45C265.10,366.18 265.07,365.65 263.91,364.52C262.93,363.57 259.12,363.05 251.50,362.82C240.50,362.50 240.50,362.50 240.50,364.93C240.50,367.27 240.79,367.36 248.39,367.65C252.73,367.81 256.52,368.18 256.81,368.47C257.10,368.76 258.55,369.00 260.04,369.00zM348.09,369.00C347.44,369.00 346.26,367.48 345.49,365.63C344.71,363.77 343.56,359.16 342.93,355.38C342.30,351.59 341.77,342.88 341.74,336.00C341.72,328.16 342.34,320.17 343.42,314.58C344.36,309.67 346.00,304.05 347.06,302.08C348.59,299.26 348.89,299.03 348.51,301.00C348.24,302.38 347.57,305.52 347.03,308.00C346.49,310.48 346.06,319.02 346.07,327.00C346.08,334.98 346.51,344.88 347.03,349.00C347.55,353.12 348.27,359.31 348.63,362.75C349.11,367.30 348.96,369.00 348.09,369.00zM520.65,368.00C520.96,368.00 520.95,366.93 520.62,365.62C520.29,364.30 519.10,356.09 517.98,347.37C516.81,338.30 515.95,325.93 515.96,318.50C515.98,308.29 516.53,303.14 518.50,294.52C519.87,288.48 521.00,282.93 521.00,282.20C521.00,281.38 520.12,280.99 518.75,281.18C517.28,281.39 515.83,282.88 514.56,285.48C513.49,287.67 511.80,292.84 510.80,296.98C509.80,301.12 508.71,309.23 508.38,315.00C508.00,321.78 508.18,326.51 508.91,328.35C509.52,329.91 510.90,331.42 511.97,331.70C513.38,332.07 514.04,333.34 514.40,336.35C514.67,338.63 515.37,344.39 515.97,349.15C516.56,353.90 517.73,360.09 518.56,362.90C519.40,365.70 520.33,368.00 520.65,368.00zM229.14,365.84C231.49,365.94 232.98,365.49 233.33,364.57C233.63,363.79 233.35,362.71 232.69,362.18C232.04,361.64 226.66,360.88 220.75,360.48C211.37,359.85 210.00,359.96 210.00,361.32C210.00,362.18 210.56,363.25 211.25,363.69C211.94,364.14 215.43,364.77 219.00,365.09C222.57,365.42 227.14,365.76 229.14,365.84zM390.25,361.86C411.91,361.99 413.00,361.91 413.00,360.12C413.00,359.01 412.07,357.98 410.75,357.63C409.51,357.30 397.84,357.02 384.81,357.01C371.78,357.01 360.87,357.40 360.57,357.89C360.27,358.37 360.58,359.23 361.26,359.79C361.94,360.35 363.62,361.02 365.00,361.27C366.38,361.52 377.74,361.79 390.25,361.86zM582.32,361.00C582.42,361.00 582.50,351.66 582.50,340.25C582.50,321.30 582.70,318.85 584.84,312.00C586.13,307.88 588.60,301.82 590.34,298.54C592.08,295.26 595.76,290.26 598.52,287.43C601.29,284.60 605.06,281.50 606.90,280.55C609.98,278.96 610.57,278.94 613.88,280.35C615.87,281.20 619.08,282.17 621.00,282.51C622.92,282.85 630.80,284.93 638.50,287.14C646.20,289.35 655.77,292.24 659.76,293.58C663.75,294.91 667.24,296.00 667.51,296.00C667.78,296.00 668.00,295.42 668.00,294.71C668.00,293.99 664.71,290.01 660.69,285.86C656.38,281.41 650.53,276.67 646.44,274.31C642.62,272.10 634.89,267.91 629.25,264.99C623.61,262.06 619.00,259.37 619.00,259.00C619.00,258.63 621.74,258.71 625.09,259.16C628.45,259.62 631.71,260.29 632.34,260.65C633.13,261.08 633.18,260.95 632.50,260.24C631.95,259.66 626.63,258.00 620.68,256.55C614.73,255.10 609.02,254.18 607.99,254.50C606.96,254.83 603.61,257.05 600.54,259.43C594.97,263.75 594.97,263.75 579.62,263.24C565.92,262.78 563.52,262.95 557.27,264.85C553.41,266.02 547.61,268.75 544.38,270.92C541.15,273.09 536.30,277.48 533.62,280.68C530.93,283.88 527.86,288.52 526.80,290.99C525.73,293.46 524.23,298.19 523.45,301.49C522.59,305.14 522.06,312.42 522.11,320.00C522.16,326.88 522.73,334.75 523.40,337.50C524.57,342.40 524.61,342.22 525.25,329.00C525.73,319.24 526.62,312.86 528.49,306.00C529.91,300.77 532.41,293.64 534.04,290.13C536.32,285.24 537.41,283.87 538.76,284.23C539.73,284.48 548.46,284.37 558.16,283.99C575.81,283.29 575.81,283.29 582.02,278.41C587.98,273.72 588.51,273.51 595.62,273.15C601.30,272.87 603.60,273.17 605.55,274.44C608.08,276.10 608.08,276.10 601.08,279.59C596.13,282.07 592.38,284.96 588.20,289.53C584.95,293.07 580.87,298.64 579.13,301.90C577.39,305.17 575.28,309.79 574.43,312.17C573.59,314.55 572.48,319.76 571.97,323.75C571.40,328.26 571.41,333.84 572.00,338.53C572.53,342.67 573.53,347.05 574.23,348.28C575.41,350.34 575.54,350.14 576.00,345.50C576.50,340.50 576.50,340.50 577.81,345.50C578.53,348.25 579.80,352.86 580.63,355.75C581.46,358.64 582.22,361.00 582.32,361.00zM146.75,355.83C150.61,355.98 151.00,355.78 151.00,353.61C151.00,352.29 150.29,350.94 149.42,350.61C148.55,350.27 142.95,350.00 136.98,350.00C131.00,350.00 125.90,350.36 125.62,350.80C125.35,351.24 125.53,352.25 126.03,353.05C126.63,354.02 129.49,354.69 134.71,355.08C139.00,355.41 144.41,355.74 146.75,355.83zM484.07,345.50C484.47,339.45 485.25,327.52 485.80,319.00C486.35,310.48 487.38,299.75 488.09,295.17C489.16,288.19 489.15,286.71 488.00,286.00C487.25,285.54 481.10,283.77 474.34,282.08C467.58,280.39 460.96,279.00 459.63,279.00C458.26,279.00 456.92,279.76 456.52,280.75C456.14,281.71 455.58,291.27 455.27,302.00C454.94,313.69 455.20,327.48 455.93,336.44C456.59,344.66 457.56,352.17 458.07,353.13C458.88,354.64 460.02,354.80 466.25,354.32C470.24,354.02 475.07,353.46 476.99,353.09C479.28,352.65 480.91,351.57 481.73,349.96C482.91,347.62 482.98,347.72 483.16,352.00C483.26,354.48 483.67,351.55 484.07,345.50zM198.01,354.49C198.39,354.26 198.97,347.19 199.29,338.78C199.64,330.08 200.56,321.00 201.45,317.70C202.30,314.51 203.00,311.18 203.00,310.30C203.00,308.86 201.42,308.76 188.44,309.35C178.28,309.81 172.96,310.49 170.85,311.58C168.73,312.67 166.89,315.13 164.66,319.82C161.80,325.86 161.50,327.41 161.50,336.00C161.50,342.48 161.98,346.45 163.01,348.50C164.52,351.50 164.52,351.50 179.78,352.07C189.11,352.42 195.49,353.09 196.18,353.78C196.81,354.41 197.63,354.73 198.01,354.49zM551.00,353.86C553.48,353.92 556.10,353.59 556.84,353.12C557.57,352.66 558.02,351.20 557.84,349.89C557.52,347.61 557.07,347.47 548.00,346.94C542.77,346.64 537.74,346.57 536.82,346.79C535.89,347.01 534.92,347.76 534.66,348.44C534.40,349.12 534.53,350.24 534.96,350.93C535.38,351.62 538.16,352.54 541.12,352.97C544.08,353.40 548.52,353.80 551.00,353.86zM229.80,352.13C230.52,351.92 230.97,350.81 230.80,349.66C230.52,347.71 229.84,347.57 219.70,347.47C213.75,347.42 208.72,347.64 208.51,347.98C208.30,348.32 208.53,349.25 209.03,350.05C209.66,351.08 212.59,351.64 219.21,352.00C224.32,352.28 229.09,352.34 229.80,352.13zM261.28,350.83C262.92,350.99 263.04,349.96 262.78,338.25C262.50,325.50 262.50,325.50 255.88,325.65C252.24,325.73 248.24,326.34 247.00,327.00C244.94,328.10 244.80,328.68 245.40,333.85C245.75,336.96 246.92,340.70 247.98,342.16C249.69,344.50 249.75,344.97 248.43,346.06C247.61,346.74 247.10,347.80 247.29,348.40C247.49,349.01 250.32,349.76 253.58,350.08C256.84,350.40 260.30,350.74 261.28,350.83zM240.20,350.00C240.36,350.00 240.43,344.79 240.33,338.42C240.24,332.05 239.92,326.58 239.61,326.27C239.30,325.97 238.31,326.33 237.40,327.09C236.04,328.21 235.84,329.73 236.28,335.54C236.58,339.44 237.51,344.29 238.36,346.31C239.20,348.34 240.03,350.00 240.20,350.00zM497.14,348.81C497.60,348.09 497.70,343.45 497.37,338.50C497.04,333.55 497.30,323.65 497.95,316.50C498.60,309.35 499.75,300.59 500.49,297.03C501.24,293.47 501.62,290.19 501.34,289.74C501.06,289.29 501.63,286.68 502.61,283.96C504.00,280.10 504.13,278.73 503.20,277.80C502.45,277.05 501.66,276.95 501.10,277.55C500.60,278.07 499.05,282.16 497.65,286.63C496.25,291.09 494.58,299.64 493.93,305.63C493.28,311.63 493.00,321.43 493.32,327.50C493.63,333.55 494.43,341.12 495.09,344.31C495.89,348.13 496.59,349.68 497.14,348.81zM627.64,348.69C639.66,348.37 651.08,347.73 653.00,347.26C655.92,346.54 656.44,346.01 656.16,344.06C655.98,342.77 656.61,339.96 657.58,337.82C658.64,335.46 658.97,333.57 658.42,333.02C657.91,332.51 650.30,331.57 641.50,330.92C632.21,330.24 618.72,330.00 609.34,330.36C600.45,330.70 592.02,331.42 590.59,331.97C588.65,332.70 588.00,333.65 588.02,335.73C588.03,337.28 589.02,339.43 590.27,340.61C591.70,341.97 595.10,343.19 599.77,344.03C606.28,345.19 606.97,345.53 606.41,347.30C605.79,349.23 606.22,349.25 627.64,348.69zM670.76,344.42C670.90,342.81 671.49,338.01 672.06,333.74C672.64,329.48 673.77,323.76 674.58,321.04C675.39,318.31 677.59,314.07 679.47,311.61C682.89,307.13 682.89,307.13 679.40,305.07C677.48,303.94 674.80,302.74 673.45,302.40C671.26,301.85 670.75,302.31 668.88,306.55C667.36,309.97 666.62,314.20 666.24,321.60C665.92,327.91 666.20,334.33 666.95,338.20C667.63,341.66 668.71,345.14 669.34,345.92C670.28,347.07 670.55,346.79 670.76,344.42zM56.50,344.60C59.25,344.26 73.58,343.69 88.34,343.33C108.50,342.84 115.51,342.35 116.50,341.36C117.22,340.63 118.13,338.20 118.51,335.95C118.89,333.70 118.95,331.62 118.64,331.31C118.34,331.00 111.53,331.28 103.50,331.93C95.48,332.58 81.74,334.43 72.97,336.04C64.20,337.64 55.45,339.62 53.51,340.43C51.58,341.24 50.00,342.30 50.00,342.78C50.00,343.27 50.34,344.01 50.75,344.43C51.16,344.86 53.75,344.93 56.50,344.60zM388.63,344.87C404.55,344.97 408.99,344.71 409.89,343.63C410.75,342.60 410.69,341.99 409.64,341.11C408.66,340.30 401.40,340.04 384.87,340.23C364.88,340.46 361.50,340.72 361.50,342.00C361.50,342.93 362.83,343.74 365.00,344.12C366.93,344.46 377.56,344.80 388.63,344.87zM692.62,341.64C698.97,341.28 705.11,340.48 706.26,339.86C708.30,338.77 708.30,338.69 706.49,337.37C704.85,336.17 705.63,336.00 712.81,336.00C720.07,336.00 721.00,335.79 721.00,334.17C721.00,333.17 719.99,331.42 718.75,330.28C717.51,329.14 714.25,326.80 711.50,325.07C708.76,323.35 702.27,320.58 697.08,318.92C691.90,317.26 686.29,316.03 684.61,316.20C682.00,316.46 681.38,317.09 680.35,320.50C679.69,322.70 679.12,327.28 679.08,330.68C679.03,334.09 679.46,338.09 680.03,339.59C681.06,342.30 681.06,342.30 692.62,341.64zM472.87,340.98C470.65,340.96 467.94,339.80 464.92,337.59C462.40,335.74 459.77,332.86 459.08,331.19C458.05,328.71 458.07,327.63 459.17,325.34C459.91,323.79 461.30,322.37 462.25,322.19C463.37,321.97 464.34,322.76 464.95,324.37C465.47,325.75 466.80,327.36 467.89,327.94C469.20,328.64 470.72,328.68 472.38,328.04C473.76,327.52 475.65,325.94 476.56,324.54C477.48,323.14 478.00,321.10 477.71,320.00C477.39,318.79 477.68,318.00 478.44,318.00C479.13,318.00 480.51,318.91 481.51,320.02C482.64,321.26 483.51,324.14 483.79,327.51C484.23,332.81 484.12,333.12 480.24,336.99C477.13,340.10 475.48,340.99 472.87,340.98zM138.06,339.00C148.91,339.00 148.91,339.00 149.95,335.25C150.52,333.19 150.99,329.97 150.99,328.11C151.00,324.71 151.00,324.71 142.89,325.39C138.43,325.76 133.30,326.68 131.50,327.44C129.20,328.40 127.88,329.83 127.08,332.25C126.46,334.14 126.23,336.44 126.58,337.35C127.12,338.74 128.90,339.00 138.06,339.00zM214.45,339.00C216.73,339.00 219.14,338.46 219.80,337.80C220.46,337.14 221.00,335.79 221.00,334.80C221.00,333.67 221.74,333.00 222.97,333.00C224.16,333.00 225.57,334.20 226.50,336.00C227.35,337.65 228.50,339.00 229.05,339.00C229.60,339.00 230.51,337.79 231.07,336.31C231.64,334.82 231.96,332.24 231.80,330.56C231.50,327.50 231.50,327.50 221.12,327.21C212.50,326.98 210.42,327.21 208.87,328.62C207.84,329.55 207.00,331.44 207.00,332.83C207.00,334.21 207.74,336.17 208.65,337.17C209.75,338.38 211.71,339.00 214.45,339.00zM550.18,335.89C552.32,335.95 554.51,335.35 555.43,334.43C556.29,333.56 557.00,332.01 557.00,330.96C557.00,329.92 556.13,328.60 555.07,328.04C554.00,327.47 550.04,327.00 546.27,327.00C542.26,327.00 538.90,327.50 538.20,328.20C537.54,328.86 537.00,330.18 537.00,331.14C537.00,332.10 537.55,333.22 538.22,333.63C538.88,334.05 541.02,334.70 542.97,335.08C544.91,335.46 548.16,335.82 550.18,335.89zM387.13,329.86C403.65,329.97 409.01,329.70 409.82,328.72C410.41,328.01 410.54,326.88 410.12,326.20C409.54,325.26 403.58,325.03 385.44,325.23C364.01,325.47 361.49,325.67 361.20,327.17C361.00,328.26 361.69,329.00 363.19,329.29C364.46,329.53 375.23,329.79 387.13,329.86zM652.68,323.84C654.43,323.93 656.56,323.29 657.43,322.43C658.29,321.56 659.00,320.23 659.00,319.46C659.00,318.70 658.14,317.61 657.08,317.04C656.02,316.48 652.38,315.36 648.98,314.57C645.58,313.78 642.50,312.84 642.15,312.48C641.79,312.12 642.74,310.83 644.25,309.62C645.76,308.41 647.00,306.87 647.00,306.18C647.00,305.50 647.58,304.71 648.29,304.44C649.01,304.17 651.54,304.63 653.92,305.47C656.30,306.31 659.09,307.00 660.13,307.00C661.16,307.00 662.00,306.34 662.00,305.53C662.00,304.71 660.76,303.41 659.25,302.63C657.74,301.85 651.29,299.59 644.93,297.61C638.57,295.62 628.89,293.35 623.43,292.56C617.97,291.76 611.92,291.04 610.00,290.96C608.08,290.87 605.46,290.84 604.19,290.90C602.92,290.95 602.13,291.40 602.43,291.89C602.74,292.38 607.04,293.11 611.99,293.50C616.95,293.89 620.99,294.50 620.97,294.86C620.96,295.21 619.67,297.04 618.11,298.92C615.33,302.27 615.12,302.34 607.29,302.42C601.86,302.47 598.74,302.97 597.55,303.96C596.58,304.76 594.71,307.86 593.39,310.83C592.08,313.81 591.00,317.32 591.00,318.62C591.00,319.93 591.11,321.06 591.25,321.13C591.39,321.21 604.55,321.81 620.50,322.47C636.45,323.13 650.93,323.75 652.68,323.84zM96.07,322.65C99.38,322.30 102.93,321.57 103.95,321.03C104.97,320.48 106.52,317.92 107.40,315.34C108.28,312.76 109.00,309.76 109.00,308.68C109.00,306.86 108.52,306.77 102.33,307.41C98.66,307.78 95.26,308.34 94.78,308.64C94.29,308.94 92.78,311.71 91.42,314.79C90.05,317.87 89.19,321.04 89.49,321.84C89.93,322.97 91.32,323.15 96.07,322.65zM220.69,320.78C232.41,320.50 232.41,320.50 233.09,317.00C233.46,315.07 234.05,311.19 234.40,308.36C234.92,304.19 234.74,303.11 233.44,302.61C232.56,302.28 227.71,302.46 222.67,303.02C216.10,303.76 213.14,304.53 212.23,305.74C211.54,306.67 210.23,309.76 209.34,312.60C208.44,315.45 207.99,318.52 208.33,319.42C208.88,320.84 210.58,321.02 220.69,320.78zM250.36,319.78C263.44,319.50 263.44,319.50 264.59,312.50C265.23,308.65 266.07,304.09 266.47,302.37C266.95,300.31 266.79,298.99 266.00,298.50C265.34,298.09 259.87,298.35 253.84,299.06C243.78,300.26 242.67,300.60 240.48,303.21C239.16,304.77 237.32,308.49 236.38,311.47C234.96,315.98 234.89,317.16 235.98,318.48C237.08,319.80 239.44,320.01 250.36,319.78zM549.13,317.85C554.72,317.96 557.08,317.61 557.96,316.55C558.62,315.75 559.02,314.32 558.83,313.37C558.65,312.42 557.19,311.29 555.59,310.87C553.99,310.44 549.15,310.36 544.84,310.69C540.18,311.05 536.55,311.84 535.89,312.64C535.28,313.37 535.03,314.62 535.33,315.42C535.63,316.21 537.15,317.05 538.69,317.28C540.24,317.51 544.93,317.77 549.13,317.85zM124.82,316.05C126.37,315.61 133.68,314.91 141.07,314.51C148.46,314.10 154.89,313.54 155.36,313.26C155.83,312.98 155.60,312.36 154.86,311.89C154.11,311.42 152.48,311.02 151.22,311.02C149.03,311.00 149.00,310.90 150.47,308.05C151.31,306.43 152.00,304.85 152.00,304.55C152.00,304.25 148.16,304.00 143.46,304.00C136.96,304.00 134.01,304.47 131.09,305.96C128.98,307.03 126.07,309.32 124.63,311.03C123.18,312.75 122.00,314.76 122.00,315.51C122.00,316.52 122.72,316.65 124.82,316.05zM387.10,315.88C407.71,315.99 408.77,315.91 410.56,313.94C412.15,312.17 412.21,311.74 410.96,310.94C410.15,310.41 399.94,310.04 388.00,310.10C376.18,310.15 365.49,310.59 364.25,311.07C363.01,311.55 362.00,312.59 362.00,313.39C362.00,314.20 362.79,315.06 363.75,315.31C364.71,315.56 375.22,315.82 387.10,315.88zM556.67,301.80C557.86,301.91 559.56,301.72 560.46,301.38C561.35,301.04 562.73,299.48 563.54,297.93C564.34,296.37 565.00,294.80 565.00,294.44C565.00,294.08 559.89,293.95 553.65,294.14C545.97,294.39 541.77,294.95 540.65,295.87C539.74,296.63 539.00,298.07 539.00,299.08C539.00,300.67 540.02,300.96 546.75,301.26C551.01,301.44 555.48,301.69 556.67,301.80zM102.40,301.00C108.94,301.00 108.94,301.00 112.97,295.66C115.19,292.72 117.00,290.02 117.00,289.66C117.00,289.30 114.55,289.00 111.57,289.00C108.58,289.00 105.03,289.42 103.68,289.93C102.34,290.44 100.34,292.13 99.25,293.68C98.16,295.23 96.95,297.51 96.56,298.75C95.89,300.93 96.08,301.00 102.40,301.00zM173.84,291.68C175.40,291.37 182.41,290.80 189.43,290.41C198.76,289.89 202.32,289.33 202.70,288.33C202.99,287.59 202.70,278.77 202.06,268.74C201.23,255.79 201.19,246.73 201.91,237.50C202.46,230.35 203.22,221.91 203.60,218.75C204.24,213.28 204.17,213.00 202.07,213.00C200.86,213.00 195.32,214.15 189.77,215.56C184.22,216.97 178.40,218.78 176.85,219.58C175.29,220.38 173.08,222.89 171.92,225.15C170.77,227.41 169.14,231.34 168.29,233.88C167.24,237.05 166.61,244.21 166.27,256.75C165.78,275.00 165.78,275.00 152.89,275.00C145.80,275.00 140.00,275.35 140.00,275.78C140.00,276.22 142.36,278.85 145.25,281.63C148.14,284.42 151.85,287.62 153.51,288.74C155.66,290.21 157.94,290.75 161.51,290.65C166.43,290.50 166.50,290.45 166.83,287.06C167.15,283.63 167.15,283.63 169.08,287.94C170.83,291.85 171.28,292.19 173.84,291.68zM257.21,286.75C269.97,286.23 270.49,286.13 272.71,283.55C273.97,282.09 275.00,280.00 275.00,278.92C275.00,277.09 274.51,276.99 268.25,277.56C264.54,277.89 258.14,278.55 254.04,279.01C248.78,279.61 246.20,280.38 245.29,281.62C244.58,282.59 244.00,284.26 244.00,285.33C244.00,287.20 244.59,287.26 257.21,286.75zM490.32,278.90C491.53,278.97 492.04,278.42 491.82,277.28C491.63,276.34 490.36,275.00 488.99,274.31C487.62,273.62 480.43,270.31 473.00,266.95C465.57,263.59 457.17,260.02 454.33,259.00C451.48,257.99 445.63,256.62 441.33,255.95C436.40,255.19 419.78,254.70 396.50,254.62C365.49,254.52 357.77,254.78 348.81,256.26C342.93,257.23 337.35,258.31 336.42,258.67C335.24,259.12 334.86,258.89 335.18,257.91C335.43,257.13 337.99,255.71 340.87,254.74C344.69,253.46 352.21,252.68 368.80,251.87C384.06,251.12 398.71,251.06 413.50,251.67C425.60,252.17 435.67,252.47 435.89,252.32C436.10,252.18 434.98,251.56 433.39,250.95C431.80,250.34 424.43,248.90 417.00,247.76C406.49,246.13 398.52,245.65 381.00,245.58C365.99,245.53 356.00,245.95 351.00,246.86C346.88,247.61 342.00,248.84 340.18,249.59C338.35,250.34 335.98,251.98 334.90,253.23C333.83,254.48 332.06,257.17 330.98,259.21C329.89,261.25 329.00,263.68 329.00,264.61C329.00,266.08 329.84,266.21 335.75,265.67C339.46,265.32 348.35,264.36 355.50,263.53C362.65,262.70 375.70,262.02 384.50,262.01C393.30,262.01 406.57,262.69 414.00,263.53C421.43,264.38 432.45,265.94 438.50,267.01C444.55,268.07 458.27,271.16 469.00,273.87C479.73,276.58 489.32,278.84 490.32,278.90zM212.98,278.00C213.62,278.00 214.01,273.12 214.02,264.75C214.02,257.46 214.47,250.82 215.00,250.00C215.69,248.92 215.97,249.97 215.98,253.68C215.99,256.53 216.49,262.36 217.08,266.65C217.68,270.94 218.60,275.25 219.12,276.22C219.64,277.20 220.73,278.00 221.54,278.00C222.34,278.00 223.05,277.21 223.12,276.25C223.18,275.29 223.33,271.35 223.44,267.50C223.56,263.65 224.01,253.34 224.45,244.59C224.90,235.84 225.57,227.52 225.96,226.09C226.34,224.67 226.94,232.72 227.29,244.00C227.64,255.28 228.46,267.09 229.10,270.25C229.75,273.41 230.66,276.00 231.14,276.00C231.61,276.00 232.00,267.36 232.00,256.81C232.00,246.25 232.49,231.29 233.08,223.56C233.67,215.83 234.52,207.81 234.97,205.74C235.42,203.68 235.45,201.78 235.04,201.53C234.63,201.27 232.88,201.60 231.15,202.25C229.42,202.90 228.00,203.71 228.00,204.05C228.00,204.38 226.72,204.47 225.15,204.23C222.94,203.91 221.80,204.44 220.15,206.54C218.64,208.45 218.00,208.79 218.00,207.67C218.00,206.76 217.43,206.28 216.70,206.56C215.98,206.84 214.67,208.29 213.79,209.78C212.91,211.28 211.51,215.88 210.69,220.00C209.87,224.12 208.91,232.68 208.56,239.00C208.20,245.32 208.36,255.46 208.90,261.53C209.44,267.60 210.35,273.79 210.92,275.28C211.49,276.78 212.41,278.00 212.98,278.00zM293.50,277.00C294.36,277.00 300.78,275.84 307.78,274.43C314.78,273.02 320.80,271.56 321.16,271.18C321.52,270.81 323.21,266.90 324.90,262.50C326.60,258.10 327.99,253.99 328.00,253.36C328.00,252.53 326.83,252.47 323.78,253.16C321.46,253.68 315.95,255.80 311.52,257.88C305.66,260.62 302.31,262.98 299.14,266.57C296.75,269.28 294.16,272.74 293.37,274.25C292.11,276.68 292.13,277.00 293.50,277.00zM250.80,272.54C253.39,272.25 260.45,271.55 266.50,270.97C272.55,270.39 278.40,269.65 279.50,269.32C280.60,268.99 284.23,266.18 287.56,263.07C290.90,259.96 297.22,255.55 301.61,253.26C306.01,250.98 313.43,248.00 318.11,246.64C322.79,245.29 332.44,243.19 339.56,241.99C346.68,240.79 352.84,239.29 353.25,238.65C353.67,238.02 353.98,226.25 353.95,212.50C353.89,187.50 353.89,187.50 365.70,187.80C372.19,187.97 384.39,188.77 392.80,189.57C401.22,190.38 410.22,191.50 412.80,192.05C415.39,192.61 418.12,193.45 418.88,193.92C419.64,194.39 419.94,195.29 419.55,195.92C419.11,196.63 416.41,196.97 412.46,196.83C408.95,196.70 405.87,196.80 405.63,197.05C405.39,197.30 405.03,206.59 404.84,217.70C404.63,230.35 404.87,238.23 405.50,238.79C406.05,239.28 412.80,240.46 420.50,241.41C428.20,242.37 439.23,244.05 445.00,245.15C450.77,246.24 462.02,248.90 470.00,251.06C477.98,253.21 492.02,257.05 501.21,259.59C517.93,264.22 517.93,264.22 524.71,258.26C528.45,254.99 534.20,250.69 537.50,248.71C540.80,246.73 546.26,244.20 549.64,243.08C553.02,241.97 561.34,240.27 568.14,239.31C578.59,237.84 580.08,237.42 577.75,236.59C576.24,236.05 575.00,235.00 575.00,234.25C575.00,233.18 576.06,233.03 579.75,233.57C582.36,233.95 588.33,235.50 593.00,237.02C597.67,238.54 603.86,240.48 606.75,241.33C609.64,242.19 612.00,242.56 612.00,242.15C612.00,241.74 610.31,239.78 608.25,237.80C606.19,235.82 600.45,231.60 595.50,228.42C590.55,225.24 579.30,219.16 570.50,214.92C561.70,210.67 548.74,205.11 541.71,202.58C534.68,200.04 524.47,196.84 519.04,195.46C513.60,194.09 498.08,190.96 484.55,188.52C471.02,186.08 451.08,182.73 440.23,181.09C429.38,179.44 411.73,177.30 401.00,176.32C387.18,175.07 372.18,174.55 349.50,174.56C331.90,174.56 310.98,175.14 303.00,175.84C295.02,176.54 285.35,177.56 281.50,178.12C277.65,178.67 272.04,179.81 269.03,180.65C266.03,181.49 261.87,183.38 259.80,184.84C257.74,186.30 256.03,188.09 256.02,188.82C256.01,189.60 256.71,189.93 257.75,189.63C258.71,189.35 264.23,188.21 270.00,187.09C275.77,185.97 286.35,184.18 293.50,183.10C300.65,182.02 308.98,180.88 312.00,180.56C315.31,180.21 316.90,180.33 316.00,180.85C315.18,181.33 303.93,184.26 291.00,187.37C278.07,190.47 263.23,194.02 258.00,195.25C248.50,197.50 248.50,197.50 246.73,202.82C245.67,206.03 244.53,214.37 243.86,223.82C243.25,232.45 243.03,246.16 243.37,254.31C243.71,262.45 244.47,270.00 245.05,271.09C245.93,272.75 246.84,272.97 250.80,272.54zM90.25,271.64C92.59,271.30 99.00,270.50 104.50,269.85C110.00,269.21 114.89,268.34 115.37,267.92C115.86,267.50 116.82,263.40 117.53,258.83C118.23,254.25 119.13,248.58 119.53,246.22C120.26,241.95 120.26,241.95 117.44,243.02C115.89,243.61 110.99,246.29 106.56,248.98C102.13,251.67 96.63,255.81 94.35,258.18C92.06,260.56 89.25,264.29 88.10,266.49C86.94,268.68 86.00,270.87 86.00,271.37C86.00,271.86 87.91,271.98 90.25,271.64zM132.78,266.77C136.47,266.49 143.82,265.46 149.11,264.46C158.72,262.65 158.72,262.65 159.32,251.07C159.65,244.71 160.54,237.25 161.31,234.50C162.07,231.75 163.02,228.49 163.42,227.25C164.02,225.35 163.77,225.00 161.78,225.00C160.48,225.00 154.21,226.97 147.85,229.39C141.50,231.80 135.35,234.28 134.19,234.90C133.03,235.52 130.90,237.58 129.46,239.47C128.01,241.36 126.19,245.03 125.42,247.61C124.64,250.20 124.00,254.47 124.00,257.09C124.00,259.72 124.46,263.08 125.03,264.57C126.03,267.20 126.20,267.25 132.78,266.77zM542.50,256.53C543.60,256.09 548.77,254.66 554.00,253.36C559.23,252.06 566.31,250.50 569.75,249.89C573.54,249.23 575.74,248.39 575.36,247.77C574.96,247.13 571.14,246.93 565.11,247.24C557.76,247.62 554.21,248.32 550.00,250.22C546.98,251.59 543.60,253.75 542.50,255.03C540.50,257.34 540.50,257.34 542.50,256.53zM179.79,237.99C179.39,237.99 178.63,237.17 178.09,236.16C177.55,235.15 177.36,233.24 177.68,231.91C178.00,230.59 178.96,228.94 179.82,228.25C180.68,227.56 182.08,227.01 182.94,227.03C183.80,227.05 185.29,227.66 186.26,228.40C187.86,229.61 187.88,230.04 186.55,233.24C185.67,235.33 184.16,236.99 182.79,237.36C181.53,237.70 180.18,237.98 179.79,237.99zM391.14,237.92C395.42,237.98 396.93,237.62 397.39,236.42C397.73,235.55 398.00,226.10 398.00,215.42C398.00,197.60 397.86,196.00 396.25,195.96C395.29,195.95 388.43,195.51 381.00,195.00C373.57,194.48 365.81,194.33 363.75,194.66C360.00,195.26 360.00,195.26 360.00,200.33C360.00,203.42 360.36,205.03 360.92,204.45C361.42,203.93 361.98,202.38 362.17,201.00C362.49,198.56 362.73,198.49 371.75,198.21C381.00,197.92 381.00,197.92 381.02,216.21C381.02,226.27 381.36,235.00 381.77,235.60C382.17,236.21 383.18,236.96 384.00,237.27C384.82,237.59 388.04,237.88 391.14,237.92zM514.13,220.99C513.78,220.98 512.38,220.40 511.01,219.71C509.64,219.02 508.36,217.61 508.16,216.59C507.96,215.57 508.41,214.36 509.15,213.89C509.89,213.42 511.52,213.02 512.77,213.02C514.23,213.01 515.45,213.89 516.17,215.47C517.03,217.36 517.00,218.30 516.02,219.47C515.33,220.31 514.47,220.99 514.13,220.99zM480.62,164.63C480.68,164.56 480.26,161.42 479.69,157.65C478.64,150.80 478.64,150.80 473.57,148.30C469.11,146.10 467.96,144.83 464.04,137.80C461.59,133.39 457.99,128.06 456.04,125.94C453.89,123.60 450.10,121.11 446.38,119.59C443.01,118.21 437.27,116.78 433.63,116.40C428.89,115.92 427.00,116.05 427.00,116.88C427.00,117.51 429.48,122.97 432.50,129.00C435.52,135.03 438.00,140.20 438.00,140.48C438.00,140.77 435.52,141.00 432.50,141.00C427.78,141.00 427.00,141.27 427.00,142.88C427.00,143.92 428.14,145.52 429.54,146.43C430.93,147.35 433.00,150.01 434.14,152.35C436.21,156.60 436.21,156.60 447.01,157.87C452.95,158.56 461.80,159.97 466.66,160.99C471.52,162.02 476.62,163.28 478.00,163.81C479.38,164.34 480.55,164.71 480.62,164.63zM300.25,163.67C301.49,163.36 306.55,162.16 311.50,161.00C316.45,159.85 321.48,158.70 322.68,158.45C324.33,158.11 325.25,156.66 326.46,152.50C327.34,149.47 328.49,147.00 329.03,147.00C329.56,147.00 330.00,147.64 330.00,148.43C330.00,149.21 330.72,150.58 331.61,151.46C332.85,152.70 333.53,152.81 334.61,151.91C335.74,150.97 336.00,151.29 336.00,153.69C336.00,155.30 336.61,157.45 337.35,158.47C338.61,160.19 339.82,160.27 354.06,159.63C365.79,159.10 369.82,158.57 371.13,157.38C372.07,156.53 373.37,153.62 374.02,150.92C374.67,148.21 375.59,146.00 376.06,146.00C376.53,146.00 377.47,147.83 378.14,150.06C378.80,152.29 380.21,154.58 381.25,155.14C382.30,155.70 383.80,155.91 384.58,155.61C385.54,155.24 386.04,153.34 386.12,149.78C386.24,144.50 386.24,144.50 387.23,149.28C387.83,152.17 388.96,154.44 390.09,155.05C391.12,155.60 397.03,156.54 403.23,157.13C413.46,158.11 414.69,158.45 416.59,160.77C417.89,162.36 419.27,163.11 420.24,162.74C421.10,162.41 422.10,160.35 422.48,158.12C422.85,155.92 422.85,151.62 422.47,148.58C421.81,143.35 421.60,143.02 418.64,142.52C416.91,142.24 409.20,141.55 401.50,141.00C393.80,140.46 378.27,140.02 367.00,140.02C355.73,140.03 343.57,140.49 340.00,141.04C336.43,141.58 329.85,142.47 325.38,143.01C320.79,143.57 314.72,145.11 311.38,146.58C308.15,148.01 304.66,149.92 303.64,150.84C302.62,151.75 300.94,154.17 299.89,156.21C298.85,158.25 298.00,160.89 298.00,162.08C298.00,163.81 298.44,164.12 300.25,163.67zM312.25,138.97C312.94,138.96 317.25,138.10 321.83,137.07C326.40,136.03 330.29,135.03 330.46,134.84C330.63,134.65 332.17,130.98 333.88,126.67C335.60,122.37 337.00,118.66 337.00,118.42C337.00,118.19 334.40,118.00 331.23,118.00C326.75,118.00 324.66,118.55 321.84,120.46C319.70,121.92 316.74,125.57 314.61,129.38C312.62,132.92 311.00,136.54 311.00,137.41C311.00,138.29 311.56,138.99 312.25,138.97zM471.81,138.95C472.53,138.98 470.54,136.75 467.40,133.99C464.25,131.24 461.48,129.19 461.24,129.43C460.99,129.67 461.47,130.84 462.30,132.02C463.13,133.21 465.32,135.24 467.15,136.54C468.99,137.84 471.09,138.92 471.81,138.95zM357.61,134.16C367.39,133.98 377.22,133.52 379.45,133.14C383.50,132.44 383.50,132.44 383.50,124.97C383.50,117.50 383.50,117.50 375.50,116.84C371.10,116.48 363.13,116.52 357.80,116.93C352.18,117.36 347.42,118.24 346.48,119.02C345.58,119.76 343.93,122.18 342.79,124.40C341.66,126.63 340.38,129.66 339.96,131.15C339.53,132.63 339.33,134.00 339.51,134.17C339.68,134.35 347.83,134.35 357.61,134.16zM460.92,118.99C461.80,118.99 458.92,115.58 454.38,111.24C449.91,106.98 445.06,101.82 443.60,99.78C442.13,97.73 438.93,94.67 436.47,92.98C434.01,91.29 432.00,89.31 432.00,88.59C432.00,87.87 429.72,84.86 426.93,81.89C424.15,78.93 418.18,71.83 413.68,66.13C409.18,60.42 402.24,51.78 398.26,46.93C394.06,41.80 389.15,37.00 386.55,35.48C384.09,34.03 381.18,33.00 380.09,33.18C378.31,33.47 378.68,34.41 383.56,42.00C386.57,46.67 393.63,58.08 399.26,67.35C404.89,76.62 412.45,90.01 416.06,97.12C419.67,104.23 423.34,110.77 424.22,111.65C425.10,112.53 429.57,113.89 434.16,114.68C438.75,115.47 446.04,116.51 450.36,117.00C454.68,117.49 458.47,118.14 458.78,118.44C459.08,118.75 460.05,119.00 460.92,118.99zM413.42,115.89C414.47,115.95 415.07,115.73 414.74,115.41C414.42,115.09 409.96,114.02 404.83,113.04C399.70,112.06 393.36,110.95 390.75,110.57C387.85,110.15 385.66,109.22 385.12,108.19C384.63,107.26 384.52,98.93 384.87,89.65C385.44,74.48 385.33,72.71 383.82,71.90C382.89,71.41 378.05,71.00 373.05,71.00C363.97,71.00 363.97,71.00 361.99,74.25C360.90,76.04 359.49,79.08 358.87,81.00C358.25,82.92 355.55,90.46 352.87,97.75C350.19,105.04 348.00,111.64 348.00,112.42C348.00,113.60 351.41,113.75 369.25,113.36C384.53,113.02 393.45,113.30 401.00,114.33C406.77,115.13 412.36,115.83 413.42,115.89zM326.41,112.00C326.64,112.00 329.45,111.02 332.66,109.83C335.87,108.63 339.06,107.23 339.75,106.70C340.44,106.18 341.00,105.39 341.00,104.94C341.00,104.50 340.12,103.86 339.05,103.51C337.23,102.94 337.32,102.60 340.45,98.49C342.30,96.07 344.37,92.38 345.05,90.29C345.72,88.21 347.57,83.91 349.15,80.75C351.75,75.56 351.85,75.00 350.20,75.00C349.20,75.00 347.18,76.25 345.71,77.78C344.25,79.30 340.34,85.42 337.03,91.37C333.71,97.32 331.00,102.39 331.00,102.65C331.00,102.90 329.88,104.76 328.50,106.79C327.12,108.81 326.00,110.81 326.00,111.23C326.00,111.65 326.18,112.00 326.41,112.00zM377.50,64.00C383.27,64.00 388.00,63.62 388.00,63.15C388.00,62.69 387.18,61.57 386.19,60.67C385.19,59.76 382.94,58.53 381.19,57.91C379.20,57.22 378.00,56.13 378.00,55.01C378.00,54.02 377.32,52.95 376.50,52.64C375.68,52.32 374.44,52.28 373.75,52.54C373.06,52.81 371.26,54.98 369.75,57.37C368.24,59.76 367.00,62.23 367.00,62.85C367.00,63.64 370.28,64.00 377.50,64.00z"/>
</svg>