<?xml version="1.0" encoding="UTF-8" standalone="no"?>
<svg 
  version="1.1" 
  xmlns="http://www.w3.org/2000/svg" 
  xmlns:xlink="http://www.w3.org/1999/xlink" 
  xmlns:svg="http://www.w3.org/2000/svg"
  xmlns:rdf="http://www.w3.org/1999/02/22-rdf-syntax-ns#"
  xmlns:cc="http://creativecommons.org/ns#"
  xmlns:dc="http://purl.org/dc/elements/1.1/"
  viewBox="0 0 768 768"
  width="768"
  height="768"
>
<style>svg {background-color: white; }</style>"
<metadata id="metadata1">
Created by https://svgstud.io and licensed under CC-BY-SA 4.0 license. Please attribute https://svgstud.io
</metadata>
<metadata id="prompt">
cartoon style!!, monochrome, set of space ships sprites animated for game. Designed for vertical view in the game, plain background
</metadata>
<metadata id="version">
7
</metadata>
<metadata id="metadata2">
<rdf:RDF>
<cc:Work
    rdf:about="">
    <cc:license
    rdf:resource="http://creativecommons.org/licenses/by-sa/4.0/" />
    <dc:creator>
        <cc:Agent>
            <dc:title>https://svgstud.io</dc:title>
        </cc:Agent>
    </dc:creator>
</cc:Work>
<cc:License
    rdf:about="http://creativecommons.org/licenses/by-sa/4.0/">
    <cc:permits
    rdf:resource="http://creativecommons.org/ns#Reproduction" />
    <cc:permits
    rdf:resource="http://creativecommons.org/ns#Distribution" />
    <cc:requires
    rdf:resource="http://creativecommons.org/ns#Notice" />
    <cc:requires
    rdf:resource="http://creativecommons.org/ns#Attribution" />
    <cc:permits
    rdf:resource="http://creativecommons.org/ns#DerivativeWorks" />
    <cc:requires
    rdf:resource="http://creativecommons.org/ns#ShareAlike" />
</cc:License>
</rdf:RDF>
</metadata>
<metadata id="uid">
397aca728a3a693a63a86fbd46b491e654d844455ecbeff24e0dee929c87097f
</metadata>
<path stroke="none" fill="black" fill-rule="evenodd" d="M591.08,713.00C590.11,713.00 588.55,712.16 587.63,711.14C586.70,710.12 584.20,705.68 582.08,701.28C579.95,696.88 577.02,689.39 575.57,684.64C573.44,677.66 572.56,676.00 571.00,676.00C569.50,676.00 568.73,677.21 567.64,681.25C566.86,684.14 565.70,689.03 565.07,692.12C564.43,695.20 563.32,698.55 562.59,699.54C561.34,701.25 561.07,701.26 557.78,699.70C555.87,698.79 553.03,696.13 551.48,693.80C549.24,690.40 548.58,688.08 548.20,682.29C547.91,677.75 547.21,674.59 546.33,673.86C545.26,672.97 544.63,672.97 543.76,673.84C542.88,674.72 543.13,676.81 544.80,682.48C546.01,686.59 547.00,690.90 547.00,692.05C547.00,693.49 546.46,694.04 545.29,693.82C544.34,693.63 542.65,692.13 541.54,690.47C540.42,688.80 538.65,684.08 537.61,679.97C536.56,675.86 535.13,671.82 534.41,670.98C533.70,670.15 532.65,667.40 532.08,664.86C531.51,662.33 530.93,652.31 530.77,642.59C530.51,625.83 530.40,624.90 528.50,624.53C527.40,624.32 521.10,623.64 514.50,623.02C507.90,622.41 497.54,621.04 491.47,619.98C485.40,618.93 476.40,616.91 471.47,615.51C466.54,614.10 459.35,611.42 455.50,609.54C451.65,607.66 446.72,604.29 444.55,602.06C440.92,598.33 440.56,597.47 440.18,591.53C439.83,585.94 440.12,584.47 442.36,580.64C443.79,578.21 448.23,573.31 452.23,569.75C456.23,566.20 463.31,560.48 467.97,557.04C472.63,553.61 479.83,549.11 483.97,547.04C488.11,544.97 495.77,541.63 501.00,539.61C506.23,537.60 513.65,534.76 517.50,533.30C521.35,531.84 525.02,530.16 525.65,529.57C526.28,528.98 528.65,522.28 530.91,514.67C533.18,507.06 537.32,494.91 540.10,487.67C542.89,480.43 548.02,468.55 551.50,461.29C554.98,454.02 560.17,444.70 563.02,440.57C565.87,436.44 570.17,431.25 572.58,429.03C576.25,425.65 577.63,425.00 581.19,425.00C585.10,425.00 585.92,425.51 591.98,431.75C595.59,435.46 601.78,443.29 605.75,449.15C609.72,455.01 617.10,467.39 622.14,476.65C627.19,485.92 633.43,498.45 636.02,504.50C638.60,510.55 641.51,517.98 642.48,521.00C643.44,524.02 644.75,527.03 645.37,527.67C645.99,528.32 651.45,530.26 657.50,531.99C663.55,533.71 675.02,537.17 683.00,539.67C690.98,542.16 700.81,545.72 704.85,547.58C708.90,549.44 714.97,552.84 718.35,555.13C721.73,557.41 727.73,562.16 731.67,565.66C736.30,569.78 739.75,573.87 741.42,577.21C742.84,580.06 744.00,583.99 743.99,585.95C743.99,587.90 742.94,591.23 741.67,593.34C740.39,595.45 737.43,598.69 735.08,600.55C732.73,602.40 726.10,605.75 720.33,607.97C714.56,610.20 703.69,613.57 696.17,615.46C688.65,617.34 673.50,620.28 662.50,621.97C651.50,623.67 641.94,625.25 641.25,625.50C640.36,625.81 639.99,629.02 639.97,636.72C639.95,642.65 639.31,653.58 638.53,661.00C637.76,668.44 636.15,677.42 634.96,681.00C633.77,684.58 632.17,688.71 631.40,690.19C630.64,691.67 629.01,693.58 627.78,694.44C626.56,695.30 624.56,696.00 623.35,696.00C622.14,696.00 620.26,694.88 619.19,693.51C618.11,692.14 616.46,687.98 615.52,684.26C614.58,680.54 613.42,676.49 612.93,675.25C612.44,674.01 611.41,673.00 610.64,673.00C609.87,673.00 608.72,673.63 608.08,674.40C607.45,675.17 605.40,681.35 603.53,688.15C601.66,694.94 599.47,702.08 598.66,704.00C597.85,705.92 596.21,708.74 595.02,710.25C593.83,711.76 592.06,713.00 591.08,713.00zM587.82,694.61C588.96,693.47 589.41,691.11 589.41,686.25C589.41,682.52 589.07,678.92 588.65,678.24C588.23,677.56 586.08,677.00 583.87,677.00C580.34,677.00 579.93,677.24 580.43,679.00C580.74,680.10 581.28,682.01 581.63,683.25C581.97,684.49 583.15,687.91 584.24,690.85C586.05,695.75 586.36,696.07 587.82,694.61zM203.04,693.00C199.92,693.00 198.64,692.36 196.18,689.56C194.52,687.66 191.60,683.28 189.68,679.81C187.76,676.34 185.01,670.12 183.57,666.00C182.12,661.88 180.73,657.91 180.48,657.19C180.15,656.24 179.08,656.60 176.60,658.49C174.72,659.92 171.59,661.35 169.64,661.67C166.60,662.16 165.64,661.80 162.93,659.08C160.01,656.17 159.80,655.50 160.21,650.71C160.45,647.84 161.61,643.48 162.79,641.00C163.96,638.52 166.51,633.63 168.45,630.13C170.39,626.63 171.73,623.37 171.43,622.88C171.13,622.40 166.75,621.99 161.69,621.98C156.64,621.98 145.75,621.53 137.50,620.99C129.25,620.45 116.42,619.30 109.00,618.43C101.58,617.56 90.78,615.96 85.00,614.86C79.22,613.77 72.03,612.19 69.00,611.35C65.97,610.52 61.13,608.97 58.23,607.92C55.33,606.87 50.77,604.90 48.10,603.55C45.43,602.20 39.89,598.42 35.79,595.17C31.69,591.91 27.36,588.00 26.17,586.49C24.98,584.97 23.49,582.03 22.87,579.96C22.25,577.88 22.04,574.98 22.41,573.51C22.78,572.03 24.30,569.70 25.79,568.31C27.28,566.92 30.98,564.54 34.00,563.02C37.02,561.50 44.32,558.64 50.21,556.65C56.10,554.67 67.12,551.49 74.71,549.58C82.29,547.67 92.78,545.16 98.00,544.00C103.22,542.84 108.44,541.28 109.59,540.53C111.12,539.53 111.98,537.36 112.80,532.40C113.61,527.48 114.61,524.94 116.43,523.11C118.53,521.02 120.08,520.54 125.72,520.25C129.45,520.06 133.44,519.71 134.59,519.48C136.02,519.18 137.07,517.72 137.95,514.77C138.65,512.42 140.79,508.14 142.70,505.26C144.62,502.38 149.28,497.15 153.06,493.65C157.38,489.65 163.02,485.74 168.22,483.14C172.77,480.87 179.17,478.33 182.44,477.51C185.70,476.69 188.69,475.51 189.07,474.89C189.45,474.28 189.95,465.73 190.18,455.89C190.56,439.81 190.81,437.73 192.65,435.26C193.78,433.74 195.83,432.10 197.21,431.61C198.59,431.11 200.85,431.00 202.24,431.34C203.62,431.69 205.58,433.22 206.58,434.74C208.08,437.00 208.59,440.86 209.38,456.19C210.35,474.87 210.35,474.87 217.26,476.56C221.07,477.50 228.29,480.26 233.31,482.70C240.70,486.30 243.89,488.62 249.98,494.83C254.85,499.78 258.86,505.06 261.30,509.71C263.37,513.68 265.48,517.18 265.97,517.48C266.47,517.79 270.07,518.44 273.98,518.93C277.88,519.42 282.08,520.48 283.30,521.28C284.71,522.20 286.36,525.35 287.84,529.92C289.48,535.03 290.78,537.38 292.33,538.04C293.52,538.54 300.35,540.29 307.50,541.91C314.65,543.54 327.99,547.14 337.15,549.92C346.31,552.70 357.11,556.15 361.15,557.59C365.19,559.02 372.65,562.21 377.73,564.68C382.80,567.14 388.09,570.50 389.48,572.15C391.15,574.14 392.00,576.36 392.00,578.74C392.00,580.74 390.92,584.17 389.55,586.50C388.21,588.80 384.72,592.50 381.80,594.73C378.89,596.96 373.67,600.19 370.21,601.92C366.75,603.65 358.46,606.64 351.79,608.56C344.30,610.72 331.66,613.19 318.74,615.04C307.22,616.68 285.81,618.95 271.15,620.08C256.49,621.20 244.18,622.44 243.79,622.82C243.40,623.20 244.15,627.61 245.45,632.61C246.75,637.61 248.13,644.19 248.51,647.23C248.97,650.90 248.79,653.55 247.98,655.13C247.31,656.43 245.60,658.74 244.19,660.25C242.78,661.76 240.56,663.00 239.26,663.00C237.96,663.00 235.62,662.34 234.06,661.53C232.51,660.73 229.40,657.99 227.16,655.44C223.08,650.81 223.08,650.81 222.47,653.66C222.13,655.22 220.74,660.55 219.38,665.50C218.03,670.45 215.60,677.34 213.98,680.81C212.37,684.29 210.10,688.45 208.95,690.06C207.26,692.44 206.13,693.00 203.04,693.00zM556.03,687.35C556.49,686.88 557.00,683.80 557.18,680.50C557.48,674.85 557.36,674.48 555.14,674.17C552.85,673.84 552.81,673.98 553.47,679.17C553.84,682.10 554.38,685.33 554.67,686.35C554.96,687.37 555.57,687.82 556.03,687.35zM622.96,686.00C623.39,686.00 624.02,684.31 624.36,682.25C624.70,680.19 624.98,677.49 624.99,676.25C625.00,674.95 624.39,674.00 623.56,674.00C622.77,674.00 621.83,674.47 621.47,675.05C621.12,675.62 621.13,678.32 621.51,681.05C621.88,683.77 622.54,686.00 622.96,686.00zM196.98,678.00C197.46,678.00 198.03,677.21 198.24,676.25C198.45,675.29 198.42,668.38 198.18,660.89C197.90,652.35 198.11,647.05 198.74,646.66C199.33,646.29 200.72,649.81 202.12,655.27C204.50,664.50 204.50,664.50 205.42,659.75C205.92,657.14 206.71,655.00 207.17,655.00C207.63,655.00 208.01,657.59 208.02,660.75C208.03,664.83 208.31,666.06 209.00,665.00C209.53,664.17 211.74,658.10 213.91,651.50C216.09,644.90 218.98,635.67 220.34,631.00C221.70,626.33 223.11,621.11 223.46,619.40C224.09,616.31 224.09,616.31 200.80,615.73C188.00,615.41 177.44,615.23 177.36,615.33C177.27,615.42 177.82,618.80 178.59,622.82C179.36,626.85 180.69,632.93 181.55,636.32C182.41,639.72 184.71,647.67 186.65,654.00C188.59,660.33 191.51,668.31 193.14,671.75C194.77,675.19 196.50,678.00 196.98,678.00zM581.20,670.94C584.34,670.97 589.18,670.51 591.96,669.91C595.13,669.23 597.40,668.12 598.05,666.91C599.00,665.13 598.67,665.00 593.26,665.00C590.06,665.00 583.69,664.53 579.10,663.95C574.51,663.38 570.53,663.13 570.26,663.41C569.98,663.68 570.05,665.07 570.41,666.50C570.77,667.92 572.06,669.49 573.28,669.98C574.50,670.47 578.07,670.90 581.20,670.94zM544.45,667.80C547.44,667.51 547.50,667.40 547.50,662.01C547.50,657.15 547.22,656.39 545.00,655.34C543.62,654.68 541.20,653.83 539.61,653.43C536.73,652.72 536.73,652.72 537.20,658.34C537.49,661.91 538.35,664.73 539.53,666.03C540.81,667.44 542.36,668.00 544.45,667.80zM553.87,667.80C555.48,667.62 556.62,666.78 556.84,665.63C557.03,664.61 556.90,661.79 556.53,659.38C556.05,656.14 555.43,655.00 554.14,655.00C553.18,655.00 551.86,655.54 551.20,656.20C550.54,656.86 550.00,659.07 550.00,661.12C550.00,663.16 550.28,665.57 550.63,666.47C551.04,667.54 552.17,668.00 553.87,667.80zM623.44,668.00C624.78,668.00 626.17,667.54 626.52,666.97C626.86,666.41 627.40,663.49 627.71,660.47C628.26,655.18 628.20,655.00 625.84,655.00C624.50,655.00 622.86,655.54 622.20,656.20C621.54,656.86 621.00,659.78 621.00,662.70C621.00,667.65 621.16,668.00 623.44,668.00zM584.00,657.46C590.33,657.16 597.08,656.58 599.00,656.17C602.33,655.46 602.56,655.14 603.71,649.46C604.37,646.18 605.22,640.24 605.60,636.25C606.28,629.00 606.28,629.00 597.89,629.00C593.27,629.00 584.62,628.47 578.67,627.83C569.82,626.87 567.68,626.90 567.02,627.97C566.57,628.69 566.41,633.83 566.65,639.39C566.90,644.95 567.33,650.99 567.60,652.80C567.93,654.94 568.88,656.44 570.31,657.06C571.54,657.60 577.52,657.78 584.00,657.46zM169.83,651.83C171.39,650.55 173.41,647.70 174.33,645.49C175.25,643.28 176.00,640.21 176.00,638.66C176.00,636.91 175.54,635.99 174.80,636.23C174.15,636.45 172.12,638.79 170.30,641.42C167.93,644.87 167.00,647.33 167.00,650.19C167.00,654.15 167.00,654.15 169.83,651.83zM235.13,653.00C235.61,653.00 236.00,652.44 236.00,651.75C236.00,651.06 234.65,647.65 233.00,644.17C231.22,640.40 229.50,638.00 228.75,638.24C228.06,638.47 227.35,639.68 227.17,640.92C226.99,642.17 227.38,644.51 228.05,646.13C228.72,647.75 230.40,649.95 231.77,651.03C233.14,652.12 234.66,653.00 235.13,653.00zM546.78,648.94C548.92,648.98 550.28,648.44 550.68,647.39C551.04,646.46 549.70,642.77 547.50,638.64C545.41,634.71 543.02,630.71 542.20,629.75C541.37,628.79 539.91,628.00 538.95,628.00C538.00,628.00 536.94,628.71 536.61,629.58C536.27,630.45 536.00,633.17 536.00,635.61C536.00,638.06 536.66,641.63 537.46,643.55C538.26,645.46 539.94,647.45 541.21,647.95C542.47,648.46 544.98,648.90 546.78,648.94zM621.94,648.62C623.83,648.31 626.23,647.22 627.26,646.18C628.30,645.15 629.55,642.55 630.05,640.40C630.55,638.26 630.96,634.59 630.98,632.25C630.99,629.91 630.63,628.00 630.17,628.00C629.72,628.00 628.42,629.01 627.30,630.25C626.17,631.49 623.39,635.91 621.12,640.08C618.86,644.26 617.34,648.01 617.75,648.42C618.16,648.84 620.05,648.93 621.94,648.62zM591.88,639.43C588.88,639.84 586.94,639.59 585.72,638.63C584.12,637.38 584.10,637.17 585.55,636.62C586.44,636.28 589.58,636.00 592.52,636.00C595.47,636.00 598.13,636.40 598.44,636.90C598.74,637.39 598.37,638.03 597.62,638.31C596.87,638.60 594.29,639.11 591.88,639.43zM559.12,637.74C559.67,636.77 559.98,634.07 559.81,631.74C559.53,627.97 559.23,627.50 557.00,627.50C554.91,627.50 554.56,627.91 554.85,630.00C555.04,631.38 555.86,634.08 556.66,636.00C557.94,639.05 558.25,639.27 559.12,637.74zM571.61,615.86C584.32,615.94 596.81,615.71 599.36,615.36C602.27,614.97 604.00,614.23 604.00,613.38C604.00,612.64 602.99,611.83 601.75,611.58C600.51,611.33 594.10,610.87 587.50,610.55C580.90,610.24 559.98,608.62 541.00,606.96C522.02,605.30 501.10,603.03 494.50,601.92C487.90,600.82 477.50,598.62 471.40,597.03C465.29,595.45 457.34,592.81 453.72,591.17C450.10,589.53 446.89,588.45 446.57,588.76C446.26,589.08 446.00,590.34 446.00,591.58C446.00,592.88 447.37,594.98 449.25,596.57C451.04,598.08 454.75,600.35 457.50,601.61C460.25,602.87 467.00,605.03 472.50,606.40C478.00,607.77 487.23,609.56 493.00,610.36C498.77,611.17 509.35,612.35 516.50,612.98C523.65,613.61 533.77,614.48 539.00,614.92C544.23,615.36 558.90,615.79 571.61,615.86zM634.94,613.00C637.10,613.00 645.54,611.86 653.69,610.46C661.83,609.06 670.17,607.48 672.21,606.93C674.25,606.39 676.20,605.48 676.56,604.91C676.91,604.33 676.96,603.62 676.66,603.33C676.36,603.03 667.21,603.98 656.31,605.44C645.41,606.90 635.26,608.34 633.75,608.63C631.89,608.99 631.00,609.78 631.00,611.08C631.00,612.65 631.72,613.00 634.94,613.00zM78.84,604.84C79.03,604.34 77.40,601.56 75.22,598.67C72.88,595.58 69.34,592.40 66.62,590.95C64.08,589.61 62.00,588.17 62.00,587.77C62.00,587.37 63.91,587.26 66.25,587.54C68.59,587.81 79.05,588.75 89.50,589.61C101.81,590.63 126.45,591.37 159.50,591.71C188.68,592.01 226.33,591.75 247.50,591.09C267.85,590.47 293.95,589.30 305.50,588.51C317.05,587.71 332.78,586.36 340.46,585.50C348.14,584.64 358.94,583.28 364.46,582.48C369.98,581.68 376.42,580.50 378.78,579.87C381.13,579.24 383.28,578.36 383.55,577.91C383.83,577.47 383.17,576.62 382.08,576.04C380.63,575.27 374.11,575.64 357.80,577.43C345.54,578.77 324.02,580.57 310.00,581.42C295.98,582.28 273.02,583.50 259.00,584.15C244.97,584.79 213.03,585.30 188.00,585.28C157.17,585.25 134.28,584.70 117.00,583.59C102.97,582.68 84.08,581.25 75.00,580.40C65.92,579.55 52.21,577.80 44.52,576.51C36.84,575.22 30.20,574.38 29.77,574.64C29.35,574.90 29.00,576.21 29.00,577.54C29.00,579.01 29.97,580.59 31.50,581.59C32.88,582.50 39.63,584.15 46.50,585.27C53.38,586.39 59.00,587.66 59.00,588.08C59.00,588.51 58.21,589.02 57.25,589.22C55.90,589.50 57.01,591.10 62.08,596.21C67.13,601.30 69.79,603.17 73.58,604.29C76.28,605.09 78.66,605.33 78.84,604.84zM186.00,605.92C192.32,605.95 202.53,605.55 208.68,605.04C214.83,604.53 221.48,603.81 223.47,603.44C225.46,603.07 226.87,602.53 226.59,602.25C226.31,601.98 213.84,601.42 198.87,601.01C183.90,600.61 170.82,600.50 169.80,600.76C168.29,601.16 168.18,601.51 169.19,602.73C169.87,603.55 171.35,604.59 172.47,605.05C173.58,605.50 179.68,605.89 186.00,605.92zM336.25,604.44C337.49,604.06 339.62,603.17 341.00,602.46C342.38,601.75 346.10,598.59 349.28,595.45C352.46,592.30 354.86,589.53 354.61,589.28C354.37,589.04 351.70,589.14 348.68,589.52C343.26,590.20 343.12,590.30 338.59,596.87C336.07,600.53 334.00,603.89 334.00,604.33C334.00,604.77 335.01,604.82 336.25,604.44zM590.50,603.49C613.72,603.28 628.78,602.66 638.00,601.56C645.42,600.67 659.15,598.60 668.50,596.95C677.85,595.31 690.67,592.84 697.00,591.45C703.33,590.07 712.66,587.56 717.73,585.89C722.81,584.21 727.95,582.05 729.15,581.08C730.50,579.98 731.10,578.70 730.71,577.70C730.37,576.81 728.22,574.72 725.93,573.07C722.89,570.86 721.32,570.29 720.09,570.95C719.16,571.45 714.83,572.76 710.45,573.87C706.08,574.97 695.98,577.23 688.00,578.87C680.02,580.52 668.77,582.55 663.00,583.40C657.23,584.25 648.23,585.42 643.00,586.01C637.77,586.60 627.88,587.52 621.00,588.06C614.12,588.60 596.35,589.04 581.50,589.03C565.84,589.02 547.57,588.39 538.00,587.52C528.92,586.71 515.97,585.13 509.22,584.02C502.47,582.90 491.89,580.36 485.72,578.38C479.55,576.39 472.38,573.69 469.78,572.38C467.19,571.07 464.38,570.00 463.54,570.00C462.70,570.00 458.99,572.87 455.29,576.38C449.40,581.95 448.72,582.96 449.89,584.37C450.63,585.26 454.67,587.07 458.87,588.39C463.07,589.72 471.68,591.95 478.00,593.36C484.32,594.76 497.82,597.03 508.00,598.38C518.17,599.74 531.67,601.34 538.00,601.93C544.33,602.52 551.08,603.19 553.00,603.41C554.92,603.63 571.80,603.67 590.50,603.49zM580.55,584.86C593.23,584.94 609.65,584.53 617.05,583.96C624.45,583.39 635.90,582.24 642.50,581.40C649.10,580.56 659.56,579.01 665.76,577.95C671.95,576.90 681.62,574.88 687.26,573.47C692.89,572.06 701.21,569.79 705.75,568.42C710.91,566.87 714.00,565.42 714.00,564.55C714.00,563.79 712.31,561.84 710.25,560.21C708.19,558.59 704.25,556.15 701.50,554.80C698.75,553.44 693.80,551.37 690.50,550.19C687.20,549.01 681.13,547.14 677.02,546.02C672.91,544.91 668.18,544.04 666.52,544.08C664.86,544.12 664.17,544.41 665.00,544.73C665.83,545.04 666.73,545.61 667.00,545.99C667.27,546.36 668.40,547.18 669.50,547.81C671.17,548.75 671.22,548.94 669.81,548.97C668.88,548.99 667.84,548.55 667.50,548.00C667.16,547.45 666.46,547.00 665.94,547.00C665.42,547.00 665.00,547.66 665.00,548.47C665.00,549.28 667.50,551.78 670.56,554.04C674.13,556.68 676.00,558.75 675.80,559.82C675.62,560.74 673.00,562.97 669.99,564.78C666.97,566.58 661.58,568.92 658.00,569.98C654.42,571.04 647.00,572.81 641.50,573.91C636.00,575.02 627.90,576.40 623.50,576.99C619.10,577.59 608.30,578.34 599.50,578.67C590.70,578.99 574.78,578.73 564.13,578.08C553.47,577.43 539.88,576.02 533.93,574.94C527.97,573.87 519.94,571.82 516.08,570.39C512.23,568.96 507.95,566.75 506.58,565.48C505.20,564.21 503.79,561.99 503.42,560.56C502.93,558.59 503.48,556.95 505.63,553.94C507.21,551.74 509.05,548.94 509.72,547.72C510.53,546.24 510.59,545.38 509.90,545.14C509.32,544.95 506.08,545.79 502.68,547.01C499.28,548.23 492.04,551.51 486.58,554.30C481.12,557.08 475.16,560.68 473.33,562.28C471.50,563.89 470.00,565.82 470.00,566.58C470.00,567.33 471.42,568.68 473.16,569.58C474.90,570.48 478.72,572.04 481.64,573.05C484.57,574.06 492.71,576.01 499.73,577.39C506.75,578.77 517.45,580.60 523.50,581.46C529.55,582.32 539.67,583.41 546.00,583.87C552.33,584.34 567.87,584.78 580.55,584.86zM186.50,578.41C215.10,578.21 250.43,577.59 265.00,577.03C279.57,576.47 302.07,575.31 315.00,574.45C327.93,573.59 344.77,572.24 352.44,571.45C360.11,570.66 366.80,569.60 367.32,569.08C367.91,568.49 366.81,567.53 364.38,566.51C362.25,565.61 352.06,562.22 341.75,558.98C331.43,555.74 321.31,552.78 319.25,552.39C315.50,551.70 315.50,551.70 320.44,556.19C325.39,560.68 325.39,560.68 314.44,561.31C308.43,561.66 290.76,562.48 275.18,563.13C247.37,564.29 246.83,564.27 244.86,562.30C243.76,561.20 240.52,556.74 237.68,552.40C232.50,544.50 232.50,544.50 207.62,544.23C189.88,544.04 182.35,544.30 181.35,545.12C180.58,545.76 178.10,549.85 175.83,554.22C173.56,558.58 170.61,562.86 169.29,563.73C167.19,565.10 164.02,565.22 144.69,564.60C132.49,564.21 116.97,563.53 110.22,563.08C103.46,562.63 97.65,561.99 97.31,561.64C96.96,561.30 97.40,560.22 98.27,559.26C99.15,558.29 101.32,556.64 103.10,555.60C105.79,554.01 106.23,553.96 105.73,555.26C105.36,556.22 105.79,557.10 106.81,557.51C107.74,557.88 118.33,558.59 130.34,559.08C144.32,559.65 152.82,559.63 153.99,559.01C154.98,558.47 157.64,555.33 159.90,552.03C162.15,548.73 164.00,545.63 164.00,545.14C164.00,544.66 161.41,543.99 158.25,543.66C155.09,543.33 145.49,542.76 136.92,542.39C121.33,541.73 121.33,541.73 113.92,545.33C108.59,547.91 98.88,550.79 79.50,555.52C64.65,559.14 48.71,563.54 44.07,565.30C39.44,567.06 35.48,569.01 35.28,569.63C35.08,570.25 35.95,571.02 37.22,571.34C38.49,571.66 46.50,572.60 55.02,573.43C63.53,574.25 81.97,575.63 96.00,576.47C110.03,577.32 124.42,578.19 128.00,578.39C131.57,578.60 157.90,578.61 186.50,578.41zM581.00,573.31C592.27,573.05 603.52,572.53 606.00,572.15C610.50,571.46 610.50,571.46 610.33,566.61C610.23,563.94 609.89,560.68 609.56,559.38C608.96,557.00 608.96,557.00 590.73,556.96C580.70,556.94 568.00,556.52 562.50,556.02C554.89,555.34 552.20,555.41 551.24,556.35C550.55,557.03 549.33,560.71 548.53,564.53C547.73,568.35 547.40,571.79 547.79,572.18C548.18,572.57 551.20,573.09 554.50,573.33C557.80,573.57 569.73,573.56 581.00,573.31zM620.62,572.00C621.88,572.00 624.08,571.47 625.51,570.81C627.50,569.90 627.99,569.11 627.57,567.44C627.27,566.24 626.51,561.79 625.88,557.56C625.00,551.63 625.01,549.59 625.94,548.68C626.86,547.77 627.43,547.90 628.42,549.23C629.12,550.19 630.91,554.77 632.39,559.42C635.08,567.87 635.08,567.87 638.04,566.84C640.26,566.06 641.00,565.18 641.00,563.30C641.00,561.92 640.31,558.12 639.46,554.85C638.62,551.59 638.03,547.13 638.16,544.95C638.29,542.77 637.90,540.50 637.30,539.90C636.51,539.11 633.61,539.29 626.86,540.55C620.35,541.75 610.25,542.42 593.66,542.75C579.20,543.03 565.41,542.76 558.60,542.05C552.42,541.42 544.15,540.07 540.22,539.06C534.92,537.69 532.83,537.51 532.15,538.36C531.64,538.99 530.02,544.74 528.54,551.15C527.06,557.56 526.00,564.07 526.17,565.62C526.41,567.61 527.22,568.62 529.00,569.11C530.38,569.49 533.54,569.85 536.04,569.90C540.58,570.00 540.58,570.00 542.25,562.88C543.17,558.97 544.58,554.77 545.37,553.56C546.82,551.35 546.82,551.35 579.16,551.77C603.56,552.09 611.75,552.50 612.50,553.45C613.05,554.15 614.59,558.60 615.91,563.36C618.05,571.00 618.59,572.00 620.62,572.00zM517.94,564.64C518.73,564.56 519.75,562.92 520.20,561.00C520.66,559.07 522.18,553.30 523.60,548.17C525.01,543.03 525.92,538.59 525.63,538.30C525.33,538.00 523.95,538.05 522.55,538.40C520.83,538.83 519.26,540.54 517.65,543.77C516.34,546.37 514.50,550.88 513.54,553.80C512.59,556.71 512.08,560.17 512.40,561.47C512.73,562.78 513.79,564.06 514.75,564.32C515.71,564.58 517.15,564.72 517.94,564.64zM654.87,561.00C655.27,561.00 656.14,560.46 656.80,559.80C657.46,559.14 657.97,557.23 657.94,555.55C657.91,553.87 656.90,549.84 655.69,546.59C654.37,543.04 652.41,539.88 650.77,538.66C649.26,537.55 647.73,536.94 647.35,537.31C646.98,537.69 647.41,540.65 648.31,543.90C649.21,547.14 650.89,552.32 652.05,555.40C653.20,558.48 654.47,561.00 654.87,561.00zM259.08,558.00C261.05,558.00 262.94,557.73 263.26,557.40C263.59,557.07 262.57,554.70 260.98,552.12C259.40,549.55 256.98,546.39 255.61,545.10C253.55,543.17 252.48,542.88 249.47,543.44C247.00,543.90 246.00,544.55 246.35,545.47C246.63,546.21 248.81,549.33 251.18,552.40C255.00,557.34 255.92,557.99 259.08,558.00zM309.41,556.00C312.35,556.00 312.35,556.00 310.01,553.51C308.72,552.14 305.73,550.08 303.37,548.94C301.00,547.79 298.04,547.00 296.78,547.18C294.51,547.50 294.51,547.51 297.29,550.00C298.83,551.38 301.52,553.29 303.28,554.25C305.03,555.21 307.79,556.00 309.41,556.00zM137.50,549.00C130.07,549.00 124.00,548.71 124.00,548.36C124.00,548.01 124.79,547.12 125.75,546.39C126.90,545.52 130.64,545.05 136.68,545.03C141.74,545.01 147.02,545.44 148.43,545.98C149.85,546.51 151.00,547.41 151.00,547.98C151.00,548.62 146.05,549.00 137.50,549.00zM196.00,537.39C221.03,537.16 243.97,536.64 246.99,536.23C251.59,535.62 252.69,535.07 253.75,532.84C255.02,530.19 255.02,530.19 260.26,531.75C263.14,532.61 268.76,533.50 272.75,533.74C279.63,534.14 280.00,534.05 280.00,532.01C280.00,530.83 279.58,529.09 279.08,528.14C278.22,526.53 272.99,526.42 200.23,526.46C134.56,526.49 122.04,526.72 120.60,527.91C119.51,528.82 119.01,530.44 119.20,532.41C119.50,535.50 119.50,535.50 132.00,536.22C138.88,536.62 145.85,537.14 147.50,537.38C149.15,537.62 170.97,537.62 196.00,537.39zM579.43,538.00C587.40,538.00 598.55,537.50 604.21,536.89C609.87,536.28 615.34,535.34 616.37,534.79C617.97,533.95 618.14,533.07 617.56,528.65C617.19,525.82 615.97,519.00 614.84,513.50C613.71,508.00 612.35,502.68 611.82,501.69C611.06,500.24 610.21,500.02 607.68,500.60C605.93,501.01 596.41,501.37 586.52,501.42C568.55,501.50 568.55,501.50 566.23,518.43C564.96,527.73 564.15,535.95 564.43,536.68C564.82,537.69 568.32,538.00 579.43,538.00zM554.97,536.69C558.20,536.51 558.50,536.21 559.14,532.50C559.51,530.30 560.87,522.88 562.15,516.00C563.43,509.12 564.49,502.86 564.49,502.09C564.50,501.13 561.46,499.93 555.10,498.37C549.93,497.10 545.34,496.29 544.90,496.56C544.45,496.84 542.08,503.24 539.62,510.78C537.17,518.33 534.85,526.18 534.47,528.22C533.87,531.50 534.07,532.07 536.14,533.00C537.44,533.58 541.42,534.69 545.00,535.47C548.58,536.25 553.06,536.80 554.97,536.69zM590.88,528.74C586.39,528.99 583.61,528.63 581.50,527.51C579.85,526.63 577.94,525.17 577.25,524.27C576.56,523.36 576.00,520.88 576.00,518.76C576.00,516.64 576.64,513.67 577.41,512.16C578.19,510.66 579.88,508.88 581.16,508.20C582.45,507.52 584.95,506.56 586.73,506.06C588.71,505.50 591.30,505.52 593.42,506.10C595.32,506.63 598.03,508.43 599.44,510.11C601.42,512.46 602.00,514.26 602.00,518.02C602.00,521.70 601.42,523.56 599.63,525.64C597.60,528.00 596.38,528.44 590.88,528.74zM627.17,526.00C627.74,526.00 627.84,524.07 627.43,521.25C627.05,518.64 625.80,513.58 624.65,510.00C622.75,504.12 622.52,503.81 622.22,506.71C622.03,508.47 622.86,513.54 624.05,517.96C625.24,522.38 626.65,526.00 627.17,526.00zM187.50,521.38C201.25,521.16 221.05,520.49 231.50,519.89C241.95,519.30 250.86,518.48 251.29,518.07C251.73,517.65 251.32,516.68 250.39,515.91C249.13,514.87 245.41,514.49 236.10,514.47C229.17,514.45 211.57,513.84 197.00,513.12C182.43,512.39 167.03,511.81 162.80,511.81C157.12,511.82 154.77,511.42 153.84,510.30C152.80,509.05 152.92,508.53 154.54,507.34C155.66,506.52 157.35,506.18 158.50,506.56C159.60,506.92 174.34,507.44 191.25,507.72C222.00,508.23 222.00,508.23 222.00,505.94C222.00,504.69 221.26,502.83 220.35,501.83C218.87,500.20 216.93,500.00 202.90,500.00C193.68,500.00 186.87,499.59 186.51,499.02C186.18,498.48 186.45,497.02 187.12,495.77C187.79,494.52 190.85,490.85 193.92,487.62C199.50,481.73 199.50,481.73 191.63,482.22C184.64,482.66 182.63,483.29 173.56,487.87C167.89,490.74 160.83,495.29 157.66,498.11C154.53,500.91 150.02,505.96 147.64,509.35C145.26,512.73 143.03,516.27 142.70,517.22C142.36,518.16 142.63,519.29 143.29,519.72C143.96,520.15 148.55,520.79 153.50,521.15C158.45,521.50 173.75,521.61 187.50,521.38zM235.33,509.00C238.23,509.00 241.12,508.48 241.75,507.85C242.61,506.99 242.56,506.04 241.51,504.03C240.75,502.56 239.51,500.84 238.74,500.20C237.86,499.47 235.48,499.27 232.18,499.67C228.68,500.08 227.00,500.74 227.00,501.69C227.00,502.46 227.69,504.43 228.53,506.05C229.92,508.75 230.50,509.00 235.33,509.00zM579.38,495.91C589.72,495.97 598.60,495.44 604.88,494.39C610.17,493.50 614.86,492.45 615.31,492.04C615.75,491.63 614.13,486.84 611.71,481.39C609.29,475.95 606.18,469.28 604.79,466.56C602.27,461.61 602.27,461.61 585.88,461.52C576.87,461.48 567.25,461.07 564.50,460.63C559.50,459.82 559.50,459.82 555.27,468.66C552.94,473.52 549.92,480.50 548.56,484.16C546.45,489.85 546.29,491.00 547.50,492.00C548.28,492.65 552.20,493.77 556.21,494.50C560.22,495.22 570.64,495.86 579.38,495.91zM209.25,494.53C217.09,494.20 225.45,493.68 227.84,493.39C231.83,492.89 232.05,492.72 230.65,491.17C229.81,490.24 226.57,488.19 223.44,486.60C220.32,485.02 215.85,483.51 213.52,483.25C210.69,482.93 208.05,483.36 205.54,484.55C203.48,485.52 200.27,487.77 198.40,489.53C196.53,491.29 195.00,493.28 195.00,493.94C195.00,494.85 198.48,494.99 209.25,494.53zM197.75,475.81C199.33,475.51 199.53,473.71 199.77,457.52C199.92,447.65 199.80,438.91 199.49,438.11C199.01,436.85 198.70,436.87 197.33,438.25C196.03,439.54 195.63,443.02 195.23,456.34C194.95,465.42 195.01,473.58 195.36,474.49C195.71,475.40 196.78,476.00 197.75,475.81zM403.56,463.00C402.30,463.00 400.14,462.11 398.75,461.02C397.28,459.86 394.28,454.57 391.52,448.27C388.93,442.35 386.63,437.32 386.41,437.09C386.19,436.86 385.15,437.46 384.11,438.40C383.06,439.35 381.97,439.76 381.69,439.30C381.40,438.84 382.52,432.93 384.16,426.16C385.81,419.38 386.91,413.20 386.61,412.42C386.21,411.39 384.25,411.00 379.51,411.00C372.96,411.00 372.96,411.00 373.59,420.25C374.05,427.16 373.79,431.27 372.56,436.50C371.66,440.35 369.78,445.97 368.40,449.00C367.02,452.02 364.93,455.51 363.77,456.75C362.60,457.99 360.86,459.00 359.90,459.00C358.94,459.00 356.83,457.89 355.22,456.53C353.60,455.17 350.57,450.78 348.49,446.78C346.41,442.77 344.53,439.29 344.30,439.03C344.08,438.77 342.76,440.01 341.37,441.78C339.59,444.06 338.03,445.00 336.02,445.00C334.09,445.00 332.37,444.04 330.67,442.02C329.29,440.38 327.05,436.67 325.69,433.77C324.33,430.87 322.43,425.23 321.47,421.23C320.20,415.97 319.87,411.68 320.25,405.73C320.61,400.17 321.96,393.90 324.39,386.40C326.38,380.30 328.00,374.80 328.00,374.18C328.00,373.55 326.17,372.11 323.93,370.97C321.69,369.82 317.76,368.66 315.18,368.38C312.53,368.08 302.71,369.00 292.50,370.49C282.60,371.94 270.00,373.38 264.50,373.69C255.06,374.23 254.18,374.47 248.82,378.00C244.75,380.69 241.56,381.95 237.55,382.45C234.47,382.83 230.50,382.85 228.73,382.48C226.95,382.11 223.55,380.68 221.16,379.31C218.40,377.72 216.31,375.58 215.41,373.44C214.43,371.10 214.01,365.99 214.02,356.78C214.03,349.48 214.49,340.35 215.04,336.50C215.59,332.65 216.97,326.66 218.12,323.20C219.26,319.73 221.62,315.01 223.36,312.70C226.12,309.04 229.91,306.78 253.01,295.00C279.50,281.50 279.50,281.50 280.11,265.50C280.45,256.70 280.79,248.71 280.86,247.75C280.94,246.79 282.64,244.19 284.65,241.97C286.65,239.75 293.97,234.41 300.90,230.11C307.83,225.80 317.77,219.89 323.00,216.97C328.23,214.04 333.51,210.75 334.75,209.65C336.68,207.93 337.00,206.65 337.00,200.58C337.00,196.68 337.47,186.07 338.03,177.00C338.60,167.93 339.94,151.72 341.02,141.00C342.09,130.28 344.07,115.78 345.42,108.78C346.77,101.78 349.04,91.78 350.46,86.54C351.89,81.31 354.58,73.03 356.45,68.14C358.31,63.25 361.02,56.91 362.47,54.05C363.92,51.19 367.10,45.74 369.54,41.94C371.97,38.14 375.77,33.23 377.98,31.02C380.84,28.16 382.84,27.00 384.92,27.00C387.17,27.00 388.79,28.10 391.94,31.75C394.19,34.36 398.23,41.00 400.91,46.50C403.60,52.00 407.82,62.12 410.30,69.00C412.78,75.88 416.42,88.03 418.39,96.00C420.36,103.97 423.08,116.60 424.44,124.06C425.79,131.51 427.83,145.69 428.95,155.56C430.08,165.43 431.00,179.17 431.00,186.10C431.00,193.04 431.29,201.47 431.64,204.85C432.28,210.98 432.28,210.98 447.89,220.56C456.48,225.83 466.94,232.56 471.14,235.52C476.95,239.61 479.30,241.99 480.99,245.48C482.88,249.38 483.31,252.43 483.86,265.79C484.50,281.50 484.50,281.50 497.00,288.03C503.88,291.62 514.63,297.47 520.91,301.03C527.18,304.59 534.24,309.36 536.59,311.64C539.84,314.80 541.35,317.38 542.94,322.54C544.09,326.26 545.51,332.41 546.10,336.22C546.69,340.02 547.02,350.18 546.83,358.81C546.55,371.17 546.12,375.16 544.79,377.61C543.86,379.32 541.61,381.34 539.80,382.11C537.98,382.87 533.80,383.49 530.50,383.47C526.52,383.46 522.99,382.74 520.00,381.33C516.59,379.72 512.73,379.07 504.00,378.62C497.68,378.30 487.31,377.13 480.97,376.03C474.63,374.93 464.89,373.64 459.33,373.17C453.77,372.70 447.78,372.53 446.01,372.78C443.07,373.22 442.85,373.51 443.26,376.38C443.50,378.09 444.97,384.00 446.51,389.50C448.80,397.69 449.32,401.58 449.37,411.00C449.42,420.34 449.04,423.56 447.34,428.13C446.18,431.23 443.73,436.06 441.89,438.88C440.04,441.69 437.11,444.67 435.37,445.50C433.62,446.32 431.18,447.00 429.94,447.00C428.63,447.00 426.17,445.40 424.06,443.18C420.43,439.37 420.43,439.37 416.05,448.73C413.58,454.01 410.40,459.17 408.76,460.55C407.16,461.90 404.82,463.00 403.56,463.00zM575.00,456.83C580.23,456.82 586.75,456.27 589.50,455.62C593.94,454.56 594.47,454.16 594.22,451.99C594.07,450.65 592.12,446.76 589.90,443.34C587.67,439.93 584.78,435.98 583.47,434.56C582.17,433.15 580.64,432.00 580.08,432.00C579.53,432.00 577.49,433.39 575.55,435.09C573.61,436.79 570.00,441.44 567.51,445.42C565.03,449.41 563.00,453.38 563.00,454.25C563.00,455.12 563.56,456.06 564.25,456.34C564.94,456.62 569.77,456.83 575.00,456.83zM402.61,454.00C402.81,454.00 404.26,451.41 405.85,448.25C407.43,445.09 409.68,439.57 410.86,436.00C412.03,432.43 413.43,426.12 413.97,422.00C414.50,417.88 414.95,412.99 414.97,411.13C415.00,407.77 415.00,407.77 408.25,408.46C404.54,408.85 399.78,409.53 397.67,409.99C395.57,410.45 393.59,411.07 393.29,411.38C392.98,411.68 393.29,417.01 393.98,423.22C394.66,429.42 396.32,438.31 397.67,442.97C399.02,447.63 400.60,452.01 401.18,452.72C401.77,453.42 402.41,454.00 402.61,454.00zM357.06,448.00C357.53,448.00 359.09,444.29 360.52,439.75C361.96,435.21 363.77,428.80 364.55,425.50C365.33,422.20 365.98,417.40 365.99,414.83C366.00,410.16 366.00,410.16 359.05,408.58C355.23,407.71 350.96,407.00 349.55,407.00C347.06,407.00 347.00,407.17 347.00,413.93C347.00,417.75 347.68,424.16 348.51,428.18C349.34,432.21 350.56,436.85 351.22,438.50C351.87,440.15 353.26,442.96 354.30,444.75C355.35,446.54 356.58,448.00 357.06,448.00zM430.69,434.03C431.47,432.92 432.94,429.58 433.96,426.61C434.98,423.64 436.38,417.77 437.05,413.57C437.73,409.37 438.02,402.92 437.70,399.22C437.37,395.52 436.37,390.36 435.46,387.75C434.55,385.14 433.37,383.00 432.82,383.00C432.19,383.00 432.08,385.68 432.51,390.30C433.03,395.86 432.88,397.85 431.85,398.70C431.11,399.31 429.38,399.96 428.00,400.15C425.52,400.50 425.50,400.58 425.22,411.97C425.06,418.28 425.41,425.68 425.99,428.41C426.58,431.13 427.56,433.97 428.17,434.70C429.08,435.80 429.54,435.68 430.69,434.03zM334.01,431.93C334.44,431.14 335.27,427.35 335.85,423.50C336.44,419.65 337.21,412.23 337.57,407.00C337.93,401.77 338.85,394.43 339.62,390.68C340.38,386.94 341.00,381.87 341.00,379.43C341.00,375.06 340.95,375.00 337.62,375.00C334.25,375.00 334.25,375.00 330.42,386.75C327.78,394.87 326.48,400.86 326.20,406.15C325.92,411.42 326.32,415.60 327.49,419.62C328.42,422.82 330.09,427.22 331.20,429.40C332.70,432.32 333.43,432.98 334.01,431.93zM382.00,402.37C387.77,402.11 397.00,401.46 402.50,400.90C409.06,400.24 412.88,399.40 413.61,398.45C414.22,397.65 414.97,393.07 415.28,388.25C415.59,383.44 415.54,379.20 415.17,378.83C414.80,378.45 411.12,378.53 407.00,379.00C402.70,379.49 392.31,379.45 382.64,378.91C373.36,378.39 362.78,377.53 359.14,377.00C355.49,376.47 351.42,376.03 350.10,376.02C347.70,376.00 347.70,376.00 348.28,386.25C348.60,391.89 349.16,397.26 349.52,398.19C349.87,399.12 351.59,400.19 353.33,400.58C355.08,400.96 359.88,401.62 364.00,402.05C368.12,402.47 376.23,402.62 382.00,402.37zM530.63,372.92C533.33,372.97 535.23,372.43 536.13,371.35C537.17,370.08 537.50,365.63 537.49,352.60C537.48,337.61 537.18,334.45 535.08,327.00C533.10,319.95 531.97,317.78 528.48,314.25C526.16,311.91 523.59,310.00 522.77,310.00C521.60,310.00 521.15,312.07 520.66,319.75C520.31,325.11 519.73,338.81 519.36,350.19C518.70,370.89 518.70,370.89 521.60,371.53C523.19,371.88 524.95,372.33 525.50,372.51C526.05,372.69 528.36,372.88 530.63,372.92zM230.01,372.00C234.41,372.00 237.17,371.55 237.69,370.75C238.14,370.06 238.80,359.15 239.16,346.50C239.55,332.82 240.41,320.56 241.29,316.24C242.11,312.24 242.38,308.73 241.90,308.44C241.42,308.14 239.10,308.75 236.75,309.79C234.40,310.83 231.05,313.10 229.31,314.85C227.56,316.59 225.24,320.41 224.15,323.34C223.05,326.27 221.67,332.15 221.08,336.41C220.48,340.66 220.00,349.71 220.00,356.50C220.00,366.40 220.31,369.17 221.57,370.43C222.69,371.55 225.10,372.00 230.01,372.00zM378.00,369.86C382.68,369.93 392.57,369.54 400.00,368.98C407.43,368.43 417.44,367.26 422.26,366.38C427.07,365.51 431.26,364.38 431.57,363.89C431.88,363.39 431.84,362.08 431.49,360.98C431.15,359.88 428.18,355.37 424.91,350.95C419.09,343.11 418.86,342.93 415.00,343.15C412.83,343.28 410.81,343.15 410.52,342.85C410.22,342.55 410.43,324.13 410.98,301.91C411.53,279.68 411.98,250.32 411.99,236.66C412.00,211.83 412.00,211.83 404.25,212.66C399.99,213.12 389.75,213.44 381.50,213.36C372.04,213.27 363.73,212.62 359.00,211.61C354.88,210.72 350.99,210.00 350.36,210.00C349.73,210.00 348.93,211.13 348.59,212.52C348.24,213.90 347.94,242.00 347.92,274.96C347.90,307.92 348.19,336.48 348.55,338.44C349.22,342.00 349.22,342.00 344.57,342.00C340.03,342.00 339.71,342.21 331.48,350.75C326.83,355.56 323.03,360.27 323.02,361.21C323.01,362.16 323.92,363.42 325.04,364.02C326.17,364.63 332.27,365.79 338.60,366.62C344.93,367.44 354.47,368.48 359.80,368.92C365.14,369.36 373.32,369.78 378.00,369.86zM504.14,369.89C508.44,369.97 509.93,369.62 510.39,368.42C510.73,367.55 511.00,363.98 511.00,360.49C511.00,355.30 510.68,354.04 509.25,353.62C508.29,353.34 504.80,352.63 501.50,352.04C498.20,351.46 493.02,350.31 490.00,349.50C486.98,348.69 483.95,348.02 483.29,348.01C482.62,348.01 481.59,349.91 480.99,352.25C480.39,354.59 479.16,358.63 478.26,361.23C477.36,363.83 476.93,366.26 477.30,366.64C477.68,367.01 482.60,367.87 488.24,368.55C493.88,369.22 501.04,369.83 504.14,369.89zM257.94,366.00C261.06,366.00 264.33,365.44 265.20,364.75C266.50,363.72 266.69,362.01 266.26,355.14C265.73,346.78 265.73,346.78 260.83,347.43C258.13,347.79 254.81,348.50 253.46,349.01C251.37,349.81 251.00,350.60 251.01,354.23C251.02,356.58 251.30,360.19 251.64,362.25C252.26,366.00 252.26,366.00 257.94,366.00zM273.98,364.00C274.50,364.00 278.25,363.51 282.31,362.90C286.38,362.30 290.21,361.49 290.84,361.10C291.66,360.59 291.37,357.98 289.82,351.70C288.64,346.92 287.41,343.01 287.09,343.02C286.76,343.04 283.35,343.85 279.50,344.83C272.50,346.62 272.50,346.62 272.20,353.03C272.03,356.55 272.15,360.46 272.47,361.72C272.78,362.97 273.46,364.00 273.98,364.00zM462.07,362.92C469.63,363.00 469.63,363.00 471.27,357.75C472.17,354.86 473.36,349.57 473.91,346.00C474.46,342.43 475.00,328.28 475.11,314.56C475.31,290.83 475.23,289.59 473.41,288.88C472.36,288.47 463.48,286.47 453.68,284.43C442.45,282.10 435.52,281.08 434.92,281.68C434.38,282.22 433.87,294.81 433.74,311.06C433.54,335.03 433.74,339.93 435.03,342.25C435.87,343.77 439.47,348.59 443.03,352.97C446.59,357.34 450.62,361.36 452.00,361.88C453.38,362.41 457.91,362.88 462.07,362.92zM306.17,358.00C309.43,358.00 313.31,357.37 314.80,356.60C316.28,355.83 320.65,351.97 324.50,348.01C328.35,344.06 333.65,339.40 336.28,337.66C341.05,334.50 341.05,334.50 341.44,278.00C341.66,246.93 342.10,220.38 342.43,219.00C342.75,217.62 342.62,215.88 342.13,215.13C341.43,214.06 336.42,216.66 319.22,227.00C307.12,234.28 295.03,241.89 292.36,243.91C287.50,247.58 287.50,247.58 287.22,263.29C286.98,277.20 287.13,279.00 288.57,279.00C289.45,279.00 297.23,276.75 305.84,274.00C314.45,271.26 323.65,268.61 326.27,268.13C329.12,267.60 331.27,267.62 331.60,268.17C331.92,268.67 331.62,269.75 330.96,270.55C330.29,271.36 322.71,274.24 314.12,276.95C305.53,279.66 295.92,282.61 292.76,283.51C289.61,284.40 286.61,285.88 286.10,286.79C285.49,287.87 285.62,289.31 286.48,290.97C287.20,292.37 288.30,300.63 288.93,309.42C289.57,318.17 290.32,325.71 290.60,326.17C290.89,326.62 291.70,327.00 292.41,327.00C293.32,327.00 293.88,329.57 294.30,335.75C294.63,340.56 295.64,346.98 296.55,350.00C297.46,353.02 298.66,356.06 299.22,356.75C299.83,357.49 302.64,358.00 306.17,358.00zM458.21,352.00C453.70,352.00 451.63,351.50 449.61,349.91C448.15,348.76 446.29,346.54 445.48,344.96C444.67,343.39 444.00,340.47 444.00,338.48C444.00,336.50 444.51,333.89 445.12,332.68C445.74,331.48 447.16,329.50 448.27,328.28C449.38,327.06 451.83,325.55 453.71,324.93C455.59,324.31 458.66,324.09 460.54,324.44C462.41,324.79 465.30,326.22 466.95,327.61C468.65,329.05 470.42,331.85 471.02,334.07C471.78,336.88 471.76,339.18 470.96,342.16C470.34,344.44 468.56,347.59 467.00,349.16C464.51,351.64 463.41,352.00 458.21,352.00zM316.50,347.20C314.85,347.47 311.84,347.39 309.80,347.01C307.77,346.64 305.34,345.69 304.40,344.92C303.46,344.14 302.08,342.05 301.35,340.28C300.61,338.51 300.00,335.69 300.00,334.00C300.00,332.31 300.64,329.41 301.42,327.53C302.21,325.64 304.19,323.44 305.87,322.57C307.54,321.70 311.30,321.00 314.23,321.00C317.29,321.00 320.45,321.62 321.65,322.47C322.80,323.27 324.47,325.48 325.37,327.37C326.27,329.26 327.00,332.53 327.00,334.65C326.99,336.77 326.12,339.93 325.05,341.69C323.98,343.44 322.30,345.29 321.30,345.80C320.31,346.30 318.15,346.94 316.50,347.20zM371.50,344.91C370.95,344.87 369.82,344.62 369.00,344.34C368.18,344.07 366.88,343.64 366.11,343.40C364.96,343.03 364.98,342.67 366.24,341.23C367.54,339.75 367.83,331.75 368.28,285.00C368.56,255.02 369.12,229.69 369.53,228.70C369.98,227.59 371.07,227.01 372.38,227.20C374.50,227.50 374.50,227.50 374.76,285.44C374.96,331.12 374.75,343.54 373.76,344.17C373.07,344.61 372.05,344.94 371.50,344.91zM511.00,342.69C512.12,342.53 512.69,340.44 513.23,334.49C513.64,330.09 514.41,322.49 514.95,317.60C515.49,312.70 515.68,308.29 515.37,307.78C515.06,307.28 509.78,304.47 503.65,301.53C497.52,298.59 490.31,295.25 487.62,294.10C484.94,292.94 482.44,292.00 482.07,292.00C481.69,292.00 481.55,299.99 481.76,309.75C481.96,319.51 482.59,328.72 483.17,330.21C484.04,332.49 486.20,333.70 496.85,337.91C503.81,340.66 510.18,342.81 511.00,342.69zM313.00,339.47C314.37,339.13 316.31,338.12 317.30,337.22C318.35,336.27 318.97,334.55 318.80,333.05C318.56,330.99 317.89,330.44 315.30,330.19C313.53,330.02 311.17,330.37 310.05,330.98C308.74,331.67 308.00,333.07 308.00,334.84C308.00,336.36 308.56,338.16 309.25,338.85C309.98,339.58 311.53,339.83 313.00,339.47zM457.57,340.00C458.36,340.00 459.91,339.09 461.02,337.98C462.63,336.37 462.83,335.55 461.99,333.98C461.30,332.70 459.89,332.00 458.00,332.00C456.13,332.00 454.70,332.70 454.04,333.93C453.47,335.00 453.00,336.09 453.00,336.36C453.00,336.63 453.71,337.56 454.57,338.43C455.44,339.29 456.79,340.00 457.57,340.00zM254.50,338.36C255.60,338.03 257.18,337.20 258.00,336.52C258.82,335.83 264.23,333.37 270.00,331.04C275.77,328.71 281.03,326.29 281.68,325.66C282.47,324.88 282.97,318.69 283.18,306.75C283.49,289.55 283.44,289.00 281.50,289.04C280.40,289.07 272.75,292.56 264.50,296.79C249.50,304.50 249.50,304.50 249.50,320.79C249.50,334.18 249.77,337.24 251.00,338.01C251.82,338.53 253.40,338.69 254.50,338.36zM392.60,330.98C389.24,330.98 386.00,330.64 385.40,330.23C384.79,329.83 383.78,328.52 383.15,327.32C382.52,326.11 382.00,322.66 382.00,319.64C382.00,315.98 382.52,313.62 383.57,312.57C384.65,311.49 387.02,311.00 391.14,311.00C394.43,311.00 398.00,311.46 399.06,312.03C400.11,312.60 401.66,314.38 402.50,316.00C403.66,318.25 403.81,319.91 403.10,323.04C402.59,325.30 401.40,328.01 400.44,329.07C399.07,330.58 397.36,331.00 392.60,330.98zM390.22,323.98C392.02,323.98 394.10,323.59 394.83,323.13C395.59,322.65 396.02,321.03 395.83,319.39C395.52,316.68 395.22,316.50 391.00,316.50C387.05,316.50 386.46,316.79 386.17,318.82C385.99,320.10 386.09,321.79 386.39,322.57C386.71,323.41 388.29,323.99 390.22,323.98zM457.15,318.87C454.04,318.80 448.86,318.40 445.63,317.99C442.41,317.58 439.36,316.62 438.86,315.87C438.36,315.12 438.24,311.80 438.58,308.50C438.93,305.20 439.91,301.71 440.76,300.75C441.61,299.79 443.62,299.00 445.21,299.00C446.81,299.00 451.35,299.52 455.31,300.15C459.26,300.78 463.06,301.74 463.75,302.27C464.44,302.81 465.00,305.37 465.00,307.97C465.00,310.57 464.51,314.12 463.90,315.85C462.84,318.91 462.64,319.00 457.15,318.87zM309.35,314.98C303.20,315.00 303.20,315.00 302.51,309.07C302.13,305.81 302.12,302.18 302.50,301.01C302.87,299.84 304.27,298.47 305.61,297.96C306.95,297.45 310.92,296.57 314.43,296.01C317.94,295.45 321.50,295.25 322.34,295.58C323.17,295.90 324.34,297.54 324.93,299.23C325.52,300.92 325.99,304.14 325.98,306.40C325.98,308.65 325.63,311.04 325.21,311.69C324.79,312.35 322.44,313.35 319.98,313.92C317.51,314.49 312.73,314.96 309.35,314.98zM455.23,312.83C457.40,312.96 458.09,312.47 458.61,310.43C458.96,309.01 458.86,307.47 458.38,307.01C457.89,306.54 454.86,305.68 451.63,305.09C448.41,304.51 445.37,304.27 444.88,304.57C444.40,304.87 444.00,306.64 444.00,308.50C444.00,311.76 444.16,311.90 448.25,312.27C450.59,312.48 453.73,312.73 455.23,312.83zM314.74,307.81C318.18,307.53 318.50,307.25 318.50,304.50C318.50,301.78 318.16,301.47 314.91,301.20C312.84,301.03 310.89,301.45 310.28,302.20C309.62,303.01 309.56,304.37 310.11,305.81C310.84,307.75 311.58,308.07 314.74,307.81zM385.92,285.95C383.95,285.98 382.03,285.70 381.67,285.33C381.30,284.97 381.00,283.85 381.00,282.85C381.00,281.77 381.91,280.85 383.25,280.58C384.49,280.33 389.55,279.87 394.50,279.57C399.58,279.25 404.15,279.43 405.00,279.97C406.31,280.81 406.28,281.14 404.77,282.66C403.68,283.75 400.54,284.67 396.27,285.14C392.55,285.56 387.89,285.92 385.92,285.95zM473.25,281.92C474.68,281.98 475.00,281.14 475.00,277.30C475.00,274.72 474.53,267.41 473.95,261.05C473.37,254.70 472.50,248.51 472.00,247.30C471.50,246.10 464.67,240.87 456.80,235.68C448.93,230.49 440.64,225.31 438.37,224.16C434.23,222.08 434.23,222.08 433.62,225.15C433.28,226.84 433.27,232.79 433.59,238.36C433.91,243.94 434.36,249.11 434.60,249.86C434.94,250.96 435.32,250.98 436.52,249.98C437.34,249.30 438.29,247.01 438.63,244.89C438.97,242.77 439.78,240.32 440.43,239.43C441.44,238.04 442.22,237.98 445.95,238.99C448.33,239.63 453.93,241.89 458.39,244.01C462.85,246.13 467.48,248.79 468.69,249.91C469.95,251.10 471.14,253.78 471.52,256.29C471.88,258.67 472.02,261.94 471.83,263.55C471.62,265.44 470.85,266.61 469.66,266.83C468.65,267.02 463.93,265.97 459.16,264.49C454.40,263.01 447.12,260.18 443.00,258.20C438.88,256.22 435.16,254.43 434.75,254.22C434.34,254.01 434.00,257.93 434.00,262.94C434.00,271.41 434.16,272.11 436.25,273.05C437.49,273.61 445.93,275.81 455.00,277.95C464.07,280.09 472.29,281.87 473.25,281.92zM292.50,267.00C291.74,267.00 290.87,266.59 290.56,266.09C290.25,265.59 290.30,264.39 290.66,263.43C291.03,262.47 291.82,258.96 292.42,255.62C293.50,249.57 293.50,249.57 303.50,244.32C309.00,241.44 313.95,239.08 314.50,239.07C315.05,239.06 312.35,240.75 308.50,242.81C304.65,244.88 300.49,247.23 299.25,248.03C298.01,248.83 296.51,250.97 295.91,252.78C295.31,254.60 295.06,256.72 295.36,257.50C295.78,258.60 298.75,257.62 308.70,253.11C321.50,247.30 321.50,247.30 321.81,243.01C321.99,240.66 321.66,238.26 321.08,237.68C320.34,236.94 320.52,236.08 321.67,234.81C322.57,233.82 323.87,233.00 324.55,233.00C325.23,233.00 326.00,233.56 326.26,234.25C326.52,234.94 327.32,238.78 328.04,242.80C329.18,249.20 329.15,250.28 327.79,251.64C326.94,252.49 318.96,256.30 310.06,260.09C301.17,263.89 293.26,267.00 292.50,267.00zM464.19,257.95C464.57,257.98 465.15,257.57 465.48,257.04C465.80,256.51 465.18,255.18 464.09,254.09C463.00,253.00 458.34,250.29 453.73,248.06C449.12,245.82 445.05,244.00 444.68,244.00C444.30,244.00 444.00,245.32 444.00,246.94C444.00,248.56 444.54,250.22 445.21,250.63C445.87,251.04 450.26,252.85 454.96,254.64C459.66,256.44 463.81,257.93 464.19,257.95zM644.91,255.54C642.32,256.89 641.92,256.81 639.01,254.36C637.30,252.91 634.60,249.16 633.01,246.02C631.42,242.88 629.22,237.42 628.12,233.90C627.02,230.38 625.64,225.03 625.06,222.00C624.48,218.97 623.36,210.94 622.58,204.14C621.32,193.17 620.86,191.46 618.53,189.03C616.25,186.65 615.77,184.99 614.92,176.39C614.38,170.95 613.75,165.95 613.51,165.28C613.20,164.39 611.22,164.77 606.29,166.64C602.56,168.05 592.82,171.45 584.66,174.19C574.69,177.54 567.46,179.35 562.61,179.71C557.23,180.12 554.65,179.87 552.45,178.72C550.83,177.88 548.38,175.98 547.00,174.51C544.65,171.99 544.50,171.18 544.53,161.16C544.55,155.19 545.13,148.87 545.85,146.79C546.61,144.57 549.41,140.99 552.81,137.87C555.94,135.01 561.52,130.70 565.22,128.30C568.91,125.91 574.76,122.68 578.22,121.13C581.67,119.58 586.82,117.55 589.65,116.61C594.14,115.12 594.87,114.50 595.40,111.70C595.73,109.94 596.89,107.05 597.97,105.28C599.05,103.50 602.35,100.69 605.30,99.03C610.66,96.00 610.66,96.00 612.88,84.93C614.10,78.84 616.43,69.79 618.06,64.82C619.68,59.84 622.80,52.11 624.99,47.64C627.18,43.16 630.99,37.18 633.47,34.35C635.95,31.52 639.25,28.76 640.81,28.22C642.82,27.52 644.51,27.59 646.63,28.49C648.28,29.18 651.54,31.94 653.87,34.62C656.21,37.31 660.29,44.00 662.96,49.50C665.62,55.00 668.96,62.78 670.39,66.79C671.82,70.80 674.15,78.66 675.57,84.27C678.15,94.46 678.15,94.46 685.64,101.73C692.38,108.28 693.52,109.00 697.10,109.00C699.28,109.00 702.18,109.73 703.53,110.61C704.88,111.50 707.63,114.92 709.63,118.22C711.64,121.52 715.93,127.20 719.18,130.86C722.43,134.51 726.28,139.93 727.73,142.89C729.74,146.99 730.48,150.26 730.81,156.52C731.06,161.44 730.75,166.21 730.04,168.39C729.28,170.67 727.76,172.59 725.97,173.52C724.39,174.33 721.16,175.00 718.80,174.99C716.18,174.99 708.26,172.82 698.55,169.45C689.78,166.40 681.46,164.04 680.05,164.20C678.04,164.44 677.34,165.24 676.75,168.00C676.33,169.93 675.41,175.32 674.69,180.00C673.48,187.92 673.19,188.59 670.44,189.80C668.82,190.52 666.83,191.47 666.00,191.91C665.17,192.35 664.35,193.49 664.16,194.43C663.95,195.50 664.62,196.35 665.93,196.69C667.49,197.10 667.97,197.91 667.77,199.84C667.58,201.68 668.03,202.54 669.33,202.80C670.34,203.01 672.26,202.90 673.62,202.56C675.49,202.09 676.89,200.16 679.48,194.47C682.43,188.01 683.23,187.00 685.44,187.00C687.73,187.00 688.00,187.39 688.00,190.77C688.00,192.85 687.17,197.55 686.15,201.22C685.13,204.89 683.54,209.05 682.63,210.45C681.71,211.85 680.02,213.00 678.88,213.00C677.65,213.00 676.60,212.19 676.29,211.00C675.88,209.44 674.93,209.00 671.95,209.00C669.85,209.00 666.98,208.56 665.58,208.03C663.36,207.19 662.96,207.35 662.52,209.28C662.24,210.50 661.54,214.65 660.95,218.50C660.36,222.35 658.75,228.87 657.36,233.00C655.98,237.12 653.24,243.56 651.27,247.30C649.03,251.57 646.66,254.64 644.91,255.54zM395.00,253.19C391.43,253.45 387.49,253.48 386.25,253.26C385.01,253.04 383.49,251.92 382.87,250.76C382.20,249.51 381.97,246.25 382.30,242.63C382.68,238.47 383.40,236.18 384.62,235.29C385.69,234.50 389.35,234.00 393.97,234.00C399.22,234.00 402.24,234.48 403.78,235.56C405.71,236.91 406.00,238.01 406.00,244.08C406.00,250.40 405.79,251.13 403.75,251.88C402.51,252.34 398.57,252.92 395.00,253.19zM392.57,247.00C397.72,247.00 399.12,246.65 399.91,245.16C400.45,244.15 400.64,242.35 400.33,241.16C399.83,239.23 399.09,239.00 393.36,239.00C387.45,239.00 386.88,239.19 386.00,241.49C385.48,242.86 385.32,244.66 385.64,245.49C386.07,246.62 387.83,247.00 392.57,247.00zM639.57,244.76C639.88,244.45 639.57,237.74 638.90,229.85C638.22,221.96 637.23,214.94 636.71,214.25C636.18,213.56 634.46,213.00 632.88,213.00C630.29,213.00 630.00,213.33 630.01,216.25C630.02,218.04 630.69,222.31 631.50,225.74C632.31,229.18 634.33,234.98 636.00,238.65C637.66,242.32 639.27,245.07 639.57,244.76zM644.02,238.88C644.43,238.12 645.72,233.70 646.89,229.06C648.05,224.42 649.00,218.90 649.00,216.81C649.00,213.28 648.79,213.00 646.12,213.00C644.54,213.00 642.67,213.69 641.97,214.53C641.02,215.68 640.86,218.86 641.33,227.10C641.68,233.16 642.26,238.61 642.62,239.19C643.05,239.90 643.53,239.79 644.02,238.88zM125.36,235.36C124.74,235.63 123.31,235.21 122.19,234.42C121.08,233.64 119.46,230.86 118.61,228.25C117.75,225.64 116.61,220.35 116.08,216.50C115.54,212.65 114.82,206.46 114.47,202.75C114.13,199.04 113.49,196.00 113.07,196.00C112.64,196.00 111.51,200.84 110.54,206.75C109.58,212.66 107.87,220.32 106.75,223.76C105.63,227.20 103.67,231.14 102.40,232.51C101.13,233.88 99.60,235.00 99.00,235.00C98.40,235.00 96.90,233.99 95.67,232.75C94.43,231.51 91.30,225.65 88.71,219.72C86.11,213.78 82.44,204.33 80.55,198.72C78.66,193.10 76.40,185.91 75.53,182.75C73.98,177.14 73.86,177.00 70.42,177.00C68.48,177.00 63.66,176.27 59.70,175.38C53.78,174.04 51.88,173.09 49.00,170.06C47.08,168.03 43.81,163.03 41.73,158.94C39.66,154.85 37.98,150.15 37.99,148.50C38.00,146.85 38.80,144.33 39.76,142.90C40.72,141.46 42.67,139.21 44.09,137.90C45.52,136.58 51.82,129.93 58.09,123.13C64.37,116.32 71.35,109.48 73.62,107.92C77.32,105.37 77.80,104.56 78.41,99.79C78.78,96.88 80.67,87.97 82.61,80.00C84.55,72.03 87.68,61.63 89.56,56.90C91.44,52.16 94.67,45.25 96.74,41.52C98.81,37.80 102.33,32.78 104.57,30.38C107.46,27.27 109.43,26.00 111.37,26.00C112.87,26.00 115.41,26.68 117.02,27.51C118.62,28.34 121.69,31.60 123.83,34.76C125.97,37.92 129.17,43.36 130.93,46.86C132.70,50.36 135.91,57.75 138.06,63.28C140.21,68.81 143.38,78.32 145.10,84.41C146.82,90.51 148.62,96.24 149.09,97.14C149.57,98.04 152.41,100.17 155.41,101.86C158.42,103.56 162.74,106.87 165.03,109.22C167.32,111.58 171.27,116.20 173.80,119.50C176.34,122.80 181.48,128.99 185.21,133.26C191.01,139.88 192.00,141.56 191.99,144.76C191.99,146.82 191.53,150.17 190.96,152.20C190.25,154.76 188.24,157.35 184.47,160.57C181.46,163.14 179.00,165.78 179.00,166.44C179.00,167.10 177.42,169.49 175.48,171.75C172.65,175.05 170.93,176.09 166.73,176.99C163.85,177.60 158.85,178.42 155.61,178.80C151.92,179.24 149.44,180.06 148.97,181.00C148.56,181.82 146.12,189.03 143.55,197.00C140.97,204.97 137.17,215.40 135.09,220.16C133.01,224.92 130.23,230.17 128.90,231.84C127.58,233.50 125.99,235.09 125.36,235.36zM97.17,220.40C97.90,219.95 98.03,216.91 97.58,211.11C97.22,206.38 96.26,198.38 95.47,193.34C94.68,188.30 93.73,180.20 93.38,175.34C93.02,170.48 92.28,165.94 91.74,165.25C91.15,164.50 88.37,164.00 84.82,164.00C78.88,164.00 78.88,164.00 79.53,168.75C79.89,171.36 81.05,177.89 82.11,183.25C83.17,188.61 86.11,198.06 88.63,204.25C91.16,210.44 93.87,216.75 94.66,218.28C95.45,219.83 96.57,220.77 97.17,220.40zM125.00,219.40C125.54,218.86 127.73,213.93 129.86,208.45C131.99,202.98 134.50,195.83 135.45,192.56C136.39,189.29 138.03,182.09 139.08,176.56C140.14,171.03 141.00,166.10 141.00,165.61C141.00,165.12 138.48,164.98 135.39,165.30C132.31,165.62 129.66,166.02 129.49,166.19C129.33,166.36 128.69,172.35 128.07,179.50C127.45,186.65 126.29,197.00 125.51,202.50C124.72,208.00 124.06,214.28 124.04,216.45C124.01,219.07 124.33,220.07 125.00,219.40zM356.00,207.91C357.93,207.94 360.03,207.63 360.68,207.22C361.55,206.66 361.59,205.23 360.83,201.65C360.26,199.00 359.96,193.08 360.15,188.50C360.46,181.13 360.85,179.67 363.54,175.84C365.62,172.89 368.58,170.48 372.88,168.26C377.61,165.81 380.46,165.00 384.34,165.01C387.18,165.01 391.12,165.46 393.10,166.01C395.08,166.56 398.52,168.85 400.75,171.10C403.23,173.61 405.27,176.88 406.03,179.59C406.78,182.29 406.99,185.98 406.58,189.14C406.20,191.97 405.03,195.99 403.97,198.07C402.46,201.02 400.89,202.30 396.77,203.96C391.50,206.07 391.50,206.07 397.00,205.50C400.02,205.18 403.59,204.13 404.91,203.17C406.24,202.20 407.99,199.63 408.79,197.46C409.88,194.53 410.22,189.47 410.10,178.00C410.01,169.47 409.62,158.90 409.22,154.50C408.50,146.50 408.50,146.50 399.50,146.81C394.55,146.98 384.20,146.62 376.50,146.01C368.80,145.40 359.35,144.29 355.50,143.54C351.65,142.79 348.19,142.48 347.80,142.84C347.42,143.20 346.62,148.45 346.03,154.50C345.44,160.55 344.58,173.03 344.10,182.23C343.63,191.43 343.54,200.42 343.91,202.21C344.46,204.91 345.24,205.66 348.54,206.65C350.72,207.31 354.07,207.87 356.00,207.91zM633.16,208.00C636.08,208.00 636.08,208.00 635.79,200.25C635.50,192.50 635.50,192.50 631.16,192.19C626.83,191.88 626.83,191.88 627.54,198.69C627.92,202.43 628.69,206.06 629.24,206.75C629.79,207.44 631.56,208.00 633.16,208.00zM643.93,207.00C645.96,207.00 648.48,206.37 649.54,205.59C650.94,204.57 651.38,203.23 651.16,200.66C650.99,198.72 651.33,196.25 651.91,195.17C652.73,193.63 652.62,193.07 651.40,192.60C650.54,192.27 647.65,192.00 644.98,192.00C642.30,192.00 639.93,192.34 639.71,192.75C639.48,193.16 639.51,196.54 639.76,200.25C640.23,207.00 640.23,207.00 643.93,207.00zM381.36,205.93C389.40,205.88 391.03,205.64 389.25,204.78C388.01,204.18 387.00,203.06 387.00,202.29C387.00,201.52 388.80,197.91 391.00,194.26C393.20,190.61 395.00,186.59 395.00,185.31C395.00,184.04 394.54,183.00 393.97,183.00C393.40,183.00 390.06,185.45 386.53,188.44C383.01,191.43 378.48,194.32 376.48,194.88C374.15,195.52 371.93,195.54 370.35,194.94C368.36,194.19 368.00,193.55 368.55,191.75C368.92,190.51 370.26,188.13 371.52,186.45C372.77,184.77 376.10,181.01 378.90,178.10C381.71,175.19 384.00,172.35 384.00,171.77C384.00,171.14 382.43,170.95 379.93,171.28C377.69,171.58 374.16,172.95 372.08,174.33C370.01,175.70 367.57,178.39 366.66,180.31C365.75,182.23 365.00,185.62 365.00,187.85C365.00,190.08 365.49,194.29 366.08,197.20C366.70,200.21 368.04,203.25 369.19,204.25C370.85,205.68 373.08,205.99 381.36,205.93zM110.56,187.00C116.94,187.00 120.13,186.61 120.66,185.75C121.08,185.06 121.61,180.41 121.83,175.40C122.23,166.30 122.23,166.30 117.47,165.65C114.86,165.29 109.35,165.00 105.22,165.00C97.73,165.00 97.73,165.00 98.22,174.48C98.51,179.93 99.26,184.60 99.98,185.48C100.95,186.64 103.44,187.00 110.56,187.00zM639.00,185.60C645.88,185.31 652.84,184.68 654.48,184.22C656.96,183.51 657.58,182.69 658.14,179.43C658.51,177.27 658.96,172.12 659.15,168.00C659.50,160.50 659.50,160.50 645.00,160.19C637.02,160.03 628.14,160.17 625.25,160.52C620.00,161.14 620.00,161.14 620.06,168.32C620.09,172.27 620.43,177.29 620.82,179.48C621.31,182.26 622.27,183.86 624.01,184.79C625.88,185.79 629.64,185.99 639.00,185.60zM159.05,170.70C162.77,170.39 166.75,169.55 167.89,168.84C169.03,168.12 170.42,166.22 170.99,164.61C171.55,163.00 171.88,161.55 171.72,161.39C171.56,161.23 167.24,161.84 162.11,162.75C153.97,164.19 152.69,164.70 151.89,166.78C151.39,168.09 151.28,169.64 151.63,170.22C152.04,170.88 154.80,171.06 159.05,170.70zM552.76,171.00C552.96,171.00 557.94,168.94 563.81,166.42C569.69,163.90 581.02,159.38 589.00,156.37C596.98,153.36 607.77,150.06 613.00,149.03C618.23,148.01 626.10,146.62 630.50,145.96C634.90,145.29 645.46,144.46 653.96,144.12C669.42,143.50 669.42,143.50 670.23,139.57C670.69,137.35 670.65,135.25 670.14,134.74C669.65,134.25 662.55,133.37 654.37,132.78C643.36,132.00 637.20,132.03 630.65,132.89C625.79,133.54 617.91,135.35 613.15,136.92C608.39,138.50 599.33,142.13 593.00,145.00C586.67,147.86 577.45,151.99 572.50,154.17C567.55,156.35 561.02,159.07 558.00,160.20C554.98,161.34 551.94,162.71 551.25,163.26C550.56,163.80 550.00,165.22 550.00,166.42C550.00,167.62 550.54,169.14 551.20,169.80C551.86,170.46 552.56,171.00 552.76,171.00zM67.99,168.64C71.34,168.54 72.56,168.07 72.80,166.82C72.98,165.89 72.30,164.70 71.30,164.16C70.31,163.63 65.33,162.47 60.24,161.60C55.16,160.72 50.77,160.00 50.50,160.00C50.22,160.00 50.00,160.63 50.00,161.39C50.00,162.15 50.84,163.81 51.86,165.08C53.13,166.64 55.29,167.60 58.61,168.08C61.30,168.46 65.52,168.71 67.99,168.64zM718.50,164.66C719.05,164.49 719.64,163.22 719.80,161.84C719.97,160.41 719.38,158.72 718.42,157.91C717.50,157.14 712.42,154.16 707.12,151.31C701.83,148.45 693.29,144.04 688.15,141.50C683.00,138.96 677.83,137.03 676.65,137.19C675.04,137.42 674.42,138.31 674.19,140.70C674.02,142.47 674.35,144.79 674.93,145.86C675.52,146.98 679.09,148.98 683.24,150.53C687.23,152.02 692.98,154.26 696.00,155.51C699.02,156.76 705.10,159.40 709.50,161.38C713.90,163.35 717.95,164.83 718.50,164.66zM551.10,160.00C551.70,160.00 553.49,159.24 555.07,158.30C556.65,157.37 558.41,155.27 558.97,153.65C559.54,152.03 560.00,148.29 560.00,145.35C560.00,142.41 559.64,140.00 559.20,140.00C558.75,140.00 556.95,141.49 555.18,143.31C553.41,145.14 551.52,148.17 550.98,150.06C550.44,151.94 550.00,154.95 550.00,156.74C550.00,158.53 550.49,160.00 551.10,160.00zM109.50,156.47C126.87,156.27 143.91,155.52 152.00,154.60C159.43,153.75 167.91,152.60 170.85,152.04C173.80,151.47 177.96,150.03 180.10,148.82C182.25,147.62 184.00,146.03 184.00,145.28C184.00,144.54 183.41,143.71 182.70,143.44C181.98,143.16 172.42,144.27 161.45,145.91C150.48,147.54 134.75,149.18 126.50,149.55C117.83,149.94 104.11,149.73 94.00,149.06C84.38,148.43 71.03,147.25 64.34,146.45C57.65,145.65 50.61,145.00 48.71,145.00C46.80,145.00 44.76,145.59 44.16,146.30C43.57,147.02 43.34,148.57 43.65,149.76C43.99,151.05 45.47,152.31 47.36,152.90C49.08,153.44 55.45,154.36 61.50,154.95C67.55,155.54 74.30,156.20 76.50,156.41C78.70,156.62 93.55,156.65 109.50,156.47zM565.68,152.00C566.06,152.00 568.27,151.08 570.59,149.96C574.80,147.92 574.81,147.91 575.50,141.04C575.88,137.26 575.89,133.23 575.53,132.08C575.16,130.94 574.39,130.00 573.80,130.00C573.22,130.00 571.24,130.92 569.42,132.05C567.60,133.18 565.88,134.86 565.60,135.80C565.32,136.73 565.04,140.20 564.97,143.50C564.89,146.80 564.87,150.06 564.92,150.75C564.96,151.44 565.31,152.00 565.68,152.00zM718.83,146.89C719.01,146.42 718.03,143.67 716.66,140.77C714.17,135.50 714.17,135.50 714.08,140.60C714.01,144.96 714.33,145.84 716.25,146.71C717.49,147.28 718.65,147.35 718.83,146.89zM105.08,144.82C111.99,144.92 122.42,144.52 128.25,143.93C134.08,143.35 140.12,142.53 141.68,142.11C143.96,141.50 144.50,140.80 144.50,138.43C144.50,135.65 144.32,135.53 141.00,136.00C139.07,136.28 129.18,136.45 119.00,136.40C106.75,136.33 97.15,135.73 90.58,134.62C82.59,133.27 80.50,133.19 79.84,134.22C79.40,134.92 79.02,136.91 79.02,138.63C79.01,140.35 79.58,142.23 80.28,142.82C80.98,143.40 84.02,144.05 87.03,144.26C90.04,144.46 98.16,144.71 105.08,144.82zM585.67,142.94C587.03,142.42 589.12,141.48 590.32,140.85C591.52,140.22 592.83,139.21 593.23,138.60C593.64,138.00 593.98,134.77 593.98,131.44C593.99,127.96 593.44,124.61 592.67,123.57C591.40,121.82 591.17,121.83 586.67,123.82C582.00,125.89 582.00,125.89 582.00,134.28C582.00,138.89 582.27,142.94 582.60,143.27C582.93,143.60 584.31,143.45 585.67,142.94zM69.75,142.85C72.49,142.98 73.01,142.65 73.03,140.75C73.05,139.51 73.69,133.32 74.44,127.00C75.20,120.63 75.44,115.10 74.97,114.61C74.48,114.09 72.49,115.57 70.31,118.07C68.21,120.47 63.24,125.90 59.25,130.15C55.26,134.40 52.00,138.55 52.00,139.38C52.00,140.39 53.38,141.06 56.25,141.43C58.59,141.74 61.85,142.15 63.50,142.34C65.15,142.54 67.96,142.77 69.75,142.85zM155.27,141.00C155.81,141.00 160.58,140.28 165.88,139.39C171.17,138.50 175.89,137.42 176.36,136.98C176.84,136.54 175.26,134.94 172.86,133.43C170.46,131.92 165.35,128.62 161.50,126.09C157.65,123.57 154.16,121.35 153.75,121.17C153.34,120.98 153.00,122.60 153.00,124.77C153.00,126.94 153.29,131.47 153.64,134.85C154.00,138.23 154.73,141.00 155.27,141.00zM383.00,140.46C392.07,140.22 401.25,139.73 403.39,139.36C407.27,138.69 407.27,138.69 406.62,130.20C406.26,125.53 405.72,120.72 405.41,119.50C404.87,117.33 404.42,117.26 386.18,116.73C374.49,116.39 364.57,115.55 359.67,114.50C355.37,113.58 351.65,113.02 351.41,113.26C351.17,113.49 350.22,118.72 349.30,124.87C347.84,134.60 347.81,136.23 349.06,137.48C349.85,138.27 354.10,139.36 358.50,139.90C362.90,140.44 373.93,140.69 383.00,140.46zM703.75,140.94C704.63,140.98 705.00,139.10 705.00,134.65C705.00,131.16 704.54,126.98 703.98,125.38C703.42,123.77 702.03,121.87 700.88,121.16C699.74,120.45 698.64,120.03 698.43,120.23C698.23,120.44 697.77,123.13 697.40,126.21C697.04,129.30 697.05,133.46 697.43,135.47C697.88,137.89 698.85,139.40 700.31,139.99C701.51,140.48 703.06,140.90 703.75,140.94zM602.95,136.00C603.91,136.00 605.38,135.21 606.21,134.25C607.33,132.97 607.89,129.13 608.30,120.00C608.61,113.12 609.17,106.71 609.54,105.75C610.04,104.45 609.71,104.00 608.28,104.00C607.22,104.00 605.36,105.05 604.15,106.34C602.94,107.63 601.51,110.21 600.98,112.08C600.44,113.96 600.00,119.39 600.00,124.16C600.00,128.93 600.27,133.55 600.61,134.42C600.94,135.29 602.00,136.00 602.95,136.00zM685.91,132.77C687.24,132.51 687.46,131.08 687.23,124.15C687.04,118.26 686.39,114.72 684.98,111.96C683.89,109.82 682.16,107.62 681.13,107.07C679.35,106.12 679.29,106.60 679.73,117.79C680.13,128.06 680.44,129.72 682.26,131.29C683.39,132.28 685.04,132.94 685.91,132.77zM106.43,130.85C114.65,130.93 125.33,130.49 130.17,129.87C135.01,129.25 139.59,128.24 140.34,127.62C141.49,126.68 141.40,124.22 139.77,112.00C138.70,104.03 137.08,94.12 136.16,90.00C134.50,82.50 134.50,82.50 119.93,82.23C111.91,82.08 101.90,81.36 97.68,80.62C91.35,79.52 89.81,79.52 88.92,80.60C88.32,81.32 86.68,87.44 85.29,94.21C83.51,102.79 82.71,109.97 82.62,118.00C82.50,129.50 82.50,129.50 87.00,130.10C89.47,130.43 98.22,130.77 106.43,130.85zM614.41,131.00C614.66,131.00 617.94,130.26 621.69,129.35C625.90,128.33 635.14,127.47 645.91,127.10C663.31,126.50 663.31,126.50 663.14,118.00C663.05,113.33 662.71,107.19 662.39,104.38C661.80,99.26 661.80,99.26 658.15,100.10C656.14,100.57 652.57,100.96 650.22,100.98C647.38,100.99 645.75,100.51 645.38,99.55C645.07,98.75 645.54,97.07 646.41,95.82C647.28,94.58 648.00,92.63 648.00,91.50C648.00,90.37 648.70,88.44 649.56,87.22C650.69,85.60 652.12,85.00 654.86,85.00C656.92,85.00 659.14,85.54 659.80,86.20C660.73,87.13 661.00,86.37 661.00,82.77C661.00,80.22 660.59,77.05 660.09,75.72C659.18,73.34 659.00,73.31 640.94,72.63C630.92,72.26 622.52,72.14 622.29,72.38C622.05,72.61 621.21,75.29 620.42,78.32C619.63,81.35 617.85,89.83 616.47,97.17C615.08,104.50 613.67,114.40 613.33,119.16C612.99,123.92 612.99,128.53 613.33,129.41C613.66,130.28 614.15,131.00 614.41,131.00zM165.25,122.93C165.66,122.97 166.00,122.60 166.00,122.11C166.00,121.62 164.50,119.03 162.66,116.36C160.83,113.69 157.82,110.48 155.98,109.23C154.12,107.97 152.26,107.34 151.78,107.82C151.31,108.29 151.39,109.88 151.96,111.40C152.53,112.90 154.43,115.34 156.17,116.81C157.92,118.29 160.50,120.25 161.92,121.18C163.34,122.10 164.84,122.89 165.25,122.93zM125.00,118.33C120.33,118.59 113.20,118.50 109.16,118.15C103.10,117.61 101.49,117.09 99.91,115.14C98.76,113.71 98.00,111.23 98.00,108.86C98.00,106.70 98.65,103.37 99.45,101.46C100.25,99.55 101.94,97.61 103.20,97.14C104.47,96.67 111.19,96.01 118.15,95.67C129.71,95.11 131.01,95.22 133.27,97.00C134.71,98.13 136.22,100.82 136.87,103.42C137.49,105.87 138.00,109.48 138.00,111.42C138.00,113.99 137.38,115.35 135.75,116.41C134.42,117.28 130.02,118.06 125.00,118.33zM113.23,113.00C117.03,113.00 121.00,112.53 122.07,111.96C123.52,111.18 124.00,109.86 124.00,106.57C124.00,103.52 123.53,102.03 122.42,101.61C121.55,101.27 117.81,101.00 114.12,101.00C110.23,101.00 106.90,101.50 106.20,102.20C105.54,102.86 105.00,105.26 105.00,107.53C105.00,109.81 105.30,111.97 105.67,112.33C106.03,112.70 109.44,113.00 113.23,113.00zM386.50,111.33C393.10,111.08 399.56,110.66 400.86,110.40C403.05,109.94 403.17,109.59 402.54,105.20C402.17,102.62 400.51,94.20 398.85,86.50C397.19,78.80 393.40,65.28 390.42,56.47C387.44,47.65 385.00,39.40 385.00,38.14C385.00,36.52 384.50,35.95 383.29,36.18C382.34,36.36 379.93,38.69 377.91,41.36C375.89,44.03 371.72,51.22 368.64,57.35C365.55,63.48 361.67,72.71 360.01,77.86C358.35,83.00 355.89,91.46 354.54,96.64C353.19,101.83 352.34,106.72 352.64,107.51C352.94,108.30 354.69,109.23 356.51,109.57C358.33,109.91 363.13,110.55 367.16,110.98C371.20,111.42 379.90,111.57 386.50,111.33zM630.48,102.00C628.57,102.00 626.58,101.20 625.48,99.98C623.70,98.02 623.71,97.81 625.57,93.33C626.63,90.79 628.22,88.26 629.10,87.71C629.97,87.16 631.87,87.00 633.32,87.37C634.77,87.73 636.62,89.26 637.43,90.76C638.92,93.50 638.92,93.50 638.96,89.08C638.98,86.65 639.17,84.85 639.37,85.08C639.57,85.31 639.97,88.54 640.25,92.25C640.54,95.96 640.37,99.00 639.88,99.00C639.40,99.00 638.96,97.99 638.92,96.75C638.87,95.28 638.65,95.02 638.29,96.00C637.99,96.83 636.82,98.51 635.70,99.75C634.40,101.18 632.50,102.00 630.48,102.00zM112.50,76.33C116.90,76.11 122.41,75.67 124.75,75.35C127.53,74.97 129.00,74.27 129.00,73.32C129.00,72.52 128.52,70.98 127.94,69.89C127.36,68.80 126.56,66.02 126.16,63.72C125.60,60.42 124.92,59.38 122.97,58.83C121.61,58.44 115.55,57.71 109.50,57.20C103.45,56.70 97.98,56.48 97.34,56.71C96.71,56.95 95.29,59.25 94.19,61.82C93.09,64.39 91.74,68.17 91.19,70.20C90.46,72.92 90.51,74.17 91.38,74.90C92.03,75.44 95.25,76.08 98.53,76.31C101.82,76.54 108.10,76.55 112.50,76.33zM638.50,67.84C643.45,67.48 649.92,67.15 652.88,67.09C658.26,67.00 658.26,67.00 657.67,63.34C657.34,61.32 654.45,54.46 651.26,48.09C646.67,38.95 644.96,36.43 643.16,36.17C641.58,35.95 639.83,36.96 637.46,39.48C635.58,41.47 632.00,47.24 629.51,52.30C627.02,57.36 624.71,62.93 624.38,64.67C623.83,67.59 624.01,67.87 626.64,68.17C628.21,68.35 633.55,68.20 638.50,67.84zM104.88,52.00C108.19,52.00 113.17,51.51 115.95,50.92C118.73,50.32 121.00,49.63 121.00,49.37C121.00,49.11 119.16,45.55 116.91,41.45C114.66,37.35 112.25,34.00 111.54,34.00C110.84,34.00 109.18,34.86 107.84,35.91C106.51,36.96 104.25,40.00 102.82,42.66C101.39,45.32 99.92,48.51 99.55,49.75C98.89,51.91 99.11,52.00 104.88,52.00z"/>
</svg>